<?xml version="1.0" encoding="UTF-8" standalone="no"?>
<svg width="400px" height="400px" viewBox="0 0 400 400" version="1.1" xmlns="http://www.w3.org/2000/svg" xmlns:xlink="http://www.w3.org/1999/xlink" xmlns:sketch="http://www.bohemiancoding.com/sketch/ns">
    <!-- Generator: Sketch 3.3.3 (12072) - http://www.bohemiancoding.com/sketch -->
    <title>icon__live-text--1</title>
    <desc>Created with Sketch.</desc>
    <defs></defs>
    <g id="Page-1" stroke="none" stroke-width="1" fill="none" fill-rule="evenodd" sketch:type="MSPage">
        <g id="icon__live-text--1" sketch:type="MSArtboardGroup">
            <rect id="background" stroke="#FFFFFF" stroke-width="2" sketch:type="MSShapeGroup" x="10" y="10" width="380" height="380" rx="60"></rect>
            <path d="M198.497208,354 C114.40991,354 46,307.616884 46,250.604781 C46,193.592679 114.40991,147.209563 198.497208,147.209563 C203.365685,147.209563 208.390489,147.381183 213.448791,147.709167 L215.771367,147.865532 L216.402259,146.328581 C236.356313,97.7563595 248.28743,72.4824813 254.66893,60 C251.709879,100.521345 245.987186,130.806522 241.503945,149.650378 L241.113127,151.294115 L243.446869,151.778464 C307.781105,165.214389 351,204.927214 351,250.604781 C351,307.616884 282.59009,354 198.497208,354" id="word-balloon" stroke="#FFFFFF" stroke-width="2" fill="#6F6E6E" sketch:type="MSShapeGroup" transform="translate(198.500000, 207.000000) scale(1, -1) translate(-198.500000, -207.000000) "></path>
            <path d="M136.87,149.768 C136.974,148.364 136.142,147.532 133.386,147.272 C130.734,147.064 129.694,150.6 129.122,152.836 C127.406,159.492 127.458,165.316 123.35,173.636 C122.466,170.36 121.218,166.668 119.866,163.652 C118.358,160.376 117.63,155.072 116.85,151.224 C116.122,147.428 115.498,146.908 112.482,147.48 C110.402,147.896 109.466,151.588 108.738,153.72 C107.334,157.464 105.878,161.676 104.89,165.42 C103.954,168.956 103.07,171.556 101.198,174.572 C98.494,166.928 98.494,158.868 96.518,152.212 C95.946,150.08 94.698,148.364 92.618,148.104 C90.902,147.948 89.81,149.82 89.394,150.392 C88.094,152.108 90.33,155.124 91.006,157.724 C92.514,163.34 93.606,169.944 94.802,175.82 C95.374,178.524 95.842,181.072 96.258,183.828 C96.934,187.832 100.366,187.884 102.498,186.48 C104.266,185.284 104.422,182.632 105.046,181.332 C107.334,176.444 109.414,167.24 111.962,163.184 C115.03,169.008 117.058,175.924 118.514,182.32 C119.762,187.728 124.806,188.924 126.054,185.596 C127.51,181.644 128.186,179.2 129.226,175.092 C130.578,170.1 132.762,162.3 134.01,157.464 C135.258,152.836 136.714,151.952 136.87,149.768 L136.87,149.768 Z M181.486,171.088 C183.15,163.288 181.694,157.152 177.378,152.16 C169.994,143.632 152.47,144.412 145.086,151.276 C139.626,156.372 136.714,165.628 138.43,172.076 C139.782,177.276 141.082,178.68 144.462,182.268 C150.182,188.196 158.658,189.6 166.666,186.792 C173.894,184.192 179.718,179.408 181.486,171.088 L181.486,171.088 Z M173.738,173.48 C172.334,176.964 170.722,178.264 167.082,180.136 C164.534,181.384 161.206,180.916 158.19,180.604 C153.094,179.98 148.05,175.664 146.646,173.168 C143.422,167.448 144.826,162.352 146.802,159.024 C148.986,155.28 150.286,154.188 153.614,153.2 C158.606,151.64 166.614,153.356 170.722,156.996 C175.87,161.572 176.286,166.98 173.738,173.48 L173.738,173.48 Z M220.954,184.66 C221.474,182.892 220.07,180.396 218.354,179.46 C215.546,178.004 211.178,174.104 208.786,171.608 C213.674,169.164 217.73,165.888 219.446,160.012 C221.162,154.188 214.922,147.74 208.734,147.116 C202.858,146.544 198.074,147.012 193.342,146.648 C189.858,146.388 186.166,146.336 184.97,148.624 C183.93,150.6 184.97,152.628 186.634,153.72 C186.842,159.544 188.298,174.156 186.582,181.332 C185.386,186.22 188.818,187.416 190.43,187.156 C192.51,186.844 193.238,184.4 193.186,182.008 C193.186,179.72 193.03,176.184 193.342,174.312 C194.954,174.364 198.282,174.468 200.83,175.196 C204.054,176.132 205.458,178.94 207.434,180.24 C209.826,181.696 211.49,184.036 213.622,185.648 C216.014,187.468 220.33,187.052 220.954,184.66 L220.954,184.66 Z M212.166,158.868 C213.05,161.572 208.11,165.732 204.522,167.24 C202.026,167.552 197.71,167.24 193.03,166.98 C192.458,163.652 192.458,156.424 193.186,153.616 C197.71,153.148 204.054,153.304 208.89,155.176 C210.554,155.8 211.698,157.412 212.166,158.868 L212.166,158.868 Z M262.346,158.972 C261.878,154.812 259.122,151.38 256.418,150.184 C247.11,145.92 235.462,145.296 226.05,148.26 C224.126,148.884 223.814,153.512 226.31,154.552 C227.246,163.548 227.35,175.456 227.35,180.604 C225.322,183.62 227.298,187.208 230.418,187.364 C239.466,187.78 250.542,184.868 257.822,176.6 C261.618,172.284 263.178,165.94 262.346,158.972 L262.346,158.972 Z M255.846,168.54 C252.102,177.64 241.962,179.876 233.122,178.68 C233.122,170.152 232.134,163.496 232.654,154.448 C238.062,153.98 247.006,153.72 252.986,157.776 C256.782,160.376 257.562,164.224 255.846,168.54 L255.846,168.54 Z M298.486,178.524 C300.098,175.82 299.11,170.776 295.938,168.124 C289.594,162.82 282.834,163.6 275.606,159.024 C273.942,157.984 273.578,156.424 275.294,154.968 C279.194,151.692 285.746,152.056 289.906,154.292 C291.466,155.072 293.234,156.58 294.794,156.996 C296.874,157.568 297.394,151.432 295.886,149.872 C290.27,143.788 278.154,145.348 272.694,149.872 C268.846,153.044 266.61,160.168 271.082,164.484 C274.67,167.916 282.158,169.736 287.67,171.556 C290.166,172.388 293.078,174.572 292.87,177.276 C292.558,181.124 288.346,181.852 284.498,181.852 C279.61,181.852 275.658,178.004 272.434,175.352 C269.834,173.22 267.39,177.692 267.858,179.304 C269.106,183.88 273.266,186.012 277.946,187.26 C282.21,188.404 286.474,188.144 290.218,186.792 C294.43,185.284 296.354,182.164 298.486,178.524 L298.486,178.524 Z M312.006,178.992 C311.434,177.276 308.782,175.924 307.014,177.016 C305.662,177.796 305.038,179.408 304.726,181.28 C304.362,183.36 305.298,187 308.418,186.688 C311.486,186.376 312.994,182.372 312.006,178.992 L312.006,178.992 Z" id="Words." fill="#FFFFFF" sketch:type="MSShapeGroup"></path>
        </g>
    </g>
</svg>