<?xml version="1.0" encoding="UTF-8" standalone="no"?>
<svg width="300px" height="235px" viewBox="0 0 300 235" version="1.1" xmlns="http://www.w3.org/2000/svg" xmlns:xlink="http://www.w3.org/1999/xlink" xmlns:sketch="http://www.bohemiancoding.com/sketch/ns">
    <!-- Generator: Sketch 3.3.3 (12072) - http://www.bohemiancoding.com/sketch -->
    <title>page03__panel01--dialogue-driver</title>
    <desc>Created with Sketch.</desc>
    <defs></defs>
    <g id="Page-1" stroke="none" stroke-width="1" fill="none" fill-rule="evenodd" sketch:type="MSPage">
        <g id="page03__panel01--dialogue-driver" sketch:type="MSArtboardGroup">
            <path d="M23.3483191,49.9624831 C9.12476342,44.833934 0,36.9021188 0,28 C0,12.536027 27.5344879,0 61.5,0 C86.4664709,0 107.958235,6.7732624 117.594006,16.5039167 L117.594006,16.5039167 C135.305133,12.3620639 155.739998,10 177.5,10 C245.154882,10 300,32.8334778 300,61 C300,89.1665222 245.154882,112 177.5,112 C109.845118,112 55,89.1665222 55,61 C55,59.2696208 55.2069923,57.5593691 55.6112277,55.8733025 C47.4820186,55.5217105 39.8140027,54.4496656 32.9186353,52.7989685 C25.1892336,65.0345512 -10.4046449,129.939413 28.4179687,235 C-16.8152142,134.114952 17.307941,61.4405101 23.3483191,49.9624831 Z" id="balloon" stroke="#000000" fill="#FFFFFF" sketch:type="MSShapeGroup"></path>
            <text id="I-want-ask--you-some" sketch:type="MSTextLayer" font-family="CCSoliloquous" font-size="12" font-weight="normal" sketch:alignment="middle" line-spacing="14" fill="#000000">
                <tspan x="27.234" y="22">I want ask </tspan>
                <tspan x="10.314" y="36">you something. </tspan>
            </text>
            <text id="All-that-money--you-" sketch:type="MSTextLayer" font-family="CCSoliloquous" font-size="12" font-weight="normal" sketch:alignment="middle" line-spacing="14" fill="#000000">
                <tspan x="128.658" y="35.948">All that money </tspan>
                <tspan x="77.196" y="49.948">you spending for that rocket </tspan>
                <tspan x="69.3" y="63.948">by the beach. You don't think it </tspan>
                <tspan x="80.376" y="77.948">better spent on new roads? </tspan>
                <tspan x="118.158" y="91.948">Or more schools?</tspan>
            </text>
        </g>
    </g>
</svg>