<?xml version="1.0" encoding="UTF-8" standalone="no"?>
<svg width="300px" height="162px" viewBox="0 0 300 162" version="1.1" xmlns="http://www.w3.org/2000/svg" xmlns:xlink="http://www.w3.org/1999/xlink" xmlns:sketch="http://www.bohemiancoding.com/sketch/ns">
    <!-- Generator: Sketch 3.3.3 (12072) - http://www.bohemiancoding.com/sketch -->
    <title>page02__panel01--dialogue-joanie-1</title>
    <desc>Created with Sketch.</desc>
    <defs></defs>
    <g id="Page-1" stroke="none" stroke-width="1" fill="none" fill-rule="evenodd" sketch:type="MSPage">
        <g id="page02__panel01--dialogue-joanie-1" sketch:type="MSArtboardGroup">
            <path d="M32.7050398,59.7208543 C38.8138655,61.1903225 45.496799,62 52.5,62 C54.2346663,62 55.9496832,61.9503235 57.6411929,61.8532484 L57.6411929,61.8532484 C57.2173146,63.7088987 57,65.592795 57,67.5 C57,97.0472341 109.158827,121 173.5,121 C237.841173,121 290,97.0472341 290,67.5 C290,37.9527659 237.841173,14 173.5,14 C147.398875,14 123.302551,17.9418145 103.879835,24.5998558 C98.8853612,10.549802 77.7791646,0 52.5,0 C23.5050506,0 0,13.8791728 0,31 C0,42.866125 11.2909254,53.1750834 27.8749974,58.3853297 C17.4992594,100.792741 31.244913,162 31.244913,162 C31.244913,162 22.3267018,93.1546603 32.7050448,59.7208553 Z" id="balloon" stroke="#000000" fill="#FFFFFF" sketch:type="MSShapeGroup"></path>
            <text id="You-always-leaving." sketch:type="MSTextLayer" font-family="CCSoliloquous" font-size="12" font-weight="normal" sketch:alignment="middle" line-spacing="14" fill="#000000">
                <tspan x="13.9" y="26.948">You always </tspan>
                <tspan x="26.716" y="40.948">leaving.</tspan>
            </text>
            <text id="Remember-when-you--u" sketch:type="MSTextLayer" font-family="CCSoliloquous" font-size="12" font-weight="normal" sketch:alignment="middle" line-spacing="14" fill="#000000">
                <tspan x="103.778" y="42">Remember when you </tspan>
                <tspan x="87.92" y="56">used to make them kites </tspan>
                <tspan x="71.642" y="70">out of plastic bags and twigs </tspan>
                <tspan x="81.47" y="84">and tell me you were going </tspan>
                <tspan x="109.466" y="98">fly away from me?</tspan>
            </text>
        </g>
    </g>
</svg>