<svg class="ray wait" width="300px" height="132px" viewBox="0 0 300 132">
    <path d="M258.19138,87.6913613 C283.497798,80.4332023 300,68.5269926 300,55.0700104 C300,34.6835398 262.12692,17.8561418 213.145322,15.356519 C215.016752,12.9909746 216,10.5406499 216,8.03036597 C216,-11.8686557 154.215295,-28 78,-28 C1.78470453,-28 -60,-11.8686557 -60,8.03036597 C-60,27.9293876 1.78470453,44.0607319 78,44.0607319 C87.3561397,44.0607319 96.4948125,43.8176349 105.328415,43.3543132 L105.32842,43.3543065 C102.514122,47.059866 101,50.9937944 101,55.0700104 C101,77.1800345 145.547667,95.1037504 200.5,95.1037504 C217.355441,95.1037504 233.231988,93.4174457 247.14435,90.4412666 C249.367064,97.3856257 253.392897,113.968937 248.521853,132 C257.144149,111.942081 258.195346,94.8698716 258.19138,87.6913613 Z"></path>
    <text>
        <tspan x="10.76" y="15.448">Why wait for </tspan>
        <tspan x="106.172" y="15.448" font-weight="bold">other</tspan>
        <tspan x="146.132" y="15.448"> nations </tspan>
        <tspan x="7.79" y="29.448">to patent technology </tspan>
        <tspan x="164.306" y="29.448" font-weight="bold">first</tspan>
        <tspan x="197.522" y="29.448">?</tspan>
    </text>
    <text>
        <tspan x="125.82" y="47.448">Good things come to </tspan>
        <tspan x="114.006" y="61.448">those who </tspan>
        <tspan x="192.066" y="61.448" font-weight="bold">research and </tspan>
        <tspan x="152.4" y="75.448" font-weight="bold">invent</tspan>
        <tspan x="196.992" y="75.448"> things.</tspan>
    </text>
</svg>