<?xml version="1.0" encoding="UTF-8" standalone="no"?>
<svg width="140px" height="216px" viewBox="0 0 140 216" version="1.1" xmlns="http://www.w3.org/2000/svg" xmlns:xlink="http://www.w3.org/1999/xlink" xmlns:sketch="http://www.bohemiancoding.com/sketch/ns">
    <!-- Generator: Sketch 3.3.3 (12072) - http://www.bohemiancoding.com/sketch -->
    <title>page01__panel06--dialogue-ray</title>
    <desc>Created with Sketch.</desc>
    <defs></defs>
    <g id="Page-1" stroke="none" stroke-width="1" fill="none" fill-rule="evenodd" sketch:type="MSPage">
        <g id="page01__panel06--dialogue-ray" sketch:type="MSArtboardGroup">
            <path d="M110.135794,17.525837 C128.194049,22.5820404 140,30.9576796 140,40.4346331 C140,48.4036318 131.65222,55.5939106 118.258707,60.6866347 C128.511222,64.8940823 135.483871,73.1741177 135.483871,82.7005344 C135.483871,93.7794709 126.053369,103.172678 113.000803,106.43477 L113.000803,106.43477 C114.744081,112.485956 116.906984,123.194074 115.544497,136.157275 C114.107809,149.826448 109.309815,160.689019 106.325425,166.331695 C119.008631,171.457813 127.112753,179.27913 127.112753,188.04206 C127.112753,203.482804 101.950835,216 70.9120361,216 C39.8732373,216 14.7113193,203.482804 14.7113193,188.04206 C14.7113193,172.601316 39.8732373,160.084119 70.9120361,160.084119 C81.7003384,160.084119 91.7786654,161.596299 100.337241,164.217823 C103.238756,158.672677 107.12573,149.049059 108.557891,135.422953 C109.888627,122.761848 108.394885,113.353229 106.800059,107.483383 C105.510799,107.601963 104.198402,107.662981 102.867384,107.662981 C84.8537949,107.662981 70.2508961,96.486913 70.2508961,82.7005344 C70.2508961,77.3297448 72.4671266,72.355113 76.2378596,68.2830806 L76.2378596,68.2830806 C74.1827917,68.3555616 72.1022178,68.3925734 70,68.3925734 C31.3400675,68.3925734 0,55.8753772 0,40.4346331 C0,24.993889 31.3400675,12.4766927 70,12.4766927 C82.4582226,12.4766927 94.1563062,13.7765542 104.290425,16.0552299 L118.248559,0 L110.135794,17.525837 Z" id="balloon" stroke="#000000" fill="#FFFFFF" sketch:type="MSShapeGroup"></path>
            <text id="But-we-need--their-m" sketch:type="MSTextLayer" font-family="CCSoliloquous" font-size="12" font-weight="normal" sketch:alignment="middle" line-spacing="14" fill="#000000">
                <tspan x="27.916" y="35">But we need </tspan>
                <tspan x="14.05" y="49">their </tspan>
                <tspan x="52.174" y="49" font-weight="bold">money</tspan>
                <tspan x="99.394" y="49">, sis.</tspan>
            </text>
            <text id="For-now.-" sketch:type="MSTextLayer" font-family="CCSoliloquous" font-size="12" font-weight="normal" sketch:alignment="middle" line-spacing="14" fill="#000000">
                <tspan x="90.5279999" y="78">For </tspan>
                <tspan x="86.5259999" y="92">now. </tspan>
            </text>
            <text id="So-let's--just-do-it" sketch:type="MSTextLayer" font-family="CCSoliloquous" font-size="12" font-weight="normal" sketch:alignment="middle" line-spacing="14" fill="#000000">
                <tspan x="45.152" y="182">So let's </tspan>
                <tspan x="37.364" y="196">just </tspan>
                <tspan x="68.672" y="196" font-weight="bold">do</tspan>
                <tspan x="87.356" y="196"> it.</tspan>
            </text>
        </g>
    </g>
</svg>