<?xml version="1.0" encoding="UTF-8" standalone="no"?>
<svg width="352px" height="159px" viewBox="0 0 352 159" version="1.1" xmlns="http://www.w3.org/2000/svg" xmlns:xlink="http://www.w3.org/1999/xlink" xmlns:sketch="http://www.bohemiancoding.com/sketch/ns">
    <!-- Generator: Sketch 3.3.3 (12072) - http://www.bohemiancoding.com/sketch -->
    <title>page01__panel03--dialogue-ray-2</title>
    <desc>Created with Sketch.</desc>
    <defs></defs>
    <g id="Page-1" stroke="none" stroke-width="1" fill="none" fill-rule="evenodd" sketch:type="MSPage">
        <g id="page01__panel03--dialogue-ray-2" sketch:type="MSArtboardGroup">
            <path d="M118.634049,20.2999486 C107.825744,17.4550858 95.72596,15.8624776 82.9517727,15.8624776 C37.1387737,15.8624776 0,36.3467159 0,61.6153045 C0,86.883893 37.1387737,107.368131 82.9517727,107.368131 C112.336818,107.368131 138.153196,98.9407025 152.889571,86.2287927 L152.889571,86.2287927 L173.640739,106.97996 C168.660595,112.50074 165.903545,118.580314 165.903545,124.965372 C165.903545,139.027077 179.275372,151.607161 200.315748,160 C200.315747,159.999998 353,159.999998 353,159.999998 C353,159.999998 353,109.312999 352.999996,109.312999 C339.524332,91.7527227 304.022883,79.2125456 262.347474,79.2125456 C226.58584,79.2125456 195.370304,88.4463065 178.716806,102.162284 L157.854744,81.3002225 C163.014781,75.3377797 165.903545,68.6626126 165.903545,61.6153045 C165.903545,45.1151127 150.067615,30.6549623 126.321285,22.6062537 L139.689994,0 L118.634049,20.2999486 Z" id="balloon" stroke="#000000" fill="#FFFFFF" sketch:type="MSShapeGroup"></path>
            <text id="They-say--it-would-b" sketch:type="MSTextLayer" font-family="CCSoliloquous" font-size="12" font-weight="normal" sketch:alignment="middle" line-spacing="14" fill="#000000">
                <tspan x="231.206" y="105">They say </tspan>
                <tspan x="183.422" y="119">it would be a </tspan>
                <tspan x="279.602" y="119" font-weight="bold">disaster</tspan>
                <tspan x="339.578" y="119"> </tspan>
                <tspan x="192.458" y="133">for a helmet to not </tspan>
                <tspan x="215.558" y="147">seal properly.</tspan>
            </text>
            <text id="The-companies-sponso" sketch:type="MSTextLayer" font-family="CCSoliloquous" font-size="12" font-weight="normal" sketch:alignment="middle" line-spacing="14" fill="#000000">
                <tspan x="29.982" y="45">The </tspan>
                <tspan x="58.746" y="45" font-weight="bold">companies</tspan>
                <tspan x="135.018" y="45"> </tspan>
                <tspan x="30.144" y="59">sponsoring the </tspan>
                <tspan x="17.718" y="73" font-weight="bold">rocket-plane</tspan>
                <tspan x="107.334" y="73"> want </tspan>
                <tspan x="49.338" y="87">them cut.</tspan>
            </text>
        </g>
    </g>
</svg>