<?xml version="1.0" encoding="UTF-8" standalone="no"?>
<svg width="185px" height="84px" viewBox="0 0 185 84" version="1.1" xmlns="http://www.w3.org/2000/svg" xmlns:xlink="http://www.w3.org/1999/xlink" xmlns:sketch="http://www.bohemiancoding.com/sketch/ns">
    <!-- Generator: Sketch 3.3.3 (12072) - http://www.bohemiancoding.com/sketch -->
    <title>_dialogue__narrator--1</title>
    <desc>Created with Sketch.</desc>
    <defs></defs>
    <g id="Page-1" stroke="none" stroke-width="1" fill="none" fill-rule="evenodd" sketch:type="MSPage">
        <g id="_dialogue__narrator--1" sketch:type="MSArtboardGroup">
            <path d="M145.49018,29.1214038 C167.071187,34.6017157 181,43.2586498 181,53 C181,69.5685425 140.705627,83 91,83 C41.2943725,83 1,69.5685425 1,53 C1,36.4314575 41.2943725,23 91,23 C107.293179,23 122.575132,24.4431905 135.758127,26.9669942 C149.726887,14.753199 163.772052,6.04955424 173.1685,0.866249083 C160.274443,10.9534905 151.332943,21.1623321 145.49018,29.1214038 Z" id="Oval-1" stroke="#000000" fill="#FFFFFF" sketch:type="MSShapeGroup"></path>
            <text id="...and-use-SVG-when-" sketch:type="MSTextLayer" font-family="CCMonologous" font-size="10" font-weight="normal" sketch:alignment="middle" fill="#000000">
                <tspan x="30.515" y="46">...and use </tspan>
                <tspan x="91.135" y="46" font-style="italic" font-weight="bold">SVG</tspan>
                <tspan x="115.555" y="46"> when </tspan>
                <tspan x="10.43" y="57">you need more </tspan>
                <tspan x="107.4" y="57" font-style="italic" font-weight="bold">control</tspan>
                <tspan x="171.57" y="57"> </tspan>
                <tspan x="44.78" y="68">over </tspan>
                <tspan x="79.2" y="68" font-style="italic" font-weight="bold">visuals</tspan>
                <tspan x="134.69" y="68">.</tspan>
            </text>
        </g>
    </g>
</svg>