<?xml version="1.0" encoding="UTF-8" standalone="no"?>
<svg width="160px" height="50px" viewBox="0 0 160 50" version="1.1" xmlns="http://www.w3.org/2000/svg" xmlns:xlink="http://www.w3.org/1999/xlink" xmlns:sketch="http://www.bohemiancoding.com/sketch/ns">
    <!-- Generator: Sketch 3.3.3 (12072) - http://www.bohemiancoding.com/sketch -->
    <title>_dialogue__asterios-polyp--3</title>
    <desc>Created with Sketch.</desc>
    <defs></defs>
    <g id="Page-1" stroke="none" stroke-width="1" fill="none" fill-rule="evenodd" sketch:type="MSPage">
        <g id="_dialogue__asterios-polyp--3" sketch:type="MSArtboardGroup">
            <path d="M136.427726,0 C147.951836,0 157.555929,1.885 165,5.605 L165,52.048 L4.7234627,52.048 C3.42145021,50.915 -0.77159001,46.374 0.124418584,35.541 C1.22342913,22.272 14.0615523,17.638 19.5306047,16.261 C26.9436758,14.395 31.3607182,9.597 32.2607268,2.721 C36.1217639,6.558 43.3578333,10.794 56.4829592,10.794 C57.1639657,10.794 57.8639724,10.782 58.5639791,10.759 C82.5862095,9.966 103.398409,4.39 103.623411,4.329 C103.777413,4.286 119.220561,0 136.427726,0" id="word-balloon" stroke="#6D4762" stroke-width="2" fill="#FFFFFF" sketch:type="MSShapeGroup"></path>
            <text id="...you’re-designing-" sketch:type="MSTextLayer" font-family="Bradley Hand" font-size="14" font-style="expanded" font-weight="bold" sketch:alignment="middle" line-spacing="16" fill="#6D4762">
                <tspan x="20.6088476" y="27">...you’re designing a </tspan>
                <tspan x="25.8518476" y="43">finite area of space.</tspan>
            </text>
        </g>
    </g>
</svg>