<?xml version="1.0" encoding="UTF-8" standalone="no"?>
<svg width="126px" height="91px" viewBox="0 0 126 91" version="1.1" xmlns="http://www.w3.org/2000/svg" xmlns:xlink="http://www.w3.org/1999/xlink" xmlns:sketch="http://www.bohemiancoding.com/sketch/ns">
    <!-- Generator: Sketch 3.3.3 (12072) - http://www.bohemiancoding.com/sketch -->
    <title>_dialogue__jerk</title>
    <desc>Created with Sketch.</desc>
    <defs></defs>
    <g id="Page-1" stroke="none" stroke-width="1" fill="none" fill-rule="evenodd" sketch:type="MSPage">
        <g id="_dialogue__jerk" sketch:type="MSArtboardGroup">
            <path d="M0,91 C20.787956,71.6814142 23.0034502,65.9124004 21.9345889,63.0572409 C21.271536,61.2854504 19.1338134,60.460737 15.2053494,60.460737 C13.900182,60.460737 12.3965973,60.548282 10.5819261,60.7313306 C19.0560418,55.9830114 22.7133022,52.3678025 22.3792831,49.1306287 C22.0951175,46.3809211 18.8546332,44.0878401 12.2161272,41.9668645 C19.7719395,39.8080854 23.2208119,37.7229237 23.6585265,35.0975698 C24.0483817,32.7547473 21.9684894,30.0826364 16.9492285,26.5301018 C17.4028963,26.5420397 17.841608,26.5470139 18.2623724,26.5470139 C23.8070903,26.5470139 26.874084,25.5432313 27.9130332,23.3854471 C29.114505,20.8914106 27.5600696,17.1190187 22.5647385,10.6008986 C28.947994,14.0121675 34.1925932,15.7391908 38.173902,15.7391908 C40.7892221,15.7391908 42.806299,14.9821259 44.1692965,13.4868978 C45.600095,11.9170575 46.265142,9.58816263 46.1524729,6.54995463 C49.5863892,9.28672942 52.3821793,10.5690641 54.8908127,10.5690641 C59.3058479,10.5690641 62.3189998,6.55094946 65.6173142,0 C69.3962175,7.56269063 72.5629184,10.668547 76.4285669,10.668547 C79.0010129,10.668547 81.8307035,9.25986903 85.2735934,6.25051108 C85.1928306,9.1116395 85.7781119,11.2425634 87.0184696,12.5915516 C88.0594128,13.7236671 89.542059,14.2976835 91.4265253,14.2976835 C95.1346364,14.2976835 100.387212,12.0951319 107.058622,7.74673401 C102.892854,15.1452778 101.835958,19.3663376 103.397373,22.0891848 C104.717496,24.3932089 107.887188,25.4656347 113.371085,25.4656347 C113.960355,25.4656347 114.584522,25.4517071 115.23561,25.4268363 C111.804685,28.2312595 110.388842,30.5989527 110.795648,32.8134422 C111.467674,36.4783925 117.299549,39.0450515 126,41.6475244 C116.189808,43.8829053 112.003102,45.9093722 111.667089,48.5247778 C111.426794,50.398041 113.218533,52.3489008 117.27861,54.6041783 C108.664905,54.9861926 104.291746,56.380943 102.789159,59.1764127 C101.600649,61.3849333 102.213848,64.3783739 104.7843,68.7785029 C101.011379,67.4235457 98.0401045,66.7639741 95.7298884,66.7639741 C93.3957427,66.7639741 91.7386088,67.4683131 90.8073435,68.8570944 C89.4273957,70.9134061 89.6557253,74.4052562 91.5132706,79.4967914 C85.4849727,74.0799471 80.8874733,71.5431329 77.135491,71.5431329 C72.3993986,71.5431329 69.1708792,75.6070097 66.4279338,80.2041149 C63.5563662,74.4569873 60.8054443,71.9878215 57.3236686,71.9878215 C54.4820131,71.9878215 51.174725,73.6969379 46.6849094,77.5031539 C46.6300704,75.4269457 46.015874,73.7168345 44.8841972,72.5101068 C43.5760386,71.1153564 41.630751,70.4090278 39.1021761,70.4090278 C33.1466646,70.4090278 21.714236,74.3604889 0,91" id="word-balloon" stroke="#000000" fill="#FFFFFF" sketch:type="MSShapeGroup"></path>
            <text id="You" sketch:type="MSTextLayer" font-family="CCMonologous" font-size="14" font-style="italic" font-weight="normal" fill="#DD0505">
                <tspan x="49.191" y="32.7421716">You</tspan>
            </text>
            <text id="jerk!" sketch:type="MSTextLayer" font-family="CCMonologous" font-size="16" font-style="italic" font-weight="bold" fill="#DD0505">
                <tspan x="35.3229" y="49.7421676">jerk!</tspan>
            </text>
            <path d="M36.973,63.01 C53.868,55.29 76.027,53.272 93.886,58.353 C94.459,58.516 95.598,56.911 94.946,56.726 C76.905,51.592 54.458,53.735 37.405,61.527 C36.896,61.759 35.999,63.455 36.973,63.01" id="underline" fill="#DD0505" sketch:type="MSShapeGroup"></path>
        </g>
    </g>
</svg>