<?xml version="1.0" encoding="UTF-8" standalone="no"?>
<svg width="260px" height="194px" viewBox="0 0 260 194" version="1.1" xmlns="http://www.w3.org/2000/svg" xmlns:xlink="http://www.w3.org/1999/xlink" xmlns:sketch="http://www.bohemiancoding.com/sketch/ns">
    <!-- Generator: Sketch 3.3.3 (12072) - http://www.bohemiancoding.com/sketch -->
    <title>_dialogue__sandman--1</title>
    <desc>Created with Sketch.</desc>
    <defs>
        <path id="path-1" d="M127.457,135.295 C127.457,135.295 128.133,137.2 128.191,140.219 C124.53,140.491 120.789,141.728 117.446,142.701 C115.757,143.193 114.048,143.38 112.335,143.38 C109.569,143.38 106.79,142.894 104.056,142.418 C101.839,142.033 98.599,141.228 95.719,141.228 C94.119,141.228 92.63,141.476 91.489,142.184 C90.733,142.653 90.047,143.257 89.212,143.568 C88.711,143.754 88.188,143.825 87.657,143.825 C86.842,143.825 86.008,143.659 85.205,143.49 C83.665,143.168 82.119,142.882 80.61,142.882 C78.821,142.882 77.084,143.284 75.467,144.506 C72.2,146.974 71.482,151.601 68.867,154.752 C67.069,156.919 64.416,158.328 62.92,160.714 C62.765,160.961 62.624,161.217 62.497,161.483 C61.714,163.116 61.334,164.876 61.335,166.608 C61.338,170.454 63.219,174.158 66.742,176.013 C68.758,177.075 70.954,177.933 72.543,179.566 C74.314,181.386 75.106,183.939 76.622,185.975 C78.936,189.082 81.626,190.123 84.498,190.123 C90.304,190.123 96.858,185.871 102.577,185.84 C107.731,185.839 112.486,188.552 117.56,188.77 C117.79,188.779 118.02,188.784 118.249,188.784 C122.964,188.784 127.547,186.796 132.273,186.749 C135.608,186.769 138.63,187.633 141.67,187.633 C142.035,187.633 142.4,187.621 142.766,187.593 C147.434,187.237 151.74,184.401 156.39,184.401 C160.039,184.562 162.909,186.049 165.809,187.209 C167.868,188.032 169.784,188.49 171.805,188.49 C172.867,188.477 173.772,188.377 174.718,188.183 C177.753,187.558 180.756,186.416 183.877,186.205 C184.23,186.181 184.583,186.169 184.936,186.169 C187.896,186.169 190.828,186.979 193.597,188.056 C197.067,189.406 200.542,191.217 204.235,191.217 C204.436,191.217 204.637,191.212 204.839,191.201 C209.135,190.966 212.89,188.179 217.122,187.402 C218.089,187.224 219.061,187.155 220.037,187.155 C222.778,187.155 225.546,187.706 228.295,187.974 C229.107,188.054 229.94,188.102 230.773,188.102 C233.327,188.102 235.887,187.652 237.924,186.283 C238.268,186.052 238.597,185.794 238.909,185.508 C242.142,182.54 242.64,177.273 246.173,174.67 C248.038,173.297 250.428,172.922 252.602,172.125 C254.776,171.327 256.995,169.758 257.25,167.456 C257.267,167.305 257.275,167.155 257.275,167.006 C257.275,164.775 255.483,162.859 254.654,160.725 C253.881,158.733 253.959,156.521 253.501,154.433 C252.7,150.782 249.94,149.853 246.924,148.354 C243.558,146.68 240.052,145.139 236.289,144.661 C235.088,144.512 233.933,144.469 232.776,144.469 C231.035,144.469 229.288,144.566 227.549,144.566 C226.241,144.566 224.939,144.511 223.649,144.32 C220.146,143.71 217.283,142.376 214.225,142.058 C213.556,141.998 213.107,141.98 212.659,141.98 C209.47,141.98 206.303,142.884 203.121,143.329 C201.58,143.544 200.024,143.652 198.468,143.652 C196.468,143.652 194.468,143.474 192.499,143.119 C189.191,142.508 186.045,141.463 182.85,141.463 C182.462,141.463 182.073,141.478 181.683,141.512 C178.682,141.77 175.857,143.093 172.863,143.417 C172.337,143.474 171.811,143.5 171.287,143.5 C166.227,143.5 161.256,141.095 156.174,141.095 C155.826,141.095 155.479,141.107 155.13,141.131 C152.558,141.308 150.083,142.177 147.528,142.521 C146.691,142.633 145.87,142.683 145.063,142.683 C141.393,142.683 137.984,141.659 134.444,140.846 C134.302,138.992 133.968,136.686 133.291,133.824 L127.457,135.295 Z"></path>
        <path id="path-2" d="M8.457,121.795 L21.3328068,125.404188 L21.3328068,119.038205 L8.457,121.795 Z"></path>
        <path id="path-3" d="M33.5069072,116.951 C31.6659072,116.951 30.1729072,118.443 30.1729072,120.284 C30.1729072,122.125 31.6659072,123.618 33.5069072,123.618 C35.3479072,123.618 36.8399072,122.125 36.8399072,120.284 C36.8399072,118.443 35.3479072,116.951 33.5069072,116.951"></path>
        <path id="path-4" d="M45.7915,113.0455 C43.9505,113.0455 42.4575,114.5375 42.4575,116.3785 C42.4575,118.2195 43.9505,119.7125 45.7915,119.7125 C47.6325,119.7125 49.1245,118.2195 49.1245,116.3785 C49.1245,114.5375 47.6325,113.0455 45.7915,113.0455"></path>
        <path id="path-5" d="M129.291,122.962 C127.45,122.962 125.957,124.454 125.957,126.295 C125.957,128.136 127.45,129.629 129.291,129.629 C131.132,129.629 132.624,128.136 132.624,126.295 C132.624,124.454 131.132,122.962 129.291,122.962"></path>
        <path id="path-6" d="M117.964,2.658 C118.9,3.053 119.778,3.576 120.715,3.971 C123.466,5.128 126.463,5.384 129.494,5.384 C131.893,5.384 134.314,5.223 136.649,5.223 C137.226,5.223 137.799,5.233 138.364,5.258 C143.488,5.479 148.638,7.187 152.491,10.574 C152.751,10.802 153.006,11.038 153.256,11.28 C156.436,14.347 158.999,18.379 163.205,19.607 C165.104,20.162 167.133,20.059 169.074,20.447 C172.978,21.227 174.839,25.514 175.413,29.174 C175.983,32.808 173.909,36.565 174.868,40.116 C176.561,46.39 186.902,46.52 185.84,53.864 C185.252,57.927 181.014,60.754 180.512,64.829 C180.093,68.233 182.405,71.348 182.99,74.728 C184.058,80.899 178.555,83.213 177.382,88.514 C176.903,90.68 176.644,93.019 175.254,94.746 C173.239,97.25 169.637,97.592 166.672,98.832 C164.651,99.678 162.81,101.011 160.665,101.453 C160.06,101.578 159.453,101.628 158.845,101.628 C156.369,101.628 153.862,100.799 151.353,100.781 C146.19,100.78 142.937,104.448 139.063,107.204 C137.904,108.028 136.738,108.856 135.459,109.477 C134.315,110.033 130.751998,110.639352 129.493998,110.900352 C130.596998,115.687352 130.454998,118.018352 130.454998,118.018352 L125.787998,118.852352 C125.864998,116.839352 124.826998,113.933352 123.693998,111.392352 C121.493998,111.543352 121.637,111.838 119.41,111.838 C116.044,111.765 113.14,110.558 110.125,110.076 C108.997,109.896 107.866,109.818 106.734,109.818 C102.513,109.818 98.276,110.9 94.108,111.779 C91.332,112.365 88.203,112.983 85.166,112.983 C83.357,112.983 81.581,112.763 79.932,112.188 C78.201,111.583 76.785,110.221 75.122,109.373 C73.274,108.432 71.383,107.578 69.386,107.003 C68.175,106.655 67.029,106.134 65.902,105.564 C60.207,111.299 56.124,113.795 56.124,113.795 L53.457,109.629 C55.933,107.483 57.997,104.809 59.454,102.653 C58.661,102.487 57.834,102.42 56.991,102.42 C54.356,102.42 51.556,103.067 49.101,103.327 C48.829,103.356 48.557,103.37 48.286,103.37 C45.877,103.37 43.595,102.233 42.261,100.089 C40.88,97.869 40.779,95.031 39.385,92.82 C37.864,90.409 35.084,89.142 33.012,87.185 C27.889,82.343 28.225,73.43 32.061,67.903 C33.605,65.679 35.833,63.69 36.134,60.999 C36.369,58.904 35.358,56.896 34.893,54.839 C34.272,52.085 34.662,49.114 35.973,46.613 C37.65,43.417 40.509,41.27 40.945,37.376 C41.288,34.301 39.934,31.27 39.966,28.176 C40.001,24.715 41.89,21.021 45.112,19.617 C48.429,18.172 51.777,17.657 54.246,14.723 C55.414,13.335 56.225,11.678 57.379,10.279 C60.273,6.768 63.737,6.397 67.508,6.397 C68.519,6.397 69.551,6.424 70.6,6.424 C70.995,6.424 71.392,6.42 71.791,6.409 C74.564,6.337 77.149,5.041 79.875,4.534 C81.02,4.32 82.218,4.233 83.433,4.233 C85.817,4.233 88.263,4.571 90.49,4.967 C93.888,5.572 97.35,6.504 100.818,6.504 C101.888,6.504 102.959,6.415 104.029,6.2 C108.29,5.345 111.024,1.999 114.921,2 C115.856,2 116.858,2.192 117.964,2.658 Z"></path>
    </defs>
    <g id="Page-1" stroke="none" stroke-width="1" fill="none" fill-rule="evenodd" sketch:type="MSPage">
        <g id="_dialogue__sandman--1" sketch:type="MSArtboardGroup">
            <g id="word-balloon--2">
                <use stroke="#6D6D6D" stroke-width="2" fill-opacity="0.698511096" fill="#000000" fill-rule="evenodd" sketch:type="MSShapeGroup" xlink:href="#path-1"></use>
                <use stroke="#AAAAAA" stroke-width="1" fill="none" xlink:href="#path-1"></use>
            </g>
            <g id="peak">
                <use stroke="#6D6D6D" stroke-width="2" fill-opacity="0.698511096" fill="#000000" fill-rule="evenodd" sketch:type="MSShapeGroup" xlink:href="#path-2"></use>
                <use stroke="#AAAAAA" stroke-width="1" fill="none" xlink:href="#path-2"></use>
            </g>
            <g id="conector__round--3">
                <use stroke="#6D6D6D" stroke-width="2" fill-opacity="0.698511096" fill="#000000" fill-rule="evenodd" sketch:type="MSShapeGroup" xlink:href="#path-3"></use>
                <use stroke="#AAAAAA" stroke-width="1" fill="none" xlink:href="#path-3"></use>
            </g>
            <g id="conector__round--2">
                <use stroke="#6D6D6D" stroke-width="2" fill-opacity="0.698511096" fill="#000000" fill-rule="evenodd" sketch:type="MSShapeGroup" xlink:href="#path-4"></use>
                <use stroke="#AAAAAA" stroke-width="1" fill="none" xlink:href="#path-4"></use>
            </g>
            <g id="conector__round--1">
                <use stroke="#6D6D6D" stroke-width="2" fill-opacity="0.698511096" fill="#000000" fill-rule="evenodd" sketch:type="MSShapeGroup" xlink:href="#path-5"></use>
                <use stroke="#AAAAAA" stroke-width="1" fill="none" xlink:href="#path-5"></use>
            </g>
            <g id="word-balloon--1">
                <use stroke="#6D6D6D" stroke-width="2" fill-opacity="0.698511096" fill="#000000" fill-rule="evenodd" sketch:type="MSShapeGroup" xlink:href="#path-6"></use>
                <use stroke="#AAAAAA" stroke-width="1" fill="none" xlink:href="#path-6"></use>
            </g>
            <text id="Time-watches--us-fro" sketch:type="MSTextLayer" font-family="CCSoliloquous" font-size="10" font-style="italic" font-weight="normal" sketch:alignment="middle" fill="#FFFFFF">
                <tspan x="65.9528281" y="19">Time watches </tspan>
                <tspan x="50.7028281" y="31">us from the micro-</tspan>
                <tspan x="51.3928281" y="43">moments between </tspan>
                <tspan x="42.9078281" y="55">seconds, Night exists </tspan>
                <tspan x="43.7478281" y="67">in the vast stretches </tspan>
                <tspan x="38.3028281" y="79">of untime and unspace </tspan>
                <tspan x="47.9228281" y="91">beyond every event </tspan>
                <tspan x="80.8628281" y="103">horizon...</tspan>
            </text>
            <text id="I-made-life-easier-f" sketch:type="MSTextLayer" font-family="CCSoliloquous" font-size="10" font-style="italic" font-weight="normal" sketch:alignment="middle" fill="#FFFFFF">
                <tspan x="83.36" y="156.3025">I made life easier for the </tspan>
                <tspan x="75.19" y="168.3025">people out there. A word of </tspan>
                <tspan x="89.175" y="180.3025">comfort. A helping paw.</tspan>
            </text>
        </g>
    </g>
</svg>