<?xml version="1.0" encoding="UTF-8" standalone="no"?>
<svg width="185px" height="185px" viewBox="0 0 185 185" version="1.1" xmlns="http://www.w3.org/2000/svg" xmlns:xlink="http://www.w3.org/1999/xlink" xmlns:sketch="http://www.bohemiancoding.com/sketch/ns">
    <!-- Generator: Sketch 3.3.3 (12072) - http://www.bohemiancoding.com/sketch -->
    <title>_dialogue__death--1</title>
    <desc>Created with Sketch.</desc>
    <defs></defs>
    <g id="Page-1" stroke="none" stroke-width="1" fill="none" fill-rule="evenodd" sketch:type="MSPage">
        <g id="_dialogue__death--1" sketch:type="MSArtboardGroup">
            <path d="M105.299274,185 C106.091207,141.093171 101.632105,108.363116 98.5807744,91.4657418 L98.4285561,90.6225695 L97.5759344,90.6455197 C95.8537779,90.6914202 94.1465448,90.7143705 92.4990051,90.7143705 C41.494918,90.7143705 0,70.3674737 0,45.3566863 C0,20.3468967 41.494918,0 92.4990051,0 C143.504087,0 185,20.3468967 185,45.3566863 C185,67.0297086 153.510702,85.7561178 110.125491,89.88417 L109.204222,89.9719797 L109.225114,90.8999682 C110.073756,129.331665 107.518876,163.53353 105.299274,185" id="word-balloon" stroke="#000000" fill="#D8BFA9" sketch:type="MSShapeGroup"></path>
            <text id="So-what-are-you--tel" sketch:type="MSTextLayer" font-family="CCMonologous" font-size="10" font-weight="normal" sketch:alignment="middle" fill="#000000">
                <tspan x="42.9759471" y="26.6853334">So what are you </tspan>
                <tspan x="24.7709471" y="37.6853334" font-style="italic" font-weight="bold">telling</tspan>
                <tspan x="75.7709471" y="37.6853334"> me, hon? Last </tspan>
                <tspan x="17.0309471" y="48.6853334">week Alvie was dead, and</tspan>
                <tspan x="40.5559471" y="59.6853334">this girl gave him</tspan>
                <tspan x="49.1359471" y="70.6853334" font-style="italic" font-weight="bold">back</tspan>
                <tspan x="86.1559471" y="70.6853334"> to you?</tspan>
            </text>
        </g>
    </g>
</svg>