<?xml version="1.0" encoding="UTF-8" standalone="no"?>
<svg width="55px" height="77px" viewBox="0 0 55 77" version="1.1" xmlns="http://www.w3.org/2000/svg" xmlns:xlink="http://www.w3.org/1999/xlink" xmlns:sketch="http://www.bohemiancoding.com/sketch/ns">
    <!-- Generator: Sketch 3.3.3 (12072) - http://www.bohemiancoding.com/sketch -->
    <title>_dialogue__manhattan--2</title>
    <desc>Created with Sketch.</desc>
    <defs></defs>
    <g id="Page-1" stroke="none" stroke-width="1" fill="none" fill-rule="evenodd" sketch:type="MSPage">
        <g id="_dialogue__manhattan--2" sketch:type="MSArtboardGroup">
            <path d="M27.4994966,77 C12.3362134,77 2.84217094e-14,64.8520411 2.84217094e-14,49.9202999 C2.84217094e-14,34.9885587 12.3362134,22.8405998 27.4994966,22.8405998 C28.3774186,22.8405998 29.2835307,22.8855479 30.1956836,22.9714486 L30.6145088,23.0124013 L30.7282762,22.6098665 C34.3265482,9.88857035 36.4780611,3.26922129 37.6288235,-4.26325641e-14 C37.0952241,10.6127333 36.0632631,18.5445654 35.2548097,23.4798609 L35.1843343,23.9103633 L35.6051731,24.0372167 C47.2064288,27.5561494 55,37.9571275 55,49.9202999 C55,64.8520411 42.6637866,77 27.4994966,77" id="word-balloon" stroke="#000000" fill="#FFFFFF" sketch:type="MSShapeGroup"></path>
            <text id="We-stole-it." sketch:type="MSTextLayer" font-family="CCSoliloquous" font-size="10" font-weight="bold" sketch:alignment="middle" fill="#000000">
                <tspan x="18.75" y="42">We </tspan>
                <tspan x="12.275" y="54">stole </tspan>
                <tspan x="22" y="66">it.</tspan>
            </text>
        </g>
    </g>
</svg>