<?xml version="1.0" encoding="UTF-8" standalone="no"?>
<svg width="104px" height="60px" viewBox="0 0 104 60" version="1.1" xmlns="http://www.w3.org/2000/svg" xmlns:xlink="http://www.w3.org/1999/xlink" xmlns:sketch="http://www.bohemiancoding.com/sketch/ns">
    <!-- Generator: Sketch 3.3.3 (12072) - http://www.bohemiancoding.com/sketch -->
    <title>_dialogue__sandman--2</title>
    <desc>Created with Sketch.</desc>
    <defs>
        <path id="path-1" d="M28.0530866,2 C27.7357853,2 27.4175017,2.02585989 27.0982357,2.08553655 C24.0509647,2.65246483 21.6048961,4.96493544 19.7531534,7.47931209 C19.7020708,7.54893486 19.6519706,7.61756302 19.6018704,7.68718579 C17.8208574,10.1478534 16.3885811,12.8790553 14.3472435,15.1228978 C12.6900075,16.9450251 10.5465048,18.614977 10.1319502,21.0557525 C10.0720264,21.4138124 10.0513969,21.7748562 10.0513969,22.1378893 C10.0513969,22.8231762 10.1221266,23.5154255 10.1221266,24.1997179 C10.1221266,24.6254114 10.0946206,25.0481211 10.0052261,25.4648631 C9.36865889,28.4367608 5.92156863,30.0211762 4.97162953,32.9065427 C4.71130496,33.6962639 4.66022241,34.521791 4.66022241,35.3582589 C4.66022241,35.9112626 4.68281661,36.4692394 4.68281661,37.0242323 C4.68281661,37.7343846 4.64646941,38.4405584 4.47750403,39.1248508 C3.93426068,41.3199573 2.07564148,43.1162248 2.00294707,45.3779703 C2.00098236,45.4217332 2,45.465496 2,45.5092589 C2,47.9599805 4.19753232,49.9531809 6.5257181,50.6812362 C8.89614523,51.4222214 11.4375025,51.2252884 13.9110771,51.4252053 C15.9504499,51.5903107 17.9672286,52.0309234 19.8916657,52.7321241 C20.696216,53.0255344 21.5351487,53.3676806 22.3711344,53.3676806 C22.5813588,53.3676806 22.7915832,53.3457991 23.0008252,53.2960686 C23.5843452,53.1578176 24.0961531,52.8136822 24.6511847,52.5869109 C25.23274,52.3482043 25.8172423,52.2447647 26.4056741,52.2387971 L26.4204094,52.2387971 C26.4341624,52.2378025 26.4479154,52.2378025 26.4626508,52.2378025 C29.2721914,52.2378025 32.1573736,54.4279359 35.1378443,54.7392492 C35.1702621,54.7432276 35.2026799,54.7462114 35.2350976,54.7491953 C35.4610397,54.7690875 35.6859994,54.7790336 35.9089945,54.7790336 C39.6753507,54.7790336 43.0693937,52.001085 46.8495029,51.3138088 C47.5902,51.1795363 48.3426854,51.1258273 49.1000825,51.1258273 C49.2837833,51.1258273 49.467484,51.1298058 49.6511847,51.1347788 C52.4106252,51.2232992 55.2339188,51.9274838 57.9196825,51.9274838 C59.4099179,51.9274838 60.8569295,51.7106586 62.226335,51.0512315 C64.0230657,50.1869145 65.4101536,48.6611812 66.7491061,47.1712539 C67.9485638,45.8374806 69.1480215,44.5037072 70.3474793,43.1689392 C70.9290345,42.522442 71.5204134,41.8600311 71.8603089,41.0563854 C72.0901804,40.5113386 72.1893984,39.9394372 72.1893984,39.359579 C72.1903808,38.1183045 71.7404613,36.8412239 71.1539943,35.708362 C71.4447719,35.7193027 71.7355495,35.7372057 72.0263272,35.7789793 C73.91147,36.0475243 75.7553538,36.7009838 77.2819364,37.8736301 C78.6965303,38.9617346 79.7731934,40.4267966 80.8528036,41.8560527 C82.8853,44.5474701 85.0749735,47.2468444 88.0122205,48.8700495 C90.5339306,50.2634996 93.4918071,50.7936273 95.8484813,52.4566169 C97.9477779,53.9375927 99.5401784,56.2878585 102,57 C101.564816,53.1130601 98.4232386,50.1282325 95.2011081,47.968932 C91.9799599,45.8096315 88.3766749,44.0103801 86.0258949,40.9052045 C85.0081732,39.5604904 84.2684585,38.0218272 83.2949428,36.6432963 C81.0777634,33.5062932 77.6915792,31.3201382 74.0440882,30.2051792 C72.2866517,29.6680893 70.4683092,29.3547868 68.6411254,29.1986329 C68.5232426,29.1876921 68.403395,29.1817245 68.2855122,29.1717784 C68.2206766,28.5272704 68.2118354,27.8698325 68.2118354,27.2133893 C68.2118354,26.9816449 68.2128178,26.7499005 68.2128178,26.5191508 C68.2128178,24.9397085 68.1636999,23.3901045 67.3905851,22.0513581 C65.9023144,19.4753156 62.4709419,18.9203226 60.2183976,16.9967449 C57.0011788,14.2496293 56.3970294,8.90160584 52.6365673,6.98996347 C51.4213918,6.37330464 50.0844041,6.23107526 48.7140163,6.23107526 C47.5440292,6.23107526 46.3504656,6.33451481 45.1883375,6.33451481 L45.1195725,6.33451481 C41.4573461,6.32556331 37.8629023,5.07135882 34.4099179,3.93551304 C32.356792,3.26017216 30.2280247,2 28.0530866,2"></path>
    </defs>
    <g id="Page-1" stroke="none" stroke-width="1" fill="none" fill-rule="evenodd" sketch:type="MSPage">
        <g id="_dialogue__sandman--2" sketch:type="MSArtboardGroup">
            <g id="word-balloon">
                <use stroke="#6D6D6D" stroke-width="2" fill-opacity="0.698511096" fill="#000000" fill-rule="evenodd" sketch:type="MSShapeGroup" xlink:href="#path-1"></use>
                <use stroke="#AAAAAA" stroke-width="1" fill="none" xlink:href="#path-1"></use>
            </g>
            <text id="Time-watches--us-fro" sketch:type="MSTextLayer" font-family="CCSoliloquous" font-size="10" font-style="italic" font-weight="normal" sketch:alignment="middle" fill="#FFFFFF">
                <tspan x="22.0960859" y="20.295">What </tspan>
                <tspan x="11.2210859" y="32.295">KINDS of </tspan>
                <tspan x="11.1260859" y="44.295">errands?</tspan>
            </text>
        </g>
    </g>
</svg>