<?xml version="1.0" encoding="UTF-8" standalone="no"?>
<svg width="160px" height="119px" viewBox="0 0 160 119" version="1.1" xmlns="http://www.w3.org/2000/svg" xmlns:xlink="http://www.w3.org/1999/xlink" xmlns:sketch="http://www.bohemiancoding.com/sketch/ns">
    <!-- Generator: Sketch 3.3.3 (12072) - http://www.bohemiancoding.com/sketch -->
    <title>_monologue__psylocke</title>
    <desc>Created with Sketch.</desc>
    <defs></defs>
    <g id="Page-1" stroke="none" stroke-width="1" fill="none" fill-rule="evenodd" sketch:type="MSPage">
        <g id="_monologue__psylocke" sketch:type="MSArtboardGroup">
            <path d="M38.4132,113.24738 C36.8052,113.24738 35.4462,112.32338 35.4462,111.22938 C35.4462,110.13638 36.8052,109.21338 38.4132,109.21338 C40.0222,109.21338 41.3802,110.13638 41.3802,111.22938 C41.3802,112.32338 40.0222,113.24738 38.4132,113.24738" id="connector--3" stroke="#000000" fill="#FFFFFF" sketch:type="MSShapeGroup"></path>
            <path d="M40.9972,106.77938 C38.4862,106.77938 36.4432,105.35738 36.4432,103.60938 C36.4432,101.86238 38.4862,100.44038 40.9972,100.44038 C43.5082,100.44038 45.5522,101.86238 45.5522,103.60938 C45.5522,105.35738 43.5082,106.77938 40.9972,106.77938" id="connector--2" stroke="#000000" fill="#FFFFFF" sketch:type="MSShapeGroup"></path>
            <path d="M46.5192,98.5283797 C42.5212,98.5283797 39.2692,96.2283797 39.2692,93.4013797 C39.2692,90.5743797 42.5212,88.2743797 46.5192,88.2743797 C50.5162,88.2743797 53.7692,90.5743797 53.7692,93.4013797 C53.7692,96.2283797 50.5162,98.5283797 46.5192,98.5283797" id="connector--1" stroke="#000000" fill="#FFFFFF" sketch:type="MSShapeGroup"></path>
            <path d="M66.4680464,90 C60.0370387,90 54.3443098,87.5060577 53.2269148,84.1997497 L53.0942241,83.8059693 L52.6941567,83.8576465 C50.2598318,84.1697769 47.7736277,84.3279091 45.3043842,84.3279091 C26.4483423,84.3279091 11.1081042,75.4538982 11.1081042,64.5469057 L11.1081042,64.2337418 L10.8427229,64.0332342 C3.9517874,60.2928375 0,55.0362315 0,49.6090906 C0,43.7602637 4.47057797,38.2349361 12.2654063,34.450097 L12.7183503,34.2309857 L12.5058457,33.7617566 C11.8513715,32.3209959 11.5201437,30.8233903 11.5201437,29.3102815 C11.5201437,21.4584458 20.2527857,15.0122303 31.4017946,14.6339531 L31.7439968,14.6215505 L31.856734,14.2866822 C34.6312659,6.00799274 47.239872,0 61.8368429,0 C69.6296758,0 77.0583577,1.70741511 82.7530819,4.80908141 L82.98554,4.93620735 L83.217998,4.80908141 C88.9117245,1.70741511 96.3404064,0 104.134237,0 C117.193792,0 128.81071,4.81011495 133.042844,11.969476 L133.270314,12.3560215 L133.670381,12.1720507 C135.433271,11.3627855 137.440592,10.9348982 139.475847,10.9348982 C145.687366,10.9348982 150.741584,14.7714145 150.741584,19.4885104 C150.741584,20.1148383 150.639821,20.7659711 150.438291,21.4222717 L150.303605,21.8604945 L150.70866,22.0496331 C155.284992,24.1921703 158.017621,27.6896841 158.017621,31.4063092 C158.017621,34.8738502 155.686057,38.1160785 151.620535,40.3030581 L150.816409,40.7361132 L151.599583,41.2084429 C156.938138,44.4258662 160,49.1543311 160,54.1783897 C160,59.5125116 156.626864,64.4197797 150.744577,67.6403036 L150.392398,67.8325429 L150.495158,68.2304574 C150.658777,68.8660871 150.741584,69.5048175 150.741584,70.1301117 C150.741584,76.6228367 142.433951,81.9052814 132.22076,81.9052814 C128.538345,81.9052814 124.976648,81.2128068 121.919775,79.9043397 L121.680333,79.8009853 L121.461842,79.944648 C114.228704,84.7020522 103.530644,87.430609 92.1122633,87.430609 C87.5339365,87.430609 83.0493911,86.9934198 78.781341,86.1304103 L78.5309248,86.0797666 L78.3443597,86.2616704 C75.9758812,88.5675077 71.4244917,90 66.4680464,90" id="thought-bubble" stroke="#000000" fill="#FFFFFF" sketch:type="MSShapeGroup"></path>
            <text id="I’ve-manifested-my--" sketch:type="MSTextLayer" font-family="CCMonologous" font-size="10" font-weight="normal" sketch:alignment="middle" fill="#000000">
                <tspan x="24.1" y="29.5082595">I’ve manifested my </tspan>
                <tspan x="29.415" y="40.5082595" font-style="italic" font-weight="bold">psychic knife—</tspan>
                <tspan x="134.585" y="40.5082595"></tspan>
                <tspan x="18.04" y="51.5082595">the focused totality </tspan>
                <tspan x="31.76" y="62.5082595">of my telepathic </tspan>
                <tspan x="54.285" y="73.5082595">abilities…</tspan>
            </text>
        </g>
    </g>
</svg>