<?xml version="1.0" encoding="UTF-8" standalone="no"?>
<svg width="4981px" height="1775px" viewBox="0 0 4981 1775" version="1.1" xmlns="http://www.w3.org/2000/svg" xmlns:xlink="http://www.w3.org/1999/xlink" xmlns:sketch="http://www.bohemiancoding.com/sketch/ns">
    <!-- Generator: Sketch 3.3.3 (12072) - http://www.bohemiancoding.com/sketch -->
    <title>page02__panel03--background</title>
    <desc>Created with Sketch.</desc>
    <defs></defs>
    <g id="Page-1" stroke="none" stroke-width="1" fill="none" fill-rule="evenodd" sketch:type="MSPage">
        <g id="page02__panel03--background" sketch:type="MSArtboardGroup">
            <g id="Imported-Layers" sketch:type="MSLayerGroup" transform="translate(-108.000000, -49.500000)">
                <path d="M2356.96018,41.6420353 L5205.99263,41.6420353 L5205.99263,948.287384 L2356.96018,948.287384 L2356.96018,41.6420353 Z" id="Fill-1" fill="#E6E6E6" sketch:type="MSShapeGroup"></path>
                <path d="M2337.19096,929.825136 L5186.22341,929.825136 L5186.22341,1369.58927 L2337.19096,1369.58927 L2337.19096,929.825136 Z" id="Fill-2" fill="#B3B3B3" sketch:type="MSShapeGroup"></path>
                <path d="M3752.63888,1108.29384 C3508.14227,1101.28821 3263.64519,1094.28258 3019.14858,1087.27695 C2779.55028,1080.4113 2539.53158,1070.70366 2299.8977,1081.33522 C1847.89699,1101.38799 1405.97331,1209.53246 981.491893,1362.27644 C784.18401,1433.27467 590.343237,1513.5001 398.806787,1598.79555 C325.989628,1618.02188 255.824196,1646.30171 189.978676,1683.29735 C123.299756,1720.76188 15.4931994,1788.43769 49.2916297,1880.99746 C54.7193543,1895.86104 67.505852,1903.24594 83.2018576,1900.25059 C281.101066,1862.48486 481.796137,1921.19125 680.414638,1921.92392 C782.002572,1922.29903 883.283756,1911.84672 984.518742,1904.76625 C1087.51847,1897.56198 1190.70991,1893.91157 1293.94016,1892.34413 C1706.35899,1886.08319 2117.9398,1919.64091 2530.24961,1918.52205 C2760.17835,1917.8984 2989.72088,1905 3219.04537,1889.35618 C3234.351,1888.31168 3244.47885,1879.9502 3249.79754,1865.9431 C3333.53067,1645.42768 3418.93938,1417.41234 3605.3761,1261.55105 C3651.82613,1222.7182 3704.48878,1190.01972 3760.60006,1167.1148 C3790.51191,1154.90518 3788.64646,1109.3254 3752.63888,1108.29384" id="Fill-3" fill="#4D4D4D" sketch:type="MSShapeGroup"></path>
                <path d="M3204.39665,476.628115 C3204.36247,475.447344 3204.26176,474.273503 3204.14257,473.098738 C3203.33273,465.109132 3202.29237,456.863601 3200.85332,448.953453 C3200.37564,446.328594 3199.68268,443.748083 3198.84235,441.21654 C3195.12577,430.01631 3190.27552,419.112658 3184.97299,408.567026 C3180.61196,399.894181 3175.88736,391.383485 3171.22143,382.871402 C3162.18846,366.39466 3152.76421,350.099007 3142.12588,334.597001 C3133.17376,321.550777 3123.46309,308.952655 3113.38098,296.773069 C3107.54995,289.729096 3101.34334,282.990018 3094.70294,276.700889 C3086.16013,268.610576 3076.71647,261.61511 3067.25063,254.626111 C3063.09472,251.557308 3058.80345,248.670979 3054.38883,245.988375 C3050.05183,243.353353 3045.57115,240.947463 3041.16069,238.431627 C3039.43245,234.250423 3037.61135,230.112181 3035.53801,226.096822 C3034.50504,224.096533 3033.3016,222.249615 3031.95864,220.446584 C3028.07299,215.230589 3022.65635,207.051118 3016.98193,201.868384 C3006.28956,192.103003 2993.38341,183.19733 2979.75335,176.89619 C2958.83196,163.403712 2938.16651,149.493161 2917.37817,135.79742 L2852.65063,93.1543167 C2842.14535,86.2336878 2831.64978,79.2978142 2821.13435,72.392892 C2811.50174,66.068192 2801.59934,60.1657238 2792.10625,53.6433048 C2768.01573,37.0921872 2742.29583,24.0187076 2714.69662,14.1784889 C2708.93026,12.1223031 2702.91075,10.0268507 2696.85428,9.16067493 C2684.41935,7.38166539 2671.53399,5.10142881 2658.83572,5.09958097 C2645.87599,5.09819509 2632.64091,7.28049606 2620.00871,9.40412807 C2613.88757,10.4333759 2607.84357,12.019286 2602.0301,14.1974293 C2594.54105,15.9782867 2587.74126,18.938529 2581.62289,23.0666072 C2579.43729,22.3939928 2577.19903,21.8308631 2574.85313,21.4294195 C2571.38648,20.8358004 2567.91614,20.268513 2564.44164,19.7252476 C2551.60894,17.7198774 2538.72266,16.0388035 2525.84377,14.3725123 C2510.96222,12.4470613 2495.72218,12.4281209 2480.73207,12.1084443 C2450.87104,11.4718629 2421.30013,12.8023088 2391.50424,14.6700148 C2331.70733,18.4183616 2271.82173,23.0019327 2211.86267,21.2732769 C2152.00849,19.5478548 2092.75533,9.75937563 2032.93902,7.51378607 C1974.00277,5.30053375 1915.15569,11.5785757 1856.54097,16.8587832 C1793.49594,22.5376625 1729.93626,27.1697396 1666.86258,19.9266623 C1632.76433,14.8455597 1598.96682,8.15221536 1564.65468,4.31286239 C1549.27928,2.59252182 1533.47887,1.32259265 1518.01293,2.45993918 C1507.48502,3.23464679 1496.78341,4.41264584 1486.30077,6.28266158 C1416.15613,1.33598951 1345.81561,0.249920582 1275.50142,0.322910327 C1113.10763,0.491525876 950.702757,2.24235583 788.312666,3.2660601 C606.26099,4.41403172 424.303095,11.9541495 242.270822,13.4019335 C232.719986,13.4781569 223.055504,14.900533 213.679755,17.5309356 C195.286749,17.0297086 176.900673,16.4481004 158.527532,15.764861 C98.5892651,13.5349781 58.0686609,74.9489189 71.7245924,129.71063 C75.8671071,146.32134 79.2067123,163.062786 81.861211,179.946515 C91.3769375,265.90395 84.251923,352.436526 77.8073951,438.390728 C70.8542346,531.129742 62.9434034,623.855822 56.9483756,716.659511 C44.8502182,903.938723 32.7520608,1091.21794 20.6543653,1278.49761 L0.281803728,1593.86874 C-1.02280894,1614.06519 4.65022348,1632.00542 14.806245,1646.7281 C13.8282475,1653.64873 13.491007,1660.67607 14.1243724,1667.49414 C14.165488,1680.81801 17.524958,1693.23643 24.2023205,1704.74894 C28.8409946,1713.35111 35.1778827,1720.25418 43.2139087,1725.45863 C50.343543,1731.98336 58.7108038,1736.38722 68.3166151,1738.67069 C81.3987757,1742.18668 94.4809363,1742.18668 107.563097,1738.67069 C128.902107,1730.02788 150.149184,1721.16886 171.364847,1712.23085 C170.015423,1712.79999 168.665999,1713.36959 167.316575,1713.93918 C235.256681,1687.07849 302.736663,1659.07723 369.423898,1629.22627 C430.658,1601.81631 491.260585,1572.97381 551.017296,1542.47287 C581.446093,1526.94177 611.56352,1510.68861 642.813706,1496.84874 C692.455049,1477.14705 745.004053,1466.69612 795.43768,1449.30378 C818.484144,1441.35621 840.894008,1431.83151 861.56177,1419.04537 C864.595087,1417.73109 867.625632,1416.41358 870.656177,1415.10438 C873.628513,1413.82013 876.581447,1412.48784 879.520521,1411.12229 C887.95523,1409.98309 896.206998,1408.25444 904.522517,1406.30311 C912.262419,1404.48669 919.836009,1401.5768 927.314895,1398.9002 C934.709702,1396.25409 942.049073,1393.45369 949.327,1390.5013 C953.429785,1388.83732 957.566756,1387.27127 961.412684,1385.06679 C963.281366,1383.99597 965.143119,1382.91452 966.998866,1381.82245 C969.258377,1380.492 971.369595,1379.03128 973.387033,1377.46662 C982.86765,1374.09985 992.174564,1370.34227 1001.47224,1366.32506 C1038.19173,1352.22972 1074.0561,1335.44024 1111.39232,1323.14654 C1150.36855,1310.31236 1189.39005,1297.54054 1228.6855,1285.7102 C1308.23731,1261.76032 1387.79743,1237.96474 1468.36373,1217.60153 C1621.12676,1178.99041 1776.24678,1150.50085 1931.5331,1124.09935 C1932.42979,1124.12245 1933.32648,1124.13308 1934.22271,1124.11229 C1939.60285,1123.9871 1944.98115,1123.7806 1950.35528,1123.49095 C1963.69153,1122.77306 1977.14373,1120.16715 1990.25546,1117.61112 C2000.27704,1115.65749 2010.203,1113.32921 2020.06336,1110.69188 C2027.74875,1110.24562 2035.43183,1109.63676 2043.13061,1109.48154 C2054.49331,1109.25287 2065.85554,1109.03436 2077.21593,1108.72439 L2145.84807,1106.85345 C2188.80651,1105.68238 2231.76541,1104.51131 2274.72431,1103.33978 C2294.47644,1103.32222 2314.22857,1103.30421 2333.98117,1103.28619 C2365.46372,1103.25755 2396.90378,1102.96282 2428.37895,1102.27496 C2458.56151,1101.61482 2488.75701,1101.54183 2518.93357,1100.80962 C2564.26932,1099.70969 2611.71722,1095.1118 2654.31763,1078.26133 C2671.46839,1076.87406 2688.62792,1073.88287 2704.3133,1067.34798 C2718.07687,1061.6132 2730.5945,1054.60572 2741.40606,1044.10536 C2742.7056,1042.84329 2743.9885,1041.52578 2745.23952,1040.16438 C2759.69328,1029.37437 2769.81604,1017.06728 2780.93574,1001.89835 C2808.07621,964.875921 2826.24793,921.854472 2843.13952,879.442348 C2857.90604,842.365406 2869.3311,803.92337 2876.7721,764.705241 C2885.50247,718.688441 2889.79236,672.288213 2888.93956,625.991465 C2892.5873,599.026374 2895.21315,571.983211 2896.68269,544.875836 C2900.81135,543.319492 2904.84206,541.406052 2908.77299,539.126277 C2911.10919,537.377757 2913.50961,535.728096 2915.96361,534.166208 C2916.04076,534.198545 2916.11745,534.230883 2916.1946,534.26322 C2929.92306,537.952898 2943.65244,537.952898 2957.38137,534.26322 C2959.30086,533.965717 2961.22729,533.70702 2963.1431,533.384571 C2961.69435,533.579057 2960.24652,533.774004 2958.79778,533.968489 C2961.37189,533.592915 2963.94323,533.200249 2966.51319,532.792338 C2971.30339,532.560896 2976.10884,532.457879 2980.92075,532.476357 C2981.82068,533.590606 2982.72337,534.70624 2983.62653,535.826956 C2985.67169,538.364504 2987.9118,540.727894 2990.41893,542.814569 C2996.01204,547.470668 3001.93684,551.943369 3007.78543,556.264084 C3008.45529,556.758844 3009.12931,557.247598 3009.82134,557.710944 C3010.53001,558.185378 3011.24422,558.607148 3012.01664,558.970249 C3018.6843,562.107422 3025.71831,564.872717 3032.54396,567.648175 L3053.03017,570.400535 C3053.15814,570.405617 3053.28472,570.405155 3053.41268,570.409312 C3060.46194,576.149632 3068.55155,580.109095 3077.68569,582.280771 C3084.53675,583.341894 3092.54275,584.545763 3099.45618,585.220225 C3100.02672,585.27566 3100.59079,585.342644 3101.1641,585.364819 C3102.07511,585.399927 3102.939,585.34865 3103.84354,585.27335 C3122.73086,583.704995 3124.70348,583.25135 3139.22284,577.124369 C3143.95761,575.12639 3149.12709,573.5123 3153.36292,570.451351 C3159.23322,566.20963 3165.57796,561.526275 3171.03063,556.747757 C3171.90191,555.984136 3172.72515,555.164619 3173.49295,554.297057 C3178.39264,548.764619 3182.89041,542.554947 3187.24774,536.603511 C3187.8788,535.741493 3188.49415,534.881323 3189.05267,533.969875 C3189.61258,533.056117 3190.12722,532.115104 3190.59104,531.149145 C3193.86874,524.324142 3196.86002,516.954949 3199.58243,509.893884 C3200.30958,508.008162 3200.83022,506.065156 3201.18455,504.076417 C3202.64116,495.901565 3204.65952,485.675148 3204.39665,476.628115" id="Fill-4" fill="#333333" sketch:type="MSShapeGroup"></path>
                <path d="M5227.84998,1115.89863 C5226.75371,1059.34821 5224.77139,1002.8426 5222.88007,946.324052 C5232.4637,923.764678 5228.7693,897.339618 5210.41002,878.326252 C5210.36521,878.279594 5210.31901,878.234784 5210.2742,878.187664 C5200.48822,861.562171 5185.04168,848.381516 5165.75337,843.988273 C5159.69274,842.607935 5153.70603,841.892358 5147.84544,841.804124 C5133.08308,838.118604 5116.65577,840.530499 5103.22528,847.951431 C5087.39807,845.002738 5070.93011,845.060483 5055.38101,848.015181 C5032.06245,852.445844 5012.09226,864.494695 4995.07224,880.169474 C4983.90542,879.757867 4972.6014,881.220896 4962.14509,884.468016 C4956.17594,886.321863 4950.42945,888.704192 4944.97401,891.55495 C4934.03725,888.115193 4922.54428,886.102893 4910.85497,885.567481 C4889.82594,884.60337 4870.0156,889.674771 4852.59043,899.256754 C4821.75048,889.702489 4789.94269,884.429211 4756.89497,884.496195 C4715.93918,884.57981 4676.96619,892.899255 4639.38697,907.358154 C4608.82328,901.038535 4576.42416,906.181541 4549.67129,921.580067 C4539.73701,921.26039 4529.85956,922.495673 4519.34875,924.064952 C4500.75986,926.839948 4483.57446,934.712216 4466.584,942.513803 C4453.63119,947.205935 4440.31065,950.513571 4426.72818,952.847857 C4388.3077,956.745417 4349.59249,954.944234 4311.07315,957.490098 C4284.98044,959.214596 4258.44562,962.219186 4233.08975,968.791497 C4215.35228,973.388927 4198.8335,981.711606 4181.16302,986.23697 C4166.08283,986.482733 4151.07747,984.154452 4135.95431,984.762854 C4107.66445,985.900663 4084.93352,993.031022 4059.48803,1004.30794 C4036.2577,1014.60273 4015.36542,1029.39839 3992.64095,1040.64621 C3990.43272,1041.37518 3988.20785,1042.0344 3985.9622,1042.62109 C3977.69842,1042.63494 3969.50301,1041.69578 3961.16902,1041.42784 C3946.26945,1040.94925 3930.11471,1042.68437 3916.12477,1047.93224 C3896.82907,1055.16978 3879.53971,1065.33845 3865.33773,1079.00509 C3835.16163,1084.39108 3806.54932,1096.41083 3778.37957,1109.31523 C3750.71753,1121.98727 3723.94017,1136.49652 3697.92414,1152.26138 C3642.21432,1186.0196 3589.55121,1226.76821 3544.17988,1273.55048 C3447.36829,1373.37319 3379.11358,1498.49424 3309.19715,1617.54929 C3268.82854,1686.28947 3229.30949,1755.52532 3190.61322,1825.2199 C3175.90584,1851.70871 3177.91219,1884.07597 3196.44471,1908.06326 C3204.58375,1918.59735 3214.02048,1925.85982 3226.28264,1931.03424 C3242.82082,1938.01308 3257.07316,1937.68232 3274.85174,1934.79414 C3305.63303,1929.79388 3336.46143,1925.0999 3367.33372,1920.6988 C3364.84138,1921.03372 3362.34857,1921.36865 3359.85576,1921.70357 C3377.4611,1919.30738 3395.04935,1916.78831 3412.65053,1914.3644 C3633.05385,1885.21655 3855.00477,1871.01034 4077.23565,1866.9474 C4302.07761,1862.83641 4526.97777,1868.1388 4751.65203,1876.83843 C4878.99267,1881.76894 5006.28757,1887.79798 5133.57924,1893.8492 C5151.92836,1894.72138 5175.65069,1884.81187 5188.07592,1871.27643 C5202.38785,1855.68665 5209.35072,1838.03792 5210.64932,1816.78081 C5217.78034,1700.11132 5223.49311,1583.3171 5227.12283,1466.48501 C5230.75302,1349.6506 5230.11549,1232.76168 5227.84998,1115.89863" id="Fill-5" fill="#333333" sketch:type="MSShapeGroup"></path>
            </g>
        </g>
    </g>
</svg>