<?xml version="1.0" encoding="UTF-8" standalone="no"?>
<svg width="2727px" height="2406px" viewBox="0 0 2727 2406" version="1.1" xmlns="http://www.w3.org/2000/svg" xmlns:xlink="http://www.w3.org/1999/xlink" xmlns:sketch="http://www.bohemiancoding.com/sketch/ns">
    <!-- Generator: Sketch 3.3.3 (12072) - http://www.bohemiancoding.com/sketch -->
    <title>page03__panel02--background</title>
    <desc>Created with Sketch.</desc>
    <defs></defs>
    <g id="Page-1" stroke="none" stroke-width="1" fill="none" fill-rule="evenodd" sketch:type="MSPage">
        <g id="page03__panel02--background" sketch:type="MSArtboardGroup" fill="#333333">
            <g id="Imported-Layers" sketch:type="MSLayerGroup" transform="translate(-30.000000, 0.000000)">
                <path d="M890.720955,320.858768 C890.798193,320.718464 890.864676,320.581583 890.938492,320.442257 C890.011639,321.712322 889.077454,322.977011 888.135447,324.235832 C887.870492,324.644522 887.610426,325.055166 887.344983,325.463367 C886.951461,326.06809 886.558429,326.675258 886.166374,327.283403 C886.257788,327.178787 886.35458,327.077103 886.442083,326.969553 C888.174555,324.960327 889.614696,322.891948 890.720955,320.858768" id="Fill-1" sketch:type="MSShapeGroup"></path>
                <path d="M141.439363,779.68245 C163.194001,766.863489 186.014812,756.429689 211.320429,753.442737 C236.592804,750.459208 262.439574,752.348174 287.324783,746.246188 C311.446414,740.331925 330.899075,725.179621 352.231349,713.334475 C362.215545,707.79077 376.686373,699.118343 388.252476,704.585785 C392.648671,706.663941 396.132679,710.26686 399.59811,713.576462 C403.766013,717.557272 408.104524,721.291206 412.953879,724.429706 C454.730194,751.46822 506.604607,734.575565 547.09379,714.271136 C553.771919,710.922426 560.380143,707.436834 566.9913,703.959063 C571.965311,701.342669 579.300938,695.715858 584.939292,699.182385 C594.724528,705.198331 594.611604,722.900054 592.740789,732.62158 C587.883124,757.870368 568.035965,778.481803 547.756665,792.853882 C545.112984,794.727693 544.338163,798.259238 546.739376,800.748039 C554.161529,808.441762 565.063779,810.154249 575.175565,807.738777 C586.531953,805.025589 595.14738,797.187651 602.097307,788.164709 C609.118607,779.048884 614.768692,768.984665 622.221643,760.185623 C628.818134,752.398526 636.219267,745.322237 644.109735,738.85947 C676.414653,712.401236 715.784867,696.495594 751.347456,675.153309 C768.9469,664.591428 785.982705,652.610866 800.273148,637.781212 C807.962212,629.801504 813.843032,620.771719 820.642395,612.097825 C828.868701,601.603896 841.454048,599.126339 852.654983,593.042441 C870.759895,583.207498 889.153225,565.342984 891.095411,543.803198 C891.838946,535.553638 889.808768,526.201692 882.692144,521.161027 C873.026186,514.314503 862.059408,519.491072 853.239155,525.006911 C847.801717,528.406952 842.479648,531.174404 836.160821,532.567175 C829.786754,533.971678 823.226437,534.1814 816.724292,534.33588 C804.021622,534.636531 791.646478,535.206056 779.346616,538.685782 C756.127395,545.254632 735.243393,558.321936 711.730376,563.988345 C707.054561,565.115174 702.350882,565.849445 697.580231,566.172584 C692.370596,552.91609 675.971758,548.64294 662.602301,549.961403 C642.626575,551.931032 624.13352,569.750082 603.576556,564.277263 C598.1049,562.820451 594.916155,570.425202 599.74449,573.367667 C604.823114,576.462658 605.311472,585.164416 600.760802,589.018611 C594.955752,593.936082 584.99062,586.723889 586.205892,579.752216 C586.787131,576.419149 583.979686,572.14111 580.083581,573.629698 C511.408011,599.862566 437.452411,571.657625 366.820966,574.779992 C346.733784,575.667767 326.818675,579.197845 308.085596,586.623672 C303.522705,588.432464 304.117631,594.691375 307.442274,596.141831 C308.564177,597.338567 310.308869,597.810809 312.023742,597.475449 C356.58648,588.770268 402.326361,590.829848 447.153077,596.28849 C458.435649,597.662683 469.686446,599.272509 480.918179,601.007483 C422.151522,620.005182 358.447029,612.97289 298.415239,626.382886 C281.540754,630.152019 265.31839,636.111257 248.719614,640.86007 C240.309502,643.265764 231.766914,645.375696 223.079626,646.489815 C213.999795,647.654286 204.82855,647.577046 195.69739,647.936849 C179.986848,648.555749 165.225646,651.824286 150.477153,657.189556 C136.344118,662.330437 122.638824,668.633346 108.306339,673.229634 C92.5728215,678.275676 76.1544301,680.85345 60.0078372,676.123213 C43.6182877,671.322091 28.3227762,661.364444 10.6128529,663.071064 C8.24439265,663.298875 6.01427588,664.954164 6.09835744,667.585224 C7.82056291,721.488707 6.51876525,775.055363 0.0650165563,828.648419 C-0.249311607,831.260413 2.41196758,832.952856 4.60199895,833.186043 C56.3058043,838.688683 99.5388811,804.371979 141.439363,779.68245" id="Fill-2" sketch:type="MSShapeGroup"></path>
                <path d="M796.044139,940.035816 C799.249015,937.4204 801.076323,933.906454 802.220223,929.987729 C803.124589,926.890294 803.938518,924.120397 805.768758,921.41943 C807.364353,919.065556 809.548518,917.015265 811.791833,915.285179 C816.038441,912.009798 820.929348,909.564018 825.817811,907.320137 C835.532653,907.425243 843.871393,897.581989 842.020132,887.860952 C840.01684,877.343068 828.058682,872.964324 818.553555,873.269863 C807.347243,873.629666 796.875178,878.598957 786.710597,882.816865 C781.338176,885.04608 775.884118,887.185832 770.19297,888.455409 C764.424583,889.741607 758.750056,889.484465 752.904921,888.903696 C746.431129,888.260842 740.015511,887.850197 733.674685,889.675122 C727.470248,891.460938 721.836784,894.787161 716.430633,898.231688 C694.19937,912.398444 672.729241,927.76487 652.002647,944.049869 C642.826025,951.259129 633.500793,958.491855 625.706628,967.232233 C618.68875,975.101947 612.493113,984.463182 610.706379,995.041685 C610.24833,997.752429 609.976043,1000.49495 610.064524,1003.24529 C610.183803,1006.96945 612.347925,1009.14342 615.600708,1010.65303 C620.725284,1013.03135 626.6589,1012.64906 631.826494,1010.57921 C642.169015,1006.43659 648.210667,995.71876 659.304544,993.081834 C669.712082,990.607699 680.845067,993.443592 691.329842,993.995029 C696.986772,994.292258 702.786933,994.051249 708.280098,992.565594 C713.888143,991.048653 718.969211,988.123298 724.03317,985.363667 C728.708007,982.816203 733.486968,980.416375 738.894586,980.080526 C745.16404,979.690903 751.41785,980.63783 757.636953,979.378519 C763.071457,978.2776 768.333398,975.402598 771.354468,970.634719 C774.12476,966.262329 773.948287,960.630141 771.44686,956.180511 C771.16724,955.683826 770.859756,955.220385 770.534673,954.778941 C775.837678,951.843809 781.140682,948.908188 786.443198,945.971589 C789.741933,944.144708 793.109595,942.430755 796.044139,940.035816" id="Fill-3" sketch:type="MSShapeGroup"></path>
                <path d="M172.07536,99.9758722 C172.292896,100.371362 172.522165,100.761475 172.772455,101.138877 C172.692284,102.914427 172.947462,104.721753 173.599583,106.449394 C174.174955,107.972691 175.027014,109.398215 176.091721,110.620372 C176.336633,113.120905 177.170116,115.49189 178.556973,117.472762 C178.509555,118.315073 178.505644,119.163739 178.544263,120.009471 C176.605498,123.550794 176.005195,127.948604 177.016618,131.985144 C176.668071,133.349072 176.447112,134.743797 176.39725,136.134612 C176.332722,136.250472 176.262328,136.3634 176.201711,136.482193 C173.919777,140.92889 174.481461,146.265805 177.398896,150.284747 C178.04955,151.18181 178.780376,151.975723 179.565952,152.678219 C179.598704,153.658389 179.712605,154.641492 179.919876,155.617263 C180.605728,158.853535 182.519561,162.022343 185.2527,163.970462 C187.620672,166.926127 191.131077,169.037525 195.016916,169.132365 C198.168508,172.194601 202.748998,173.24859 207.010271,172.468853 C208.295937,173.221702 209.735589,173.753096 211.280343,173.997528 C217.463271,174.975253 225.24326,171.760491 226.987952,165.242972 C227.869342,161.950481 226.604208,158.402803 223.761567,156.501127 C221.769029,155.167998 219.122415,154.80575 216.957315,155.760988 C216.029485,153.960995 214.461266,152.536938 212.175421,151.944436 C211.528188,151.776267 210.894644,151.698538 210.276742,151.690716 C209.701859,149.323642 208.152216,147.348148 205.223538,146.529791 C204.15492,146.231585 203.080925,146.138701 202.027461,146.202742 C202.967512,142.881408 202.691314,139.454479 201.179801,136.167366 C200.799479,135.339721 200.056433,134.790728 199.223438,134.464657 C199.925911,132.840165 200.302322,131.061682 200.278369,129.25729 C200.27348,128.87451 200.247083,128.490753 200.205042,128.107484 C201.139716,125.849427 201.287836,123.239388 200.590742,120.820984 C200.263703,119.685844 199.755792,118.653366 199.112959,117.733815 C199.198996,117.597422 199.288455,117.463474 199.368137,117.321215 C201.622207,113.313517 200.39667,108.354981 197.576515,104.995516 C197.129221,104.463633 196.631087,103.986503 196.101177,103.55777 C196.163261,101.491347 195.615753,99.4469226 194.470386,97.7667011 C194.703077,93.4207104 191.744579,89.875966 187.704265,88.8224666 C187.27408,86.8772814 186.086183,85.1041758 184.119555,83.9861465 C181.82491,82.6813716 179.116213,82.5229801 176.725266,83.3227597 C176.006662,82.943891 175.231352,82.6500844 174.401779,82.4784936 C169.251295,81.4108171 165.023263,85.3417632 164.517796,90.3174091 C163.943402,95.9686635 167.538377,99.0670762 172.07536,99.9758722 L172.07536,99.9758722 Z M191.179473,157.439254 C191.113967,157.427522 191.048951,157.413834 190.985401,157.397701 C190.837769,157.035943 190.742444,156.65854 190.726312,156.281138 C190.946782,156.255229 191.166274,156.226875 191.384788,156.19021 C191.298751,156.603299 191.229824,157.01981 191.179473,157.439254 L191.179473,157.439254 Z M191.831105,111.769688 C192.017844,112.336769 191.975803,112.823188 191.757289,113.212322 C191.136454,113.114061 190.503398,113.062242 189.862032,113.065664 C190.557171,112.696083 191.216136,112.259529 191.831105,111.769688 L191.831105,111.769688 Z" id="Fill-4" sketch:type="MSShapeGroup"></path>
                <path d="M280.181272,174.40915 C280.674029,174.818817 281.169719,175.202086 281.668831,175.5614 C282.36446,176.762047 283.558222,177.777415 285.192436,178.374317 C286.057693,178.690122 286.957659,178.814293 287.873269,178.813804 C301.69442,183.654524 317.245598,174.824195 331.665586,174.14272 C340.166623,173.740386 350.009054,174.704912 357.714738,178.594794 C365.173066,182.359526 368.522151,191.225543 371.057308,198.693411 C372.48865,202.909853 372.984829,207.594626 374.740765,211.661965 C376.542652,215.835387 381.126075,217.859279 385.31451,215.764502 C395.160852,210.840675 388.024185,197.72693 385.434278,190.471716 C382.406364,181.991413 379.711354,173.563417 372.116149,168.048067 C365.133469,162.977581 355.773529,160.584598 347.364884,159.319421 C336.778918,157.726706 326.016967,158.032734 315.577165,160.475093 C310.505874,161.661563 305.610567,163.43809 300.733837,165.243461 C298.220189,166.174256 295.708497,167.113361 293.169429,167.973271 C292.04215,168.355073 290.909982,168.724164 289.770481,169.067835 C289.593519,169.121121 289.408246,169.170496 289.221507,169.219871 C288.514146,168.481688 287.515433,167.933673 286.475168,167.73275 C284.551558,166.330203 282.011513,166.065239 280.181272,167.895053 C278.54657,169.530299 278.258151,172.812524 280.181272,174.40915 L280.181272,174.40915 Z M381.655985,207.695332 C381.658429,207.704131 381.659895,207.713909 381.66234,207.72173 C381.67896,207.772572 381.438448,207.983272 381.416939,207.959807 C381.000442,207.491965 381.265396,207.52863 381.655985,207.695332 L381.655985,207.695332 Z" id="Fill-5" sketch:type="MSShapeGroup"></path>
                <path d="M476.628064,215.217464 C480.142869,214.612741 483.660606,214.053971 487.236517,214.026106 C488.129639,214.018773 490.143197,213.870647 490.695105,214.341422 C491.445484,214.981832 491.503167,216.67672 491.678663,217.560584 C492.59085,222.163716 494.148315,231.258032 487.913569,232.990073 C484.562039,233.921356 483.414228,239.239695 486.881615,240.886185 C495.31128,244.888994 503.549807,239.050016 506.305922,230.942715 C508.691492,223.926067 509.089413,213.922467 505.123403,207.398103 C500.681745,200.09107 491.832161,198.879668 483.999866,198.196238 C470.592279,192.286864 454.317119,194.518034 441.806565,201.734138 C439.149685,203.266723 439.16044,206.50104 440.914909,208.653503 C449.571888,219.275515 464.785762,217.256511 476.628064,215.217464" id="Fill-6" sketch:type="MSShapeGroup"></path>
                <path d="M601.243782,193.111087 C604.241387,184.973476 597.847767,175.435273 588.950764,176.296161 C585.933116,176.588012 583.034258,177.861011 581.024122,180.012496 C579.486211,181.446331 578.337911,183.400804 577.697034,185.385098 C576.395236,189.419683 577.352397,194.13281 580.260544,197.241489 C586.484535,203.894912 598.108811,201.618767 601.243782,193.111087" id="Fill-7" sketch:type="MSShapeGroup"></path>
                <path d="M533.214466,284.318715 C544.519525,286.455535 556.529012,287.39464 566.184215,294.334537 C573.835637,299.834244 579.114199,309.785536 575.911767,319.13406 C575.174587,321.286034 577.185212,324.256365 579.593269,323.96598 C584.661627,323.35539 588.179365,320.541985 592.52863,318.190555 C597.193201,315.668022 602.897549,316.687301 607.951242,317.176653 C619.576495,318.301526 631.301474,320.424658 642.534672,323.650664 C644.140044,324.111661 645.685287,323.319703 646.575476,322.006618 C649.765687,317.29838 645.103071,312.737778 640.919524,311.011115 C638.164387,309.874509 635.094921,309.371958 632.210239,308.64453 C628.917859,307.814441 625.628901,306.966753 622.329189,306.164529 C613.609638,304.044819 604.322536,301.555041 595.297944,302.35091 C595.825898,298.923004 595.47344,295.341106 594.259146,291.903422 C591.700525,284.661408 586.220558,279.284406 579.432927,275.856988 C572.536284,272.374818 564.727942,270.333327 557.143003,269.013397 C548.921097,267.582496 540.633686,267.514055 533.0727,271.478244 C530.648023,272.749776 530.235437,276.282788 531.70002,278.392231 C530.096115,280.160937 530.360092,283.779011 533.214466,284.318715 L533.214466,284.318715 Z M586.278242,313.137668 C586.040173,313.282372 585.803083,313.428053 585.565993,313.574712 C585.234555,313.778567 584.895784,313.992689 584.553103,314.206322 C584.574123,313.488183 584.563369,312.770532 584.520839,312.053859 C585.017507,312.518768 585.626609,312.900081 586.278242,313.137668 L586.278242,313.137668 Z M572.662895,282.860437 C572.694181,282.874125 572.725467,282.888302 572.757242,282.901502 C572.587612,283.054516 572.438025,283.226596 572.308481,283.413341 C571.410959,282.806174 570.488506,282.225893 569.543567,281.672501 C570.597519,282.043547 571.642184,282.432193 572.662895,282.860437 L572.662895,282.860437 Z" id="Fill-8" sketch:type="MSShapeGroup"></path>
                <path d="M669.185594,307.476148 C674.058414,309.123127 680.283872,307.239049 682.578027,302.530811 C682.970571,302.50979 683.363603,302.47557 683.756147,302.41544 C686.935114,301.928532 689.760646,300.117784 691.671546,297.605029 C696.616226,300.174492 703.095395,299.383023 708.231214,296.871735 C712.032971,295.013079 716.912635,290.628957 721.752702,289.055307 C723.972553,289.205388 726.191426,289.499195 728.398079,289.930372 C730.226853,293.30597 732.059537,296.679612 733.883423,300.058632 C734.507191,301.213815 735.156379,302.118211 735.009725,303.442052 C734.801476,305.320751 733.711349,307.362732 733.177529,309.189612 C730.871641,317.085236 729.824043,325.371461 729.959942,333.589734 C730.045979,338.789279 737.044303,339.413068 738.712246,334.774249 C740.741936,329.12886 742.772115,323.483961 744.801805,317.838573 C746.75719,312.400463 749.26546,306.871424 750.168848,301.133152 C751.027262,295.682821 750.298881,290.363993 746.65551,286.052712 C743.410059,282.212205 738.242954,280.223022 733.334937,281.680322 C733.211748,281.717476 733.093447,281.764896 732.975146,281.811338 C729.990251,278.141444 725.643919,278.412274 721.360647,279.285383 C719.421394,279.680385 717.489963,280.115961 715.563908,280.575004 C706.534917,280.87321 697.584631,283.053538 689.466849,287.035326 C688.86459,287.184429 688.291663,287.476769 687.795484,287.88888 C685.401114,289.155035 683.083494,290.579093 680.868043,292.164964 C679.199122,290.297508 676.846304,289.129614 674.186492,289.433198 C673.486464,289.512883 672.853897,289.721138 672.302967,290.019345 C669.124,288.663728 664.979561,289.612611 662.798818,292.88897 C659.074787,298.483516 663.497868,305.553939 669.185594,307.476148 L669.185594,307.476148 Z M673.019616,298.852118 C673.302658,299.132237 673.601343,299.394267 673.909316,299.645543 C673.443934,299.737938 672.956066,299.743315 672.635871,299.713495 C671.413756,299.59959 670.767501,298.999266 670.162798,298.118335 C671.004591,298.727458 672.037035,298.951846 673.019616,298.852118 L673.019616,298.852118 Z" id="Fill-9" sketch:type="MSShapeGroup"></path>
                <path d="M158.360288,314.09144 C160.370913,315.59176 162.742307,315.83668 164.925494,316.773341 C168.031623,318.105492 170.064735,320.977073 171.776675,323.839365 C173.776056,327.18172 175.413202,330.727442 177.437515,334.056109 C178.495867,335.79695 179.666654,337.468372 180.967474,339.037132 C182.1935,340.51692 184.345891,341.81534 185.278609,343.446675 C186.247991,345.141563 184.494011,348.295217 183.940148,349.971039 C182.92677,353.036698 181.928057,356.107245 180.900502,359.168015 C179.402188,363.628889 176.038926,369.68981 178.5032,374.354539 C181.265181,379.580972 188.667292,378.084563 193.542556,378.036165 C199.640913,377.975057 205.739271,377.914438 211.837628,377.853331 C217.596237,377.796134 223.450661,378.009278 229.133499,376.913247 C234.320647,375.913523 239.107918,373.385124 243.572551,370.649448 C248.184327,367.822843 252.874807,365.052457 254.62781,359.609458 C255.433429,357.108925 255.561507,354.38107 255.841616,351.785698 C256.166698,348.773325 256.485426,345.760463 256.807087,342.747601 C257.368771,337.480104 258.638305,331.765787 255.277487,327.144566 C252.232463,322.957945 247.164594,321.037203 242.626145,318.947803 C230.698296,313.455918 218.584685,308.355612 206.320509,303.662529 C200.360495,301.381984 194.355018,299.218766 188.318744,297.147943 C182.192034,295.046321 176.013994,292.739866 169.664859,291.406249 C166.66872,290.776593 164.672272,293.182776 164.545661,295.52394 C163.128984,295.608025 161.720618,295.94094 160.394378,296.571573 C156.009915,298.656084 153.711849,303.802832 154.789266,308.504715 C155.301088,310.737841 156.519293,312.718224 158.360288,314.09144 L158.360288,314.09144 Z M164.518774,304.816245 C164.589168,304.775669 164.661028,304.741449 164.733377,304.712117 C164.609699,305.436123 164.56277,306.178217 164.6009,306.922266 C164.230843,306.73992 163.947801,306.532154 163.835856,306.283322 C163.712666,306.009559 163.949757,305.149161 164.518774,304.816245 L164.518774,304.816245 Z" id="Fill-10" sketch:type="MSShapeGroup"></path>
                <path d="M269.964874,382.485306 C273.758321,383.482097 277.758061,383.383347 281.599904,384.129841 C285.903218,384.966774 290.08432,386.362966 294.145166,387.998212 C302.041012,391.177776 309.466098,395.410351 317.258797,398.822613 C322.938702,401.310436 332.797265,402.299894 334.465208,394.247835 C335.476631,389.365073 331.786331,385.827661 328.669447,382.682807 C325.428396,379.412314 322.148237,376.180442 318.833371,372.985234 C312.093647,366.489714 305.19407,360.160407 298.142951,354.005135 C296.177789,352.289715 294.201384,350.587495 292.213246,348.899451 C290.364918,347.330691 288.510724,345.500388 286.375932,344.323206 C285.184614,343.665686 284.002584,343.302461 282.847929,343.180734 C278.666338,339.105084 271.08922,339.847178 266.834791,343.76297 C261.385132,348.779191 259.518717,358.093495 258.93699,365.183961 C258.286825,373.104517 261.902332,380.366574 269.964874,382.485306 L269.964874,382.485306 Z M308.737228,384.978018 C309.005116,385.220005 309.273493,385.461503 309.54138,385.702512 C309.208965,385.537766 308.87606,385.373996 308.543645,385.209739 C308.610128,385.133476 308.676122,385.058191 308.737228,384.978018 L308.737228,384.978018 Z M298.467545,366.559132 C298.273962,366.576243 298.080379,366.593353 297.886307,366.609974 C297.872619,366.407585 297.859421,366.206174 297.848177,366.01014 C298.054959,366.192485 298.260763,366.376298 298.467545,366.559132 L298.467545,366.559132 Z" id="Fill-11" sketch:type="MSShapeGroup"></path>
                <path d="M875.277323,446.952626 C875.737327,447.353005 876.28728,447.655611 876.804968,447.812047 C877.609609,448.055012 878.413272,448.166472 879.203736,448.168917 C882.052244,448.65338 885.188193,448.379617 887.614826,446.971203 C891.348145,444.803585 891.385786,440.752379 891.474267,436.932404 C891.599901,431.533892 891.815482,423.952118 897.278828,421.056095 C902.789103,418.135628 909.457456,419.031225 914.531191,414.912067 C918.037686,412.065419 919.282288,407.795202 919.481249,403.427701 C919.645501,399.831137 919.544799,396.202797 919.457295,392.585701 C920.394414,390.271424 921.266026,387.93026 921.806202,385.564653 C922.274516,383.512896 921.10373,381.793565 919.527689,381.043649 C919.545776,374.432268 918.646788,366.862227 912.005322,365.888413 C911.18846,365.768641 910.378931,365.820461 909.641751,366.028227 C907.420922,363.659198 903.116142,363.176691 901.456997,366.449627 C900.51939,368.298506 901.692621,370.001705 903.341988,370.262757 C903.454912,370.457814 903.564902,370.63576 903.599122,370.713489 C903.764841,371.091869 903.944247,371.393008 904.044949,371.807564 C904.457047,373.50294 904.257109,375.661758 904.229245,377.401621 C904.18036,380.497101 903.824969,383.957272 901.812388,386.466605 C897.901618,391.342034 889.825877,391.27946 884.293115,392.896129 C877.217554,394.963041 871.735632,399.517287 868.44423,406.136979 C865.069235,412.924839 863.128026,421.307859 863.799212,428.888655 C864.470398,436.470429 868.212517,443.749597 875.277323,446.952626 L875.277323,446.952626 Z M881.16841,438.456679 C881.08335,438.905944 880.963094,439.334188 880.796887,439.70279 C880.74898,439.316589 880.702539,438.928431 880.658054,438.53783 C880.827684,438.517787 880.997802,438.491388 881.16841,438.456679 L881.16841,438.456679 Z M872.186348,421.107914 C872.091023,422.205411 871.995209,423.302909 871.894996,424.398939 C871.793804,425.509147 871.741987,426.616421 871.774251,427.711962 C871.647151,425.52919 871.831934,423.281399 872.186348,421.107914 L872.186348,421.107914 Z" id="Fill-12" sketch:type="MSShapeGroup"></path>
                <path d="M972.304512,547.441315 C985.473542,549.556625 998.760873,543.90146 1009.27645,536.354395 C1017.58292,530.392713 1029.70484,518.840884 1040.0195,527.213149 C1045.09715,531.334263 1049.20785,536.766506 1053.98877,541.245468 C1058.89386,545.840778 1064.07709,550.124195 1069.45293,554.156824 C1079.18831,561.459457 1089.70584,567.751611 1100.7479,572.960444 C1101.23821,573.487438 1101.94606,573.924971 1102.87193,573.924971 L1102.87536,573.924971 C1105.89691,575.391559 1108.95611,576.62056 1112.04807,577.831962 C1111.99478,577.920936 1111.92928,578.015775 1111.85497,578.096926 C1108.62419,578.796978 1105.45109,579.704796 1102.30194,580.754873 C1100.89064,580.977795 1099.47983,581.192894 1098.08808,581.436837 C1093.96858,582.160354 1089.84614,582.868716 1085.72516,583.582945 C1077.48224,585.010913 1069.2398,586.43937 1060.99687,587.867339 C1056.8759,588.581079 1052.75443,589.295307 1048.63297,590.009536 C1045.22131,590.600571 1041.56572,590.921754 1038.49039,592.64744 C1031.93349,596.328088 1031.7536,606.006594 1039.45097,608.357536 C1040.67993,608.732982 1041.98173,608.91875 1043.30601,608.993546 C1046.62968,612.624331 1052.26559,611.990275 1056.58406,610.820427 C1063.08913,609.058076 1069.59421,607.295726 1076.0988,605.533864 C1077.75159,605.086066 1078.64227,603.959237 1078.92189,602.68526 C1088.13762,599.687064 1097.17541,596.079746 1106.35447,593.001865 C1117.00301,589.431211 1128.23328,586.429104 1139.4743,586.150453 C1139.9431,586.251647 1140.41093,586.355286 1140.88071,586.453059 C1145.49933,587.415141 1150.15852,588.176789 1154.83825,588.774179 C1154.19688,589.701552 1153.23923,590.576617 1152.18528,591.387151 C1149.44334,593.495128 1146.29517,595.082465 1143.38751,596.944055 C1139.96021,599.138072 1136.69814,601.606829 1134.30231,604.935985 C1131.34185,609.050743 1130.69511,614.319218 1127.69506,618.410022 C1124.6735,622.530647 1120.18736,625.425204 1116.02581,628.261097 C1111.25711,631.511057 1106.44149,634.691599 1101.58138,637.801744 C1091.71695,644.113941 1081.66138,650.12451 1071.43961,655.839805 C1051.34802,667.074362 1030.60628,677.198223 1009.34097,686.015842 C1004.01108,688.225502 998.649416,690.358899 993.25793,692.41359 C987.989145,694.421838 982.525799,696.083972 977.363582,698.346429 C973.190301,700.175265 968.85228,703.156351 967.289927,707.6446 C965.365828,713.173639 969.003333,717.261021 972.663325,720.890339 C980.035616,728.203238 988.126022,735.402721 997.708876,739.65925 C1007.3323,743.933377 1017.74277,744.870528 1027.90638,741.92904 C1038.15993,738.961642 1047.10973,732.89681 1055.43625,726.400312 C1064.37138,719.429128 1072.84944,711.877664 1081.69022,704.784753 C1119.36414,674.557875 1159.74138,647.755481 1200.08684,621.267914 C1209.34217,615.191838 1219.01839,609.11234 1229.839,606.302845 C1234.82475,605.008336 1240.11015,604.482809 1245.21713,605.364717 C1250.49325,606.276447 1255.34651,608.560414 1260.19049,610.735365 C1269.66629,614.989449 1279.30291,618.211055 1289.69579,615.329698 C1298.94818,612.764634 1306.6524,606.415773 1312.1832,598.723516 C1325.72767,579.884698 1321.70886,554.751281 1315.72538,533.961411 C1312.61681,523.160476 1308.36483,511.269865 1310.88238,499.915537 C1312.47016,492.755652 1317.802,486.786637 1324.93525,484.734879 C1327.7906,483.91359 1330.74959,483.781597 1333.33314,485.102504 C1336.81715,486.883431 1338.45625,490.766469 1340.31142,493.991008 C1342.80747,498.328688 1345.91164,502.237635 1350.71749,504.079182 C1355.14937,505.77798 1359.95571,505.034909 1364.14756,503.031549 C1373.80668,498.415706 1377.79566,488.389618 1379.28371,478.434415 C1380.12648,472.794404 1380.52245,467.028756 1382.32482,461.581358 C1383.83389,457.022712 1386.62032,452.949506 1389.86968,449.454626 C1396.5175,442.30354 1404.89975,436.902095 1413.12801,431.758769 C1421.28881,426.657485 1429.69403,421.963424 1438.13298,417.341715 C1454.98498,408.111496 1472.12735,399.174594 1487.64969,387.770402 C1502.65141,376.748989 1517.69467,362.883373 1525.32556,345.543897 C1529.19136,336.760009 1531.37112,327.132834 1529.755,317.550144 C1528.22491,308.478317 1522.32356,300.290842 1513.97749,296.29341 C1495.32116,287.357487 1472.7257,296.142841 1454.42672,301.78334 C1431.0892,308.976468 1408.07578,317.219184 1385.47642,326.473846 C1380.47161,328.523159 1375.48929,330.625758 1370.52408,332.769911 C1375.40814,326.406872 1380.29269,320.043834 1385.17627,313.680795 C1386.77675,315.009035 1388.87976,314.621367 1390.43527,313.39041 C1393.67632,310.826325 1393.93248,306.829382 1392.529,303.378499 C1392.76072,301.862536 1392.1477,300.113873 1391.15143,299.117082 C1390.25,298.216108 1389.11686,297.795686 1387.95096,297.773687 C1384.08956,295.188091 1379.23092,295.219379 1374.99409,297.672981 C1369.69401,300.742551 1366.63433,306.377184 1363.41038,311.347941 C1359.9254,316.721033 1355.99703,321.800318 1351.26891,326.143864 C1341.86742,334.780115 1327.18003,340.389327 1315.14024,333.675285 C1309.50824,330.535319 1304.80505,325.684333 1298.26673,324.381513 C1292.70317,323.273261 1287.28675,324.811224 1282.60556,327.86955 C1277.72638,331.056936 1273.70709,335.321286 1269.18868,338.962336 C1263.95216,343.1822 1257.8934,344.881488 1251.47485,346.481047 C1237.98465,349.842957 1224.73936,354.095574 1211.84897,359.308319 C1185.91616,369.794427 1161.61366,383.770526 1139.53101,400.941345 C1134.33506,404.981307 1128.58134,409.050601 1124.32104,414.108376 C1122.06746,416.782945 1120.33255,419.793851 1119.66234,423.259889 C1118.97649,426.807077 1119.35534,430.3484 1119.32699,433.923454 C1119.28837,438.788617 1117.44004,442.300118 1112.95048,444.326944 C1108.83097,446.187067 1104.04174,446.678374 1099.59275,447.13595 C1094.09128,447.701075 1088.49594,448.007103 1083.10006,449.288902 C1075.86073,451.008232 1069.09803,454.393607 1062.47025,457.683165 C1048.17541,464.777543 1033.88741,471.88512 1019.59599,478.985852 C1006.05348,485.715049 992.454756,492.384605 979.439712,500.103749 C973.084222,503.87337 966.702822,507.801872 960.899728,512.392783 C955.995133,516.273376 951.859005,521.543318 951.687909,528.053015 C951.39509,539.187355 962.560828,545.875977 972.304512,547.441315 L972.304512,547.441315 Z M1042.30828,600.970818 C1041.93578,600.918021 1041.6019,600.825137 1041.36285,600.66479 C1041.37507,600.655502 1041.3868,600.641814 1041.39707,600.619326 C1041.58283,600.206726 1041.79841,599.942251 1042.15869,599.660177 C1042.6055,599.309662 1043.16229,599.072564 1043.75624,598.896573 C1043.18331,599.535028 1042.69007,600.232635 1042.30828,600.970818 L1042.30828,600.970818 Z" id="Fill-13" sketch:type="MSShapeGroup"></path>
                <path d="M1631.23411,278.366321 C1641.94229,284.503016 1659.86486,290.192402 1661.19061,304.858287 C1661.40864,307.269848 1663.53267,309.467775 1666.15093,308.637197 C1693.21884,300.04641 1716.30656,283.070648 1737.73416,264.909883 C1759.26638,246.660633 1782.78868,226.694986 1791.73897,198.919755 C1793.89429,192.230645 1795.09685,185.128445 1794.99028,178.091754 C1794.893,171.659785 1793.97153,164.112721 1788.87188,159.571185 C1778.8476,150.643572 1761.72625,155.845073 1751.34755,161.396599 C1726.73463,174.563142 1714.6044,201.426155 1692.21524,217.206647 C1673.44257,230.43772 1649.7257,237.031502 1633.15968,253.311612 C1631.97227,253.821007 1630.79073,254.344579 1629.62043,254.897483 C1626.36227,256.436912 1622.43537,258.007628 1620.56064,261.30012 C1616.12925,269.081838 1625.62362,275.150093 1631.23411,278.366321" id="Fill-14" sketch:type="MSShapeGroup"></path>
                <path d="M1858.20055,110.747476 C1862.19492,111.501302 1865.20719,108.060686 1867.90904,105.684324 C1869.36629,104.402036 1870.80692,103.10215 1872.2412,101.796397 C1873.95118,101.912747 1875.79707,101.026438 1876.15148,99.2171571 C1876.22627,98.8343775 1876.28005,98.440354 1876.32355,98.0389977 C1879.66091,94.9420516 1882.97871,91.8240844 1886.33952,88.7481594 C1887.10506,88.0466413 1887.48098,86.8650598 1887.39201,85.752408 C1888.30518,83.9455709 1887.85886,81.4905018 1885.32517,80.951286 C1881.78201,80.1979484 1878.12691,79.539939 1874.51384,80.1920821 C1870.83332,80.8559578 1868.31136,83.0255311 1865.85686,85.7040106 C1863.068,88.7476706 1860.28157,91.7942638 1857.49808,94.8428124 C1855.18682,97.3741442 1852.62917,100.182661 1852.74161,103.852555 C1852.83938,107.06585 1854.94728,110.133953 1858.20055,110.747476" id="Fill-15" sketch:type="MSShapeGroup"></path>
                <path d="M1877.97439,194.422706 C1878.33369,196.121504 1880.45821,197.32264 1882.09732,196.76387 C1887.2742,194.999075 1892.19004,192.67111 1896.78519,189.820062 C1899.3795,188.662435 1901.73183,186.97928 1903.74343,184.906502 C1905.26081,183.6907 1906.73224,182.410368 1908.15429,181.064529 C1910.04906,179.271869 1908.98288,176.256563 1906.68775,175.50958 C1904.50261,174.798285 1902.23681,174.488346 1899.98567,174.533321 C1899.6601,173.965263 1899.1209,173.513064 1898.34754,173.318986 C1886.26717,170.286081 1875.52576,182.860611 1877.97439,194.422706" id="Fill-16" sketch:type="MSShapeGroup"></path>
                <path d="M2016.12039,30.358871 C2017.19634,31.8885229 2019.03147,33.0779261 2021.15991,33.6934045 C2026.0166,35.0974185 2031.48923,34.8119226 2036.19242,32.9835756 C2036.71989,32.7787421 2037.26153,32.5499543 2037.80464,32.2972122 C2038.02364,32.2317046 2038.24362,32.1681524 2038.46116,32.098245 C2039.19247,31.863102 2039.77566,31.4778781 2040.21416,30.989993 C2043.19319,29.0985826 2045.55578,26.3462849 2044.77754,22.518 C2044.64066,21.8438581 2044.42948,21.2254467 2044.16306,20.6529883 C2044.39819,19.1839555 2043.9421,17.695857 2042.47165,16.8628347 C2034.22873,12.192728 2022.2427,13.653939 2015.99525,21.1120305 C2014.16207,23.3011583 2013.38285,26.2773552 2014.90072,28.8658839 C2015.23607,29.4378535 2015.65159,29.9296495 2016.12039,30.358871" id="Fill-17" sketch:type="MSShapeGroup"></path>
                <path d="M2168.70447,16.2209578 C2173.42673,16.0620774 2178.00624,14.0166753 2181.12312,10.4445545 C2181.20329,10.3526483 2181.27467,10.2578089 2181.34555,10.1639472 C2184.15788,9.7606354 2185.051,5.98368113 2182.53247,4.39927667 C2178.26337,1.71248652 2173.74888,-0.0576858148 2168.59204,0.381801876 C2163.82383,0.788046893 2159.10402,3.61514068 2158.99403,8.91392497 C2158.87964,14.4150985 2163.97733,16.3788605 2168.70447,16.2209578" id="Fill-18" sketch:type="MSShapeGroup"></path>
                <path d="M2199.61569,64.2052896 C2201.85509,67.8443845 2206.71423,69.7817479 2211.29912,69.9836483 C2217.11101,70.2407902 2226.06765,69.1814244 2228.11934,62.5456002 C2230.5841,54.5732251 2219.96489,49.6537984 2213.97115,47.9716213 C2209.35986,46.6771125 2204.54082,47.3077456 2200.84269,50.4511336 C2197.74096,53.0890375 2195.86819,57.6408394 2197.44912,61.5888957 C2197.84558,62.5793318 2198.60867,63.6528746 2199.61569,64.2052896 L2199.61569,64.2052896 Z M2214.27179,56.5819625 C2214.29428,56.5902732 2214.31628,56.6005393 2214.33876,56.6093388 C2213.80396,56.5692521 2213.26917,56.5247655 2212.73388,56.4939672 C2212.57501,56.2906002 2212.41369,56.088211 2212.24894,55.8872884 C2212.95728,56.0911442 2213.64216,56.3394865 2214.27179,56.5819625 L2214.27179,56.5819625 Z" id="Fill-19" sketch:type="MSShapeGroup"></path>
                <path d="M2089.86774,97.7442134 C2090.55897,97.8908722 2091.25216,98.0204209 2091.94583,98.1392145 C2092.20589,99.6708218 2092.73434,101.250338 2093.76287,102.277438 C2095.14631,103.658476 2097.62133,103.719095 2099.45891,103.942016 C2107.58402,104.927564 2116.17745,102.699816 2122.79887,97.8874502 C2125.9138,95.6235264 2129.43496,92.1657995 2126.84994,88.0520188 C2124.61738,84.4984748 2120.05253,84.2300891 2116.29575,84.1220504 C2111.22153,83.9753916 2106.01678,84.5703376 2100.97873,85.8042274 C2099.79817,84.7624607 2097.94642,84.4720762 2096.35473,85.8614244 C2095.66497,86.4632145 2095.04902,87.1055803 2094.50298,87.7826553 C2092.57546,88.4924842 2090.69292,89.2922638 2088.87978,90.1888382 C2085.74921,91.7375557 2086.46928,97.0236295 2089.86774,97.7442134" id="Fill-20" sketch:type="MSShapeGroup"></path>
                <path d="M2183.47399,116.083414 C2180.63574,118.076996 2182.06904,122.894251 2185.66255,122.885451 C2189.83485,122.875674 2194.00569,122.747103 2198.17799,122.71386 C2201.4474,122.687462 2205.13428,122.53347 2206.38181,118.872865 C2206.72254,117.874118 2206.80955,116.87586 2206.69418,115.904979 C2207.79947,114.214491 2207.05593,111.5541 2205.29071,110.623794 C2204.42643,110.167685 2203.50495,109.764862 2202.5517,109.412392 C2200.08058,107.535158 2196.93388,106.498769 2194.29704,106.993987 C2193.19567,107.200776 2192.15638,107.680839 2191.2266,108.340804 C2189.56354,108.687408 2187.96599,109.28822 2186.51265,110.202883 C2184.4595,111.494947 2183.1533,113.865932 2183.47399,116.083414" id="Fill-21" sketch:type="MSShapeGroup"></path>
                <path d="M2270.80882,138.107174 C2276.26141,142.428721 2282.13099,146.065372 2288.48355,148.911042 C2290.66429,149.888279 2293.55044,149.244936 2294.18643,146.591388 C2295.27851,142.035675 2295.36846,137.346014 2294.2578,132.780524 C2293.80366,130.913557 2292.99755,129.215247 2292.37965,127.409877 C2291.62585,125.209505 2292.09954,125.130798 2294.28566,124.49821 C2298.48925,123.281919 2302.94166,123.329339 2307.14623,122.122336 C2311.09269,120.989152 2314.62265,118.67292 2316.98182,115.282168 C2319.30628,111.941279 2319.76189,107.786923 2318.03577,104.084764 C2316.48319,100.756097 2313.36533,98.7366049 2310.01185,97.5188476 C2306.19542,96.1338992 2301.98206,95.7824068 2297.98134,95.2632345 C2292.87827,94.601803 2287.74245,94.0865416 2282.60028,93.860687 C2280.421,93.7648699 2279.00042,95.3072321 2278.61325,97.1008699 C2275.96028,98.2751184 2276.32398,102.403076 2278.56241,103.93615 C2282.98842,106.968077 2282.7352,113.577014 2278.79021,116.85044 C2274.88678,120.090134 2268.91063,118.619634 2265.24722,122.550091 C2259.83813,128.353382 2266.30263,134.535542 2270.80882,138.107174 L2270.80882,138.107174 Z M2296.07142,116.09808 C2296.14083,116.017906 2296.21367,115.948488 2296.28504,115.874181 C2296.38575,115.935777 2296.48743,115.99493 2296.58959,116.053593 C2296.40774,116.079503 2296.2254,116.104435 2296.04355,116.131811 C2296.05333,116.120567 2296.06164,116.109324 2296.07142,116.09808 L2296.07142,116.09808 Z M2290.7865,107.491649 C2290.81241,107.941403 2290.89111,108.395557 2291.00893,108.847266 C2290.68042,109.419725 2290.35974,110.048402 2290.08305,110.712278 C2289.7653,111.06817 2289.45635,111.433351 2289.16353,111.812708 C2289.31312,109.95063 2289.12442,108.086107 2288.63607,106.30078 C2289.35174,106.700181 2290.06985,107.094693 2290.7865,107.491649 L2290.7865,107.491649 Z M2281.30435,128.806069 C2281.34883,128.910686 2281.39234,129.015302 2281.44563,129.120408 C2281.74724,129.715354 2282.01415,130.319589 2282.25222,130.9292 C2282.04251,130.672059 2281.84012,130.411006 2281.65045,130.141642 C2281.52775,129.967118 2281.02228,128.986948 2280.88247,129.084721 C2280.94065,129.002592 2281.09121,128.907264 2281.30435,128.806069 L2281.30435,128.806069 Z M2272.83069,126.818842 C2272.7642,127.067184 2272.70505,127.319926 2272.66008,127.581468 C2272.54862,128.236544 2272.52565,128.869621 2272.57258,129.483633 C2272.25385,129.181516 2271.94783,128.869621 2271.66479,128.542572 C2271.21847,128.027311 2270.99849,127.436275 2270.80931,127.736926 C2271.11044,127.257841 2272.06711,126.995321 2272.83069,126.818842 L2272.83069,126.818842 Z" id="Fill-22" sketch:type="MSShapeGroup"></path>
                <path d="M2326.14915,143.463644 C2331.77186,146.286338 2339.03905,145.935334 2344.78153,143.597592 C2352.10347,140.617484 2348.86046,131.872706 2345.08804,127.285217 C2340.77837,122.04363 2333.36697,118.998503 2326.66537,120.545265 C2325.80989,120.742766 2325.16902,121.200341 2324.72465,121.794309 C2321.71483,123.413423 2319.72033,126.560233 2319.23002,130.192973 C2318.48306,135.730811 2321.1155,140.936712 2326.14915,143.463644 L2326.14915,143.463644 Z M2328.38514,128.013623 C2332.47482,127.786301 2336.15437,128.743006 2339.11042,131.832619 C2340.31738,133.094374 2341.78148,134.926143 2341.87778,136.881594 L2341.88023,136.881594 C2341.82743,136.881594 2341.76632,136.919237 2341.68909,136.925103 C2341.06483,136.971056 2340.2201,137.385612 2339.60514,137.531293 C2338.49888,137.792835 2337.38724,137.987891 2336.25165,138.056821 C2332.8307,138.266543 2327.89629,137.657909 2326.73626,133.799803 C2326.23617,132.136692 2326.53827,128.718563 2328.38514,128.013623 L2328.38514,128.013623 Z" id="Fill-23" sketch:type="MSShapeGroup"></path>
                <path d="M2315.97675,169.369463 C2312.89946,171.112748 2310.66983,174.161297 2311.51994,177.541294 C2310.44985,179.912768 2310.2157,182.628401 2311.28822,185.567444 C2311.87924,187.186558 2313.15415,188.273789 2314.91693,188.330008 C2324.09502,188.624304 2332.63565,191.938794 2339.57238,197.983583 C2341.09612,199.311334 2342.92342,199.10259 2344.23549,198.195749 C2344.77468,199.14561 2345.26891,200.125291 2345.77291,201.069774 C2348.07586,205.385455 2351.33549,209.281692 2355.80501,211.470331 C2360.24716,213.645281 2365.23388,214.008995 2369.8041,212.021279 C2374.21594,210.102004 2377.87104,206.129015 2378.59894,201.268741 C2378.69035,200.661573 2378.67715,200.05685 2378.55836,199.493191 C2379.04574,198.103843 2379.39527,196.658764 2379.59961,195.206842 C2380.23755,190.677528 2379.61134,186.151635 2378.94651,181.662897 C2378.36038,177.703597 2377.63444,173.704699 2375.6859,170.153599 C2371.78002,163.033801 2363.84849,160.940001 2356.24497,161.489483 C2347.15634,162.146515 2338.06136,164.385506 2329.10081,165.973333 C2324.69777,166.753558 2319.94374,167.120694 2315.97675,169.369463" id="Fill-24" sketch:type="MSShapeGroup"></path>
                <path d="M2401.64706,241.546639 C2402.20581,243.042559 2403.68066,244.687583 2405.49282,244.474927 C2419.85561,242.787373 2433.67285,253.143443 2435.82915,267.493034 C2436.11904,269.427464 2438.74805,270.785525 2440.51181,270.151959 C2450.36695,266.610148 2460.08326,262.68409 2469.62749,258.374275 C2474.37517,256.230123 2479.17417,254.076682 2483.7356,251.551706 C2487.23916,249.612387 2490.47239,245.803168 2488.01398,241.686943 C2485.94616,238.224816 2480.85971,236.220967 2477.23981,234.930858 C2473.2166,233.496535 2468.9656,232.835103 2464.73463,232.37215 C2456.00775,231.416912 2447.04719,231.773782 2438.55545,229.262005 C2432.89021,227.586183 2427.59404,224.742468 2422.09795,222.888211 C2420.05164,221.883598 2417.81125,221.327272 2415.54007,221.301362 C2413.14961,220.988001 2410.6873,220.989468 2408.10961,221.468553 C2406.06428,221.849866 2405.34518,223.553064 2405.59596,225.185377 C2401.29949,229.264449 2399.54453,235.917383 2401.64706,241.546639" id="Fill-25" sketch:type="MSShapeGroup"></path>
                <path d="M2483.58845,286.822182 C2481.54557,286.770362 2479.33402,286.641302 2477.46957,287.476769 C2477.37033,287.477258 2477.26914,287.479702 2477.17088,287.479213 C2474.90459,287.475791 2473.86481,289.461063 2474.21776,291.208748 C2473.87215,292.285713 2473.76167,293.450184 2473.69127,294.669897 C2473.55537,297.009106 2473.36863,299.337559 2473.35446,301.682634 C2473.29824,310.896721 2475.3118,320.922809 2483.58601,326.269013 C2487.86928,329.035977 2493.19184,329.851889 2498.20545,329.752649 C2503.25621,329.652433 2509.32377,329.259387 2509.94851,323.043496 C2510.52242,317.335045 2510.46864,311.371407 2510.4354,305.634113 C2510.40607,300.554828 2509.52615,295.210579 2505.74541,291.496688 C2500.88628,286.724409 2493.82783,286.541086 2486.96834,286.941464 C2485.84301,286.893067 2484.7172,286.850536 2483.58845,286.822182" id="Fill-26" sketch:type="MSShapeGroup"></path>
                <path d="M2501.76034,372.842975 C2501.69337,373.69653 2501.8933,374.407336 2502.26336,374.971484 C2502.15288,375.598206 2502.07369,376.232261 2502.02969,376.868761 C2501.41521,385.715223 2506.5173,395.674336 2514.49967,399.754386 C2522.55195,403.870122 2533.375,401.349545 2537.89048,393.154737 C2543.02581,383.83359 2536.13259,374.872734 2528.96219,369.252278 C2524.3729,365.655225 2518.89098,361.925691 2512.75547,362.548013 C2507.05894,363.125849 2502.21985,366.945823 2501.76034,372.842975" id="Fill-27" sketch:type="MSShapeGroup"></path>
                <path d="M2536.54175,501.778104 C2532.76932,504.5656 2529.63729,508.329355 2527.77331,512.641614 C2524.34504,520.572925 2525.87659,530.675275 2532.60752,536.495676 C2539.83217,542.742855 2550.22456,541.399948 2556.55756,534.50796 C2563.58913,526.85579 2563.16236,515.681852 2558.45037,506.926319 C2556.09609,502.550508 2552.19412,497.257101 2546.95173,496.464165 C2543.54741,495.949393 2540.48332,497.61837 2538.82613,500.231831 C2537.90368,500.802823 2537.10783,501.360127 2536.54175,501.778104" id="Fill-28" sketch:type="MSShapeGroup"></path>
                <path d="M2653.46449,283.064293 C2656.9397,286.114797 2660.55619,289.211743 2664.74853,291.23368 C2672.11398,294.786246 2682.55134,295.578204 2688.67267,289.112015 C2694.55203,282.901013 2693.9923,272.460858 2685.18622,269.421598 C2681.60786,268.18673 2677.41063,268.204818 2673.45146,268.198952 C2673.17575,267.697379 2672.73042,267.255447 2672.08025,266.933286 C2667.82729,264.826287 2663.62468,264.036774 2658.90438,264.860508 C2656.3042,265.313683 2653.08808,266.421447 2650.71962,268.262504 C2649.20224,268.728879 2648.01924,269.831265 2647.81148,271.577483 C2647.79143,271.745652 2647.78606,271.917732 2647.78801,272.091278 C2646.07705,276.987728 2650.17554,280.178047 2653.46449,283.064293" id="Fill-29" sketch:type="MSShapeGroup"></path>
                <path d="M2673.14642,547.806007 C2671.62122,551.322397 2670.69828,555.370671 2672.05336,559.099227 C2673.25641,562.410295 2675.9656,565.266232 2679.48627,566.057701 C2683.39215,566.936676 2686.60241,564.882964 2689.34728,562.342343 C2691.99145,559.895096 2694.53198,557.324166 2697.01483,554.713639 C2706.98876,544.225087 2715.85399,532.626327 2723.36218,520.252231 C2725.51995,516.695754 2727.56577,513.069858 2729.49231,509.382855 C2731.2722,505.976947 2733.45392,502.368651 2734.53867,498.670403 C2735.68306,494.7683 2734.2351,490.47804 2730.05106,489.259305 C2729.6463,489.141 2729.22785,489.060338 2728.80402,488.998252 C2728.66274,488.819817 2728.50093,488.647737 2728.30979,488.485924 C2723.04199,484.008429 2715.61103,483.889147 2709.71506,487.357628 C2703.40943,491.06712 2699.89951,497.909244 2696.54945,504.115846 C2692.59517,511.441456 2688.6409,518.766577 2684.68662,526.091698 C2680.82229,533.250116 2676.38454,540.34156 2673.14642,547.806007" id="Fill-30" sketch:type="MSShapeGroup"></path>
                <path d="M2628.70639,667.577891 C2637.58335,666.094681 2646.47057,664.72391 2655.37246,663.397625 C2658.06014,662.997735 2662.6245,661.609365 2664.89372,663.732007 C2666.9459,665.650794 2666.82466,669.552897 2666.91461,672.118449 C2667.45283,687.413012 2662.43531,702.254399 2653.25673,714.433927 C2651.60835,716.621589 2653.34228,720.187843 2655.82513,720.747591 C2673.00808,724.620851 2684.09169,708.052312 2690.66228,694.853504 C2693.78258,688.584327 2696.95422,681.937259 2702.26309,677.196267 C2708.02463,672.050986 2715.67752,672.508073 2722.66949,670.377608 C2730.37028,668.030578 2735.81163,662.116804 2737.18871,654.133185 C2738.58828,646.018551 2736.79421,637.859919 2734.04249,630.217038 C2730.97938,621.710824 2726.68194,613.726716 2722.0335,605.995351 C2718.12126,599.488097 2713.86536,589.556849 2705.34526,588.495039 C2698.61092,587.65615 2694.15997,592.842985 2690.81284,597.929603 C2690.05757,599.077453 2689.33506,600.246812 2688.58077,601.394662 C2688.18627,601.994497 2687.77662,602.583088 2687.37185,603.17559 C2687.33959,603.223498 2687.15822,603.470374 2687.04726,603.624366 C2686.90256,603.801823 2686.61756,604.159182 2686.57601,604.206601 C2686.15022,604.702797 2685.71906,605.195082 2685.24781,605.648747 C2685.09676,605.794917 2684.94326,605.937176 2684.78634,606.077479 C2684.75359,606.106811 2684.7311,606.127343 2684.70422,606.151787 C2684.64702,606.186496 2684.56783,606.237338 2684.44904,606.316533 C2684.01592,606.608385 2683.57743,606.906591 2683.12475,607.16911 C2683.08076,607.194531 2683.04165,607.217508 2683.00645,607.23804 C2682.71217,607.326035 2681.95886,607.490782 2682.58262,607.41012 C2680.60182,607.666773 2678.89966,608.73836 2678.64399,610.886912 C2678.55991,611.593808 2678.66452,612.32808 2678.93388,612.992933 C2674.03466,617.301281 2669.19215,621.665849 2664.31982,625.938999 C2651.11754,637.519671 2637.72169,648.916041 2624.70616,660.705946 C2621.37858,663.720274 2625.00924,668.195325 2628.70639,667.577891" id="Fill-31" sketch:type="MSShapeGroup"></path>
                <path d="M2370.30126,775.201045 C2367.85067,777.54612 2367.02892,781.057621 2367.89076,784.308559 C2371.77073,798.939246 2393.95458,793.346166 2403.5037,788.935646 C2415.34991,783.463804 2426.95561,771.97455 2429.64231,758.793341 C2431.15138,751.387558 2428.13569,742.302042 2419.97146,740.657996 C2415.149,735.217442 2406.97646,739.195319 2404.36651,744.783999 C2402.88482,747.956719 2402.5876,751.544972 2401.01792,754.65805 C2399.6731,757.326753 2397.81891,759.591165 2395.6059,761.58817 C2390.95062,765.789457 2385.0038,768.555443 2379.24079,770.881941 C2376.26567,772.083077 2372.67656,772.927832 2370.30126,775.201045" id="Fill-32" sketch:type="MSShapeGroup"></path>
                <path d="M1926.82186,936.722792 C1935.55706,935.88146 1944.29274,935.039638 1953.02842,934.198305 C1957.09807,933.806237 1961.1902,933.51683 1965.24909,933.027478 C1968.1152,932.681852 1971.17733,931.841008 1973.23928,929.691478 C1973.50815,929.41136 1973.74817,929.111198 1973.96082,928.795393 C1974.28102,928.730863 1974.60072,928.666333 1974.92043,928.601803 C1978.92799,927.792246 1977.76551,922.204055 1974.23849,921.789499 C1974.19058,921.706882 1974.14707,921.622797 1974.09477,921.541646 C1972.46789,919.002004 1969.3554,918.136227 1966.51325,917.974414 C1965.29895,917.905484 1964.06902,917.959748 1962.83615,918.07072 C1962.67678,918.033566 1962.51302,918.00179 1962.33948,917.981747 C1953.96945,917.029442 1945.51632,917.87273 1937.21131,919.100265 C1933.22282,919.689345 1929.26169,920.427528 1925.35679,921.434096 C1921.96811,922.307694 1918.11991,923.290308 1916.11124,926.447873 C1914.4257,929.097021 1914.36508,932.938505 1916.67439,935.274781 C1919.36207,937.992858 1923.44394,937.048375 1926.82186,936.722792 L1926.82186,936.722792 Z M1943.26519,927.699362 C1943.97157,927.606967 1944.67844,927.514083 1945.38482,927.421688 C1943.07258,927.965792 1940.52814,928.4483 1938.28091,928.295286 C1939.93712,928.060632 1941.61777,927.914951 1943.26519,927.699362 L1943.26519,927.699362 Z" id="Fill-33" sketch:type="MSShapeGroup"></path>
                <path d="M1837.37864,949.27239 C1843.22084,948.250178 1848.85528,946.290327 1854.66766,945.118034 C1860.76358,943.888544 1866.95628,943.255955 1873.1744,943.21538 C1877.37213,943.187515 1878.37964,936.851363 1874.1785,935.797864 C1873.24675,935.564188 1872.31355,935.317312 1871.37936,935.069458 C1871.00002,934.387984 1870.3391,933.803304 1869.35603,933.454256 C1865.28491,932.008199 1861.03195,931.437696 1857.08256,929.535042 C1853.20161,927.665142 1849.54602,925.25407 1846.43696,922.264185 C1843.3147,919.26159 1841.03227,914.524998 1836.05435,914.894578 C1833.62039,915.074968 1831.44013,916.565022 1829.34689,917.692829 C1826.86306,919.031335 1824.37972,920.369353 1821.8959,921.70737 C1818.02228,923.794815 1812.40641,925.723868 1810.05359,929.713477 C1807.45831,934.113732 1809.73536,939.506377 1812.81509,942.997347 C1818.93398,949.932844 1828.83996,950.766355 1837.37864,949.27239" id="Fill-34" sketch:type="MSShapeGroup"></path>
                <path d="M1901.4571,951.577379 C1897.01642,951.769991 1892.57916,952.04522 1888.14826,952.396224 C1879.5211,951.724526 1870.63778,951.645331 1862.24331,953.263955 C1854.54789,954.747654 1846.78159,959.13862 1846.07472,967.670254 C1845.93589,969.349009 1847.3071,970.560411 1848.69592,971.112826 C1873.08299,980.811376 1899.65863,973.151385 1923.43269,965.452284 C1925.67943,964.724856 1926.59895,962.363159 1925.53669,960.280604 C1921.08721,951.558313 1909.98844,951.207309 1901.4571,951.577379" id="Fill-35" sketch:type="MSShapeGroup"></path>
                <path d="M1765.37353,1036.1047 C1764.10058,1036.29291 1762.80758,1037.98193 1762.96157,1039.27302 C1764.08689,1048.6934 1765.07289,1058.12894 1766.24955,1067.54298 C1766.52868,1069.77904 1766.8083,1072.01509 1767.08792,1074.25115 C1767.35092,1076.35668 1767.36265,1078.7042 1768.16827,1080.6841 C1769.82741,1084.76464 1773.49522,1084.59842 1777.20948,1084.6214 C1787.48503,1084.68495 1795.65952,1112.4988 1806.54221,1099.95067 C1808.90187,1097.22966 1810.72234,1094.10729 1813.15532,1091.42148 C1815.58636,1088.73762 1818.2491,1086.23318 1821.11765,1084.01961 C1826.98967,1079.48883 1833.71571,1076.05359 1840.83136,1073.97152 C1844.10174,1073.01433 1848.02326,1072.82563 1850.87079,1070.81494 C1854.38364,1068.33445 1854.64518,1063.94348 1852.878,1060.30585 C1849.72983,1053.82597 1842.31647,1050.06906 1835.81677,1047.88874 C1827.34702,1045.04698 1818.26523,1043.59896 1809.48213,1041.88892 C1809.13799,1041.41668 1808.65549,1041.0163 1808.01266,1040.75427 C1801.25974,1038.00295 1794.24333,1036.22985 1787.01085,1035.3274 C1779.70455,1034.41568 1772.62019,1035.03458 1765.37353,1036.1047" id="Fill-36" sketch:type="MSShapeGroup"></path>
                <path d="M2802.76304,785.149892 C2800.53732,768.113511 2795.72561,749.370021 2783.05862,736.922596 C2781.4469,735.33868 2779.73496,733.92 2777.93894,732.650423 C2777.86365,732.491543 2777.78153,732.335596 2777.6862,732.185515 C2776.07252,729.662982 2774.24717,727.259733 2772.51519,724.816885 C2769.83875,721.04042 2764.63645,722.703042 2763.76337,726.140237 C2763.03255,725.949091 2762.29732,725.768701 2761.55281,725.609821 C2759.11493,725.090159 2757.22407,726.230188 2756.18772,727.893788 C2733.34393,725.920737 2710.09245,725.869896 2688.63405,734.812175 C2677.02542,739.649472 2666.36808,746.341516 2655.0596,751.790381 C2644.60367,756.82909 2633.11382,760.587468 2621.37711,758.971776 C2599.97298,756.026377 2582.3398,741.228988 2562.23404,734.377576 C2552.1115,730.927671 2541.0318,729.633651 2530.67315,732.878233 C2523.97938,734.974966 2517.77201,738.553931 2511.86088,742.263911 C2505.3998,746.319517 2499.01351,750.498805 2492.59545,754.622363 C2463.34044,773.416695 2434.10352,792.236937 2404.9062,811.120242 C2401.11324,813.573844 2404.04485,819.365402 2407.79088,818.187243 C2409.00713,819.883108 2410.93319,821.028025 2413.16966,821.181528 C2417.79268,821.498311 2421.25909,818.278171 2424.56466,815.530273 C2428.03498,812.644516 2431.8866,810.208512 2435.91079,808.172399 C2443.24006,804.463396 2452.48756,801.427069 2460.81115,801.80496 C2461.82746,801.850913 2462.80613,801.686166 2462.73574,802.571497 C2462.59788,804.298649 2459.31137,806.550841 2458.12445,807.571586 C2454.91469,810.331706 2451.26252,812.588785 2447.44365,814.402955 C2443.64873,816.206859 2439.53607,817.443682 2435.40972,818.217063 C2430.95731,819.051552 2426.40077,819.065729 2422.26318,821.131664 C2414.65135,824.931594 2413.04745,833.688594 2412.68717,841.382807 C2412.50043,845.37486 2412.52829,849.371314 2411.89621,853.329637 C2411.22503,857.525057 2410.14174,861.651549 2408.71871,865.65338 C2405.89416,873.596423 2401.54831,881.067225 2396.40907,887.733359 C2385.17099,902.310271 2369.81144,912.968458 2353.75724,921.624264 C2345.41263,926.123757 2336.81187,930.128033 2328.1588,933.99396 C2319.10781,938.038322 2310.00207,942.012777 2300.52579,944.967464 C2291.21766,947.869843 2281.63236,949.690368 2271.85055,949.339365 C2261.39755,948.963918 2251.09512,946.49956 2240.60692,946.778701 C2223.55498,947.232855 2207.7716,954.529132 2193.99934,964.163641 C2179.61259,974.22786 2166.98031,986.462142 2153.48033,997.628747 C2138.60034,1009.93734 2122.52903,1020.81453 2105.6521,1030.19483 C2102.0493,1032.1977 2098.41278,1034.13947 2094.74545,1036.02159 C2094.20528,1036.17558 2093.66608,1036.34179 2093.12786,1036.5349 C2089.84623,1037.71354 2086.59345,1039.07992 2083.56505,1040.81685 C2080.40368,1042.62955 2077.50629,1044.89787 2074.97455,1047.51573 C2072.31132,1050.26852 2069.93992,1052.89469 2066.5444,1054.7685 C2060.32921,1058.19885 2053.22187,1060.90324 2046.30274,1062.47689 C2040.01911,1063.90633 2032.92057,1063.90877 2027.02606,1061.10905 C2026.62325,1060.91742 2026.21213,1060.83676 2025.81568,1060.8436 C2024.75537,1060.25403 2023.71657,1059.60775 2022.70711,1058.89059 C2016.25776,1054.30799 2012.87934,1046.74528 2006.35324,1042.31668 C1998.89052,1037.25255 1989.2754,1038.51968 1980.90488,1039.88605 C1971.49068,1041.42304 1962.13221,1043.29685 1952.85195,1045.50211 C1934.29192,1049.91214 1916.04671,1055.64503 1898.30208,1062.64897 C1889.69741,1066.0451 1881.03065,1069.561 1873.0561,1074.29075 C1865.05271,1079.0381 1858.47089,1085.27843 1852.00638,1091.89763 C1844.19657,1099.89494 1836.38579,1107.89127 1828.58625,1115.89933 C1822.4698,1122.17926 1816.24532,1128.37609 1810.22518,1134.75477 C1807.3097,1136.15928 1804.58389,1137.99447 1802.09909,1140.25057 C1799.28236,1142.8083 1796.82004,1145.89645 1794.98491,1149.23049 C1792.93566,1152.95171 1792.28403,1156.91884 1790.78034,1160.81703 C1789.305,1164.6414 1785.13759,1166.92537 1782.0691,1169.35991 C1778.73517,1172.00514 1775.51367,1174.81366 1772.63192,1177.95167 C1766.72861,1184.38119 1763.07938,1191.80458 1760.81015,1200.18466 C1759.04933,1206.68849 1757.78371,1213.4084 1755.11998,1219.57443 C1750.13522,1225.49065 1745.74978,1231.89671 1741.86491,1238.6083 C1739.30727,1243.02665 1736.05547,1247.98176 1734.7874,1252.9667 C1733.5252,1257.92816 1735.93961,1262.10501 1739.29407,1265.56225 C1740.71661,1267.02786 1742.32394,1268.36441 1743.58761,1269.97619 C1745.18125,1272.00839 1746.21516,1274.47373 1747.27644,1276.80658 C1749.22792,1281.0944 1751.4639,1285.15 1754.33196,1288.90007 C1760.49631,1296.95995 1769.07654,1303.34254 1779.20642,1305.24569 C1784.39796,1306.22146 1789.83442,1306.20337 1794.92967,1304.72407 C1801.95732,1305.73015 1808.98986,1306.68294 1816.0273,1307.61618 C1819.05912,1308.01852 1822.21853,1308.19842 1825.18925,1308.92976 C1827.77965,1309.56723 1828.43079,1312.08439 1829.88071,1314.05304 C1836.22936,1322.67511 1846.92091,1324.44724 1855.74801,1329.46249 C1864.70954,1334.55399 1868.61591,1344.52533 1867.55023,1354.55875 C1866.41953,1365.19787 1859.2853,1374.31712 1851.20907,1380.83268 C1846.11774,1384.94011 1840.25598,1387.98817 1834.6323,1391.27919 C1831.62345,1393.04008 1828.64344,1394.86207 1825.83697,1396.93338 C1823.6225,1398.56765 1821.09614,1400.23565 1819.74497,1402.61299 C1811.93956,1405.52514 1803.9088,1408.29162 1795.58619,1407.13888 C1785.38446,1405.72558 1778.76694,1397.59725 1772.00962,1390.6598 C1768.33203,1386.88383 1764.39193,1383.51165 1760.0632,1380.4983 C1755.58243,1377.37887 1750.76192,1374.65394 1746.61406,1371.08427 C1742.91349,1367.89933 1739.25594,1364.13313 1737.32842,1359.56813 C1735.1599,1354.43311 1736.00316,1348.97985 1737.01458,1343.68448 C1738.30367,1336.93866 1739.03401,1330.58198 1737.98543,1323.74426 C1737.01214,1317.39735 1735.20292,1309.96615 1731.18265,1304.85655 C1731.15234,1304.81842 1731.11763,1304.79056 1731.08634,1304.75438 C1728.96231,1300.64891 1726.59287,1296.67592 1723.99856,1292.7836 C1719.37359,1285.84517 1714.29496,1278.80847 1708.43809,1272.84679 C1705.39454,1269.74936 1701.85431,1268.23535 1697.51042,1268.18891 C1693.8079,1268.14882 1690.1308,1268.2813 1686.42583,1268.10922 C1679.25006,1267.77533 1672.1349,1264.71798 1666.04437,1261.03929 C1662.66546,1258.99877 1659.51045,1256.61655 1656.63016,1253.91753 C1653.8017,1251.26594 1651.45964,1248.23744 1648.95626,1245.30866 C1650.4795,1245.05934 1651.97146,1243.69981 1651.66202,1241.72676 C1647.24041,1213.4964 1662.77301,1186.63045 1678.32076,1164.36862 C1682.2858,1158.69145 1685.94579,1152.8075 1685.51805,1145.587 C1685.08933,1138.3484 1681.87565,1131.44566 1679.43338,1124.71255 C1674.9707,1112.41179 1671.02718,1097.34943 1658.52542,1090.73121 C1652.24033,1087.40401 1645.24445,1087.27201 1638.86451,1090.37629 C1635.76229,1091.88541 1633.00422,1094.13369 1630.55608,1096.54183 C1629.00595,1098.06659 1627.40693,1099.67544 1626.07287,1101.44561 C1624.37169,1101.99265 1622.7321,1102.85843 1621.13895,1104.0669 C1616.99842,1107.20931 1613.93237,1111.62765 1611.54289,1116.20047 C1605.99009,1126.82884 1601.66575,1138.25259 1597.39715,1149.44266 C1588.82474,1171.91079 1581.48667,1194.84921 1572.23281,1217.05679 C1569.70058,1223.13384 1566.99775,1229.14343 1564.10672,1235.05867 C1563.12854,1237.06008 1562.11809,1239.04535 1561.09102,1241.0228 C1560.27758,1241.11079 1559.4793,1241.50384 1558.88144,1242.31193 C1547.637,1257.5097 1537.77403,1273.64706 1529.2158,1290.50109 C1524.89684,1299.00633 1520.9543,1307.69636 1517.41505,1316.55455 C1514.37492,1324.1637 1511.43402,1332.04613 1506.46392,1338.65311 C1496.63762,1351.71601 1478.69598,1352.6556 1467.2912,1363.71368 C1455.30664,1375.33444 1455.33695,1393.39597 1456.88317,1408.83426 C1457.83056,1418.29864 1460.02059,1429.09224 1455.88397,1438.12105 C1453.82055,1442.62494 1449.86187,1446.13791 1445.31609,1447.17479 C1445.58105,1446.11934 1445.14206,1444.92113 1443.69752,1444.43178 C1441.42047,1443.65987 1439.27493,1442.77649 1436.85563,1442.52766 C1434.44024,1442.27932 1432.0708,1442.42695 1429.67203,1442.76525 C1424.96738,1443.42912 1420.44164,1444.96171 1416.29818,1447.29212 C1412.30137,1449.53991 1408.59787,1452.52686 1405.64524,1456.03983 C1403.46792,1458.62982 1400.48449,1462.42975 1399.90765,1466.17787 C1398.70313,1467.77596 1397.53137,1469.39409 1396.33907,1470.96432 C1391.92723,1476.77592 1388.10788,1483.03141 1385.09169,1489.68141 C1379.72025,1501.52607 1377.25109,1514.76741 1380.10644,1527.62108 C1380.85291,1530.98152 1382.01832,1534.24859 1383.5401,1537.33625 C1384.74364,1539.7791 1386.26786,1542.72059 1388.58841,1544.34899 C1389.16232,1547.35354 1389.4131,1550.40258 1389.55291,1553.45993 C1389.87212,1560.43747 1389.60375,1567.44189 1390.4123,1574.39352 C1391.88959,1587.09809 1397.50644,1598.32189 1404.5204,1608.85053 C1411.4454,1619.2462 1419.38964,1629.02785 1425.04461,1640.22184 C1426.48378,1643.07044 1427.86868,1646.01437 1428.64937,1649.12158 C1429.52147,1652.59251 1428.91725,1655.76865 1427.70736,1659.06603 C1425.10719,1666.15357 1421.71801,1672.9908 1418.92768,1680.01332 C1413.24826,1694.30913 1408.29283,1708.88507 1404.03938,1723.66779 C1399.81623,1738.3459 1395.80721,1753.39065 1393.79854,1768.55469 C1392.81351,1775.99273 1392.63215,1783.64833 1394.66037,1790.94216 C1396.25939,1796.69314 1399.20127,1801.88487 1402.8417,1806.57502 C1410.24479,1816.11126 1420.17717,1823.18217 1428.22994,1832.10783 C1430.35642,1834.46464 1433.16826,1837.36115 1433.5564,1840.67222 C1433.88344,1843.46363 1431.78434,1845.64053 1429.44227,1846.78203 C1422.78859,1850.02514 1414.44936,1845.1678 1408.48103,1842.36711 C1394.20721,1835.66871 1380.58209,1827.71638 1367.50838,1818.91685 C1364.43403,1816.38454 1361.10743,1814.41246 1357.16293,1813.10964 C1352.09653,1811.43627 1346.76077,1810.63111 1341.45679,1810.18576 C1329.96401,1809.22074 1318.24881,1810.02199 1306.75261,1810.58467 C1281.05885,1811.84202 1255.4389,1814.32007 1229.99592,1818.12587 C1216.12784,1820.20011 1202.18008,1822.4479 1188.51243,1825.62747 C1187.4223,1825.50867 1186.33902,1825.45734 1185.33444,1825.40992 C1178.48081,1825.08776 1171.98844,1826.56071 1165.47212,1828.49074 C1158.82821,1830.4589 1152.39548,1833.10071 1145.92707,1835.568 C1139.01478,1838.20493 1132.08197,1840.7915 1125.1863,1843.47194 C1118.5859,1846.037 1111.98501,1848.60206 1105.3846,1851.16762 C1099.31167,1853.52785 1092.8413,1855.58547 1087.34618,1859.16443 C1081.85497,1862.74096 1078.09378,1867.94099 1074.14977,1873.05547 C1069.74233,1878.77126 1065.10171,1884.37314 1060.93186,1890.26491 C1058.78338,1893.30075 1057.30266,1896.55462 1056.77764,1900.25873 C1056.26288,1903.89001 1056.59139,1907.5291 1056.4594,1911.17749 C1056.3279,1914.80827 1055.68556,1918.36866 1054.61645,1921.84007 C1053.53414,1925.35451 1051.7919,1928.49398 1050.28038,1931.82461 C1049.57351,1933.38164 1049.72603,1935.09803 1051.15395,1936.19944 C1051.37931,1936.37348 1051.63742,1936.51867 1051.91411,1936.63208 C1050.9369,1938.63251 1050.0472,1940.68525 1049.07147,1942.72625 C1047.11657,1946.81656 1045.05364,1950.86142 1042.88854,1954.84467 C1038.55541,1962.81851 1033.73685,1970.52983 1028.47148,1977.92144 C1017.68705,1993.06103 1004.84163,2006.57516 991.703399,2019.67081 C979.301369,2032.0322 966.977554,2045.80004 951.422954,2054.25297 C935.296404,2063.01682 916.046615,2065.32425 898.234522,2068.54439 C887.358181,2070.51108 876.452998,2072.31596 865.522884,2073.95854 C860.136776,2074.7681 854.74529,2075.53953 849.347938,2076.26842 C845.731453,2076.75679 841.986402,2077.0198 838.336187,2077.60595 C835.599625,2077.29454 832.876751,2076.87559 830.166588,2076.37059 C822.375356,2074.92014 814.679448,2073.00526 807.015316,2070.99946 C791.24318,2066.8715 775.67978,2063.25831 759.376268,2062.02002 C743.002361,2060.77685 726.516509,2060.7832 710.346452,2057.6095 C695.06365,2054.61033 680.243786,2049.49243 665.988051,2043.2736 C649.62881,2036.13669 634.09083,2027.39045 618.069871,2019.56571 C617.002231,2019.04409 615.974187,2019.04947 615.103552,2019.38141 C614.271047,2018.35577 613.442941,2017.31987 612.485291,2016.39055 C610.473689,2014.43803 608.605807,2012.39507 606.815652,2010.23821 C605.158952,2008.24267 603.640106,2006.17233 602.294312,2003.95192 C601.716496,2002.99815 600.817019,2001.79359 600.75298,2000.63694 C600.736848,2000.34558 600.770579,2000.12412 600.800887,1999.86845 C600.872259,1999.87089 600.950963,1999.87236 601.043355,1999.87285 C605.682506,2000.37638 605.980702,1993.56456 602.084597,1992.1801 C595.152268,1989.71721 589.716786,1983.48812 585.690648,1977.58804 C581.028521,1970.75569 577.527404,1963.19102 573.739334,1955.86102 C564.93619,1938.82659 556.246459,1921.67239 549.171386,1903.83281 C547.740044,1900.22402 546.376163,1896.58835 545.085609,1892.92677 C545.099786,1892.9561 545.11494,1892.98494 545.129116,1893.01428 C546.423581,1895.6864 551.111128,1893.77983 549.98776,1890.96594 C547.913585,1885.77275 546.361987,1880.41677 544.207641,1875.24607 C542.110979,1870.21322 539.985965,1865.19554 537.988539,1860.12163 C533.925248,1849.80173 530.363025,1839.33323 527.28476,1828.67895 C524.241692,1818.1464 521.168804,1807.70527 516.849359,1797.60976 C512.521602,1787.49519 507.602831,1777.62162 502.851245,1767.70162 C492.879759,1746.88144 482.908272,1726.06077 472.936297,1705.24059 C464.345801,1687.30324 456.217265,1668.43558 441.037121,1654.96203 C425.826669,1641.4611 406.483021,1632.97102 393.257285,1617.20862 C392.481975,1616.28418 391.265236,1615.93709 390.083206,1616.04904 C387.521162,1610.6735 382.910853,1607.18693 376.956705,1605.36152 C369.298439,1603.014 361.418237,1604.17113 353.84112,1606.2356 C345.149922,1608.60365 336.876198,1611.51679 327.733795,1611.18387 C318.544462,1610.849 310.606087,1607.35363 302.207219,1604.01714 C293.42314,1600.52764 284.287581,1599.80706 274.91102,1600.09451 C265.340877,1600.38783 255.754112,1600.88842 246.205966,1601.59825 C228.25602,1602.93333 210.059205,1605.32241 193.082551,1611.55883 C184.708614,1614.63524 176.618208,1618.52806 169.234674,1623.55504 C165.940339,1625.79745 162.734974,1628.21194 159.786742,1630.887 C159.320383,1631.01899 158.854023,1631.27271 158.412595,1631.6814 C148.5379,1640.83096 139.321192,1650.76367 129.861528,1660.34294 L101.434627,1689.12816 C92.0732206,1698.6077 82.7054592,1708.08186 73.3113001,1717.52865 C68.8422673,1722.02228 64.5145112,1726.91579 59.4134001,1730.71377 C54.6970112,1734.22527 49.2380647,1736.6471 44.2107694,1739.66729 C32.9330856,1746.44244 21.9345329,1754.97896 13.1612086,1764.82271 C13.0130882,1764.98843 12.8869658,1765.15856 12.7706204,1765.32966 C11.3207023,1765.75301 10.0883208,1766.92922 9.98566312,1768.85974 C8.07085221,1804.94808 8.68973161,1841.12931 10.981443,1877.18539 C13.2355132,1912.65043 16.7889369,1948.02406 18.5262966,1983.52381 C22.0371907,2055.26834 18.8293813,2127.26708 13.7849765,2198.85909 C10.9364692,2239.28364 7.37131318,2279.65247 3.80273527,2320.01788 C3.39699285,2324.6039 10.4349129,2326.36038 12.4626473,2322.36344 C22.2371288,2303.09393 41.1716121,2291.88235 60.9542436,2284.93023 C84.6295582,2276.61028 109.830562,2272.87928 134.369668,2268.05616 C147.348048,2265.50478 160.326428,2262.95389 173.305297,2260.40301 C172.972882,2262.83412 175.564745,2265.57811 178.387343,2264.00251 C204.138788,2249.62945 233.21341,2242.64311 262.48357,2240.65833 C292.807683,2238.60168 323.51994,2238.6755 353.903203,2238.54448 C387.479122,2238.39978 421.054062,2238.18126 454.629981,2238.00282 C487.822644,2237.82634 521.11552,2239.07734 554.296451,2237.97594 C563.950187,2237.65573 576.590286,2235.71983 580.968393,2225.72063 C583.052345,2220.96155 582.485772,2215.7141 581.622958,2210.74139 C580.967415,2206.96199 576.689033,2195.82178 581.784766,2193.9553 C586.167762,2192.34988 584.489553,2185.69401 579.830359,2186.8663 C563.950187,2190.86227 547.500021,2190.15195 532.211353,2184.67229 C566.010186,2166.38589 607.268323,2199.24285 642.109865,2199.98836 C677.57713,2200.74659 726.549262,2173.91584 756.502829,2203.17232 C748.152357,2214.66598 753.279866,2230.96662 763.591589,2240.0932 C780.701698,2255.23671 806.097752,2246.81164 824.760437,2239.79206 C826.791104,2239.02797 828.401364,2236.97866 827.661739,2234.68198 C824.179687,2223.86882 836.118291,2212.46903 846.612354,2215.34648 C844.905792,2224.98196 851.679246,2234.1936 860.491678,2238.29419 C872.235722,2243.7587 884.889019,2238.20375 893.81633,2230.07249 C904.610545,2220.23999 910.172149,2206.41006 919.883569,2195.71326 C930.92123,2183.55524 946.054933,2181.16616 961.740544,2180.822 C975.787053,2180.51402 990.059898,2181.61396 1003.88105,2178.46715 C1017.97204,2175.25923 1030.21129,2166.93488 1044.10528,2163.16721 C1050.89389,2161.32615 1058.03251,2160.83094 1064.28485,2164.60838 C1071.00649,2168.66985 1074.59266,2176.12159 1080.19533,2181.39691 C1089.2517,2189.92365 1101.74514,2192.22424 1113.70086,2189.689 C1144.24788,2183.21206 1153.75448,2152.97002 1165.01603,2128.02873 C1168.14367,2121.10154 1172.50662,2116.95452 1179.71906,2114.67153 C1184.77911,2113.06953 1190.05767,2112.14509 1194.99795,2110.16959 C1203.17977,2106.89763 1209.25515,2099.15356 1204.92202,2090.14235 C1199.33597,2078.52599 1180.95242,2074.82432 1169.9524,2071.52352 C1153.86349,2066.69551 1137.29502,2063.61372 1120.57257,2062.08407 C1113.92573,2061.47592 1107.03886,2061.53361 1100.76061,2058.92846 C1098.50214,2057.99179 1094.87636,2056.26464 1094.21153,2053.58421 C1093.21429,2049.56429 1097.63835,2046.05474 1099.87579,2043.31027 C1108.55428,2032.66186 1111.93123,2019.35305 1113.96434,2006.02959 C1116.43302,1989.8492 1117.79054,1973.56763 1125.51138,1958.81424 C1132.93745,1944.62548 1144.40529,1932.67718 1158.27924,1924.68281 C1188.26605,1907.40395 1227.20168,1912.13175 1253.13986,1934.67761 C1255.49121,1936.72155 1258.64525,1936.31872 1260.39825,1933.74242 C1270.70997,1918.59158 1290.98927,1912.07797 1308.18542,1917.81624 C1302.04453,1928.14934 1296.5587,1940.03457 1298.3161,1952.10557 C1300.14341,1964.65272 1309.78444,1972.36454 1321.20828,1976.23975 C1335.22302,1980.99296 1350.51804,1982.46786 1364.88963,1986.00234 C1379.16248,1989.51238 1393.30138,1993.7474 1406.90793,1999.33705 C1433.86047,2010.40931 1456.57911,2027.37089 1474.79841,2050.06684 C1491.02224,2070.27692 1503.76304,2092.9714 1518.44016,2114.27017 C1534.09449,2136.98812 1552.10554,2158.30547 1576.54248,2171.87093 C1576.94089,2172.09238 1577.33539,2172.23855 1577.72206,2172.32899 C1584.90322,2185.37185 1600.55656,2192.08345 1613.44744,2198.67185 C1621.95581,2203.0198 1631.89161,2207.7559 1637.51676,2215.80747 C1640.93869,2220.7049 1642.00877,2226.59228 1642.31821,2232.44983 C1642.66334,2238.97762 1642.46438,2245.54891 1642.45949,2252.08354 C1642.4194,2308.47094 1644.00473,2365.24795 1638.14493,2421.41829 C1637.34518,2429.08806 1636.44375,2436.75979 1635.24705,2444.3792 C1634.20385,2451.02383 1632.6019,2456.65162 1627.28863,2461.10076 C1616.42793,2470.19458 1603.40067,2475.63758 1590.52201,2481.11822 C1587.14018,2482.55695 1588.13107,2486.72695 1590.70338,2488.31282 C1587.89838,2490.22183 1585.09387,2492.13133 1582.28838,2494.03985 C1578.22069,2496.8073 1580.83113,2502.53726 1585.53774,2501.74628 C1736.02027,2476.45887 1889.22714,2471.9848 2041.52769,2472.83787 C2195.74012,2473.70217 2349.96868,2477.82182 2504.15568,2480.64989 C2591.38493,2482.25043 2678.6083,2484.10518 2765.83804,2485.69545 C2768.55651,2485.74531 2770.98412,2483.32055 2770.93426,2480.59905 C2768.75205,2360.82277 2768.84102,2241.01666 2770.4151,2121.23354 C2771.99652,2000.84715 2775.05523,1880.4857 2778.71865,1760.14673 C2782.36544,1640.36165 2786.61302,1520.59612 2790.60397,1400.82179 C2794.61446,1280.46425 2798.35756,1160.09596 2800.94355,1039.69784 C2802.23069,979.800897 2803.2382,919.8976 2803.85952,859.990393 C2804.11665,835.214824 2805.98405,809.798845 2802.76304,785.149892" id="Fill-37" sketch:type="MSShapeGroup"></path>
            </g>
        </g>
    </g>
</svg>