<?xml version="1.0" encoding="UTF-8" standalone="no"?>
<svg width="2247px" height="988px" viewBox="0 0 2247 988" version="1.1" xmlns="http://www.w3.org/2000/svg" xmlns:xlink="http://www.w3.org/1999/xlink" xmlns:sketch="http://www.bohemiancoding.com/sketch/ns">
    <!-- Generator: Sketch 3.3.3 (12072) - http://www.bohemiancoding.com/sketch -->
    <title>page01__panel02--hair</title>
    <desc>Created with Sketch.</desc>
    <defs></defs>
    <g id="Page-1" stroke="none" stroke-width="1" fill="none" fill-rule="evenodd" sketch:type="MSPage">
        <g id="page01__panel02--hair" sketch:type="MSArtboardGroup" fill="#000000">
            <path d="M2298.37617,865.83947 C2297.81104,863.178383 2297.12052,860.545752 2296.38954,857.924237 C2296.79727,853.665164 2297.58561,849.354514 2298.04136,845.218158 C2298.76122,838.702607 2299.032,832.356459 2299.07691,825.802671 C2299.11915,819.539668 2299.16184,813.276665 2299.20408,807.013218 C2299.24854,800.551912 2298.19298,794.107501 2297.72878,787.663536 C2298.13518,784.510692 2298.5349,781.35696 2298.93285,778.203227 C2299.14405,776.533211 2299.36459,774.864085 2299.56645,773.192736 C2299.93772,770.111032 2299.50154,769.060381 2298.94708,765.129442 C2299.11648,764.647022 2299.29478,764.167716 2299.45218,763.68085 C2303.31739,751.73686 2299.94884,739.349577 2298.11383,727.401586 C2297.51358,723.493322 2296.89998,719.586393 2296.29572,715.67813 C2295.60654,697.114547 2294.53898,678.551853 2294.70438,659.977154 C2294.87378,640.845339 2295.64611,621.691292 2296.20324,602.566591 C2296.75814,583.512585 2297.38108,564.459913 2297.85194,545.403685 C2298.31081,526.820982 2298.91595,508.2036 2298.00179,489.632013 C2296.95778,468.41668 2296.61942,447.230248 2294.85867,426.046928 C2295.66923,420.06893 2296.36909,414.07048 2297.06939,408.086257 C2297.66787,402.965499 2298.35394,397.810949 2298.44375,392.64884 C2298.62027,382.471349 2296.61764,371.836338 2291.50568,362.985167 C2286.47376,354.272719 2278.86963,347.437927 2270.25751,342.422101 C2264.26073,338.930007 2257.84155,336.436544 2251.15559,335.046199 C2247.73546,332.40423 2244.31534,329.761818 2240.89521,327.11985 L2225.79766,320.748803 C2221.11433,319.490066 2216.43056,318.765326 2211.74723,318.559019 C2209.84108,314.499139 2207.17994,310.878993 2203.75982,307.702584 C2196.5523,301.493826 2190.46526,296.60783 2181.06347,294.000543 C2178.95858,293.416749 2176.66827,292.951225 2174.29792,292.637319 C2173.58517,292.485257 2172.87065,292.3452 2172.1539,292.225595 L2166.57107,278.996191 C2161.49557,270.416687 2154.66777,263.589453 2146.08811,258.513602 C2141.54218,256.59504 2136.99579,254.676479 2132.44941,252.757917 C2122.33087,250.038584 2112.21189,250.038584 2102.09335,252.757917 C2095.03568,254.066007 2086.9131,258.77771 2080.75003,263.785978 C2080.01149,262.03593 2079.27296,260.285881 2078.53442,258.536278 C2076.82124,256.318483 2075.10807,254.100688 2073.39445,251.883338 C2071.17661,250.170194 2068.95922,248.456605 2066.74139,246.743461 C2065.34791,246.15522 2063.95487,245.567425 2062.56138,244.979184 C2062.37064,244.57413 2062.18389,244.167742 2061.97402,243.768023 C2061.61209,242.657347 2061.1848,241.585353 2060.70815,240.542261 C2060.97404,237.310274 2060.74683,234.077842 2060.02297,230.845855 C2059.76508,225.165313 2058.07681,219.875152 2054.95725,214.975817 C2051.16275,208.561641 2046.05835,203.456889 2039.64361,199.66245 C2030.94079,194.569259 2021.15617,193.172688 2011.45337,194.507456 C2010.77174,192.983277 2009.97318,191.491557 2009.04567,190.034962 L2008.8567,189.731727 C2006.14622,184.705674 2002.45842,180.656464 1997.80755,177.570315 C1997.61502,176.183081 1997.34291,174.814522 1996.97519,173.480644 C1994.21179,163.444989 1987.14967,155.911245 1977.72387,151.93362 C1976.54026,151.434305 1975.34152,151.003907 1974.13256,150.638424 C1973.9307,148.273013 1973.51763,145.907603 1972.88181,143.542637 C1971.2669,137.678463 1968.0762,131.977468 1963.80727,127.266655 C1962.18614,122.333973 1959.43474,118.061561 1955.54864,114.451642 C1947.67995,107.228691 1938.07852,102.764201 1927.19433,102.707289 C1925.74971,102.69973 1924.30821,102.747305 1922.87293,102.846457 C1921.06816,102.7064 1919.20114,102.698841 1917.23541,102.867799 C1915.42397,102.873579 1913.64321,102.993183 1911.89402,103.226612 C1910.95629,103.156361 1910.02478,103.117234 1909.10439,103.113677 C1908.60951,103.021195 1908.11374,102.930936 1907.61976,102.830006 C1904.19163,102.128386 1900.70881,101.718885 1897.2749,101.028381 C1892.54266,100.076881 1887.87711,98.8443776 1883.32451,97.2650658 C1881.44415,96.3068966 1879.61048,95.2682501 1877.8275,94.1420123 C1874.54387,86.1525264 1869.02552,78.0581087 1861.17195,74.5820221 C1856.35078,72.4131361 1851.4936,70.3282844 1846.59996,68.3279117 C1842.06647,67.1576559 1837.49341,66.7108067 1832.88077,66.9869195 C1829.24678,67.0736216 1825.57944,67.6467446 1822.03926,68.6791663 C1821.32073,68.6493764 1820.59731,68.6378161 1819.86322,68.6653829 C1819.48084,68.6667168 1819.10423,68.6911712 1818.72496,68.70451 C1816.52891,68.0188966 1814.26928,67.5671565 1811.94607,67.3484005 C1805.1156,62.7651949 1796.30429,60.1583523 1788.62501,60.1583523 C1782.57221,60.1583523 1776.34733,61.6785288 1770.73071,64.3800768 C1764.56586,61.6251737 1760.3454,60.0818766 1752.37044,60.0160719 C1748.25091,59.9822803 1743.97219,60.3637695 1740.07186,61.5731524 C1737.81846,62.27166 1735.63219,63.0902166 1733.5184,64.035047 C1733.47127,63.8496379 1733.42858,63.6642289 1733.37879,63.4788198 C1733.12045,57.9481161 1731.50999,52.7913429 1728.54784,48.0093895 C1728.36153,47.7506171 1728.16901,47.4971802 1727.98093,47.2397417 C1727.38245,45.7795897 1726.67015,44.385687 1725.85158,43.0535872 C1724.91562,41.2235063 1723.70488,39.5534908 1722.21047,38.0488762 C1719.40216,33.7133273 1715.67746,30.2941528 1711.03592,27.7913527 C1707.19028,24.9306285 1702.17481,22.6532538 1697.10109,21.4483171 C1694.85525,20.8031647 1692.54093,20.4105599 1690.14924,20.3020711 C1686.57483,19.3412342 1682.99997,19.3412342 1679.42556,20.3020711 C1677.5283,20.3883286 1675.67951,20.6519918 1673.8743,21.0761651 C1671.12068,18.7765591 1668.1523,16.7712955 1664.99763,15.2035439 C1654.89821,10.1832709 1646.4177,8.07707724 1635.07153,7.41058275 C1633.03688,7.29142297 1630.96533,7.47683204 1628.94269,7.69247568 C1628.12635,7.77962239 1627.30199,7.8529857 1626.47675,7.92457049 C1622.93969,6.94150225 1619.27146,6.44085329 1615.46984,6.42884839 C1608.05645,6.45196894 1601.14684,8.32073233 1594.741,12.0360278 C1590.20306,15.4738766 1586.55929,18.2945844 1583.28545,21.6021577 C1582.35972,22.0249971 1581.44911,22.4851851 1580.5545,22.9760523 C1575.17043,13.4770609 1566.06699,6.62092685 1555.01472,3.95717205 C1552.4932,3.34892358 1549.93967,2.92697344 1547.37502,2.54637352 C1538.20311,1.18448386 1529.9596,-0.488199428 1520.85038,2.71622068 C1520.60894,2.80069963 1520.36884,2.88784634 1520.12785,2.97321455 C1518.03673,2.86205803 1515.94562,3.07992481 1513.85495,3.64193216 C1511.24495,3.89181201 1508.66118,4.29330936 1506.10276,4.83619779 C1503.48964,3.40628034 1500.74625,2.24269391 1497.92949,1.46726604 C1494.29016,0.977732734 1490.65128,0.48908868 1487.0115,0 C1483.37262,0.48908868 1479.73329,0.977732734 1476.09396,1.46726604 C1472.82367,2.84694074 1469.55384,4.22706007 1466.28355,5.6071794 C1462.66645,7.55775398 1459.59137,10.0494385 1457.05384,13.0795652 C1442.76463,9.69907315 1427.32071,11.1120948 1413.64644,16.404479 C1405.4585,19.573329 1397.1723,22.837329 1390.12797,28.1710633 C1381.04276,35.0512072 1372.30703,42.3541904 1366.9483,52.6868557 C1366.42942,52.5045591 1365.90875,52.3324888 1365.38141,52.1830944 C1360.05247,50.672255 1354.32559,50.0355505 1348.83391,49.8079019 C1327.90276,48.9413257 1308.94935,60.2975202 1294.05233,73.867508 C1289.76294,77.7748819 1285.71411,82.0050544 1281.94094,86.4126326 C1276.4466,92.8299207 1270.81353,99.6602664 1266.77181,107.145991 C1265.38055,109.723044 1264.16447,112.269862 1263.09868,114.818903 C1253.69334,118.426599 1246.75705,122.634985 1238.70072,129.322161 C1236.12318,131.461702 1233.9796,133.979619 1231.95918,136.623366 C1229.38564,137.600654 1226.85434,138.715331 1224.3804,139.982516 C1209.90756,147.396211 1199.07049,161.457066 1194.23821,176.789107 C1192.72734,181.581286 1192.03816,186.392141 1191.99903,191.171426 C1187.78257,195.112147 1184.37,199.761157 1180.91608,204.459076 C1177.05577,209.709666 1174.12785,215.745909 1172.06431,222.091613 C1170.76064,222.698083 1169.48187,223.350349 1168.24134,224.087984 C1165.2663,225.857595 1162.60338,228.047823 1159.868,230.161576 C1157.01522,232.365143 1154.12421,234.472226 1151.59024,237.039052 C1148.09053,240.584056 1145.18396,244.740865 1142.19779,248.693146 C1140.97905,250.306694 1139.83501,251.959814 1138.84481,253.725424 C1136.40599,258.07609 1134.59366,262.882498 1132.79201,267.492381 C1132.05436,269.378929 1131.4421,271.298825 1131.01925,273.281412 C1129.64266,279.73516 1128.48083,286.712232 1128.93214,293.401631 C1128.34033,295.022293 1127.81699,296.665631 1127.36391,298.328978 C1126.16473,300.346691 1125.02603,302.399974 1123.95713,304.490161 C1118.13242,306.742192 1112.41042,309.550006 1107.41852,313.190604 C1100.59027,318.171305 1093.78026,323.259606 1088.3615,329.793831 C1083.27,335.933672 1078.18027,342.33362 1074.31151,349.357378 C1068.12354,360.5913 1063.23301,373.115972 1061.2406,385.843394 C1060.72483,389.138073 1060.09389,392.742656 1059.60079,396.416157 C1058.2251,397.034632 1056.87563,397.749591 1055.55996,398.587266 C1048.10078,403.72581 1042.45393,408.158287 1037.65054,415.804077 C1035.81287,417.83913 1034.16417,420.06315 1032.72444,422.496588 C1031.97435,423.790006 1031.30517,425.10521 1030.70803,426.440422 C1028.68094,429.467436 1027.21543,432.822584 1026.33594,436.520095 C1026.23279,436.819773 1026.14208,437.122119 1026.04648,437.423575 C1024.8602,439.761419 1023.89045,442.20953 1023.25107,444.741231 C1022.9963,445.748754 1022.79043,446.774506 1022.61169,447.808262 C1021.73709,450.295055 1021.12972,452.8521 1020.6882,455.483841 C1020.44143,456.104095 1020.212,456.734575 1020.00257,457.376615 C1018.17468,460.529013 1017.25474,463.929514 1017.24362,467.577671 C1016.73451,469.470444 1016.50286,471.363217 1016.53176,473.256435 C1016.44817,474.000294 1016.39659,474.753491 1016.39437,475.519582 C1016.10669,476.589796 1015.91683,477.660011 1015.80301,478.730226 C1015.44196,480.895555 1015.25788,483.109349 1015.25077,485.371161 C1015.25611,487.159892 1015.38283,488.914831 1015.61003,490.642648 C1012.36287,492.226406 1009.23131,494.157862 1006.23715,496.384549 C996.718422,503.463886 989.469553,509.742006 983.193988,520.158705 C978.241654,528.378952 974.736159,539.055313 974.446258,548.943353 C971.052366,553.03658 968.52729,557.637126 966.900374,562.762776 C965.775449,564.962341 964.925754,567.237048 964.338837,569.583784 C963.806165,570.538396 963.315289,571.521465 962.841309,572.515649 C962.180138,572.427168 961.518968,572.338243 960.857352,572.249318 C953.614708,572.271993 946.864274,574.098073 940.605605,577.727555 C939.855507,578.112157 939.10541,578.496314 938.355312,578.880915 C933.233128,576.901885 927.879289,575.769422 922.297353,575.475524 C921.97855,575.279444 921.661082,575.081141 921.337388,574.89173 C905.371913,565.548803 885.074813,565.548803 869.108894,574.89173 C865.379303,577.097965 862.023205,579.67813 859.025038,582.615774 C858.460353,582.903003 857.901448,583.199124 857.34521,583.50058 C856.309658,583.61974 855.27366,583.789587 854.238108,584.021682 C848.90161,584.263559 843.931935,585.849984 839.329528,588.78007 C838.037421,589.778256 836.745315,590.776441 835.453208,591.774627 C834.456339,591.336226 833.423454,590.958738 832.346995,590.656837 C828.8166,588.608889 825.00831,587.578691 820.922123,587.566241 C814.904445,586.218579 808.886768,586.488023 802.869091,588.374571 L792.054257,592.938658 C789.000065,595.298289 785.945874,597.657919 782.891683,600.01755 C780.53201,603.071686 778.172337,606.125823 775.812664,609.179959 C772.504142,614.376304 770.713156,619.98704 770.440151,626.012168 C769.883914,628.49496 769.607796,630.978197 769.60246,633.460989 C769.407266,634.272876 769.267651,635.10077 769.176056,635.941113 C767.67675,636.50979 766.202344,637.170504 764.75506,637.930815 C758.273185,640.039232 752.664126,643.642926 747.927884,648.741453 C742.829265,653.47761 739.225506,659.086568 737.117052,665.568772 C735.241141,669.138674 733.950368,672.868198 733.238509,676.755564 C727.845542,677.489197 722.732251,679.249916 717.90308,682.050615 C711.635074,685.759242 706.64628,690.747501 702.937587,697.01584 C702.601444,697.481363 702.264856,697.947331 701.928713,698.412855 C700.838915,700.291845 699.909629,702.214408 699.135077,704.17921 C698.077737,704.30415 697.020842,704.468662 695.963057,704.705203 C690.583875,704.949303 685.574183,706.548178 680.933982,709.502274 C680.339951,709.927336 679.757035,710.359957 679.177677,710.795691 C678.534736,709.963351 677.891351,709.131011 677.24841,708.298671 C673.587293,704.356616 669.250777,701.570589 664.239752,699.94059 C661.086852,698.112288 657.686735,697.192801 654.038513,697.181241 C648.665555,695.978083 643.292597,696.218625 637.919639,697.902869 C634.700933,699.261646 631.482227,700.619534 628.263966,701.978311 C623.58108,704.748332 619.643845,708.26399 616.435366,712.508391 C613.508785,711.841896 610.475936,711.566228 607.335485,711.684499 C601.146624,711.45107 595.37394,712.741375 590.016989,715.555858 C585.603996,716.991111 581.669429,719.246254 578.198171,722.293721 C575.627297,723.401285 573.318312,724.957031 571.281889,726.979635 C566.436267,730.117806 562.615526,734.279951 559.818333,739.466959 C559.224747,740.590973 558.630716,741.714988 558.037129,742.839447 C556.700559,746.006519 555.363989,749.173591 554.027419,752.340662 C553.630361,753.607402 553.319562,754.874141 553.085685,756.140881 C552.377827,755.593991 551.670414,755.047546 550.962557,754.500655 C543.952012,750.43455 536.389676,748.388826 528.275549,748.363482 C522.087132,748.130498 516.314448,749.420803 510.957497,752.234841 C509.127828,752.830195 507.387086,753.578056 505.719263,754.450413 C505.64412,754.461528 505.568977,754.465975 505.492945,754.462418 C499.866101,754.077816 494.277495,754.818563 488.726239,756.68377 C467.724394,762.467021 450.873208,779.317904 445.089853,800.319372 C444.89955,800.925398 444.725253,801.531423 444.55896,802.137893 C442.392703,801.938256 440.201991,801.828878 437.983267,801.821764 C428.27735,801.455837 419.223712,803.47933 410.822796,807.893133 C402.083069,810.736072 394.520288,815.594946 388.135343,822.469309 C384.574269,825.776883 381.559206,829.403253 379.079926,833.342195 C376.461031,834.189208 373.904386,835.26298 371.412212,836.572404 C370.441576,836.888088 369.487836,837.232229 368.549213,837.602602 C362.149151,834.31726 355.304899,832.657471 348.014234,832.634795 C341.825817,832.401367 336.053133,833.691671 330.696182,836.506154 C330.517439,836.563956 330.346255,836.635096 330.169291,836.69601 C328.094184,835.092688 326.019077,833.489811 323.944414,831.88649 C315.461241,826.967147 306.311117,824.491913 296.493597,824.461234 C289.005515,824.178897 282.020758,825.740423 275.539328,829.14537 C268.796452,831.33871 262.961964,835.087353 258.035419,840.390852 C256.303569,841.99951 254.740236,843.707318 253.340083,845.509832 C247.715463,843.082619 241.764036,841.854117 235.482246,841.834553 C229.257369,841.599791 223.450004,842.898099 218.061928,845.728588 C215.116228,846.687202 212.384841,848.012188 209.855762,849.684427 C204.605968,845.464481 198.59496,842.548178 191.82096,840.937743 L175.964421,838.807094 C165.197607,838.840886 155.162661,841.555328 145.859583,846.950866 L145.531443,847.13583 C141.479493,850.266442 137.427543,853.397054 133.375593,856.527222 C130.244924,860.579099 127.114256,864.631421 123.983587,868.683299 C120.848473,873.607532 118.746243,878.813659 117.665782,884.299011 C117.125107,883.970432 116.576429,883.649857 116.011743,883.345733 C112.413765,881.82689 108.814897,880.308492 105.216473,878.790094 C99.2099118,876.906658 93.2029058,876.637659 87.1958997,877.983098 C83.1172715,877.995547 79.3156504,879.023967 75.7919255,881.067913 C70.1890918,882.890436 65.3412467,886.005041 61.247501,890.41173 C59.3956001,892.809154 57.5436993,895.206133 55.6917985,897.603112 C55.3712173,896.993085 55.2698407,896.324368 55.3601015,895.677437 C55.312081,895.560945 55.2769549,895.437783 55.2418288,895.313733 C50.2557025,893.150182 44.9472165,892.167559 39.3119246,892.38009 L38.4248796,892.274714 C29.7385087,892.301836 21.6426119,894.491619 14.1371891,898.844508 C8.52946437,901.86841 4.02887848,905.999876 0.635876011,911.238016 C0.610976504,911.265582 0.588300168,911.294483 0.563400661,911.322494 C-9.99443495,913.185922 -20.2801545,918.354256 -27.7197715,925.793295 C-32.7966031,930.509443 -36.3852446,936.094391 -38.4852512,942.548584 C-41.7448635,948.75334 -43.2392785,955.439627 -42.968941,962.607444 C-42.3655726,976.072056 -37.9427977,990.036871 -27.7197715,999.421594 C-17.5332053,1008.77208 -5.01231037,1014.67004 9.09459425,1014.67004 C19.7667008,1014.67004 30.8629883,1010.95075 39.7112059,1004.63795 C41.3972583,1008.59734 43.7902787,1012.14368 46.8982708,1015.27296 C51.6638586,1022.63063 57.9847763,1028.43256 65.8605793,1032.67962 L82.0056864,1039.49263 C87.9949071,1040.2974 93.9841278,1041.10218 99.9729039,1041.90695 C109.277761,1042.2582 117.957907,1040.31786 126.012453,1036.08635 C132.878492,1033.85255 138.985096,1030.31955 144.335377,1025.49047 C144.609717,1029.55746 145.257104,1033.63157 146.377582,1037.6999 C148.488259,1046.57908 152.559329,1054.31379 158.59079,1060.9036 C163.40173,1068.33152 169.783118,1074.18947 177.734509,1078.47744 L194.033904,1085.35536 C203.10355,1088.19919 212.173195,1088.60514 221.242396,1086.57408 C230.322712,1086.16236 238.779207,1083.46348 246.610992,1078.47744 C254.562827,1074.18947 260.94377,1068.33152 265.755155,1060.9036 C271.358434,1054.7811 275.267212,1047.66841 277.486825,1039.56999 C277.874101,1039.37881 278.260933,1039.18673 278.644652,1038.98487 C286.820583,1036.32511 293.895155,1031.78015 299.868369,1025.34952 C304.3445,1021.19182 307.904241,1016.49924 310.55337,1011.27488 C311.898833,1011.06857 313.22651,1010.86716 314.52662,1010.67864 C326.618888,1008.92503 338.552866,1006.48092 350.288537,1003.05641 C354.984762,1001.68607 359.669871,1000.19213 364.333638,998.5937 C385.727205,1000.42511 407.120328,1002.25742 428.513451,1004.08883 C452.79136,1006.16791 477.424086,1009.62176 501.771802,1010.06016 C524.870097,1010.47589 548.071102,1009.57997 571.173842,1009.34076 L858.422114,1006.36443 C882.222486,1006.11766 905.956607,1009.29629 929.752532,1009.31719 C953.524003,1009.33809 977.312369,1009.26295 1001.08251,1008.99084 C1048.62856,1008.44617 1096.2213,1007.42842 1143.74245,1005.82821 C1191.40055,1004.22311 1238.87146,1012.74259 1286.38061,1011.00944 C1333.89732,1009.27629 1381.3211,1009.65733 1428.86493,1009.85163 C1482.13742,1010.0695 1535.40547,1010.29848 1588.67752,1009.92766 C1615.62902,1009.74003 1642.5934,1010.44832 1669.54312,1010.80091 C1682.37837,1010.96898 1695.21407,1011.10281 1708.04887,1011.28155 C1722.60486,1011.4843 1736.52546,1008.06246 1748.55859,1001.20588 C1751.09968,1001.5349 1753.63943,1001.87549 1756.17918,1002.19161 C1759.37343,1002.58867 1762.63526,1002.81987 1765.80506,1003.38721 C1751.1348,1000.76214 1774.10949,1004.45209 1777.35576,1004.62639 C1791.40887,1005.38003 1805.63582,1005.81132 1819.70804,1005.67926 C1847.29937,1005.42049 1874.89202,1004.8816 1902.48023,1004.40274 C1930.00174,1003.92521 1957.73668,1006.22215 1985.24308,1007.28303 C1999.35532,1007.82725 2013.46845,1008.35458 2027.58202,1008.86501 C2033.97319,1009.09621 2040.43106,1009.60264 2046.82623,1009.387 C2055.59219,1009.09132 2064.7183,1007.19721 2073.63633,1005.5392 C2083.94295,1004.59037 2094.24912,1003.63932 2104.55396,1002.67048 C2117.24515,1001.4771 2130.29293,999.18772 2143.0357,999.062781 C2168.48478,998.812456 2194.57012,1002.42104 2219.98852,1003.97946 C2258.0074,1006.30974 2286.3128,967.955407 2281.60368,932.906423 C2281.49786,932.120324 2281.36803,931.350231 2281.23953,930.579694 C2284.71523,926.525149 2287.92015,922.201605 2290.87875,917.76646 C2294.58611,912.20819 2297.58116,905.730432 2299.27388,899.412296 C2302.11598,888.807519 2301.15113,879.450364 2298.99599,869.076793 C2298.77278,868.001242 2298.60515,866.914576 2298.37617,865.83947 L2298.37617,865.83947 Z M1722.57729,348.603737 C1716.88642,351.672101 1712.32003,355.864481 1708.87678,361.179985 C1707.17294,362.895797 1705.77546,364.790794 1704.66298,366.85208 C1699.69287,366.815621 1695.03443,367.92185 1690.69614,370.201004 C1687.16619,371.349473 1683.98883,373.100855 1681.15652,375.44359 C1676.52654,377.456857 1672.20692,380.411841 1668.8317,383.934169 C1667.25148,385.582398 1665.82242,387.368016 1664.43427,389.192762 C1663.47653,388.507148 1662.49478,387.845545 1661.46234,387.234629 C1654.12543,384.068446 1646.7574,379.916528 1638.39695,380.563459 C1637.04037,380.668391 1635.68157,380.797332 1634.32321,380.943614 C1627.99562,380.575908 1621.62224,381.68036 1615.51697,383.493545 C1611.27916,384.751837 1606.80748,386.295134 1603.07433,388.444011 C1599.2029,390.673367 1595.82546,393.662588 1592.25816,396.433497 C1590.20306,399.093695 1588.14708,401.754782 1586.09198,404.41498 C1584.76652,407.555374 1583.44151,410.695323 1582.11606,413.835717 C1581.94532,415.109126 1581.77414,416.382091 1581.60295,417.6555 C1580.78838,416.693329 1579.9129,415.774287 1578.96938,414.9086 C1571.31412,407.881285 1561.90344,403.448363 1551.30159,403.448363 C1545.9144,403.245169 1540.88914,404.368739 1536.22627,406.818184 C1531.37531,408.396162 1527.17752,411.092819 1523.63379,414.9086 C1520.66585,417.665282 1518.38444,420.821682 1516.77042,424.36802 C1516.28443,424.075456 1515.79355,423.790006 1515.28845,423.52323 C1512.09553,422.175568 1508.90217,420.828351 1505.7097,419.48069 C1500.56973,418.099681 1495.42976,417.722638 1490.28979,418.339779 C1488.9092,418.222843 1487.53039,418.180603 1486.15736,418.258413 C1485.00309,418.323773 1483.87461,418.417589 1482.71545,418.366902 C1479.74218,418.236626 1478.80222,418.341113 1475.07752,418.841318 C1472.00244,419.25482 1469.95356,419.606074 1467.96872,420.184978 L1468.33865,420.028914 C1468.18614,420.093385 1468.03452,420.150297 1467.88246,420.21121 C1466.87847,420.507776 1465.88605,420.863032 1464.78336,421.317885 C1460.33791,422.941215 1456.39178,425.168347 1452.9263,428.13667 C1446.04603,426.183428 1438.64065,425.724574 1432.11743,428.229597 C1428.38739,429.662182 1424.65691,431.094767 1420.92643,432.527353 C1415.83493,433.737625 1411.39926,436.072356 1407.61987,439.530658 C1403.63017,442.115269 1400.44036,445.500208 1398.03045,449.66502 C1391.76466,448.355152 1385.49888,448.538338 1379.23265,450.222136 C1366.34894,453.770253 1354.46076,464.664036 1351.45192,478.002818 L1350.62934,481.648752 C1349.32168,481.018272 1347.95042,480.495837 1346.50981,480.092116 C1340.67932,477.029087 1334.39664,475.624513 1327.66133,475.878839 C1323.53068,476.02112 1319.41781,476.520879 1315.41522,477.45415 C1315.49169,476.1634 1315.51348,474.857978 1315.46324,473.532548 C1315.3463,472.663748 1315.2298,471.794949 1315.11331,470.92615 C1315.88786,470.247206 1316.64463,469.541139 1317.36405,468.782163 C1318.17728,467.924034 1318.99096,467.065906 1319.8042,466.207778 C1319.92603,466.05038 1320.04741,465.892982 1320.16924,465.73514 C1323.73654,463.048709 1326.62044,459.678888 1328.8116,455.61634 C1329.19531,454.889821 1329.56347,454.148185 1329.91829,453.396322 C1330.47186,452.680029 1331.02543,451.963292 1331.579,451.247 C1332.90845,448.09549 1334.23835,444.94398 1335.56825,441.792915 C1337.06712,437.01363 1337.38547,432.234789 1336.55045,427.455948 C1337.21251,426.865929 1337.86434,426.258125 1338.50151,425.624978 C1343.03811,421.412145 1346.24347,416.422107 1348.11983,410.655307 C1349.34346,408.325911 1350.2852,405.919595 1350.9517,403.438581 C1355.34869,402.07847 1359.2508,399.871346 1362.63402,396.775415 C1367.05902,393.909355 1370.54895,390.108247 1373.10293,385.371645 C1373.92639,383.812786 1374.65114,382.230362 1375.29408,380.631931 C1391.0697,384.28409 1407.86575,379.719114 1419.39067,368.193962 C1426.3274,361.25735 1430.80131,352.308361 1432.41978,342.837826 C1433.39264,342.07218 1434.35794,341.295863 1435.31524,340.507541 C1435.83279,340.236319 1436.35523,339.970877 1436.87857,339.698766 C1440.11639,338.016301 1442.95716,335.772273 1445.43422,333.16543 C1448.13982,333.722547 1450.917,334.020002 1453.77244,334.028894 C1455.44426,334.241425 1457.11653,334.451734 1458.7888,334.662931 C1462.16268,335.089772 1465.44053,334.636253 1468.82108,334.3428 C1469.74192,334.377481 1470.64852,334.361919 1471.54935,334.323237 C1479.24953,340.897478 1488.53482,344.982257 1498.91836,344.982257 C1505.96936,344.982257 1513.25603,342.905854 1519.52314,339.288376 C1523.78541,341.102006 1528.31667,341.931233 1533.12361,341.749826 C1537.4081,342.079294 1541.89268,340.897033 1545.98154,340.164734 C1553.13837,338.157692 1559.35213,334.536213 1564.62282,329.30074 C1565.62147,328.373251 1566.54542,327.402632 1567.40178,326.391997 L1570.08115,327.522681 C1573.94947,328.042449 1577.81823,328.562217 1581.68654,329.082429 C1585.94569,329.242494 1589.99809,328.644917 1593.85173,327.319042 C1597.28431,329.577743 1601.07036,331.324234 1605.09653,332.433131 C1611.94745,334.274328 1618.79792,334.334797 1625.64885,332.626544 C1633.01287,339.865945 1642.38487,343.675946 1653.20815,344.013862 C1655.61807,344.089004 1658.04355,344.041873 1660.4717,343.976513 C1661.46768,344.422029 1662.48678,344.828417 1663.54234,345.172113 C1666.61921,346.956397 1669.93306,347.872772 1673.47946,347.936798 C1677.79197,349.407176 1682.30234,350.151036 1687.01146,350.165708 C1694.60003,350.142143 1701.67282,348.228917 1708.22939,344.42603 C1710.04172,343.354481 1711.73444,342.163773 1713.33424,340.879693 C1713.99941,341.296307 1714.67659,341.700472 1715.37911,342.079738 C1719.00732,344.183709 1722.77471,345.778138 1726.67904,346.872808 C1725.31135,347.449488 1723.94454,348.026612 1722.57729,348.603737 L1722.57729,348.603737 Z M1864.54361,466.808023 C1864.93578,466.995655 1865.32972,467.174839 1865.72678,467.342019 C1865.94999,467.43628 1866.14829,467.524315 1866.33415,467.60835 C1866.7939,467.963161 1867.30434,468.333535 1867.8419,468.709689 C1867.31501,468.744369 1865.45022,468.064981 1864.54361,466.808023 L1864.54361,466.808023 Z" id="Imported-Layers" sketch:type="MSShapeGroup"></path>
        </g>
    </g>
</svg>