<?xml version="1.0" encoding="UTF-8" standalone="no"?>
<svg width="1653px" height="2658px" viewBox="0 0 1653 2658" version="1.1" xmlns="http://www.w3.org/2000/svg" xmlns:xlink="http://www.w3.org/1999/xlink" xmlns:sketch="http://www.bohemiancoding.com/sketch/ns">
    <!-- Generator: Sketch 3.3.3 (12072) - http://www.bohemiancoding.com/sketch -->
    <title>page03__panel01--ray</title>
    <desc>Created with Sketch.</desc>
    <defs></defs>
    <g id="Page-1" stroke="none" stroke-width="1" fill="none" fill-rule="evenodd" sketch:type="MSPage">
        <g id="page03__panel01--ray" sketch:type="MSArtboardGroup">
            <g id="Imported-Layers" sketch:type="MSLayerGroup" transform="translate(-129.000000, 0.000000)">
                <path id="Fill-1" fill="#CCCCCC" sketch:type="MSShapeGroup" d="M1120.63657,1175.96717 C1120.57268,1176.0211 1120.51128,1176.0738 1120.45527,1176.12276 C1120.51501,1176.07007 1120.57641,1176.01945 1120.63657,1175.96717"></path>
                <path d="M2046.42859,2388.00236 C2050.07189,2365.11172 2054.03048,2342.26922 2057.31948,2319.32299 C2064.20034,2271.32274 2069.00732,2223.28929 2063.48388,2174.88242 C2060.6367,2149.93172 2056.42753,2125.20424 2051.76119,2100.54024 C2049.64334,2089.34657 2047.47819,2078.16203 2045.46238,2066.94969 C2044.51443,2061.67608 2043.59676,2056.39707 2042.73261,2051.10894 C2042.30074,2048.46632 2041.8809,2045.82163 2041.47766,2043.17404 C2041.18186,2041.23305 2040.56704,2036.92952 2040.65997,2037.75603 C2028.8203,1946.31465 2037.1208,1853.79283 2034.46073,1761.94275 C2032.12175,1681.17266 2019.82449,1602.19335 1986.49883,1528.1134 C1955.18441,1458.50462 1902.02515,1398.88789 1831.74837,1367.40471 C1788.64614,1348.09566 1743.13398,1334.37762 1698.35323,1319.57831 C1653.5007,1304.75535 1608.64817,1289.93281 1563.79606,1275.10985 C1527.33821,1263.06103 1490.97578,1250.64792 1455.38042,1236.22079 C1454.70877,1235.94819 1454.16364,1235.72745 1453.71642,1235.54613 C1452.10386,1234.8582 1450.49255,1234.16694 1448.8858,1233.46614 C1444.44971,1231.53097 1440.03353,1229.55014 1435.641,1227.5187 C1427.39152,1223.70228 1419.22211,1219.70952 1411.17217,1215.48856 C1395.31085,1207.17193 1379.86812,1198.01012 1365.22815,1187.6828 C1362.22664,1185.56589 1359.24754,1183.40997 1356.32236,1181.18725 C1357.95234,1182.37931 1350.15714,1176.08666 1348.83042,1174.95228 C1342.15035,1169.24051 1335.71878,1163.23332 1329.61786,1156.90581 C1326.74537,1153.9267 1323.93802,1150.88327 1321.21405,1147.76765 C1319.85082,1146.20839 1318.55107,1144.58523 1317.17623,1143.03592 C1316.72486,1142.52765 1316.34858,1142.1065 1316.03287,1141.75673 C1315.95073,1141.64594 1315.86071,1141.5252 1315.75907,1141.39118 C1310.52188,1134.44711 1305.74477,1127.17732 1301.27425,1119.71958 C1283.82982,1090.62177 1269.13218,1058.96723 1243.86558,1035.50276 C1234.76274,1027.0488 1224.36055,1019.84996 1213.00875,1014.81659 C1202.50285,1000.99939 1186.5121,993.992662 1169.52485,1001.16245 C1155.02427,1007.2825 1142.25863,1026.56044 1149.08555,1042.81321 C1149.30418,1043.33352 1149.51659,1043.85382 1149.72941,1044.37372 C1150.11192,1049.74898 1151.64607,1055.21512 1153.97675,1060.68997 C1155.17279,1063.49855 1156.43271,1066.28265 1157.7474,1069.04476 C1158.31618,1071.40648 1158.83433,1073.79019 1159.30188,1076.20045 C1159.30686,1076.46641 1159.71135,1079.32188 1159.84493,1081.30726 C1160.04158,1084.22497 1160.14737,1087.15222 1160.1652,1090.07656 C1160.18304,1093.00381 1160.11169,1095.9348 1159.95363,1098.8579 C1159.87439,1100.3209 1159.76611,1101.78266 1159.64331,1103.24276 C1159.61842,1103.53818 1159.51387,1104.51324 1159.41472,1105.45552 C1159.12142,1107.08117 1158.5738,1110.40757 1158.40952,1111.21085 C1157.72459,1114.56505 1156.9322,1117.89726 1156.02034,1121.1971 C1155.23875,1124.02394 1154.37377,1126.83087 1153.42789,1129.60667 C1153.01095,1130.83068 1151.05738,1135.63087 1150.65455,1136.7997 C1149.86881,1138.37307 1148.72048,1140.702 1148.40062,1141.3194 C1147.05606,1143.91804 1145.63434,1146.47269 1144.13296,1148.98419 C1142.63283,1151.49279 1141.05719,1153.95201 1139.40315,1156.36227 C1138.96174,1157.00539 1138.51037,1157.64146 1138.05776,1158.27587 C1137.63834,1158.83062 1136.90818,1159.76834 1136.06809,1160.74713 C1132.25885,1165.18634 1128.1617,1169.36913 1123.78825,1173.2536 C1122.75069,1174.17472 1121.68284,1175.05725 1120.63657,1175.96717 C1122.22092,1174.62698 1126.03638,1171.88105 1118.96925,1177.34179 C1111.74198,1182.92618 1115.41764,1179.82093 1116.90657,1178.80064 C1114.96419,1180.1317 1113.03634,1181.48102 1111.07572,1182.78635 C1098.33414,1191.26894 1085.00388,1198.82004 1072.79705,1208.09471 C1046.66423,1227.95063 1028.25816,1252.34493 1016.53921,1282.89911 C1007.22063,1307.19383 1001.12884,1332.48145 991.641833,1356.77409 C988.847755,1363.92894 988.628709,1364.57165 985.529294,1371.24727 C982.72277,1377.29346 979.19439,1382.80068 975.536575,1388.37345 C974.01653,1390.6891 972.470349,1393.01265 970.817963,1395.24034 C971.38881,1394.413 969.89905,1396.10255 968.595147,1397.60165 C964.868464,1391.55421 961.267069,1385.43458 957.461564,1379.43403 C949.478424,1366.84665 941.075031,1354.52731 932.273373,1342.49758 C913.973094,1317.48712 892.884959,1295.24418 872.540252,1271.98551 C850.699562,1247.01738 826.539393,1223.86452 801.138794,1202.55223 C788.256994,1191.74361 775.36897,1182.00506 758.402879,1170.12553 C755.841537,1168.33184 753.26277,1166.56428 750.676537,1164.80876 C750.554568,1163.79304 750.404389,1162.77193 750.211064,1161.74459 C745.660471,1137.52995 740.387608,1113.31988 736.833507,1088.93927 C735.781423,1081.72301 731.775126,1075.78138 726.235508,1071.43594 C726.095285,1065.20055 725.806958,1059.01328 725.348953,1052.90236 C723.477522,1027.92552 697.874472,1009.95831 674.439477,1023.68422 C638.002788,1045.02514 618.391552,1081.01018 601.042545,1117.89311 C597.166929,1126.13173 593.234476,1134.3496 588.864347,1142.3401 C586.828631,1146.06275 584.7087,1149.74017 582.446471,1153.33005 C580.847603,1155.86727 579.156636,1158.32774 577.454053,1160.79526 C576.716018,1161.86492 576.345548,1162.44207 576.178775,1162.73376 C575.902063,1162.99765 575.363576,1163.5611 574.379114,1164.65649 C567.625618,1172.16859 560.660128,1179.28485 552.908064,1185.78911 C552.929637,1185.77086 546.557396,1190.71129 547.796996,1189.84702 C546.410536,1190.86232 545.015778,1191.86725 543.611064,1192.856 C538.048629,1196.77117 532.329377,1200.46436 526.52093,1204.00279 C484.891859,1229.36053 439.436955,1249.24051 395.226215,1269.58977 C346.340423,1292.09163 301.382521,1311.44633 252.657695,1330.94998 C196.902246,1353.26761 140.50169,1374.00938 83.6883498,1393.47196 C68.1244831,1398.80366 58.444153,1411.27279 57.6189976,1427.71767 C46.2788149,1653.61502 49.5221859,1879.38001 53.6645574,2105.4035 C57.7832819,2330.15236 67.820806,2554.62198 75.8894072,2779.25051 C80.4495422,2906.20476 83.853049,3033.1839 86.2924225,3160.19623 C86.7309289,3183.00762 106.050518,3204.91033 129.930657,3203.84067 C144.766445,3203.17597 158.613209,3195.55683 166.580584,3183.78352 C248.059808,3181.54088 329.55521,3179.5277 410.976768,3175.78181 C497.533456,3171.80026 584.167723,3169.73728 670.782491,3167.28594 C742.826566,3167.7046 814.864418,3168.3278 886.885676,3169.02777 C1006.1727,3170.18705 1125.47217,3169.212 1244.75255,3170.41692 C1321.76416,3171.19489 1398.78986,3173.4562 1475.80769,3175.6673 C1489.70963,3178.61114 1503.5344,3181.91306 1517.26708,3185.58841 C1528.7645,3188.66586 1541.70438,3185.3963 1550.74375,3177.7477 C1567.38335,3178.18336 1584.02253,3178.59621 1600.66047,3178.96507 C1667.35119,3180.44425 1734.02367,3181.76162 1800.72684,3182.52175 C1834.36074,3182.90472 1868.18714,3184.3922 1901.81274,3183.6885 C1918.65562,3183.33623 1935.50472,3182.55245 1952.35589,3182.28234 C1969.15438,3182.01306 1986.11342,3183.53581 2002.89905,3184.33038 C2025.9951,3185.42369 2040.48573,3165.10389 2042.66913,3144.55464 C2052.47724,3052.24691 2048.36847,2958.92968 2043.3885,2866.43731 C2038.3994,2773.77607 2031.69112,2681.11483 2031.8579,2588.26854 C2031.94087,2542.07567 2033.71979,2495.85418 2038.29071,2449.87582 C2040.91594,2423.47249 2042.2298,2414.38163 2046.42859,2388.00236 L2046.42859,2388.00236 Z M1980.41906,2169.52416 C1980.16102,2167.5923 1979.73496,2163.66593 1980.41906,2169.52416 L1980.41906,2169.52416 Z M1078.43333,1304.94455 C1077.32068,1306.51212 1075.49447,1308.77467 1078.43333,1304.94455 L1078.43333,1304.94455 Z M973.713682,1404.55817 C973.519113,1404.31005 973.305876,1404.06981 973.084341,1403.83331 C973.916549,1404.31876 975.834029,1407.25638 973.713682,1404.55817 L973.713682,1404.55817 Z" id="Fill-2" fill="#CCCCCC" sketch:type="MSShapeGroup"></path>
                <path d="M1240.57948,475.487375 C1237.78997,473.331459 1234.71337,471.659338 1231.47996,470.478065 C1222.97285,437.404503 1206.88418,405.944974 1201.0915,372.068545 C1198.76082,347.789594 1201.97515,323.323515 1199.41049,299.050788 C1197.51583,281.120089 1193.90531,265.227469 1185.96697,248.938186 C1179.85941,236.403916 1170.47073,224.887026 1160.16977,215.538914 C1140.58923,197.769203 1117.25754,185.054028 1094.08515,172.68448 C1065.88674,157.632485 1037.07019,145.610639 1005.03516,142.465557 C973.900784,139.408853 942.340352,148.146205 912.273829,155.175753 C897.27915,158.681399 882.284055,162.187459 867.288961,165.693105 C852.394678,169.1751 836.70013,172.321012 823.746144,180.947995 C822.338941,181.885296 820.989403,182.862844 819.688819,183.87483 C814.588537,183.431282 809.472076,183.340415 804.482561,183.600984 C778.392881,184.962331 755.091056,193.425837 731.366074,203.602541 C714.692044,210.754904 698.900834,219.09103 684.033102,229.519175 C666.821828,241.591641 650.265618,254.957823 635.877463,270.33221 C627.685233,279.086159 620.128154,288.517254 613.17511,298.27572 C606.898286,307.084853 602.191706,316.479021 598.087916,326.393497 C591.845112,332.93759 585.765347,339.609893 579.498895,346.190084 C569.704893,356.475497 566.934462,372.88469 574.448396,385.338881 C577.761463,390.829911 581.985977,395.137179 586.785071,398.299688 C586.778433,398.502168 586.77221,398.704648 586.765988,398.907128 C586.086863,420.437245 585.438022,441.970681 585.262952,463.512 C584.891238,509.202401 587.448431,554.452988 593.937663,599.696107 C599.915787,641.372587 609.053066,682.605105 619.37145,723.401128 C629.632998,763.974755 639.977104,804.807706 652.668898,844.697963 C664.475383,881.806191 680.322599,917.788746 700.882203,950.897576 C706.518483,959.973916 712.430645,968.896322 718.588818,977.653175 C726.970224,1016.19329 735.421325,1054.71805 743.834675,1093.25069 C748.80552,1116.01726 752.292414,1139.41742 761.953246,1160.77161 C770.079098,1178.73343 786.564782,1193.61199 804.128271,1202.14188 C819.39095,1209.5544 835.586647,1214.15501 851.311894,1220.23979 C854.7768,1221.88204 858.139651,1223.69067 861.362694,1225.75696 C862.305669,1226.64032 863.216286,1227.55356 864.100766,1228.49584 C865.015946,1229.92772 865.875535,1231.39197 866.687415,1232.8865 C873.206516,1252.18394 875.887338,1272.46848 883.859277,1291.3622 C889.473155,1304.66656 896.429103,1316.63488 906.585692,1327.16344 C913.671076,1334.50791 922.917463,1341.31547 932.848368,1345.59411 C932.847124,1348.14628 933.189383,1350.69802 933.874731,1353.24977 C933.87639,1353.26056 933.878049,1353.27135 933.879709,1353.28214 C934.846331,1355.57331 935.813369,1357.86491 936.779991,1360.15609 C938.279708,1362.09791 939.779425,1364.0389 941.279142,1365.98071 L947.102524,1370.4805 C949.393792,1371.44726 951.685061,1372.41444 953.975915,1373.3812 C956.525641,1373.72392 959.075367,1374.06664 961.625093,1374.40895 C964.174819,1374.06664 966.724545,1373.72392 969.274271,1373.3812 C971.56554,1372.41444 973.856394,1371.44726 976.147663,1370.4805 C979.500557,1368.67187 982.19175,1366.20145 984.220412,1363.0684 C986.003893,1361.27305 987.236855,1359.15655 987.920544,1356.71932 C989.221958,1354.47503 989.876606,1352.05439 989.884903,1349.457 C990.569836,1346.90691 990.569836,1344.35683 989.884903,1341.80674 C989.880755,1340.56862 989.725597,1339.372 989.427728,1338.21437 C994.693954,1333.07229 998.946678,1326.73856 1000.13442,1319.68578 C1002.89199,1303.30895 1007.33057,1287.34621 1013.38586,1271.90834 C1014.36285,1269.74246 1015.36972,1267.58821 1016.40728,1265.44764 C1019.95267,1260.85781 1023.32174,1256.12567 1026.32491,1251.19229 C1029.62056,1245.77843 1032.30511,1240.13388 1034.81377,1234.37897 C1034.82248,1234.36693 1034.83077,1234.3549 1034.8399,1234.34287 C1034.837,1234.34121 1034.83409,1234.33955 1034.8316,1234.3383 C1036.23673,1231.11273 1037.58835,1227.85354 1038.95946,1224.57984 C1039.10756,1224.22591 1039.24115,1223.85829 1039.36809,1223.48404 L1062.37537,1207.81879 C1068.81233,1203.43601 1073.98189,1197.86241 1077.4999,1191.56519 C1078.15372,1191.22745 1078.81251,1190.89593 1079.47421,1190.57022 C1085.85434,1188.28526 1092.37966,1186.55879 1099.10204,1185.42108 C1108.77491,1183.7834 1120.53161,1173.97058 1125.00794,1165.49711 C1130.5961,1154.91835 1132.0676,1143.86908 1129.37724,1132.0912 C1127.21001,1122.60119 1125.40662,1113.04686 1123.94963,1103.42864 C1120.30261,1072.07699 1120.47809,1040.35772 1124.18444,1009.01644 C1128.78109,978.585082 1136.8584,948.813855 1148.42136,920.288214 C1150.62883,915.223305 1152.92632,910.185366 1155.44991,905.274807 C1155.98632,904.257012 1156.51859,903.236727 1157.05708,902.220592 C1162.28514,892.548429 1163.40733,880.753128 1160.41619,870.286811 C1167.73888,854.938979 1174.19119,839.060466 1179.07159,822.817655 C1184.83358,803.640541 1187.7965,783.746862 1189.38915,763.814182 C1190.66069,747.902476 1190.53872,731.931851 1192.20189,716.051263 C1193.30044,709.484765 1194.7956,703.015772 1196.94291,696.720629 C1197.69173,695.376709 1198.51606,694.070545 1199.3827,692.792597 C1202.54641,689.24297 1206.01257,686.071333 1209.81226,683.131636 C1209.32148,683.510872 1208.83029,683.890107 1208.33951,684.269758 C1214.88973,679.098214 1220.7239,673.852401 1225.45993,666.301716 C1229.90556,659.214909 1232.48931,651.102839 1233.93136,642.938904 C1236.45205,628.666956 1238.95074,614.391273 1241.46023,600.118079 C1244.36632,583.589389 1247.27656,567.139119 1249.21395,550.460228 C1250.06358,543.143557 1251.12811,535.841408 1251.39819,528.484904 C1251.58197,523.474765 1251.71348,518.436825 1251.97443,513.415897 C1252.2445,512.659916 1252.49715,511.897711 1252.72906,511.128452 C1256.93532,498.265981 1250.8012,483.385347 1240.57948,475.487375 L1240.57948,475.487375 Z M839.363528,303.359301 C839.933545,302.918657 840.503147,302.478429 841.073163,302.0382 C840.46415,302.514527 839.861774,302.992928 839.271014,303.479212 C839.301714,303.43938 839.332413,303.399548 839.363528,303.359301 L839.363528,303.359301 Z" id="Fill-3" fill="#808080" sketch:type="MSShapeGroup"></path>
                <path d="M824.161833,447.378727 C820.665813,440.950396 816.352519,438.246373 813.944675,431.074923 C812.278185,426.111669 811.440584,417.885082 804.784579,417.219967 C798.583675,416.602569 792.981413,422.455408 792.5483,428.672545 C792.115186,434.890928 795.875887,440.840028 800.918918,444.502098 C789.348074,444.611221 777.821204,439.603986 770.001519,431.073263 C770.906327,439.537599 775.390543,447.560876 782.125786,452.765613 C750.324321,455.09538 718.889592,462.36558 689.293934,474.234322 C675.970723,479.577226 662.848719,485.956182 651.993922,495.35035 C641.139125,504.744103 632.65359,517.478779 630.663509,531.695958 C644.57665,505.310051 674.25279,490.922755 703.437322,484.767855 C732.621854,478.612956 762.872574,478.924559 792.066233,472.812811 C796.228103,471.941897 800.819352,470.998373 804.526951,473.081263 C806.12333,473.977902 807.382429,475.358336 808.612487,476.715534 C816.204,485.090247 823.795512,493.465375 831.387025,501.840503 C829.892287,487.501753 828.397963,473.162587 826.903224,458.823837 C826.493758,454.894974 826.049029,450.849105 824.161833,447.378727" id="Fill-4" fill="#000000" sketch:type="MSShapeGroup"></path>
                <path d="M936.655118,439.757921 C959.698071,437.482093 981.491882,428.638937 1003.25665,420.735571 C1025.02142,412.832205 1047.7383,405.696438 1070.85302,407.06069 C1093.96816,408.424527 1117.78482,419.960503 1127.80658,440.837538 C1113.81918,432.08276 1096.56518,430.264172 1080.077,430.894434 C1050.34029,432.03048 1021.4109,440.318476 992.12224,445.58462 C962.833579,450.851179 931.790477,452.944443 904.060857,442.141212 C900.559858,440.777375 892.291295,437.571301 891.722937,433.011762 C891.31762,429.760047 895.279527,427.363063 898.492199,428.006186 C903.913997,429.090783 908.105322,435.299207 913.408055,437.461347 C920.644448,440.411417 928.991835,440.514317 936.655118,439.757921" id="Fill-5" fill="#000000" sketch:type="MSShapeGroup"></path>
                <path d="M831.46087,548.601394 C832.253667,557.157427 830.435338,579.880019 836.802186,585.527473 C842.138522,573.61641 844.255965,558.765235 843.732827,546.233455 C843.554853,541.970168 842.061359,536.541375 837.809049,536.194503 C835.151875,535.977916 832.777634,538.17076 831.879463,540.681016 C830.980878,543.191273 831.215273,545.946331 831.46087,548.601394" id="Fill-6" fill="#000000" sketch:type="MSShapeGroup"></path>
                <path d="M787.632215,528.373291 C781.008155,523.254858 773.050736,520.154587 765.021131,517.789967 C744.710028,511.808503 722.544503,510.222685 702.512186,517.081287 C682.480283,523.938643 665.028806,540.185604 660.188226,560.800825 C672.573439,550.480145 685.982941,541.389697 700.155369,533.706238 C704.186973,537.646303 708.218577,541.585953 712.249766,545.526019 C709.168605,545.56834 705.871717,545.678294 703.366381,547.472816 C700.86146,549.267338 699.846299,553.421086 702.209753,555.398587 C703.751786,556.688984 705.991612,556.564508 707.992479,556.368667 C733.741559,553.854261 759.459526,551.018709 785.138495,547.863254 C786.549432,547.689818 788.305532,547.194406 788.492219,545.784513 C788.668119,544.45221 787.257597,543.506611 786.02588,542.969291 C779.4711,540.109259 772.194881,538.920932 765.070914,539.547459 C769.832671,538.866578 774.02773,535.177953 775.313794,530.54207 C780.864613,531.43373 786.340343,532.794662 791.663404,534.604536 C788.653184,529.009776 783.160445,524.811217 776.972817,523.375184 C782.269327,523.75027 786.548188,525.09751 788.771004,529.920522" id="Fill-7" fill="#000000" sketch:type="MSShapeGroup"></path>
                <path d="M1037.62236,487.559427 C1018.04473,487.265664 996.540078,493.213105 980.190053,504.086457 C973.123752,508.785823 966.654019,514.387221 961.005293,520.721366 C958.18259,523.886364 955.563167,527.233925 953.1798,530.741646 C951.620343,533.036974 949.783345,538.431329 947.648479,539.975655 C959.071633,531.70965 970.795561,523.859394 982.789147,516.444802 C986.242022,519.321016 990.095237,521.715096 994.20276,523.537002 C988.081924,523.042834 981.790581,525.767604 977.963088,530.571114 C983.125598,533.738601 989.674984,533.131161 995.668873,532.263566 C1015.98413,529.324284 1036.40019,524.607077 1056.81252,526.767557 C1059.51906,527.054266 1062.31189,527.453832 1064.9168,526.665902 C1067.5217,525.877972 1069.88059,523.486382 1069.613,520.777795 C1069.26203,517.225263 1065.09809,515.576793 1061.61037,514.817492 C1056.56319,513.718788 1051.45876,512.881483 1046.32487,512.310555 C1048.95176,509.277501 1050.67094,505.46772 1051.20735,501.491142 C1061.06897,502.020993 1070.78498,505.075207 1079.17593,510.284508 C1080.98015,507.132788 1078.7088,503.205585 1076.13211,500.646783 C1066.26633,490.850559 1051.52264,487.768131 1037.62236,487.559427" id="Fill-8" fill="#000000" sketch:type="MSShapeGroup"></path>
                <path d="M800.499081,698.871566 C796.218976,701.286392 791.932233,704.607814 790.771871,709.383524 C805.493159,710.334103 819.984614,705.802364 834.69221,704.658848 C861.692922,702.559361 889.20557,711.878429 915.639584,705.987832 C927.814879,703.275096 939.111086,697.438438 951.256511,694.595002 C958.214949,692.965618 965.365466,692.339506 972.398578,691.070685 C982.719866,689.208117 992.789749,685.952667 1002.24813,681.419268 C1004.11956,680.522629 1006.29882,678.589939 1005.2401,676.804545 C1004.93517,676.290462 1004.41038,675.951058 1003.89512,675.647753 C997.108851,671.650844 988.830331,670.750056 981.025995,671.808098 C973.221659,672.86614 965.787378,675.752727 958.581684,678.931417 C937.193191,688.367077 916.039508,700.840769 892.665498,701.227473 C877.280021,701.481818 862.203614,695.494131 847.058755,692.450289 C831.050574,689.233012 814.90383,690.744559 800.499081,698.871566" id="Fill-9" fill="#000000" sketch:type="MSShapeGroup"></path>
                <path d="M769.348945,814.070345 C787.107003,807.954033 804.91443,801.980867 822.768735,796.152093 C836.352478,791.71786 850.191774,787.326364 864.475799,786.962065 C877.87244,786.621417 891.262443,789.844918 904.598515,788.527138 C913.626686,787.635063 922.305131,784.690387 931.141637,782.635711 C958.071822,776.373347 986.149924,778.424289 1013.71941,780.510084 C1039.1561,782.434476 1065.21964,784.515706 1088.38705,795.194876 C1077.00995,793.173394 1064.99562,791.200042 1054.14953,795.185748 C1048.81776,797.144993 1044.08629,800.452308 1039.67467,804.030979 C1014.99178,824.053697 998.426859,853.431166 971.465559,870.260256 C957.29479,879.105487 940.697094,884.017291 923.995683,884.307734 C945.355965,878.258639 966.069482,869.055748 983.3853,855.16096 C1000.70153,841.266172 1014.4815,822.428876 1020.11778,800.953114 C1006.98707,808.047804 992.616753,812.484942 978.35347,816.877683 C962.405029,821.789902 946.456173,826.701706 930.507731,831.613925 C917.447127,835.636559 904.255426,839.684503 890.630612,840.745035 C874.266897,842.01842 857.878704,838.932671 841.947687,834.984723 C829.855364,831.988182 817.888329,828.48627 806.088482,824.491021 C796.315223,821.182047 785.732989,817.508359 775.944795,820.773352 C792.804268,830.42062 809.663326,840.067888 826.522798,849.715156 C812.058724,853.181385 798.064271,843.61876 785.843756,835.139487 C773.623242,826.660214 758.122849,818.499599 744.595112,824.683128 C763.499427,815.157846 783.591069,807.992205 804.256463,803.405697" id="Fill-10" fill="#000000" sketch:type="MSShapeGroup"></path>
                <path d="M1341.35672,1129.57472 C1306.41768,1089.3405 1266.46796,1052.95298 1238.00611,1007.90239 C1235.09131,1003.28891 1232.19683,998.474196 1227.82546,995.207958 C1222.12985,990.951725 1214.75241,989.903641 1207.78236,988.500802 C1186.94397,984.306392 1166.99669,975.735422 1149.60994,963.505702 C1145.14563,960.365599 1151.08476,944.962998 1153.17482,939.837925 C1157.61382,928.949636 1166.17984,918.78372 1172.12021,908.604527 C1184.81989,886.842056 1196.11194,864.022373 1202.60947,839.576625 C1214.08366,796.407683 1210.09271,750.808149 1214.43089,706.350886 C1228.93977,708.275692 1240.48946,693.229506 1243.02052,678.811921 C1245.55116,664.394751 1242.58159,649.408312 1245.33917,635.032634 C1247.75738,622.426583 1254.43081,611.04703 1257.94882,598.702793 C1263.49632,579.234821 1260.95862,558.390979 1264.24348,538.415977 C1266.73886,523.24158 1272.60663,508.397459 1271.73045,493.043818 C1270.86422,477.859049 1260.05506,461.502965 1244.95044,461.615408 C1244.93966,461.60462 1244.93509,461.596322 1244.92389,461.585949 C1243.9498,460.632466 1244.10579,459.051627 1244.33313,457.707291 C1247.71465,437.67503 1251.09658,417.642354 1254.47852,397.609678 C1255.2738,392.89828 1256.06909,388.186466 1256.86438,383.474238 C1260.82462,360.01558 1264.83258,336.378508 1273.30277,314.147179 C1274.36647,311.356853 1275.5065,308.565282 1275.98525,305.618117 C1276.6345,301.622037 1276.03876,297.5409 1275.44344,293.536937 C1274.99705,290.532098 1274.55025,287.527674 1274.10344,284.523249 C1271.96775,270.157529 1269.82334,255.750732 1265.97013,241.74765 C1261.10465,224.067562 1253.57827,207.253408 1246.08052,190.518918 C1243.89545,185.642797 1241.70998,180.765846 1239.52491,175.888895 C1229.93668,154.488648 1220.34886,133.089646 1210.76063,111.689814 C1208.40713,106.436531 1206.04492,101.168312 1203.05005,96.2536037 C1195.88294,84.4927413 1185.38824,75.2072821 1175.22419,65.9139394 C1160.66884,52.6054312 1143.85874,37.934331 1124.21431,39.6724242 C1119.86451,40.0574685 1115.5981,41.2644662 1111.2317,41.3507692 C1099.69363,41.5781445 1089.6503,34.1618928 1079.56133,28.5575897 C1058.29149,16.742373 1033.08629,12.1620886 1009.01947,15.7382704 C993.329481,11.0355851 976.888602,8.84730536 960.514929,9.28213986 C944.608389,9.70494172 928.23762,12.5251422 913.086539,7.66354312 C903.391689,4.55248485 891.561557,-1.16965501 884.30608,5.97358042 C871.500199,-4.86616317 848.931431,-0.141072261 841.548592,14.9271049 C831.969073,6.71960373 817.891648,5.47235897 805.716353,8.76971562 C771.264351,18.1008159 736.82521,33.367324 702.777281,45.6576224 C696.896648,47.7799301 689.862706,51.56938 690.341454,57.8035291 C678.173627,59.5399627 668.088394,67.787296 658.694732,75.7143124 C647.177819,85.4329464 635.660906,95.1511655 624.143578,104.8698 C603.563231,122.235795 582.306249,140.488471 571.479662,165.146242 C566.364445,176.796322 563.823431,189.384531 561.31768,201.859469 C556.917266,223.766746 552.517267,245.674853 548.117267,267.581716 C545.70403,279.595678 543.411102,292.649841 548.839953,303.634392 C538.100071,314.67703 538.39877,334.509301 549.46639,345.222494 C544.145818,351.393161 544.040444,361.431282 549.231165,367.711487 C545.783683,370.653674 545.594922,375.823142 545.677064,380.355296 C545.811479,387.757441 545.945893,395.159585 546.080308,402.562145 C546.689736,436.168047 548.757396,473.389133 572.521374,497.15649 C569.411173,501.106098 567.952527,506.316643 568.560711,511.307697 C549.642291,516.47841 538.59085,537.592364 538.928546,557.204727 C539.266656,576.817091 548.445006,595.105865 558.234859,612.102998 C568.025127,629.099301 578.815621,646.042079 582.946377,665.217534 C586.961801,683.861478 584.385109,703.395837 587.864535,722.147245 C591.343547,740.899068 604.044468,760.505622 623.057891,761.962816 C625.703865,762.164881 624.393739,761.884396 626.212067,759.951291 C637.813612,816.376462 651.940405,873.300364 681.154807,922.946182 C685.244076,929.894821 689.623747,936.691599 693.124746,943.954331 C700.457387,959.16524 703.727724,975.960308 706.928364,992.541277 C707.288462,994.40758 707.639018,996.395455 706.937491,998.162177 C706.306075,999.75173 704.921274,1000.90188 703.555557,1001.93171 C693.20274,1009.74131 680.768988,1014.76472 667.897144,1016.33809 C660.302727,1017.26668 652.033749,1017.20527 645.915402,1021.80049 C639.288852,1026.77703 637.255626,1035.63014 635.058115,1043.62188 C623.726645,1084.832 597.073585,1119.83742 571.002159,1153.70181 C565.24391,1161.18113 559.426336,1168.7231 552.207782,1174.80539 C531.987947,1191.84236 502.285671,1201.08052 478.468591,1212.22066 C451.077082,1225.0321 423.572731,1237.60122 395.959271,1249.92554 C340.731939,1274.5746 285.068173,1298.24528 229.003239,1320.92389 C157.800914,1349.72587 85.9505783,1376.92668 13.5252474,1402.49685 C9.20407149,1404.02251 4.6157261,1405.73363 1.90876827,1409.43138 C-0.797359839,1413.12914 -0.365906024,1419.44005 3.85653333,1421.21922 C6.43281044,1422.30506 9.36918554,1421.38933 12.009351,1420.47029 C69.1442076,1400.56707 126.278235,1380.66385 183.413091,1360.76104 C307.938545,1317.38173 433.69696,1273.41698 545.221549,1203.05055 C526.3135,1229.07423 507.682163,1255.29791 489.051655,1281.52117 C480.264517,1293.88905 472.795803,1313.90845 485.873832,1321.59648 C494.26063,1326.52654 504.781465,1321.54212 513.168264,1316.61248 C574.915113,1280.31749 636.661547,1244.02291 698.408396,1207.72793 C694.364346,1227.85935 713.752387,1246.21244 733.864773,1250.33465 C753.977573,1254.45687 774.626372,1248.98243 795.0275,1246.6813 C815.429042,1244.37974 838.548329,1246.30331 852.468522,1261.39638 C861.656829,1271.35898 865.058262,1285.19278 871.323884,1297.21089 C886.929237,1327.14435 919.127307,1344.13567 941.874465,1369.07683 C949.026227,1376.91879 958.363053,1389.03483 959.24297,1400.12684 C960.117494,1411.14749 949.262697,1423.96017 944.123003,1433.20248 C932.63762,1453.85628 921.072998,1474.6939 914.055236,1497.26048 C907.35733,1518.80014 904.961102,1541.40407 902.599722,1563.83705 C890.368836,1680.01089 878.139195,1796.18514 865.909553,1912.35897 C871.266218,1908.2936 876.305101,1903.88012 880.383584,1898.78492 C893.727953,1781.69162 907.072737,1664.59874 920.416276,1547.50545 C922.116369,1532.58705 923.848822,1517.52344 928.801414,1503.349 C934.674165,1486.54231 944.834902,1471.64425 953.711649,1456.21261 C992.01894,1389.62069 1006.88501,1312.03717 1041.02421,1243.21465 C1043.55319,1238.11614 1046.27011,1232.95787 1050.45853,1229.10411 C1062.1418,1218.35399 1081.1573,1216.67066 1094.74146,1207.63 C1109.65275,1197.70682 1122.39972,1184.77879 1133.87722,1171.11718 C1138.89743,1165.14153 1143.76954,1158.95178 1147.24607,1151.96414 C1150.26375,1145.89969 1152.17045,1139.35518 1154.06179,1132.8505 C1161.20277,1108.29314 1168.34333,1083.7362 1175.48389,1059.17883 C1176.18915,1056.75364 1177.17195,1054.0131 1179.5296,1053.10816 C1182.31911,1052.03726 1185.24678,1054.16496 1187.39326,1056.24453 C1199.18315,1067.6635 1208.13955,1082.05412 1221.40841,1091.71383 C1238.96527,1104.49456 1262.20154,1107.616 1279.5128,1120.727 C1285.05366,1124.92307 1289.87474,1130.06848 1295.75164,1133.77868 C1305.60621,1139.99955 1317.98479,1141.90485 1326.85531,1149.46384 C1329.873,1152.0355 1332.39659,1155.20008 1335.69721,1157.39625 C1338.99866,1159.592 1343.50943,1160.65211 1346.89136,1158.58291 C1349.05776,1157.25725 1350.39112,1154.8528 1350.95242,1152.37532 C1352.84667,1144.01222 1346.97848,1136.04869 1341.35672,1129.57472 L1341.35672,1129.57472 Z M743.767053,1149.09166 C743.127754,1150.47582 741.912631,1151.49362 740.720325,1152.4442 C719.345522,1169.47867 693.619259,1179.92632 669.661126,1193.08089 C644.665845,1206.80473 621.468565,1223.56246 596.94166,1238.10618 C574.964481,1251.13752 551.973801,1262.35982 529.012576,1273.56635 C575.019657,1201.80248 608.707488,1122.83769 652.60584,1049.76475 C654.561487,1046.50889 656.586831,1043.20655 659.474253,1040.73945 C662.792298,1037.90514 667.001462,1036.38031 671.11106,1034.91233 C673.874024,1033.92524 710.021971,1018.38115 710.244336,1018.81225 C730.082499,1057.29967 737.084912,1100.86237 743.98029,1143.13841 C744.305125,1145.12918 744.612536,1147.26021 743.767053,1149.09166 L743.767053,1149.09166 Z M1092.13987,975.469044 C1060.20482,1002.59517 1021.70047,1020.4852 982.694145,1034.94386 C962.50501,1042.42775 941.699809,1049.35232 920.176902,1049.95437 C995.065668,1049.64982 1069.49394,1020.89141 1125.13572,970.760965 C1110.08171,1029.16364 1111.18482,1091.64537 1128.29114,1149.48043 C1129.0997,1152.2135 1129.94518,1155.13619 1129.11007,1157.86137 C1128.32599,1160.41893 1126.20688,1162.30764 1124.15789,1164.02747 C1102.9677,1181.81793 1079.20373,1196.53675 1053.83714,1207.58229 C1049.3102,1209.55357 1044.63058,1211.47298 1040.99434,1214.8139 C1038.00445,1217.56149 1035.89572,1221.11485 1033.86415,1224.63129 C1006.51081,1271.96435 985.02524,1322.68564 970.055037,1375.26576 C957.34084,1340.10101 927.935188,1313.29728 895.820504,1294.14921 C890.921014,1291.22818 885.710794,1288.23081 882.840797,1283.30034 C880.193164,1278.75034 879.950471,1273.24188 879.784942,1267.97947 C879.368838,1254.72988 878.700085,1240.53843 870.760505,1229.92399 C860.640424,1216.39391 842.250535,1212.99241 826.730228,1206.3172 C803.210187,1196.20149 784.772589,1177.31399 766.992543,1158.88995 C764.946871,1156.77014 762.869255,1154.60592 761.554151,1151.96953 C760.018756,1148.89083 759.629203,1145.3856 759.263297,1141.96419 C755.251192,1104.43316 749.010876,1068.35476 736.159775,1032.68588 C733.078614,1024.134 729.569733,1015.51987 728.160041,1006.48834 C727.030378,999.253828 728.313124,992.764918 726.825438,985.550317 C748.70471,1004.40504 774.226033,1019.01639 801.561536,1028.33878 C745.801523,994.829552 701.084239,943.266811 675.797727,883.322718 C667.911249,864.626909 661.880437,845.198354 656.559035,825.61711 C651.513515,807.049096 647.091528,788.305156 643.63326,769.377823 C632.522494,708.577338 631.379557,646.109296 617.282633,585.931604 C613.353499,569.159357 608.411694,552.521543 606.896627,535.361762 C605.419727,518.635156 607.235567,501.818513 607.84541,485.037552 C608.785482,459.180667 606.8568,433.285193 603.557423,407.622075 L604.368473,418.928186 C605.426365,426.927399 606.017125,434.988848 606.100927,443.057352 L604.368473,418.928186 C603.571943,412.900252 602.517786,406.905925 601.174471,400.975497 C603.633757,410.462191 601.511751,421.028503 595.580506,428.829385 C596.284108,414.391469 594.417655,399.831981 590.094405,386.038848 C588.439531,380.759841 586.415016,375.531455 585.845,370.028807 C584.696669,358.94924 589.51692,348.22111 594.222671,338.12573 C602.366777,320.651855 610.655668,302.948946 623.094399,288.221002 C629.896434,280.167436 637.826887,273.145772 645.949835,266.428242 C663.336179,252.052564 682.039287,238.77393 703.1938,230.939441 C724.756949,222.954751 748.60058,220.712531 768.397672,209.015152 C774.814303,205.223627 781.013963,200.371986 788.41381,199.48821 C793.420749,198.889483 798.62682,200.186517 803.475697,198.801105 C807.633004,197.613193 811.000833,194.599226 814.906734,192.743711 C829.289496,185.91042 845.564847,195.95352 861.296731,198.41689 C879.11121,201.205972 896.740662,194.006723 914.300418,189.906499 C944.778481,182.790233 976.823054,185.000089 1007.39695,191.691893 C1025.66985,195.690876 1043.55693,201.256177 1061.41746,206.814009 C1070.65181,209.687319 1079.88658,212.561459 1089.12053,215.434769 C1102.09235,219.471096 1115.06418,223.508252 1128.03641,227.544578 C1135.96189,230.010853 1144.72704,233.170457 1148.35706,240.636499 C1150.91301,245.893515 1151.21337,253.406028 1156.72851,255.340378 C1153.38391,262.312252 1158.79285,271.832555 1166.49306,272.527958 C1160.31953,293.154382 1165.39451,316.784816 1179.49268,333.055841 C1174.4289,356.363054 1181.72877,381.994224 1198.31153,399.134089 C1196.03395,401.198308 1194.90719,401.56966 1192.27118,403.150499 C1185.69814,407.092224 1185.40318,416.572695 1187.43557,423.964051 C1189.46839,431.354578 1193.04696,438.8451 1191.41947,446.335622 C1190.17033,452.083072 1185.90308,457.575347 1187.48079,463.241058 C1188.26778,466.066653 1190.48147,468.566951 1190.27612,471.492956 C1190.01724,475.175357 1186.13623,477.480643 1184.6751,480.870527 C1181.77938,487.588886 1189.21823,494.876513 1187.9778,502.08572 C1187.55256,504.557389 1186.13831,506.725338 1185.12024,509.016932 C1181.92832,516.201245 1182.67299,524.436545 1183.40729,532.263566 C1191.92352,623.07759 1190.62169,715.035543 1175.89294,805.050434 C1172.78398,824.050793 1169.06311,843.020448 1162.91323,861.264825 C1148.91463,902.794839 1125.75261,946.917263 1092.13987,975.469044 L1092.13987,975.469044 Z M1257.97703,1089.62223 C1239.94226,1080.99441 1220.8803,1071.45295 1210.67807,1054.25832 C1205.87732,1046.16699 1201.24832,1035.29115 1191.84221,1035.13971 C1200.55799,1034.53434 1209.39657,1035.75586 1217.62158,1038.70344 C1214.85446,1037.71179 1210.16738,1024.1398 1206.23327,1021.32873 C1200.73846,1017.40319 1192.61261,1017.95254 1189.58579,1010.7508 C1189.31945,1010.11764 1189.10538,1009.4102 1189.30244,1008.75214 C1189.64926,1007.5941 1191.03697,1007.15595 1192.23176,1006.97048 C1210.20679,1004.17642 1222.56836,1019.39438 1232.56357,1031.85314 C1240.61267,1041.88669 1249.29029,1051.39621 1257.96085,1060.89784 C1273.46332,1077.88668 1288.96578,1094.8751 1304.46825,1111.86393 C1288.97118,1104.45017 1273.4741,1097.03599 1257.97703,1089.62223 L1257.97703,1089.62223 Z" id="Fill-11" fill="#000000" sketch:type="MSShapeGroup"></path>
            </g>
        </g>
    </g>
</svg>