<?xml version="1.0" encoding="utf-8"?>
<!-- Generator: Adobe Illustrator 19.2.1, SVG Export Plug-In . SVG Version: 6.00 Build 0)  -->
<svg version="1.1" id="Layer_8" xmlns="http://www.w3.org/2000/svg" xmlns:xlink="http://www.w3.org/1999/xlink" x="0px" y="0px"
	 viewBox="0 0 829 1071.2" style="enable-background:new 0 0 829 1071.2;" xml:space="preserve">
<style type="text/css">
	.st0{fill:#FEFEFE;}
</style>
<path class="st0" d="M733,438.3c9.4,2.2,19,3.7,27.9,7.6c3.7,1.6,7.1,3.7,10.9,5.1c2.9,1.1,6,1.7,8.9,2.9c3.9,1.6,8,4.2,12,3
	c0.6-0.2,1.1-0.4,1.4-0.9c0.9-1.3-0.4-3-1.7-4c-5.2-4.2-10.5-8.4-15.7-12.5c-1.9-1.5-3.8-3.1-4.6-5.3c7.2-1.1,13.5,4.3,20.1,7.2
	c4.7,2.1,10,3,15.1,2.7c2.5-0.2,5.4-0.9,6.4-3.2c0.9-2-0.2-4.5-1.9-5.9c-1.7-1.4-3.9-2-6.1-2.6c-9.2-2.4-18.4-4.8-27.5-7.3
	c-1.7-0.5-4-2-2.9-3.5c0.4-0.6,1.2-0.8,1.8-0.9c5.9-1,11.9,0.8,17.9,1.7c9,1.4,18.4,0.7,27.1-1.9c2.6-0.8,5.7-2.7,4.9-5.3
	c-0.5-1.7-2.5-2.5-4.2-2.9c-17.8-4.4-36.7-1.5-54.7-4.9c3.6-5.1,9.8-7.4,15.6-9.6c10.9-4.2,21.6-9.2,31.8-14.8
	c2.2-1.2,4.8-3.4,3.9-5.8c-10.6,0.8-21,3.5-31.3,6.2c-9.8,2.6-19.6,5.1-29.4,7.7c-1.1,0.3-2.3,0.6-3.4,0.3c-1.7-0.5-2.6-2.2-3.7-3.6
	c-2.8-3.5-7.4-5.3-11.9-5.4s-8.9,1.4-12.9,3.3c-3.9,1.9-7.6,4.4-11.9,5.6c-3.9,1.1-7.6-0.4-11.5-1.2c-9.4-1.8-18.7-3.9-28-6.2
	c-9.5-2.4-18.8-5.4-28.3-7.7c-9.6-2.4-19.4-3.7-29.3-3.9c-1.5,0-3-0.1-4.5-0.2c-0.7,0-1.5-0.1-2.2-0.2c-0.3,0-0.6,0-0.8,0
	c-0.3,0-0.6-0.1-0.9-0.2c-0.2-0.1-0.4-0.1-0.6-0.2c-0.2-0.1-0.4-0.2-0.7-0.3c-0.2-0.1-0.4-0.1-0.7-0.1c-0.7,0-1.4,0-2.2-0.1
	c-0.1,0-0.2,0-0.2,0c-0.1,0-0.1-0.1-0.2-0.2c-1.1-1.2-2.4-2.2-3.5-3.4c-0.2-0.2-0.3-0.4-0.5-0.6c-0.9-1.7-1.8-3.5-2.6-5.3
	c-1.1-2.6-2.2-5.3-4.2-7.4c-1.2-1.2-2.6-2.1-3.7-3.3c-0.3-0.4-0.6-0.8-0.9-1.2c-1.1-1.6-2.1-3.4-3.2-5c-1.4-1.9-2.9-3.8-3.8-5.9
	c-0.2-0.4-0.3-0.8-0.3-1.3c0-0.5,0.2-0.9,0.4-1.4c2.5-5.2,5-10.6,5.4-16.4c0.1-0.7,0.1-1.5-0.2-2.1c-0.3-0.8-1.1-1.5-1.7-2.1
	c-3.2-2.7-5.6-6.1-8.3-9.2c-1.7-2-3.7-3.8-5.4-5.8c-1.9-2.3-3.2-5.4-4.8-8c-0.7-1.1-1.4-2.3-2.2-3.3c-1.1-1.3-2.4-2.3-3.6-3.5
	c-1.8-1.9-3.1-4.3-4.4-6.6c-0.6-1.1-1.2-2.2-1.7-3.4c-0.4-1.1-0.8-2.3-1.1-3.5c-4.4-15.7-11.7-29.7-20.7-43.3
	c-1.2-1.8-2.4-3.6-3.9-5.2c-3.4-3.4-8.2-5.1-12.8-6.4c-3.6-0.9-7.2-1.7-10.9-2.4c-6-1.2-12-2.4-18.1-3.6c-5.1-1-11.4-3.4-16.6-2.6
	c5.5-8.7,10.8-17.5,16-26.4c4.5-7.8,9.8-14.7,9.7-24.3c-0.1-5.7-2.2-11.3-2.1-17.1c0.1-4.4,2.2-8.3,1.5-12.4
	c-0.2-1.2,0.3-2.5,0.5-3.7c0.5-2.3,0.2-4.7-0.2-7.1c-0.7-5.2-1.5-10.5-2.7-15.6c-0.3-1.4-0.7-2.8-0.9-4.2c-0.3-1.8-0.4-3.7-0.6-5.5
	c-0.7-8.1-3-16-6.7-23.3c0.6-0.1,1.2-0.1,1.8-0.2c-5.6-7.5-10.7-14.3-18.6-19.6c-7-4.7-15-7.6-23.4-8.3c-6.6-0.6-13.2,0.1-19.8,1.1
	c-1.8,0.3-3.6,0.5-5.3,0.8c-13.9,2.2-27.9,4.4-41.7,7.3c-3.9,0.8-8.3,2-10.1,5.6c-0.9,1.8-0.9,3.9-1,6c-0.2,8.3-0.9,16.7-2.2,24.9
	c-0.5,2.9-1,5.8-2.7,8.2c-2.3,3.2-6.2,4.8-9.7,6.7c-5.8,3.1-11,7.5-13.8,13.4c-2.8,5.9-2.6,13.5,1.6,18.5
	c4.8,5.7,13.5,7.1,17.9,13.2c1.2,1.7,2,3.6,3.6,5c2.3,2,5.9,2.4,7.7,4.9c1.1,1.5,1.3,3.5,1.5,5.4c0.6,6.3,1.7,12.8,1.7,19.1
	c0,5.9-3.1,12.8-4.7,18.6c0-0.2-0.2-0.5-0.2-0.7c-0.2-0.4-0.3-0.9-0.7-1.1c-0.2-0.2-0.6-0.3-0.9-0.3c-0.2,0-0.3,0.1-0.5,0.1
	c-0.4,0.1-0.7,0.2-1,0.4c-0.1,0.1-0.3,0.1-0.4,0.2c-0.3,0.1-0.6,0.2-0.9,0.3c-1.5,0.7-3,1.4-4.5,2.2c-1.9,1-3.8,2.1-5.6,3.3
	c-1.8,1.2-3.6,2.4-5.3,3.8c-2.3,1.8-4.6,3.8-7.3,5c-3.6,1.5-7.6,1.3-11.4,1.1c-10.8-0.5-21.6-0.6-32.3,0.7
	c-24.6,3-48,13.6-72.7,14.7c0.1,2.7-0.1,5.5-0.5,8.2c-0.2,1.1-0.4,2.2-1.1,3.1c-0.8,1-2.1,1.4-3.4,1.8c-10.6,3.3-21.1,6.7-31.7,10
	c-1.4,0.5-3,0.9-4.4,0.4c-2.6-1-4.5-4.3-6-6.4c-2.3-3.2-4.6-6.4-7-9.7c-2-2.7-3.9-5.5-5.2-8.6c-0.8-2-1.2-4.2-2.1-6.2
	c-1.4-3.2-3.7-5.9-5.7-8.8c-4.9-7-7.9-15.2-10.9-23.2c-0.6-1.5-1.1-3-1.1-4.7c0-1.7,0.7-3.4,1.3-5c1.7-4.4,3.1-8.9,4.1-13.4
	c0.6-2.4,1-4.9,0.1-7.2c-1.1-2.5-3.8-4-6.4-4.8s-5.4-1.1-7.9-2.2c1.6-3.1,5.5-4,8-6.4c2-1.8,3-4.1,5.2-5.6c2-1.3,3.8-2.8,5.6-4.3
	c3.5-3.1,6.7-6.7,9.6-10.4c6-7.7,10.9-16.1,16.3-24c5.7-8.4,12.2-16.5,20.8-22.1c4.1-2.7,8.9-5,11-9.5c0.3-0.6,0.5-1.2,0.4-1.8
	c0-0.6-0.3-1.1-0.6-1.6c-2.4-4.6-5.4-8.8-8.9-12.6c-0.6-0.7-1.3-1.3-2.1-1.6c-1.2-0.4-2.4,0.1-3.5,0.5c-4.8,2-9.1,5-13.5,7.7
	c-13.2,8-27.9,13.2-42.1,19.4c-10.4,4.5-20.5,9.6-30.3,15.3c-4.9,2.8-9.9,5.8-14.6,9c-2.8,1.9-5.2,5-7.6,7.2c-0.4,0.4-0.8,0.8-1.3,1
	c-0.7,0.2-1.5,0.1-2.2-0.1c-24.1-6.1-48.4-11.4-72.9-16c-0.7-0.1-1.5-0.3-2.2-0.1c-0.7,0.2-1.4,0.6-1.9,1.1c-3,2.4-5.7,5-8.2,7.9
	c2.1,3.8,4.1,7.6,6.2,11.4c3.7,6.9,7.5,13.9,12.3,20.1c2.2,2.9,4.3,5.4,6.2,8.5c2.2,3.6,4.1,7.4,5.7,11.4c-3.8-0.4-7.6,2.1-9.6,5.4
	c-2,3.3-2.6,7.3-2.8,11.1c-0.1,2.8-0.1,5.6,0.6,8.2c1.5,5.6,5.6,10.1,9.6,14.3c1.6,1.7,3.2,3.4,4.9,5.1c3.3,3.5,6.7,7,11,9.2
	c4.3,2.1,9.8,2.6,13.7-0.2c3.1-2.1,5-6,8.4-7.5c7.7,8.1,15.5,16.2,23.2,24.3c3.5,3.7,7,7.3,10.9,10.5c2.7,2.2,5.7,4.2,7.6,7.1
	c0.8,1.2,1.5,2.6,2.7,3.5c2.5,1.8,5.2,0.3,7.6-0.7c2.9-1.2,5.4-2,7.5-4.5c3.1,3.2,3.9,7.9,5.2,12.1c1.7,5.2,4.5,10,7.3,14.7
	c4.4,7.4,8.8,14.9,13.2,22.3c0.9,1.5,1.9,3.2,3.6,3.9c1.1,0.5,2.4,0.5,3.6,0.5c11,0.1,21.7,3.5,32.4,5.8c10.8,2.2,22.4,3.1,32.4-1.6
	c5.2,7,5.2,17,11,23.5c10.5-3.7,21.5-6.3,32.6-7.7c11.1-1.4,22.4-0.6,33.5-2.4c2.9-0.5,1.7,2.9,2.2,4.9c1.4,5.6,2.7,11.2,4.1,16.8
	c1,4.3,0.6,9.2,0.8,13.6c0.2,4.6,0.5,9.2,0.7,13.9c0.1,1.9-0.1,3.7-0.2,5.4c-0.1,1.7-0.3,3.4-0.3,5.2c0.2,9.1,0.3,18.2,0.2,27.4
	c-0.1,11.8-0.4,23.5-1.7,35.2c-1.6,13.5-4.5,26.8-7.5,40.1c-5.3,23.1-11,46.1-17.1,69c-0.4,1.5-0.8,3.1-0.2,4.5
	c0.6,1.5,2.2,2.3,3.6,3c12.4,6.9,14.7,19.6,13.2,33c-1,9.2-3.5,18.3-4.1,27.6c-0.9,16.4,4.5,32.5,5.9,48.9c1.2,15-1.9,29.7-1.8,44.5
	c0.1,15.8-1,31.5-3.3,47.1c-0.7,4.9-1.4,10.4,1.9,14.1c1.5,1.7,3.7,2.7,5.8,3.6c5.2,2.3,10.3,4.6,15.5,6.9c0.6,0.3,1.2,0.5,1.6,1
	c1.2,1.3,0.6,3.4-0.1,5c-17.1,41.6-27.2,86.2-29.5,131.1c-0.1,2.8-0.3,5.6-1.3,8.2c-1.1,2.7-3.1,4.8-5.3,6.7
	c-7.8,6.7-18.4,10.3-24.2,18.8c-4,5.9-5,13.3-5.8,20.4c-1.5,13-2.7,27.1,3.8,38.5c4.1,7.1,10.7,12.4,17.5,17
	c1.6,1.1,3.2,2.2,4.1,3.9c0.6,1.3,0.7,2.7,0.7,4.1c0.3,12.2-2.3,24.4-7.4,35.5c12.5-2.1,24.9-4.2,37.4-6.4c1.7-0.3,3.4-0.6,5.1-0.6
	c1.4,0,2.8,0.2,4.3,0.3c5.7,0.7,13.1,0,14.8-5.5c0.6-2.1,0.2-4.3-0.3-6.5c-2.4-11.4-4.8-22.7-7.2-34.1c-1.3-6.3-2.7-12.7-2.6-19.1
	c0-7.1,1.8-14.1,3.6-21c4.6-17.3,10.1-34.3,16.5-51c4.8-12.7,10.2-25.5,19.1-35.9c3.4-4,7.3-7.5,10.9-11.3
	c13.7-14.4,21.7-32.7,34.1-47.8c12.8-15.7,23.6-32.9,32.2-51.3c1.8-3.9,3.9-8.7,7.7-11.3c1.9-1.3,3.3-1,5.3-1.7c2.8-0.9,5.4-2.6,8-4
	c3.4-1.8,7-3.7,9.3-6.9c1.6-2.1,2.4-4.7,3.2-7.2c4.1-13,7-26.4,8.8-39.9c2.2-17.2,2.6-34.6,4.6-51.8c1-8.6,2.4-17.2,4.8-25.6
	c1.1-4.1,2.7-8,4-12c1.1-3.3,1.5-6.9,3.2-9.9c0.1-0.1,0.2-0.3,0.3-0.3c0.2-0.1,0.4-0.1,0.7-0.1c1.9,0.2,3.8,0.2,5.7-0.1
	c0.3,0,0.5-0.1,0.7-0.3c0.3-0.2,0.4-0.7,0.4-1.1c0.3-2.8-0.1-5.5-0.1-8.2c-0.5-27.3,0.1-54.7,2.2-82c0.5-6.8,1.1-13.7,1.8-20.5
	c0.7-6.3,0.9-13,2.4-19.2c3.1-12.9,4.1-26.2,4.5-39.4c0.2-4.8,0.2-9.6,0.3-14.3c0.1-4.9,0.2-9.9-0.1-14.8c-0.2-3.3-0.5-6.6-0.4-9.9
	c0.1-7.5,2.2-15.2-0.4-22.2c5.2-2,10.6-3.7,16.1-4.8c2.3-0.5,4.2-0.6,6,1.2c1.4,1.4,2.2,3.2,3.3,4.8c1.5,2.3,3,4.5,4.7,6.7
	c3.3,4.3,6.9,8.4,10.9,12c2.1,1.8,4.2,3.5,6,5.6c1.5,1.8,2.7,4,3.8,6c3,5.4,6.2,10.6,9.6,15.8c0.5,0.7,1,1.4,1.7,1.9
	c0.6,0.4,1.3,0.5,2,0.7c3,0.6,6,1.1,9,1.3c9.6,0.9,19.2-0.6,28.8-0.9c4.8-0.2,9.6,0,14.4,0.7c1.9,0.3,3.7,0.1,5.6,0.2
	c2.5,0.2,5,0.2,7.5,0.2c5.8-0.1,11.6-0.6,17.4-1.4c6.1-0.8,12.2-1.8,18.3-2.5c3.1-0.4,6.2-0.7,9.3-1c2.9-0.2,5.8-0.8,8.8-0.7
	c0.4,0,0.7,0,1.1,0.2c0.4,0.1,0.7,0.4,1,0.7c1.1,1,2.2,2,3.3,3.1C714.6,432.9,723.6,436.1,733,438.3z"/>
<g>
	<path d="M420.1,99L420.1,99C420.1,99,420.1,99,420.1,99L420.1,99z"/>
	<path d="M402.9,111.3c0.7-0.6,1.5-1.2,2.3-1.7c0.8-0.5,1.7-1,2.6-1.5c0.9-0.4,1.8-0.8,2.8-1.1c1.1-0.4,2.3-0.7,3.5-0.9
		c1-0.2,1.9-0.3,2.9-0.4c0.6-0.1,1.1-0.1,1.7-0.1c0.7,0,1.3-0.1,2-0.1c1.4-0.1,2.9-0.2,4.3-0.3s2.6,0,3.8,0c2,0.2,4,0.6,6,1.1
		c1.9,0.5,3.9,0.9,5.8,1.5c1.2,0.4,2.3,1,3.3,1.6l0.9,0.6c0.7,0.5,1.5,1,2.3,1.3c-0.4-0.3-0.7-0.6-1-0.9c-0.8-1-1.4-2.2-2.3-3.3
		c-0.7-0.7-1.4-1.4-2.2-2c-2-1.4-4.1-2.6-6.3-3.7c-2.3-1.1-4.7-1.9-7.2-2.3c-1.7-0.2-3.3-0.3-5-0.3c-1,0-2.1,0-3.1,0.1l0.1,0
		c-0.5,0-1.1,0.1-1.6,0.2c-0.8,0.1-1.7,0.3-2.5,0.5c-1.2,0.3-2.4,0.7-3.5,1.2c-1.4,0.6-2.7,1.3-3.9,2.2c-1,0.7-1.9,1.5-2.8,2.3
		c-0.9,0.9-1.8,1.8-2.6,2.7c-0.8,0.9-1.5,1.9-2.2,2.9c-1.5,2.2-3,4.5-4.2,6.9c1.1-1.2,2.2-2.4,3.3-3.6
		C400.8,113.2,401.9,112.2,402.9,111.3z"/>
	<path d="M414.6,116.3c-1.9,1.1-3.4,2.6-4.6,4.4c-0.8,1.4-1.5,2.9-1.9,4.5l0.9-0.8c0.9-0.8,1.8-1.4,2.8-1.9c1-0.4,2-0.8,3-1.1
		c1.1-0.3,2.1-0.5,3.2-0.8l0.6-0.1c1.3-0.2,2.5-0.3,3.8-0.4c1.1-0.1,2.2-0.1,3.2,0c0.8,0.1,1.5,0.2,2.3,0.3c0.9,0.2,1.8,0.4,2.7,0.7
		l0.8,0.3c1.7,0.6,3.3,1.4,5,2.1c-1.5-2.4-3.3-4.5-5.5-6.2c-2.3-1.8-5.1-2.9-8-3.1c-0.5,0-1-0.1-1.5-0.1H421l0,0.1
		c-0.8,0.1-1.7,0.2-2.5,0.4C417.1,114.9,415.8,115.5,414.6,116.3z"/>
	<path d="M457.5,157.1c1.6,0.4,3.2,0.6,4.8,0.6c3.2,0,6.4-0.6,9.4-1.7c0.8-0.3,1.7-0.7,2.4-1.1c1.4-0.8,2.6-2,3.5-3.4
		c0.6-0.9,1-1.8,1.3-2.8c0.4-1.2,0.5-2.6,0.3-3.9c-0.1-0.7-0.3-1.3-0.5-2c-0.5-1.7-1.3-3.3-2.1-4.8c-0.7-1.3-1.5-2.5-2.3-3.7
		c-1.2-1.6-2.6-3.1-3.9-4.6c-0.4-0.5-0.9-1.1-1.2-1.6c-0.5-0.7-0.9-1.5-1.3-2.2c-1-1.7-2-3.4-3-5.1l-0.1,0c0.3,1.3,0.6,2.6,0.9,3.9
		s0.5,2.4,0.9,3.6c0.3,1.1,0.8,2.3,1.3,3.3l1.3,2.7c1.5,3.4,2.6,6.9,3.3,10.5c0.3,1.3,0.2,2.7-0.2,4c-0.2,0.4-0.4,0.9-0.6,1.3
		c-0.3,0.4-0.6,0.8-1,1.1c-0.9,0.7-1.8,1.3-2.8,1.8c-2.4,1-4.9,1.7-7.4,2.2l-0.5,0.1c-1.2,0.2-2.4,0.2-3.6,0.2c-1-0.1-2-0.3-3-0.6
		c0.6,0.5,1.3,1,2,1.4C456,156.6,456.8,156.9,457.5,157.1z"/>
	<path d="M433.6,149.5L433.6,149.5c-2.8,0.5-5.6,1.3-8.3,2.2c-2.4,0.8-4.8,1.7-7.2,2.7c-2.5,1.1-5,2.5-7.3,4
		c-1.1,0.7-2.1,1.4-3.2,2.1l-1.6,1.1c-1.1,0.8-2.2,1.6-3.1,2.6c0.9-0.4,1.9-0.7,2.9-0.9c2.5-0.4,4.9-0.9,7.4-1.6
		c2.6-0.8,5-1.8,7.4-3C425.3,156.3,429.4,152.8,433.6,149.5z"/>
	<path d="M443.3,169.3c-0.8,0.2-1.7,0.6-2.6,0.9c-0.8,0.3-1.7,0.6-2.6,0.8c-1.6,0.3-3.2,0.5-4.8,0.9c-0.8,0.2-1.7,0.4-2.5,0.7
		s-1.7,0.4-2.5,0.6h-0.1l-0.5,0.1c-1,0.2-2,0.3-3.1,0.5s-2.1,0.4-3.2,0.6c-2.2,0.5-4.3,1.1-6.4,1.8c2.5-0.4,5.1-0.8,7.7-1l-2.5,0.5
		h0.1c-1.5,0.3-3,0.4-4.5,0.7l5.3-0.1c1.3,0,2.7,0,4,0.1h-0.1c1.6,0.1,3.2,0.3,4.8,0.8c0.9,0.4,1.8,0.9,2.7,1.4
		c1.1,0.6,2.2,1.1,3.3,1.5c1.3,0.5,2.6,0.9,3.9,1.2c1.2,0.3,2.5,0.5,3.7,0.7s2.5,0.4,3.8,0.6c1.5,0.1,3.1,0.2,4.6,0.3
		c2.6,0.2,5.1,0.2,7.7,0c2.6-0.2,5.1-0.7,7.5-1.6c1.2-0.5,2.4-1,3.5-1.6c1-0.5,2-1.1,2.8-1.9c0.9-0.8,1.6-1.7,2.3-2.6
		c0.3-0.5,0.6-0.9,0.9-1.4c0.5-0.4,1-0.8,1.4-1.3c1.1-1.1,1.8-2.6,1.9-4.1c-0.1-1-0.5-1.9-1.3-2.4c-0.5-0.3-1-0.6-1.5-0.8
		c-0.6-0.2-1.3-0.4-1.9-0.6c-0.7-0.1-1.4-0.2-2.1-0.2c-0.7-0.1-1.4-0.1-2.2-0.1h-1.1l0,0c-1.1,0-2.2,0.1-3.3,0.3
		c-1.2,0.2-2.4,0.4-3.6,0.7c-1.9,0.3-3.8,0.6-5.7,1.1s-3.7,1-5.6,1.4s-3.8,0.8-5.6,1.1C445,168.9,444.1,169,443.3,169.3z
		 M472.7,173.4l0.1-0.1L472.7,173.4c-0.6,0.5-1.2,0.9-1.8,1.2c0.1-0.1,0.2-0.2,0.3-0.3C471.7,174,472.2,173.7,472.7,173.4z"/>
	<path d="M467.1,186.6c-0.8,0.5-1.5,1.1-2.3,1.6s-1.7,1-2.6,1.4c-2.6,1-5.3,1.7-8,2.1h-0.3c-0.1,0-0.2,0-0.3,0l-0.6,0.1
		c-0.4,0.1-0.8,0.1-1.2,0.1c-1.5,0.2-3,0-4.4-0.5c-2-0.7-3.9-1.5-5.8-2.6c-1.9-1.1-3.8-2.1-5.7-3.1c0.7,0.8,1.4,1.7,2.1,2.5
		c1,1.2,1.8,2.4,2.8,3.5c1,1.2,2.2,2.3,3.4,3.2c0.8,0.6,1.6,1.1,2.5,1.6c0.9,0.4,1.8,0.7,2.7,0.9c0.9,0.2,1.8,0.3,2.7,0.4
		c0.9,0.1,1.7,0.1,2.6-0.1c1.8-0.2,3.6-0.8,5.3-1.6c1-0.5,2-1,3-1.6c0.9-0.6,1.7-1.2,2.4-1.9c2.7-2.4,4.2-5.8,5.5-9.1l0,0.1
		C469.8,184.8,468.5,185.8,467.1,186.6z"/>
	<path d="M361.2,126.8c-0.3-0.7-0.7-1.4-1.1-2.1c-0.3-0.7-0.8-1.4-1.3-2.1c-0.7-1-1.4-1.9-2.3-2.8c-1.3-1.3-3-2.2-4.8-2.6
		c-0.2,0-0.5-0.1-0.7-0.1c-2.2,0-3.8,1.9-5.1,3.6l0.1,0c-0.9,1.2-1.7,2.6-2.5,3.9c1.7-1.3,3.4-2.4,5.2-3.5c0.3-0.1,0.7-0.2,1-0.3
		h0.4l0.2,0.1c0.6,0.5,1.2,1.1,1.7,1.7c0.8,1,1.5,2.1,2.3,3.2c0.4,0.7,1,1.4,1.5,2.1c0.6,0.8,1.3,1.6,2,2.4l0.2,0.2
		c2.4,2.8,4.4,5.9,6,9.2l0.3,0.6c-0.1-3.2-0.5-6.3-1.4-9.4C362.4,129.5,361.8,128.2,361.2,126.8z"/>
	<path d="M377.4,165.9c0.2,1.5,0.6,3,1.1,4.5c0.5,1.4,1.2,2.8,1.9,4.1c0.8,1.4,1.7,2.7,2.7,3.9c-0.1-0.5-0.2-1-0.3-1.5
		c-0.2-1.3-0.5-2.6-0.8-3.8c-0.3-1.9-0.7-3.7-1.3-5.5c-1-3-2.4-5.9-4.1-8.6l0,0C376.8,161.3,377,163.6,377.4,165.9z"/>
	<path d="M317,264.8c-0.9-1.3-1.9-2.7-2.8-4c-1.2-1.7-2.2-3.6-3.3-5.4c0.4,1.9,1,3.8,1.7,5.7c0.4,1,0.9,1.9,1.3,2.8
		c0.3,0.7,0.7,1.3,1.1,2c0.9,1.4,1.8,2.7,2.8,3.9c2,2.6,4.2,5,6.5,7.4c-1.4-2.9-3-5.8-4.7-8.5C318.8,267.4,318,266.1,317,264.8z"/>
	<path d="M310.9,255.3C310.9,255.3,310.9,255.4,310.9,255.3C310.9,255.3,310.9,255.3,310.9,255.3L310.9,255.3z"/>
	<path d="M446,372c-1.6-2.3-3.1-4.4-4.8-6.5c-1.4-1.8-2.9-3.6-4.4-5.3l0.2,0.2c-1-1.2-2-2.3-3.1-3.4c-0.7-0.7-1.3-1.5-2.1-2.1
		l-3-2.9c-0.3-0.3-0.7-0.6-1.1-0.9l-2.2-1.8c-0.8-0.6-1.6-1.3-2.4-1.9s-1.8-1.4-2.7-2.1c-1.2-0.9-2.5-1.8-3.7-2.6l-3.5-2.4l0.1,0.1
		c-4.1-2.8-8.5-5.3-12.8-7.8c-4.7-2.8-9.3-5.5-14.1-8c-3.4-1.8-6.7-3.6-9.9-5.7l-5.4-3.4c-1.7-1.1-3.3-2.2-5-3.4
		c-1.4-1.1-2.9-2.1-4.3-3.2c1.2,1.2,2.4,2.4,3.6,3.6c0.9,0.9,1.9,1.7,2.9,2.6c1.8,1.6,3.8,3.2,5.7,4.7s4,3.3,6.1,4.8
		s4.4,3.1,6.7,4.6c6.7,4.3,13.3,8.6,19.9,13l3.2,2.3c1,0.7,2,1.5,3,2.3c1.9,1.4,3.8,2.9,5.6,4.5c3.9,3.2,7.6,6.7,10.9,10.4l2.3,2.6
		c1.4,1.7,2.8,3.4,4.2,5.1c6.5,7.7,13.7,14.8,21,21.8l1.1,1.1c-2.4-4.4-4.9-8.8-7.5-13.1C449.1,376.7,447.6,374.3,446,372z"/>
	<path d="M361.7,308.9C361.8,308.9,361.8,308.9,361.7,308.9C361.8,308.9,361.7,308.9,361.7,308.9L361.7,308.9z"/>
	<path d="M439.7,459.1c-2.6-3.1-5.3-6-8.1-8.9c-1.4-1.6-2.8-3.1-4.3-4.7c-1.2-1.3-2.4-2.7-3.6-4.1c-5.1-6.1-10.2-12.2-15.5-18.1
		l0.3,0.4l-0.2-0.3l-1.5-1.8l0.3,0.4l-2.2-2.5l-0.1-0.1l0.2,0.2c-1.3-1.5-2.5-3.1-3.7-4.6c-0.6-0.8-1.2-1.5-1.8-2.2
		s-1.4-1.8-2.2-2.6c-2.7-2.9-5.3-5.9-8-8.9c-1.4-1.6-2.8-3.3-4.2-5c-1.7-2.2-3.4-4.4-5.2-6.6c-3-3.9-6.2-7.8-9.3-11.6
		c-1.3-1.6-2.7-3.3-4-4.9c-1-1.2-2-2.5-3-3.8c-0.9-1.1-1.8-2.2-2.8-3.2c-0.5-0.4-0.9-0.8-1.5-1.2c-0.5-0.3-1-0.5-1.6-0.6l0,0.1
		l0.3,0.1c0.4,0.1,0.8,0.3,1.2,0.6c0.8,0.6,1.5,1.3,2.1,2.1c1.4,1.7,2.6,3.5,3.8,5.4l1.9,3c1.4,2.2,2.7,4.4,4.1,6.5s2.5,4.1,3.8,6.2
		c1.4,2.2,2.8,4.4,4.2,6.7c1.2,1.8,2.3,3.7,3.6,5.5l2.7,3.7c0.7,0.9,1.4,1.8,2.1,2.6c1.6,2.1,3.3,4.2,4.9,6.3
		c1.3,1.7,2.5,3.5,3.8,5.2c1.5,2.1,2.9,4.1,4.4,6.1c0.8,1.1,1.6,2.1,2.4,3.2s1.7,2.1,2.5,3.1c2.9,3.7,5.8,7.4,8.8,11
		c1.8,2.2,3.5,4.4,5.3,6.5c0.8,1,1.7,2,2.5,2.9l2.8,3.1c3.2,3.5,6.4,6.9,9.8,10.2c1.8,1.7,3.6,3.4,5.4,5.1s3.6,3.3,5.4,5
		c3.4,3.1,6.9,6.1,10.5,9.1c-2.6-4.2-5.2-8.5-7.8-12.7C445.7,466.9,442.8,462.9,439.7,459.1z M408.1,423.2l0.1,0.1l0,0l0,0l0,0
		L408.1,423.2z"/>
	<path d="M392.7,467.1c-3.3-5.2-6.7-10.5-10.2-15.6s-7.2-10.3-10.7-15.5c-1.3-1.9-2.6-3.8-4-5.6c-0.6-0.8-1.2-1.6-1.8-2.5
		c-2.2-3.2-4.5-6.4-6.9-9.5c-2-2.6-4-5.2-5.9-7.8c0.9,2.2,1.8,4.3,2.7,6.5c0.9,1.9,1.7,3.7,2.6,5.6c0.9,2,1.9,4,2.9,6
		c0.4,0.7,0.7,1.4,1.1,2.1c1.9,3.4,3.8,6.7,5.9,10c1.7,2.6,3.4,5.2,5.2,7.7c3.4,5.1,6.5,10.4,10.2,15.2c2.1,2.8,4.4,5.4,6.7,8
		c1.1,1.2,2.3,2.3,3.4,3.5s2.3,2.2,3.5,3.2c1.8,1.6,3.6,3.2,5.5,4.8c-1.7-2.8-3.4-5.5-5.2-8.2S394.3,469.7,392.7,467.1z"/>
	<path d="M353.1,410.5C353.1,410.5,353.1,410.5,353.1,410.5C353.1,410.5,353.1,410.5,353.1,410.5L353.1,410.5z"/>
	<path d="M165.9,89.9c5.7-3.8,11.1-8,16.5-12.2c-6.7,3.4-13.4,7-19.9,10.9c-2.7,1.6-5.3,3.4-7.9,5.3c-4.4,3.1-8.7,6.4-12.9,9.8
		c5.1-2.5,10.2-5.2,15.2-8.1C159.9,93.8,162.9,91.9,165.9,89.9z"/>
	<path d="M182.4,77.6C182.4,77.6,182.4,77.7,182.4,77.6C182.4,77.7,182.4,77.6,182.4,77.6L182.4,77.6z"/>
	<path d="M64.5,155.7c2.1-1.3,4.1-2.7,6-4.1c1-0.7,2-1.4,2.9-2.1c3.1-2.4,6.1-4.9,9.1-7.4c1.5-1.2,2.9-2.5,4.3-3.8
		c-1.5,0.9-3,1.8-4.5,2.7l-4.3,2.6c-2.8,1.7-5.5,3.4-8.3,5.1c-2.1,1.3-4.2,2.6-6.2,3.9l-2.5,1.7c-3.7,2.5-7.3,5.1-10.9,7.7
		c-2.4,1.8-4.8,3.7-7.2,5.5c4.6-2.2,9.1-4.6,13.6-7.1C59.2,158.9,62,157.4,64.5,155.7z"/>
	<path d="M41.5,168.7C41.4,168.8,41.4,168.8,41.5,168.7L41.5,168.7z"/>
	<path d="M43,167.5C42.9,167.5,42.9,167.5,43,167.5C42.9,167.5,43,167.5,43,167.5z"/>
	<path d="M87.1,138c-0.1,0.1-0.2,0.1-0.2,0.2C87,138.2,87.1,138.1,87.1,138L87.1,138z"/>
	<path d="M41.9,168.4c-0.2,0.1-0.3,0.2-0.4,0.3C41.6,168.6,41.7,168.5,41.9,168.4z"/>
	<path d="M42.9,167.6c-0.2,0.1-0.7,0.5-1,0.8C42.1,168.2,42.4,167.9,42.9,167.6z"/>
	<path d="M83.6,164.3c3.9-3.1,7.5-6,11.2-9.1c2.1-1.7,4.1-3.4,6.2-5.1l0,0c-4.3,2.7-8.5,5.5-12.7,8.4c-1.9,1.3-3.7,2.5-5.6,3.9
		c-2.7,1.9-5.3,3.9-7.9,5.9c-1.3,1-2.6,2-3.8,3.1c-2.8,2.3-5.5,4.6-8.3,7c-3.2,2.7-6.3,5.5-9.4,8.3c6.2-4.3,12.4-8.7,18.5-13.2
		C75.8,170.3,79.7,167.3,83.6,164.3z"/>
	<path d="M376.7,770.7c0.6-1.2,1.2-2.3,1.9-3.4c-2.2,1.3-4.5,2.5-6.8,3.7l0.5-0.2l-1.1,0.5c-2,1-4.1,1.7-6.2,2.4
		c-0.3,0-0.6,0.1-0.9,0.1l-0.8,0.1c-0.9,0-1.8,0-2.6,0c-0.3,0-0.5-0.1-0.8-0.1c0-0.5,0-0.9,0-1.4l0,0c-0.3,0.4-0.6,0.8-0.9,1.2
		c-0.1,0-0.2-0.1-0.4-0.1c-0.9-0.3-1.7-0.7-2.5-1.2c-0.2-0.2-0.4-0.4-0.7-0.6c-1.4-1.7-2.7-3.6-4.1-5.3l0-0.1
		c-0.1,2.6,0.2,5.2,1,7.7c-2.4,3.6-4.4,7.6-5.9,11.7c-0.4,1-0.7,2-0.8,3c-0.3,1.4-0.6,2.9-0.7,4.3c-0.3,3.1-0.3,6.2,0.1,9.3
		c2.2-4.7,4.8-9.3,6.4-14.2l-0.1,0.4c1.3-4,2-8.1,2.3-12.2c0.1,0.2,0.3,0.3,0.4,0.5c0.5,0.6,1.2,1.2,1.8,1.6c-0.4,0.7-0.8,1.3-1.1,2
		c-1.1,2-1.9,4.1-2.6,6.3c-0.6,2.3-1.1,4.6-1.3,7c-0.3,2.2-0.3,4.5-0.2,6.7c1-1.9,2.2-3.7,3.2-5.6c1.2-2,2.2-4.2,3.1-6.4
		c1-2.7,1.7-5.5,2.2-8.3c0.1,0,0.3,0.1,0.4,0.2c0.9,0.2,1.8,0.4,2.7,0.4c-1.2,2.1-2.2,4.2-3,6.5c-1.2,3.6-2,7.3-3,11
		c1.6-1.7,3-3.5,4.2-5.4c0.5-0.8,1.1-1.6,1.6-2.4c0.4-0.6,0.7-1.2,1-1.9c0.3-0.6,0.6-1.2,0.9-1.9c0.8-1.9,1.4-3.9,2-6c0,0,0,0,0.1,0
		c0.9-0.2,1.7-0.6,2.5-1c1.1-0.6,2.1-1.3,3-2.1c1.2-1,2.2-2.1,3.1-3.3C375.4,772.9,376.1,771.8,376.7,770.7z"/>
	<path d="M594.4,374.1C594.4,374.1,594.4,374.1,594.4,374.1C594.4,374.1,594.4,374.1,594.4,374.1z"/>
	<path d="M594.1,374.2C594,374.2,594,374.2,594.1,374.2C594,374.2,594,374.2,594.1,374.2z"/>
	<path d="M331.4,369.7c0,0,0,0.1,0,0.1C331.4,369.8,331.4,369.8,331.4,369.7z"/>
	<path d="M594,374.2c-0.1,0-0.1,0-0.2,0.1C593.9,374.3,593.9,374.3,594,374.2z"/>
	<path d="M594.8,373.9c-0.1,0-0.3,0.1-0.4,0.2C594.5,374,594.7,374,594.8,373.9z"/>
	<path d="M594.9,373.9C594.9,373.9,594.9,373.9,594.9,373.9C594.9,373.9,594.9,373.9,594.9,373.9z"/>
	<path d="M330.1,366.7c0,0,0,0.1,0.1,0.2C330.2,366.9,330.2,366.8,330.1,366.7z"/>
	<path d="M593.8,374.3C593.7,374.4,593.7,374.3,593.8,374.3L593.8,374.3z"/>
	<polygon points="327.8,211.8 327.4,211.7 327.4,211.7 	"/>
	<path d="M800.5,392.2c0,0-0.1,0-0.1,0.1c-0.1,0-0.2,0.1-0.3,0.1L800.5,392.2z"/>
	<polygon points="824.8,414.9 824.8,414.9 824.7,414.8 	"/>
	<path d="M330.2,367c0,0,0,0.1,0,0.1C330.3,367,330.2,367,330.2,367z"/>
	<path d="M828.9,413.9c-0.2-0.6-0.6-1.2-1-1.7c-0.5-0.7-1.1-1.3-1.8-1.9c-2.2-1.6-4.7-2.7-7.3-3.1c-2.3-0.5-4.6-0.8-7-1
		c-1.5-0.1-3-0.2-4.6-0.3c-1.3-0.1-2.6,0-3.8,0c-4.8,0.1-9.7,0.2-14.5,0.6c-2.8,0.2-5.5,0.5-8.3,0.6c-2.5,0.1-4.9,0.1-7.4,0
		c-1.3-0.1-2.5-0.3-3.8-0.6l0.3-0.3c1.8-1.3,3.7-2.4,5.8-3.4c2-0.9,4-1.7,6-2.4c2.2-0.7,4.3-1.5,6.4-2.4s4.1-1.9,6.1-2.8
		c2-0.9,4.2-1.9,6.3-2.9c1.9-1,3.9-1.9,5.8-2.8h0.1h0.1h0.1h0h0.1c2.1-1,4.1-1.9,6.2-2.8c1.2-0.5,2.4-1,3.6-1.6
		c1.7-0.8,3.6-1.9,4.3-3.7c0.4-0.9,0.5-1.9,0.2-2.9c-0.1-0.4-0.3-0.9-0.6-1.2c-0.3-0.5-0.8-0.9-1.2-1.1c-1.2-0.7-2.5-1-3.8-0.9H815
		c-1.1,0-2.3,0.1-3.4,0.2c-2.7,0.2-5.4,0.5-8,1.1c-1.2,0.2-2.5,0.5-3.7,0.8s-2.2,0.5-3.3,0.8c-2.4,0.7-4.9,1.6-7.3,2.5
		s-4.6,1.5-6.8,2.3l-6.9,2.2c-3.1,1-6.2,2-9.3,3l-4.7,1.4l-2,0.6c-0.9,0.3-1.7,0.6-2.6,0.8c-0.5-0.9-1-1.7-1.6-2.5
		c-1-1.4-2.2-2.8-3.4-4.1c-1.3-1.6-2.9-2.9-4.8-3.6c-0.8-0.3-1.7-0.5-2.6-0.7c-1.1-0.2-2.2-0.3-3.3-0.3c-1.7,0.1-3.3,0.5-4.9,1.1
		c-2.8,1-5.6,2.2-8.3,3.5c-2.4,1.1-4.7,2.2-7.1,3.2c-2.4,1.2-5,2.1-7.6,2.8c-0.7,0.1-1.5,0.2-2.2,0.1c-1.5-0.2-2.9-0.5-4.4-0.8
		c-1.5-0.3-3-0.7-4.5-1.1c-2.9-0.8-5.8-1.5-8.7-2.2s-5.6-1.2-8.4-1.7c-3-0.6-5.9-1.2-8.9-1.9c-6-1.4-12-3.1-17.9-4.9
		c-3-0.9-6-1.8-9-2.7s-5.9-1.6-8.9-2.3l-4.7-1.2c-1.4-0.4-2.8-0.8-4.2-1.1c-3.1-0.7-6.2-1.2-9.4-1.3c-0.8,0-1.5,0-2.2,0h-2.1
		c-1.4,0-2.7,0.1-4.1,0.1c-2.9,0.1-5.8,0.5-8.7,1.1c-1-2-1.9-3.9-3-5.8c-1.3-2.3-2.7-4.6-4.1-6.9c-0.7-1.2-1.4-2.3-2.2-3.4
		c-0.7-1-1.5-2-2.3-3c-1.6-2.1-2.9-4.4-4.5-6.5c-1.4-2-3-3.9-4.8-5.6c0.8-1.2,1.6-2.4,2.4-3.6c0.6-1,1.2-1.9,1.8-3
		c0.3-0.5,0.5-1,0.8-1.5c0.3-0.8,0.6-1.6,0.9-2.4c0.4-1.2,0.6-2.3,0.8-3.5c0.1-0.6,0.2-1.2,0.2-1.8c0.1-0.8,0.2-1.6,0.2-2.4
		c0-1.3-0.2-2.5-0.5-3.7c-0.6-1.8-1.7-3.4-3.3-4.6c-1.4-1.2-2.9-2.5-4.3-3.8c-2.9-2.7-5.6-5.6-8.2-8.5c-1.4-1.7-2.7-3.4-4-5.2
		c-1.5-2.1-3-4.2-4.3-6.4c-1.3-2-2.5-4-3.7-6.1s-2.6-4.3-3.8-6.5c-0.2-0.4-0.4-0.9-0.6-1.3v0.1c-0.5-1.1-0.9-2.2-1.3-3.3
		s-0.8-2.2-1.1-3.4c-0.7-2.3-1.5-4.6-2.4-6.9c-1.7-4.7-3.6-9.3-5.9-13.8c-1.1-2.2-2.4-4.4-3.5-6.7s-2.2-4.4-3.4-6.5
		c-1.1-2.1-2.3-4.1-3.6-6.1c-1.4-2.1-3-4-4.7-5.8c-0.9-0.9-1.8-1.7-2.8-2.4c-1.1-0.8-2.3-1.4-3.5-2c-2.2-1-4.3-1.9-6.6-2.7
		c-1.2-0.4-2.5-0.9-3.7-1.2s-2.3-0.6-3.5-0.8c-2.4-0.5-4.7-1-7.1-1.6l-1.1-0.3c-1-0.4-2-0.7-3.1-0.8c-1.1-0.1-2.1-0.2-3.1-0.4
		s-2.3-0.3-3.4-0.4s-2.2-0.3-3.3-0.5s-2.3-0.5-3.5-0.7s-2.4-0.4-3.6-0.6c-2.3-0.3-4.7-0.5-7-0.4l-1.6,0.1l0.8-1
		c0.9-1.2,1.8-2.5,2.7-3.8v0.1c2.8-4.1,5.7-8.2,8.2-12.5c1.2-2.1,2.4-4.3,3.5-6.5s1.9-4.4,2.8-6.6c2-4.6,3.6-9.4,4.8-14.3
		c0.5-2.5,0.8-5,0.8-7.5c0-2.3,0-4.6-0.1-6.9s-0.2-4.8-0.5-7.1c-0.1-1.1-0.3-2.3-0.3-3.4c0-1,0-1.9,0.1-2.9c0.2-2.2,0.5-4.4,0.7-6.6
		c0.1-0.9,0.2-1.8,0.2-2.8c0.4-2.6,0.6-5.2,0.6-7.8c0-1.8-0.1-3.6-0.3-5.5c-0.1-1-0.2-1.9-0.4-2.9s-0.4-2.2-0.6-3.4
		c-0.7-3.5-1.6-7-2.3-10.6c-0.8-3.8-1.7-7.5-2.8-11.1s-2.4-7.1-3.9-10.6c-0.7-1.6-1.3-3.1-2-4.7c0.6,0,1.2-0.1,1.8-0.2
		c0.6-0.1,1.1-0.3,1.6-0.5c1-0.4,1.9-1,2.7-1.8c0.9-0.8,1.6-1.8,2.2-2.9c0.5-1.2,0.7-2.5,0.6-3.8c0-0.3-0.1-0.6-0.1-0.9
		c0.7-2,1-4.1,0.8-6.1c-0.1-2.5-1-5-2.4-7.1c-0.3-0.4-0.6-0.8-1-1.1c-0.1-2.6-1-5.2-2.6-7.3c-0.5-0.7-1.1-1.3-1.8-1.8
		c-0.3-0.3-0.6-0.5-1-0.7v-0.1c-0.2-0.8-0.5-1.6-0.9-2.3c-0.4-0.6-0.8-1.2-1.3-1.8c-0.5-0.5-1.1-0.9-1.8-1.1c-0.5-0.2-1-0.3-1.6-0.4
		c-0.2-0.5-0.5-1-0.8-1.4c-0.2-0.3-0.4-0.6-0.6-0.9c-0.3-0.5-0.7-0.9-1.1-1.4c-0.5-0.5-1.1-0.9-1.8-1.2c-0.4-0.1-0.8-0.3-1.2-0.4
		l-0.7-0.1l-0.1-0.3c-0.3-0.6-0.6-1.2-0.9-1.8c-0.5-0.7-1-1.4-1.6-2c-1.1-1.2-2.4-2.2-3.8-3.1c-1.1-0.8-2.3-1.4-3.6-1.8l-0.2-0.2
		c-1-1.2-2.1-2.2-3.3-3.1c-0.8-0.6-1.7-1.2-2.5-1.7c-0.8-0.4-1.6-0.8-2.4-1h-0.5c-0.7-0.1-1.4-0.1-2,0.1c-0.4,0.1-0.7,0.2-1.1,0.3
		c-0.9-1-1.8-1.9-2.9-2.7c-1.3-1-2.7-1.8-4.2-2.4c-1.5-0.6-3.2-0.9-4.8-0.9c-1.3,0.1-2.6,0.5-3.7,1.1c-1-0.8-2.1-1.6-3.3-2.2
		c-1.3-0.7-2.7-1.3-4.1-1.6c-0.6-0.1-1.1-0.2-1.7-0.3c-0.8-0.1-1.6-0.1-2.4-0.1c-1.4,0.1-2.8,0.4-4.1,1c-0.4,0.2-0.8,0.3-1.1,0.5
		c-1-0.6-2-1-3.1-1.4c-1.2-0.4-2.5-0.6-3.7-0.6H415L414.8,0c-1.4,0.1-2.7,0.5-3.9,1.1c-0.8,0.3-1.5,0.7-2.3,1.2
		c-0.4,0.3-0.8,0.6-1.1,0.9c-2.7-1-5.6-1-8.2,0.1c-0.7,0.3-1.4,0.7-2.1,1.1c-0.6,0.4-1.2,0.9-1.8,1.5c-0.3,0.2-0.5,0.5-0.7,0.8
		c-1.1-0.4-2.2-0.7-3.4-0.8c-1.6-0.2-3.2-0.1-4.8,0.4c-0.7,0.2-1.4,0.5-2,0.9c-0.5,0.3-1.1,0.7-1.5,1.1l-0.6-0.2
		c-1.4-0.4-2.9-0.6-4.3-0.5c-1.7,0.1-3.4,0.6-5,1.5c-1.1,0.6-2.2,1.3-3.1,2.2l-0.4,0.4h-0.1c-0.6-0.1-1.1-0.1-1.7,0
		c-3.2,0.5-5.9,2.4-7.5,5.2c-0.9,0.1-1.8,0.3-2.6,0.7c-0.7,0.3-1.3,0.7-1.9,1.1c-0.6,0.5-1.1,1-1.6,1.5c-0.9,1-1.6,2.2-2,3.5
		c-0.1,0.2-0.2,0.3-0.2,0.5c-0.1,0.3-0.3,0.6-0.3,0.9c-0.6,0.1-1.2,0.4-1.8,0.8c-0.4,0.3-0.7,0.6-1,1c-0.4,0.5-0.7,1-0.9,1.5
		c-0.4,1-0.7,2-0.8,3.1c0,0,0,0.1,0,0.1c-0.8,0.2-1.6,0.5-2.3,0.9c-1.1,0.8-2.1,1.9-2.7,3.2c-0.6,1.1-1,2.4-1.3,3.6
		c-0.2,0.7-0.2,1.5-0.2,2.2c-0.4,0.3-0.8,0.5-1.2,0.9c-0.4,0.3-0.8,0.7-1.2,1.1c-0.5,0.5-0.8,1.1-1.2,1.7c-0.5,1-0.9,2-1.1,3.1
		c-0.2,1-0.2,1.9,0,2.9c-0.4,0.2-0.8,0.3-1.1,0.5c-3.1,1.4-4.7,4.8-3.8,8.1c0.1,0.3,0.1,0.5,0.2,0.8c-1.4,0.8-2.5,2-3.1,3.6
		c-0.7,2.2-0.6,4.6,0.4,6.7c-0.5,0.5-0.9,1-1.2,1.5c-0.7,1-1.1,2.2-1.4,3.4c-0.2,1.1-0.3,2.2-0.1,3.2c0.2,1.1,0.5,2.2,1.1,3.2
		c-0.8,0.6-1.5,1.4-2.2,2.2c-0.5,0.5-0.9,1.1-1.2,1.6c-0.3,0.6-0.6,1.2-0.8,1.9c-0.2,0.7-0.2,1.3-0.1,2c0.1,0.7,0.3,1.3,0.5,1.9
		c0.2,0.6,0.6,1.2,0.9,1.7c0.2,0.3,0.5,0.6,0.7,0.9c-0.4,0.5-0.7,1.1-0.9,1.8c-0.7,1.8-0.9,3.8-0.4,5.7c0.2,0.9,0.6,1.8,1.1,2.7
		c0.5,0.9,1.2,1.8,1.9,2.6c0.2,0.2,0.3,0.4,0.5,0.5c-0.1,0.5-0.1,1.1-0.1,1.6c0.1,1,0.3,2,0.8,2.8c0.4,0.8,0.9,1.5,1.6,2.2
		c0.3,0.3,0.7,0.6,1.1,0.8c0.3,0.2,0.7,0.4,1.1,0.5c0.9,0.3,1.8,0.5,2.8,0.5c0.4,0,0.9-0.1,1.3-0.1h0.1h0.3c-0.5,1.2-0.8,2.4-1,3.6
		c-0.3,2.6-0.2,5.2,0.3,7.8c0.2,1.4,0.6,2.7,1.1,4c0.5,1.2,1.1,2.4,1.9,3.4c0.8,1.1,1.8,2.1,2.8,3.1c1,0.9,2.1,1.7,3.3,2.4
		c1.1,0.6,2.2,1.1,3.3,1.7s2.1,1,3.2,1.5c1.2,0.6,2.5,1.1,3.8,1.6c1.2,0.4,2.4,0.8,3.5,1.4l0.2,0.1v0.1c0.2,0.6,0.4,1.2,0.7,1.7
		s0.6,1.4,0.9,2.1c0.4,0.9,0.8,1.7,1.2,2.6c0.5,0.9,1,1.7,1.7,2.4c1.2,1.3,2.6,2.4,4.1,3.3c0.8,0.5,1.6,0.8,2.5,1.1
		c0.3,0.1,0.6,0.2,0.9,0.2c0,0.1,0.1,0.3,0.1,0.4c0.3,2.3,0.5,4.6,0.4,6.9c0,2.5,0.1,5,0.1,7.6s0.1,4.8,0.2,7.3s0.3,4.8,0.2,7.2
		c0,0.5-0.1,1.1-0.1,1.6c-0.1,1.6-0.3,3.2-0.6,4.8c-0.3,1.5-0.7,2.9-1.2,4.3c0-0.5-0.2-1-0.3-1.5c-0.3-0.5-0.8-0.8-1.4-0.9H367
		c-0.7,0.1-1.3,0.3-1.9,0.6l-1.3,0.6c-1.5,0.7-3,1.5-4.5,2.2c-2.3,1-4.6,2-6.8,3.2c-1,0.6-2,1.2-3,1.8c-0.6,0.4-1.3,0.8-1.8,1.4
		c-0.3,0.3-0.5,0.6-0.7,1l-0.2,0.2c-0.3,0.4-0.6,0.7-0.9,1c-0.8,0.7-1.7,1.3-2.6,1.8c-1,0.4-2,0.8-3.1,1c-1.9,0.2-3.9,0.3-5.9,0.1
		c-1-0.1-1.9-0.2-2.8-0.3c-1.4-0.2-2.8-0.3-4.2-0.4l0.3,0c0,0,0,0-0.1,0l-0.3,0c0,0,0,0,0,0l0.3,0c-2.5-0.2-5.1-0.5-7.6-0.7
		c-2.2-0.1-4.4-0.1-6.7-0.1s-4.7,0-7.1,0.2c-2.4,0.2-4.8,0.6-7.2,1.2c-2.2,0.4-4.3,1-6.5,1.6c-1.1,0.3-2.2,0.6-3.3,0.8
		s-2.2,0.4-3.2,0.6l-6.9,1.4c-2.2,0.5-4.4,1-6.7,1.4c-4.6,0.9-9.2,2.1-13.8,3.4c-2.2,0.6-4.4,1.2-6.5,1.7s-4.5,1.1-6.8,1.6
		c-5.3,0.9-10.7,1.8-16.2,1.6c-1-0.1-1.9-0.3-2.9-0.4c-1-0.2-2,0-2.8,0.4c-0.4,0.2-0.7,0.5-1,0.9c-0.4,0.5-0.7,1.1-0.8,1.7
		c-0.3,1-0.4,2-0.4,3.1c-0.1,1.1-0.1,2.2-0.2,3.4s-0.1,2.2-0.1,3.3c0,0.7,0,1.5-0.1,2.2l-0.6,0.1c-0.6,0.1-1.3,0.3-1.9,0.5
		c-1.1,0.3-2.3,0.6-3.5,0.8c-2.6,0.5-5.1,1.1-7.6,1.9c-2.3,0.8-4.5,1.7-6.8,2.5c-1.2,0.4-2.3,0.9-3.5,1.3l-3.6,1.2
		c-1.6,0.6-3.2,1.1-4.8,1.4c-0.8,0.1-1.6,0.2-2.4,0.2c-0.3,0-0.7-0.1-1-0.2c-0.2-0.1-0.5-0.2-0.7-0.3c-1.2-1.6-2.5-3.1-3.7-4.7
		s-2.7-3.3-4-5c-0.7-0.9-1.3-1.7-1.9-2.6s-1.3-1.9-1.9-2.9c-1.1-1.8-2-3.6-2.9-5.5s-2.2-3.8-3.3-5.7s-2.2-3.8-3.3-5.8
		s-2.1-3.8-3.2-5.6c-1.3-2.1-2.6-4.2-3.9-6.2c-0.7-1-1.4-2-2-3.1s-1.2-2.1-1.8-3.3c-0.9-1.9-1.7-3.9-2.5-5.9
		c-0.4-1.1-0.8-2.3-1.2-3.4c-0.5-1.3-0.8-2.7-1.1-4.1c-0.1-0.8-0.2-1.6-0.2-2.3c0.1-0.4,0.2-0.9,0.3-1.3c0.6-1.7,1.3-3.3,1.9-5V178
		c1.3-2.1,2.5-4.2,3.5-6.5c1.2-2.5,2.1-5.2,2.5-7.9c0.3-2.3-0.1-4.6-1.3-6.6c-0.4-0.7-1-1.3-1.5-1.9c-0.6-0.6-1.3-1.1-2-1.6
		c-2.1-1.1-4.4-1.7-6.7-1.7c-1.5-0.1-2.9-0.2-4.4-0.2l1.1-0.5l0.7-0.3l0.2-0.1h0.1c2.1-1,4.1-2,6-3.2c1-0.6,1.9-1.3,2.8-1.9
		s1.9-1.4,2.8-2.1s2.1-1.6,3-2.6s1.8-1.8,2.7-2.7c1.6-1.7,3.2-3.4,4.7-5.2c2.1-2.6,4.1-5.3,6-8.2c3.2-4.6,6.5-9.1,9.6-13.8
		c1.4-2,2.8-3.8,4.3-5.7s2.8-3.7,4.1-5.6s2.7-3.9,4.2-5.7s3-3.4,4.6-5.1s3.1-3.1,4.7-4.7c0.8-0.8,1.6-1.5,2.3-2.3s1.4-1.4,2.1-2.1
		l1.7-1.6l0.4-0.3l3.3-2.1c1-0.6,2-1.3,3-2c0.5-0.3,0.9-0.7,1.3-1.1c0.5-0.5,0.7-1.1,0.8-1.8c0.1-0.7,0.1-1.4,0-2.1
		c-0.2-1.3-0.6-2.6-1.1-3.9c-0.4-1.1-0.7-2.1-1.1-3.1c-0.5-1.3-1.2-2.5-1.9-3.7c-0.7-1.3-1.6-2.4-2.5-3.6c-0.6-0.8-1.3-1.5-1.9-2.2
		c-0.3-0.3-0.6-0.5-0.9-0.7c-0.5-0.4-1-0.7-1.5-1c-0.5-0.3-1-0.5-1.6-0.6c-0.7-0.2-1.4-0.3-2.2-0.3c-0.9,0-1.8,0.2-2.6,0.7
		c-0.4,0.3-0.8,0.5-1.2,0.8c-1.2,1-2.4,2-3.6,3l-0.2,0.1c-1.2,1-2.5,2-3.8,3l-1.3,0.9l-0.4,0.2c-3.4,1.4-6.8,2.9-10.2,4.5l-0.1,0.1
		l-0.1,0.1l-1.8,0.8l0.5-0.2l-1.8,0.9h-0.1c-1.2,0.6-2.4,1.1-3.5,1.7l-1.5,0.7l-1.3,0.6c-1.2,0.5-2.4,1.1-3.7,1.6s-2.3,0.9-3.5,1.4
		c-2.4,1.1-4.9,2.2-7.4,3.1s-5,1.7-7.6,2.5s-5,1.6-7.4,2.5s-5.1,1.8-7.6,2.7c-2.7,1-5.5,2-8.1,3.3c-4.8,2.4-9.4,5.3-13.7,8.5
		c-2.2,1.6-4.4,3.3-6.5,5.1c-2.2,1.9-4.3,3.8-6.2,5.9c-1.8,1.9-3.6,3.9-5.3,6l-2.7,3.1c-0.6-0.3-1.2-0.5-1.9-0.8
		c-0.9-0.3-1.8-0.5-2.6-0.8c-1.3-0.4-2.6-0.7-3.9-1c-2.5-0.7-5-1.4-7.4-2.3c-1.2-0.4-2.5-0.9-3.8-1.2s-2.4-0.7-3.7-1
		c-2.5-0.7-5.1-1.2-7.7-1.7c-1.1-0.2-2.2-0.4-3.3-0.6s-2.2-0.5-3.3-0.8c-2.1-0.6-4.2-0.9-6.3-1.4l-2.9-0.6c-1-0.2-2.1-0.4-3.1-0.6
		c-1.9-0.5-3.8-1.2-5.7-1.8c-2.5-0.9-5-1.9-7.6-2.6c-1.3-0.4-2.6-0.6-3.9-0.9s-2.4-0.6-3.7-0.9l-1.7-0.4c-0.6-0.2-1.1-0.2-1.7-0.2
		h-0.1c-1,0.1-1.9,0.4-2.7,1c-1.1,0.7-2.1,1.4-3.1,2.2c-2.1,1.7-4,3.5-5.8,5.5c-0.4,0.4-0.8,0.9-1.2,1.3l-0.6,0.5l-0.3,0.3
		c-0.3,0.3-0.5,0.6-0.7,0.9c-0.2,0.3-0.3,0.7-0.3,1.1c0,0.3,0.1,0.7,0.2,1c0.2,0.4,0.4,0.9,0.7,1.2c0.4,0.6,0.7,1.2,1.1,1.8
		c1.3,2.2,2.8,4.3,4.1,6.5s2.7,4.4,3.9,6.7s2.4,4.8,3.6,7.2c2.4,4.8,5.2,9.3,8.1,13.8c1.3,2.1,2.7,4.2,4.3,6.2c0.8,1,1.5,1.9,2.2,3
		c0.3,0.5,0.7,1,1,1.5c-0.5,0.3-1,0.6-1.4,0.9c-1.2,0.8-2.3,1.6-3.4,2.4c-3.4,1.7-5.7,5-6.1,8.8c-0.3,1.4-0.5,2.9-0.6,4.4
		c-0.3,2.9,0,5.8,0.9,8.6c0.9,2.8,2,5.5,3.4,8.1c1.3,2.4,2.8,4.6,4.5,6.7c1.8,2.3,3.8,4.5,5.7,6.7c1.8,2.2,3.8,4.3,5.9,6.1
		c2.3,1.8,4.9,3.4,7.6,4.6c1.2,0.6,2.5,1.1,3.7,1.6c1.3,0.5,2.6,1,4,1.4c1.4,0.3,2.9,0.3,4.3-0.2c1-0.4,2-0.9,2.9-1.5
		c1.2-0.7,2.4-1.6,3.4-2.6c1.6-1.8,3.1-3.6,4.4-5.5c0.2,0.3,0.3,0.6,0.5,0.8c0.4,0.5,0.8,1,1.2,1.5c0.9,1.1,1.9,2.1,2.9,3.2
		c1.4,1.7,2.7,3.4,4.1,5.1c0.7,0.8,1.4,1.5,2.1,2.3s1.5,1.6,2.2,2.4c1.5,1.6,3,3.2,4.5,4.7s3.1,3.1,4.7,4.6c0.8,0.7,1.6,1.3,2.4,2
		l2.4,2.1c1.7,1.4,3.4,2.9,4.9,4.4s3.1,3.1,4.6,4.7c0.7,0.8,1.5,1.5,2.2,2.3s1.5,1.4,2.3,2.1l2.1,1.9l0.9,0.8
		c0.7,0.8,1.7,1.4,2.7,1.7c1.7,0.3,3.2-1,4.6-1.9c0.8-0.5,1.6-1,2.3-1.6c1.6-1.2,3.1-2.4,4.6-3.7l0.5-0.4c0.4,0.9,0.7,1.8,1.1,2.7
		s0.8,2.1,1.2,3.1c0.8,2.2,1.6,4.4,2.5,6.6c1,2.3,2,4.6,3.1,6.9s2.2,4.2,3.2,6.3c2.2,4.3,4.4,8.6,6.7,12.8c1.1,2.1,2.2,4.2,3.3,6.4
		c0.5,1.1,1.1,2.1,1.6,3.1s1,2,1.5,3c0.5,0.9,1.1,1.8,1.7,2.6c0.7,1.1,1.7,1.9,2.9,2.3c0.8,0.2,1.6,0.2,2.3,0.2
		c1.1-0.1,2.3-0.2,3.4-0.3l1.5-0.2c1-0.1,2.1-0.2,3.1-0.2c2.4,0.3,4.8,0.9,7.2,1.5c2.2,0.6,4.5,0.9,6.7,1.4c2.4,0.5,4.8,1.1,7.2,1.6
		s4.6,0.9,6.9,1.1c0.6,0.1,1.2,0.1,1.8,0.2h0.1h0.2c1.3,0.1,2.5,0.2,3.8,0.2s2.3,0,3.4,0.1c2.3,0,4.6,0.1,6.9,0.1c1.2,0,2.4,0,3.7,0
		s2.2-0.1,3.2-0.2c1.2-0.1,2.5-0.3,3.7-0.6c1.1-0.2,2.1-0.6,3.1-0.8l0.8-0.2c0.3,1.2,0.6,2.4,0.9,3.6c1.1,3.7,2.6,7.3,4.4,10.6
		c0.8,1.6,1.5,3.2,2.3,4.7c0.4,0.7,0.8,1.4,1.3,2.1c0.3,0.4,0.7,0.8,1.2,1.1c0.6,0.3,1.3,0.3,1.9,0c0.3-0.1,0.7-0.3,1-0.5l0.4-0.2
		c1.9-0.9,4-1.5,6-2.2c1.2-0.4,2.3-0.8,3.5-1.2s2.2-0.6,3.3-0.9s2.3-0.7,3.4-1s2.2-0.5,3.4-0.8c2.2-0.5,4.3-1,6.5-1.5l2-0.4
		c1-0.2,2-0.4,3-0.5c1.2-0.2,2.4-0.3,3.6-0.5c2.3-0.3,4.6-0.4,6.9-0.5c4.7-0.2,9.3,0,14-0.4c2.8-0.2,5.6-0.7,8.3-1.4
		c0.2,0.7,0.4,1.5,0.5,2.2c0.3,2,0.4,4.1,0.5,6.1c0.1,1.7,0.2,3.5,0.4,5.2c0.3,3.4,0.8,6.9,1,10.4c0.3,3.8,0.6,7.5,1,11.2
		c0.3,3.4,0.4,6.7,0.8,10.1c0.3,3.6,0.7,7.3,0.9,10.9s0.4,7.1,0.5,10.6c0.2,7.1,0.5,14.2,0.5,21.4c0,3.6-0.1,7.1-0.2,10.7
		c-0.6,7-1.5,13.9-2.4,20.8c-0.5,3.4-1.1,6.9-1.5,10.3c-0.5,3.7-1,7.4-1.6,11.2c-0.6,3.3-1.3,6.6-1.9,9.9c-0.7,3.5-1.3,6.9-2.1,10.4
		c-1.5,7.2-3,14.4-4.5,21.7c-0.7,3.3-1.4,6.6-2.1,10s-1.5,6.6-2.3,10c-1.4,6.5-3.1,12.9-5.2,19.2c-1.3,3.6-2.5,7.1-3.7,10.7
		c-0.5,1.3-1.1,2.9-0.3,4.2c0.5,0.7,1.1,1.3,1.7,1.8l1.2,1.1c1.8,1.6,3.7,3,5.8,4.1c0.9,0.5,1.9,0.9,2.9,1.3c1,0.4,2,0.9,2.9,1.3
		l0.8,1.6c0.5,1,0.8,2.1,1.1,3.3c0.2,1.7,0.3,3.4,0.4,5.1c0.1,2.1,0.4,4.1,0.6,6.2c0.5,3.8,0.6,7.5,0.5,11.3
		c-0.1,1.2-0.3,2.4-0.6,3.6c-0.3,1.2-0.6,2.4-0.9,3.6c-0.4,1.3-0.7,2.7-1,4c-0.3,1.1-0.6,2.3-0.8,3.5c-0.3,2.9-0.5,5.8-0.7,8.7
		c-0.2,2.7-0.2,5.4-0.3,8.1s-0.1,5.4,0.1,8.1c0.1,1.4,0.3,2.7,0.4,4.1s0.4,2.8,0.6,4.1c0.4,2.5,0.9,5,1.3,7.5c0.5,2.7,0.9,5.3,1.3,8
		c0.5,3.1,0.9,6.2,1.2,9.4c0.2,3.1,0.2,6.2,0,9.3c-0.2,2.3-0.4,4.5-0.6,6.8c-0.2,2.8-0.4,5.6-0.5,8.4c-0.2,4.9,0,9.8-0.2,14.7
		c-0.1,1.3-0.3,2.6-0.5,3.9s-0.4,2.6-0.6,3.9c-0.5,3-0.8,5.9-1,8.9c-0.1,2.7,0,5.5,0.4,8.2c0.4,2.6,0.6,5.2,0.7,7.9
		c0,0.6,0,1.2-0.1,1.8c-0.3,2.1-0.7,4.1-1.1,6.1c-0.4,2.1-0.6,4.3-0.8,6.4c-0.2,2.2-0.3,4.5-0.4,6.7c0,1.9,0.2,3.7,0.2,5.6
		c-0.1,0.8-0.2,1.6-0.2,2.4c0,1.8,0.6,3.6,1.6,5.2c0.8,1.3,1.7,2.5,2.8,3.6c1.1,1,2.2,1.9,3.4,2.6c1.1,0.7,2.2,1.4,3.3,2
		c1.1,0.6,2.3,1.1,3.4,1.6c1.3,0.5,2.6,1,3.9,1.4c1.2,0.4,2.4,0.7,3.7,0.8c1.3,0.1,2.5,0.2,3.8,0.2h1.5l-0.6,0.9
		c-0.9,1.5-1.7,3-2.5,4.5s-1.5,3.1-2.2,4.6s-1.4,3.4-2,5.2c-2.2,6.8-4.1,13.7-6.3,20.5c-1.2,3.5-2.3,7-3.3,10.6
		c-1,3.4-1.9,6.8-2.8,10.2c-1.8,6.8-3.2,13.6-4.9,20.4c-0.9,3.6-1.7,7.2-2.3,10.8c-0.6,3.4-1,6.9-1.4,10.3s-0.9,6.8-1.2,10.2
		c-0.3,3.9-0.5,7.9-0.7,11.8c-0.1,1.5-0.2,3-0.3,4.5c-0.3,3.6-0.6,7.3-0.9,10.9c-0.3,3.5-0.4,7-0.6,10.4c-2.8,1.8-5.6,3.7-8.3,5.6
		c-2.1,1.4-4.3,2.8-6.4,4.4c-2.3,1.8-4.6,3.7-6.7,5.6s-4.2,3.8-6.3,5.6c-0.9,0.9-1.8,1.7-2.7,2.6c-1.8,2-3.2,4.3-4.2,6.8
		c-1.8,3.9-2.1,8.3-2.4,12.6c-0.1,1.3-0.1,2.6-0.1,4s0,2.6,0.1,3.9c0.3,6,1,12,1.7,17.9c0.9-5.6,2-11.1,2.8-16.6
		c0.4-2.8,0.9-5.6,1.3-8.4c0.1-0.6,0.2-1.2,0.3-1.8s0.2-1.3,0.3-1.9c0.3-2.1,0.8-4.3,1.4-6.3c0.6-1.8,1.4-3.5,2.4-5.1
		c1.8-2.3,3.7-4.4,5.8-6.4c1.9-1.9,3.8-3.8,5.7-5.6s3.8-3.8,5.8-5.6s4-3.7,5.9-5.6l3.5-3.4c-0.3,6.6-0.6,13.2-0.9,19.7
		c0,1-0.1,2-0.2,2.9c-0.3,3.4-0.7,6.8-1.1,10.2c-0.4,3.7-0.8,7.3-1.2,11c-0.4,3.4-1,6.7-1.5,10.1c-0.5,3.8-0.9,7.5-1.2,11.3
		s-0.7,7.3-1.2,10.9c-0.2,1.7-0.4,3.4-0.7,5.1s-0.4,3.3-0.6,4.9s-0.5,3.5-0.8,5.3s-0.7,3.6-1,5.3c-0.6,3.4-1,6.7-1.3,10.1
		c-0.2,1.7-0.3,3.4-0.4,5.1s-0.2,3.5-0.2,5.2c-0.1,3-0.3,6-0.5,9c-0.3,2.6-0.7,5.1-1.3,7.6c-0.3,1.3-0.7,2.5-1,3.8
		c-0.2,0.8-0.3,1.5-0.5,2.2c-0.6,0-1.3,0.1-1.9,0.2l0.7,0.2l1.1,0.4c-0.1,0.5-0.1,0.9-0.2,1.4c0.2-0.4,0.3-0.9,0.5-1.3
		c0.9,0.3,1.8,0.7,2.7,1s1.5,0.6,2.3,0.8c1.6,0.5,3.4,0.5,5,0.1c0.9-0.2,1.7-0.5,2.5-0.9c0.8-0.3,1.5-0.6,2.3-0.9
		c1.5-0.6,3.1-1,4.7-1.4c0.2,0,0.5-0.1,0.8-0.1l0.1,0.1c1.1,0.9,2.3,1.8,3.5,2.5c1.4,0.7,2.9,1,4.4,1.1c0.9,0.1,1.8,0,2.6-0.2
		c0.8-0.2,1.6-0.5,2.4-0.9c1.7-0.8,3.2-2,4.4-3.4c0.4-0.5,0.8-1,1.2-1.5c0.9,0.6,1.8,1.1,2.8,1.4c1.2,0.4,2.5,0.7,3.8,0.9
		c1.8,0.3,3.7,0.3,5.6,0.1c1-0.1,2-0.3,3-0.5c1.9-0.5,3.7-1.3,5.3-2.5c1.1-0.9,2.1-1.9,2.8-3.1c0.6-0.8,1.2-1.7,1.7-2.6
		c0.4-0.1,0.9-0.3,1.2-0.7c0.5-0.5,0.7-1.3,0.7-2c-0.1-0.7-0.2-1.4-0.3-2.1c-0.1-0.7-0.3-1.4-0.6-2.1c-0.5-1.5-1-3-1.6-4.5
		c-1.2-3.1-2.5-6.1-3.6-9.2s-2.1-6.3-3-9.5s-1.7-6.6-2.4-9.9c-0.7-4-1.2-8.1-1.5-12.2c-0.1-2.2,0-4.4,0-6.7c0.1-1.9,0.2-3.9,0.3-5.8
		v-0.2c0.1-1.6,0.2-3.3,0.5-4.9c0.2-1.8,0.6-3.7,1-5.5c0.7-3.5,1.6-7,2.5-10.4s1.9-6.8,2.9-10.2s1.9-6.8,2.9-10.2
		c0.8-2.6,1.6-5.2,2.5-7.9c2.4-6.7,4.8-13.3,7.7-19.8c1.4-3.2,3-6.4,4.5-9.6c1.6-3.4,3.4-6.6,5.2-9.9s3.6-6.1,5.4-9.2
		c0.6-1,1.2-1.9,1.7-2.9c0.8-0.8,1.5-1.7,2.3-2.5l1.2-1.5l-0.1,0.2c-1.4,2.6-2.5,5.3-3.8,8c-1.5,3.2-3,6.3-4.6,9.4
		c2.7-3.7,5.3-7.4,7.9-11.2c1.5-2.2,3.1-4.4,4.7-6.6s3.3-4.6,4.9-6.9l1.2-1.8c2.5-3.5,5.1-7,7.6-10.4s5.1-7.3,7.7-10.9l-0.4,0.6
		l0.3-0.5v-0.1v-0.1v-0.1v-0.1l0.1-0.2l-0.1,0.1l0.1-0.2v0.1l0.1-0.1l1.2-1.8c2.9-4.1,5.7-8.2,8.6-12.3s6-8.4,9-12.6
		c2.8-3.9,5.6-7.7,8.4-11.6c3.1-4.3,6.2-8.7,9.2-13.1c1.4-2.1,2.7-4.2,4-6.3s2.5-4,3.7-6.1c1.3-2.3,2.4-4.7,3.5-7.1s1.8-4.7,2.7-7
		c0.9-2.5,1.9-5.1,2.9-7.6c1.2-0.4,2.3-0.9,3.4-1.5l7.8-3.5c1.4-0.6,2.8-1.2,4.1-1.9c1.2-0.6,2.4-1.2,3.5-1.9l3.7-2.1
		c1.8-1,3.4-2.4,4.7-4.1c1.9-2.3,3.3-5,4.3-7.8c0.8-2.7,1.4-5.4,1.8-8.1c0.5-2.6,0.9-5.2,1.5-7.8c0.6-2.8,1.3-5.6,2-8.4
		c0.6-2.6,1-5.1,1.4-7.7c0.5-2.8,1.2-5.5,1.8-8.2c0.3-1.3,0.6-2.6,0.8-3.9c0.2-1.5,0.5-3.1,0.6-4.6c0.7-5.9,0.1-11.9,0.4-17.8
		c0.3-2.1,0.7-4.2,1.1-6.4c0.2-1.2,0.3-2.3,0.4-3.5c0.1-1.2,0.1-2.5,0.1-3.7c-0.1-2.3-0.3-4.5-0.4-6.8c-0.1-2.1-0.1-4.2,0-6.2
		c0.3-2.2,0.7-4.4,1.2-6.5c0.6-2.2,1-4.3,1.7-6.5c0.8-2.3,1.7-4.6,2.6-6.9c0.5-1.2,1-2.3,1.4-3.5c0.6-1.4,1.1-2.9,1.5-4.4
		c0.7-2.5,1.2-5.1,1.8-7.7s1.1-5,1.5-7.6c0.2-1.7,0.4-3.4,0.4-5.1h0.2c0.7,0.1,1.5,0.1,2.2,0.1c0.5,0,1.1,0,1.6,0
		c0.7,0,1.4-0.2,2-0.6c0.8-0.5,1.4-1.2,1.9-2.1c0.3-0.5,0.5-1,0.7-1.6c0.1-0.4,0.1-0.8,0.2-1.2c0.1-0.7,0.2-1.4,0.3-2.1
		c0.3-1.5,0.7-3.1,0.9-4.6c0.2-1.8,0.3-3.7,0.4-5.6c0.1-1.7,0-3.4,0-5.1s-0.2-3.5-0.2-5.2c-0.1-1.7,0-3.3,0.1-5
		c0.3-3.5,0.8-7,1.2-10.5c0.2-1.8,0.3-3.6,0.5-5.5s0.3-3.9,0.4-5.8c0.2-3.7,0.2-7.3-0.1-11c-0.2-2.1-0.4-4.1-0.6-6.2
		c-0.2-1.8-0.5-3.6-0.7-5.4c-0.2-2.1-0.4-4.2-0.4-6.2c-0.1-2.4-0.1-4.9-0.1-7.3c0-4.4,0.1-8.9,0.4-13.3c0.3-3.5,0.7-6.9,1.2-10.4
		c0.2-1.7,0.6-3.4,1-5.1s0.8-3.5,1.3-5.2c1-3.7,2-7.3,3.1-10.9c0.5-1.8,1-3.5,1.4-5.3s0.8-3.8,1.1-5.6c0.7-3.9,1.1-7.8,1.3-11.7
		c0.1-1.8,0-3.6,0-5.3s-0.1-3.6-0.2-5.4c-0.1-3.7-0.2-7.4-0.3-11s-0.3-7.4-0.3-11.1c-0.1-3.5-0.1-7-0.3-10.5
		c-0.2-3.7-0.3-7.4-0.4-11.1c-0.1-6.6-0.2-13.2-0.3-19.8l0.3,0.1c1.1,0.1,2.3,0,3.3-0.4l1.8-0.4c2.3-0.5,4.7-1,7-1.5
		c1.7-0.4,3.3-0.8,5-1.3c0,0.1,0,0.2,0,0.4c0,0.3,0.1,0.7,0.1,1c0.1,0.6,0.3,1.3,0.5,1.9c0.4,1.2,0.9,2.4,1.5,3.5
		c1.2,2.2,2.7,4.3,4.3,6.2c2.9,3.4,6.1,6.6,9.1,10c1.6,1.9,3.1,3.8,4.6,5.9c0.7,1,1.4,2.1,2.2,3.1s1.5,2.1,2.3,3.1s1.8,2.1,2.6,3.2
		s1.7,1.9,2.6,2.8c0.9,0.9,1.9,1.7,3,2.4c0.5,0.9,1.1,1.7,1.6,2.6s1.2,1.8,1.8,2.8s1.1,1.9,1.6,2.8c1.7,3,5.3,4.1,8.5,4.8
		c2.4,0.4,4.9,0.7,7.4,0.8c2.3,0.1,4.7,0.3,7,0.3s4.9-0.1,7.3-0.2s4.9-0.4,7.4-0.5s4.8-0.2,7.2-0.2c4.8-0.1,9.6-0.2,14.3-0.1
		s9.7,0.3,14.6,0.2c2.4,0,4.9-0.1,7.4-0.2s4.8-0.2,7.2-0.4s4.7-0.5,7-0.8c2.5-0.4,5-0.7,7.5-1.3c1-0.2,2.1-0.4,3.2-0.7l1.2-0.2
		c1.7-0.3,3.3-0.6,5-0.8c1.9-0.2,3.7-0.5,5.5-0.9s3.8-0.7,5.6-1.1c0.4-0.1,0.9-0.2,1.3-0.4l0.3,0.6c0.6,1.1,1.2,2.2,1.9,3.2
		c1.9,2.8,4.4,5.2,7.3,7c1,0.7,2.1,1.3,3.2,2s2.1,1.3,3.2,2c1,0.6,2.1,1.1,3.2,1.5c0.6,0.2,1.2,0.4,1.7,0.6c0.7,0.3,1.5,0.5,2.2,0.7
		c1.3,0.3,2.6,0.6,3.9,0.7c1.1,0.1,2.2,0.3,3.4,0.4c1.3,0.2,2.5,0.4,3.8,0.6s2.4,0.6,3.7,0.9s2.1,0.7,3.2,1s2.4,0.7,3.6,1
		c2,0.5,4,1,5.9,1.5c1.7,0.5,3.4,1,5,1.6c1,0.4,2.1,0.8,3.1,1.4c1.1,0.6,2.2,1.2,3.4,1.8s2.2,1,3.3,1.4s2.3,0.9,3.4,1.4
		s2.2,1.1,3.2,1.6s2.1,1,3.2,1.5c2.4,1,4.9,1.9,7.4,2.7c2.2,0.5,4.4,0.7,6.6,0.4c0.5,0,1-0.1,1.6-0.2s0.8-0.1,1.3-0.2
		c0.2,0,0.4-0.1,0.6-0.2l0.9-0.4c1-0.6,1.8-1.6,2.2-2.8c0.2-1,0.2-2.1-0.1-3.1c-0.2-0.6-0.4-1.1-0.8-1.6c-0.4-0.6-0.9-1.2-1.5-1.7
		c-0.5-0.4-0.9-0.8-1.5-1.2c-1-0.7-2.1-1.4-3.1-2.1c-2-1.6-4.1-3-6.3-4.3c-2.3-1.3-4.7-2.4-6.9-3.9c-1-0.7-1.9-1.5-2.8-2.3
		c-0.1-0.1-0.2-0.3-0.3-0.4c0.2,0.1,0.5,0.1,0.7,0.2c2.1,0.8,4.1,1.9,6.3,2.7s4.5,1.7,6.7,2.6s4.4,1.8,6.5,2.7
		c1.2,0.5,2.4,1,3.6,1.4c0.6,0.2,1.1,0.4,1.7,0.5s1.4,0.3,2.1,0.4c2.5,0.5,5,0.7,7.6,0.7c1.3,0,2.5-0.2,3.7-0.4
		c0.8-0.1,1.6-0.3,2.4-0.6c0.4-0.2,0.8-0.3,1.2-0.5c0.4-0.3,0.9-0.6,1.2-1c0.4-0.4,0.7-0.8,0.9-1.3c0.2-0.5,0.4-0.9,0.5-1.4
		c0.1-0.5,0.1-1,0.1-1.6c0-0.2,0-0.3-0.1-0.5c-0.1-0.5-0.2-1.1-0.3-1.6c-0.2-0.6-0.4-1.3-0.8-1.8c-0.3-0.6-0.8-1.1-1.2-1.6
		c-0.2-0.2-0.4-0.4-0.6-0.6c-1-1-2.2-1.7-3.4-2.3c-0.7-0.3-1.4-0.6-2.1-0.8c-0.6-0.2-1.2-0.4-1.8-0.5c-1.1-0.3-2.2-0.4-3.3-0.7
		c-2-0.5-4-1-6.1-1.5c-2.1-0.5-4.2-0.9-6.3-1.1c-2-0.2-4.1-0.4-6.1-0.9c-2-0.4-4-0.9-6-1.5c-1.2-0.4-2.3-1-3.4-1.6
		c-0.2-0.1-0.3-0.3-0.4-0.4l0.2-0.1c0.8-0.1,1.6-0.1,2.4,0c2.2,0.2,4.3,0.5,6.5,0.9c1.2,0.2,2.5,0.5,3.7,0.6s2.7,0.2,4.1,0.2
		c4.8,0.1,9.6,0.3,14.3,0c2.3-0.2,4.6-0.5,6.9-0.7c1.3-0.1,2.6-0.2,3.9-0.4c0.7-0.1,1.3-0.2,2-0.3c1.1-0.2,2.2-0.4,3.2-0.8
		c1.1-0.4,2.2-1.1,3.1-1.9c1.2-1.1,1.9-2.6,1.9-4.2C829.2,415.3,829.1,414.6,828.9,413.9z M332.4,109.3c-0.2,0.2-0.4,0.4-0.6,0.6
		l-0.1-0.2l0,0l-0.1-0.3c0.4-0.1,0.7-0.2,1.1-0.4C332.6,109.1,332.5,109.2,332.4,109.3z M333.3,64.6L333.3,64.6
		c0,0.1-0.1,0.1-0.1,0.1L333.3,64.6z M487.7,53.7c0.4,0,0.9-0.1,1.3-0.2l0,0c0.4-0.1,0.8-0.3,1.2-0.5c0,0.1,0,0.2,0,0.3l-0.4,0.1
		c-0.6,0.2-1.2,0.5-1.7,0.9c-0.1-0.2-0.3-0.3-0.4-0.5l-0.2-0.2H487.7z M486.9,42.4L486.9,42.4l-0.2,0.1L486.9,42.4z M482.5,38.6
		c0,0.1-0.1,0.2-0.1,0.2L482.5,38.6z M452.1,40.4h0.1H452.1L452.1,40.4z M433.6,44l0.2,0.3L433.6,44L433.6,44z M400.5,44.2
		c0.1-0.1,0.2-0.2,0.2-0.4L400.5,44.2L400.5,44.2z M371.4,81.6l0.1-0.1L371.4,81.6L371.4,81.6z M370.7,82.5L370.7,82.5l-0.2,0.1
		h-0.1L370.7,82.5z M367.9,107.8v0.1h-0.1L367.9,107.8L367.9,107.8z M367.8,99.4l0.1-0.1L367.8,99.4L367.8,99.4z M367.6,116.2
		c0,0.1-0.1,0.2-0.1,0.3L367.6,116.2z M367.5,116.8L367.5,116.8l-0.1,0.1L367.5,116.8z M358.9,26.7c0.1,0.1,0.1,0.3,0.2,0.4
		C359,27,358.9,26.8,358.9,26.7L358.9,26.7z M358.6,26.2c-0.1-0.1-0.2-0.2-0.3-0.4l0.1-0.1C358.4,25.9,358.5,26.1,358.6,26.2z
		 M369.6,201.2c0.4-0.6,0.8-1.3,1.2-2c0.6-1.1,1.2-2.1,1.7-3.3c0.5-1.2,1-2.4,1.4-3.7c0.7-2.3,1.2-4.6,1.5-7
		c0.3-2.6,0.5-5.2,0.5-7.8c0-4.1-0.2-8.3-0.6-12.4c-0.2-2-0.4-4.1-0.4-6.1c0-0.5,0-1.1,0-1.6c0-0.4-0.1-0.8-0.2-1.1
		c-0.1-0.4-0.3-0.8-0.5-1.2c-0.4-0.6-1-1.1-1.8-1.4c-0.9-0.3-1.8-0.5-2.8-0.7c-0.8-0.4-1.6-0.8-2.3-1.3c-0.7-0.5-1.3-1-1.9-1.6
		c-0.6-0.6-1.1-1.2-1.7-1.9s-1-1.3-1.5-1.9l-0.8-1c-0.4-0.6-0.9-1.1-1.4-1.6c-0.8-0.6-1.7-1-2.6-1.4c-0.8-0.3-1.5-0.6-2.3-0.9
		c-1.6-0.6-3.2-1.2-4.8-1.9c-1.6-0.7-3.2-1.6-4.7-2.5c-0.6-0.4-1.2-0.9-1.8-1.5c-0.6-0.5-1.1-1.1-1.6-1.7c-0.7-0.9-1.3-1.8-1.8-2.8
		c-0.3-0.8-0.6-1.7-0.8-2.6c-0.2-1.2-0.2-2.5-0.2-3.7c0.1-0.8,0.2-1.6,0.4-2.4c0.2-0.9,0.4-1.8,0.7-2.6c0.4-0.8,0.8-1.6,1.3-2.4
		c0.4-0.6,0.9-1.1,1.3-1.7c0.4-0.4,0.8-0.8,1.2-1.2c0.7-0.6,1.5-1.1,2.3-1.6c0.8-0.3,1.6-0.6,2.4-0.8c1.4-0.2,2.8-0.3,4.2-0.2
		c0.6,0.1,1.2,0.2,1.8,0.3c0.7,0.2,1.3,0.4,1.9,0.6c0.8,0.3,1.5,0.6,2.3,1l0.2,0.2c0.4,0.5,0.8,1.1,1.1,1.7c0.7,1.7,1.2,3.5,2.8,4.6
		c1.9,1.4,4.5,1.3,6.3-0.2c1.8-1.9,2.5-4.5,2.1-7c0-0.2-0.1-0.4-0.1-0.7c0.7-0.7,1.2-1.6,1.4-2.5c0.5-2.2,0.2-4.4-0.7-6.4l-0.2-0.5
		l0.2-0.2c0.6-1,0.9-2.1,0.9-3.2c-0.1-1.5-0.5-3.1-1.2-4.4c0.2-0.2,0.3-0.3,0.4-0.5c0.6-0.7,1.1-1.5,1.4-2.4c0.2-1,0.3-2,0.1-3
		c-0.1-0.8-0.2-1.5-0.4-2.2c0.5-0.4,1-0.9,1.5-1.5c0.6-0.8,1-1.7,1.2-2.6c0.2-1.2,0.2-2.4-0.1-3.6c-0.1-0.6-0.3-1.3-0.5-1.9
		c0.5-1,0.7-2.1,0.8-3.2c0-1.6-0.3-3.3-0.8-4.8c0.4-0.3,0.9-0.7,1.2-1.1c0.7-0.8,1.2-1.6,1.5-2.6l0.1-0.3c0.7-0.2,1.4-0.6,2-1.1
		c0.7-0.6,1.4-1.3,1.9-2.1c0.3-0.4,0.5-0.9,0.7-1.4c1.5-0.2,2.9-0.7,4.1-1.6c1.1-0.8,2.1-1.8,2.9-2.9l0.5,0.1
		c2.8,0.3,5.7-0.5,7.9-2.4c0.8-0.6,1.5-1.3,2.2-2h0.6c1.3,0,2.5-0.3,3.7-0.8c0.4-0.2,0.7-0.4,1.1-0.5c0.4,0.3,0.9,0.6,1.3,0.9
		c3.2,1.9,6.9,1.2,10-0.6c0.5,0.4,1,0.7,1.5,0.9c0.6,0.3,1.3,0.5,1.9,0.6c0.9,0.2,1.8,0.2,2.7,0.1c2.5-0.4,4.8-1.6,6.6-3.4
		c0.2,0.2,0.4,0.3,0.6,0.4c0.5,0.3,1.1,0.5,1.6,0.6c0.6,0.1,1.2,0.2,1.9,0.1c0.8,0,1.6-0.2,2.4-0.5c0.8-0.3,1.6-0.7,2.4-1.2
		c0.4,0.3,0.9,0.6,1.4,0.8c0.7,0.3,1.4,0.4,2.2,0.5h0.5c2.2-0.1,4.3-0.8,6-2.2l0.1-0.1c0.5,0.3,1,0.6,1.5,0.9c1.6,0.7,3.3,1,5,0.9
		c1-0.1,2-0.3,2.9-0.6l0.4-0.1c1.7,1.5,3.8,2.4,6.1,2.4h0.4c0.2,0.3,0.4,0.7,0.6,1c0.6,0.8,1.3,1.6,2.2,2.2c1.8,1.3,4,1.9,6.2,1.6
		c0.6,1,1.4,1.9,2.2,2.8c0.8,0.8,1.7,1.4,2.7,1.9l0.2,0.1c0,1.1,0.1,2.2,0.3,3.2c0.2,0.6,0.5,1.3,0.8,1.8l0.3,0.5l1,1.2
		c0.5,0.5,1.1,0.9,1.7,1.3c0.6,0.3,1.3,0.6,2,0.8c0.3,0.1,0.6,0.1,0.8,0.2l0.2,0.7c0.3,0.9,0.6,1.8,0.8,2.7l0.2,0.6
		c0.5,2.2,1.1,4.4,1.6,6.6c0.8,3.2,1.6,6.3,2.2,9.6c0.4,2.3,0.7,4.6,1,6.9c0.2,1,0.3,2.1,0.4,3.1l-0.4-0.1c-0.5-0.1-1-0.1-1.5-0.1
		h-0.3c-0.7,0.1-1.4,0.2-2.1,0.3c-0.8,0.2-1.5,0.4-2.2,0.6c-0.7,0.2-1.5,0.5-2.2,0.8c-1.7,0.7-3.3,1.4-4.8,2.3
		c-1.2,0.6-2.3,1.3-3.4,2c-1.2,0.8-2.3,1.7-3.3,2.6c-2.7,2.4-4.1,5.9-5.3,9.2c0.6-0.7,1.2-1.5,1.9-2.2s1.4-1.4,2.1-2.1
		c0.4-0.3,0.8-0.7,1.2-1c0.7-0.5,1.4-0.9,2.2-1.3c1-0.4,2-0.8,3.1-1.1c0.9-0.3,1.9-0.5,2.8-0.6l0.5-0.1l2.4-0.4l0.4-0.1
		c1.3-0.2,2.7-0.4,4-0.6c0.7-0.1,1.4-0.1,2-0.2c0.5-0.1,0.9-0.1,1.4-0.1c0.1,0.9,0.2,1.9,0.4,2.8c0.1,0.8,0.2,1.5,0.4,2.3
		s0.4,1.3,0.6,2c0.4,1.2,0.7,2.4,1,3.7c-0.6-0.4-1.2-0.7-1.8-1c-0.8-0.3-1.6-0.6-2.5-0.7c-0.5-0.1-1-0.1-1.4-0.1h-0.3
		c-0.6,0-1.2,0.1-1.8,0.2l0.8-0.1c-1.2,0.2-2.4,0.5-3.5,1.1c-0.5,0.3-1,0.6-1.5,0.9c-1,0.8-2,1.6-2.8,2.5c-1.5,1.6-2.9,3.4-3.9,5.3
		c3.7-1.1,7.4-2.6,11.2-3.4c0.5-0.1,1-0.1,1.5-0.1c0.3,0,0.6,0,0.9,0c0.7,0,1.5,0,2.2,0c0.6,0.1,1.3,0.2,1.9,0.3l0.4,0.2
		c0.4,0.3,0.7,0.6,1.1,1l0.4,0.5c0,0.1,0,0.2,0,0.3c-0.2,2.3-0.5,4.6-0.9,6.9c-0.2,1.1-0.4,2.3-0.6,3.4c-0.2,1.3-0.4,2.6-0.5,3.9
		c0,1.2,0,2.4,0.2,3.6c0.1,1.2,0.2,2.4,0.2,3.6c0.1,2.4,0.3,4.9,0.3,7.3c0.1,1.5,0.1,3.1,0,4.6c-0.5,4.4-1.6,8.8-3.1,12.9
		c-0.8,2.3-1.6,4.5-2.5,6.8s-1.8,4.2-2.8,6.3c-2.2,4.4-4.7,8.6-7.5,12.7l-0.7,1.1l-0.1,0.1c-1.7,2.4-3.4,4.9-5.3,7.2
		c-2,2.4-4.2,4.6-6.5,6.6c-2.3,2.1-4.9,4-7.6,5.5c-1.3,0.6-2.7,1.1-4.1,1.5c-1.3,0.4-2.7,0.7-4.1,0.9c-2.7,0.5-5.5,0.8-8.3,0.9
		c-1.4,0.1-2.9,0.2-4.3,0.2s-2.6,0-3.9-0.1c-1-0.1-1.9-0.2-2.8-0.4c-1-0.2-2-0.5-3.1-0.8l-1.4-0.6c-0.7-0.3-1.3-0.6-1.9-0.9
		c-1.2-0.6-2.4-1.3-3.5-2.1c-0.8-0.6-1.6-1.2-2.4-1.8c-1.1-0.9-2.1-1.8-3.1-2.8c2.5,4.7,5.3,9.5,9.9,12.4c2.1,1.3,4.4,2.2,6.9,2.7
		c2.6,0.5,5.3,0.7,7.9,0.6c0.7,0,1.4-0.1,2.1-0.1c-1.2,1.1-2.2,2.2-3.2,3.5c-1.9,2.9-3,6.2-3.1,9.7c-0.1,1.3-0.1,2.5,0,3.8
		c0.1,1.5,0.5,2.9,0.9,4.3c0.1-0.8,0.3-1.6,0.5-2.4c0.2-0.6,0.4-1.1,0.6-1.7l0.3-0.8c0.7-1.9,1.4-3.8,2.2-5.6
		c0.6-1.2,1.1-2.4,1.8-3.6s1.3-2.1,2-3.1l0.6-0.9c1.2-1.5,2.5-2.9,3.9-4.1l0.2-0.2c1.2-0.3,2.5-0.5,3.7-0.9c0.5,2.1,1,4.1,1.4,6.2
		c0.4,2.4,0.6,4.7,0.4,7.1c-0.3,5.3-1.2,10.6-2.7,15.7c-0.7,1.7-1.5,3.3-2.4,4.8c-0.9,1.6-1.8,3.2-2.8,4.8c-2.1,3.1-4.4,5.9-7.1,8.5
		c-0.9,0.8-1.9,1.4-2.9,2h-0.1c-0.8,0.3-1.7,0.6-2.6,0.8c-1,0.1-2,0.2-3.1,0.1c-3.2-0.4-6.3-1.2-9.3-2.2c-2.7-0.9-5.4-2.1-7.9-3.4
		c-2.4-1.3-4.7-2.7-7-4.1c-2-1.4-3.9-2.9-5.7-4.5s-3.9-3.5-5.8-5.3s-3.4-3.8-5.1-5.7s-3.3-3.7-4.9-5.6c-2.3-2.7-4.3-5.6-6-8.6
		c-0.9-1.6-1.7-3.3-2.5-5s-1.6-3.3-2.4-4.9c-0.7-1.4-1.3-2.9-1.9-4.4s-1.2-3.1-1.7-4.7s-1.2-3.1-1.7-4.6s-0.8-3.1-1.2-4.7
		c-0.1-0.7-0.2-1.3-0.3-2c0.6-0.6,1.1-1.2,1.7-1.8C368.5,202.8,369,202,369.6,201.2z M27.5,143.5c-2.7-4.5-5.2-9-7.7-13.6
		c-1.2-2.2-2.4-4.3-3.7-6.4s-2.8-3.9-4.2-5.8s-2.8-3.8-4.2-5.7c-0.7-0.9-1.4-1.9-2.1-2.9c-0.5-0.7-1-1.5-1.4-2.2l0.4-0.4
		c0.6-0.5,1.3-1.1,1.9-1.6l2.8-2.4h0.1c0.9-0.7,1.8-1.5,2.7-2.2v-0.1c1-0.8,2.1-1.6,3.2-2.3H15c1.1,0.1,2.2,0.5,3.3,0.7
		c1.3,0.3,2.6,0.6,3.8,0.8s2.4,0.5,3.6,0.8s2.5,0.7,3.8,1.1c2.5,0.8,5.1,1.6,7.6,2.4c1.3,0.3,2.6,0.6,3.8,0.8
		c1.2,0.2,2.5,0.5,3.7,0.8s2.5,0.5,3.7,0.8s2.6,0.6,3.9,1c2.6,0.6,5.2,1.1,7.7,1.6c1.2,0.2,2.5,0.5,3.7,0.8s2.7,0.5,4,0.8
		c2.5,0.5,4.9,1.2,7.4,1.6c1.9,0.3,3.8,0.6,5.8,0.8l2.9,0.3c1.5,0.1,2.9,0.3,4.4,0.6l-2.2,2.5l-1.9,1.6c-3.5,3-6.8,6.1-10.3,9.1
		c-1.7,1.4-3.4,2.8-5.1,4.3s-3.2,2.9-4.8,4.3c-1,0.8-2,1.7-3.1,2.4c-1.2,0.9-2.5,1.7-3.7,2.5c-2.3,1.5-4.6,2.9-7.1,4.1
		c-2.6,1.3-5.3,2.5-7.8,3.9c-1.2,0.6-2.4,1.2-3.6,1.8s-2.4,1.3-3.7,1.9l-1.4,0.7c-0.7-1-1.3-2.1-2-3.1
		C30.3,147.7,28.8,145.7,27.5,143.5z M67.6,199.1c-0.6,0.6-1.2,1.4-1.6,2.1c-0.2,0.4-0.3,0.9-0.2,1.4c-1.4,1.6-2.8,3.1-4.3,4.6
		c-1.5,1.2-3,2.2-4.7,3c-0.2,0.1-0.5,0.2-0.7,0.2c-0.3,0-0.5,0-0.8,0l-0.3-0.1l-1.8-0.6c-1.9-0.7-3.8-1.5-5.7-2.3
		c-1.8-0.8-3.6-1.7-5.2-2.7c-0.6-0.4-1.1-0.8-1.6-1.2c-0.6-0.5-1.2-1-1.7-1.6c-1-1.1-2-2.2-3-3.3c-1.2-1.5-2.4-2.9-3.7-4.4
		c-2.7-3.1-5-6.5-7-10.1c-0.6-1.3-1.1-2.7-1.7-4c-0.5-1.4-1-2.8-1.3-4.2c-0.2-1.8-0.3-3.6-0.2-5.3c0.2-1.4,0.4-2.8,0.8-4.1
		c0.2-0.7,0.5-1.4,0.9-2c0.2-0.2,0.3-0.4,0.5-0.6c1.1-0.8,2.2-1.4,3.3-2.1c1.2-0.7,2.4-1.4,3.6-2l1-0.5c0.5,0.5,1.3,0.8,2,0.7
		c0.9-0.1,1.7-0.5,2.3-1.1c1.7-1.3,3.5-2.6,5.2-3.9s3.3-2.4,5.1-3.5c0.5-0.3,0.9-0.6,1.4-1c1.6-0.9,3.3-1.8,4.9-2.8
		c2.4-1.5,4.8-3.1,7-4.9c1.6-1.3,3.1-2.6,4.6-4l0.4-0.3c2.2-1.4,4.3-2.8,6.3-4.2c2.3-1.6,4.6-3.3,6.8-5.1c1-0.8,2-1.6,2.9-2.4
		c1.2-1,2.2-2.1,3.3-3.1c1.6-1.6,3.3-3.2,4.9-4.8s3.3-3.4,4.9-5.1c3.2-3.3,6.5-6.5,10-9.5c1.6-1.3,3.1-2.6,4.8-3.7
		c1.8-1.3,3.7-2.6,5.6-3.8c3.4-2.1,6.9-4.1,10.5-5.9c2.3-1,4.7-2,7-2.9s4.9-1.9,7.4-2.8c5-1.8,10.1-3.2,15-5.1
		c2.5-0.9,4.9-2,7.3-3.1s4.9-2.1,7.3-3.2c5.1-2.4,10-5.2,14.6-8.3c3.7-2.5,7.3-5.2,10.7-8.2l1.6-0.8h0.1l0.3-0.1l-0.2,0.1
		c1.2-0.6,2.5-1.1,3.8-1.5l0,0.1l0.3,0.1c0.3,0.1,0.6,0.3,0.9,0.5c0.5,0.4,1,0.8,1.4,1.3c1.5,1.9,3,3.8,4.4,5.8
		c0.7,1.1,1.4,2.2,2.1,3.4c0.7,1.1,1.4,2.2,2,3.4c0.2,0.4,0.4,0.8,0.5,1.2c-0.8,0.9-1.5,1.8-2.4,2.6c-0.9,0.9-1.9,1.9-2.8,2.8
		l-1.3,1.2l-1.8,1.4c-0.9,0.7-1.8,1.4-2.7,2.1s-1.9,1.4-2.9,2.1c-1.9,1.4-3.7,2.8-5.5,4.4c-1.7,1.5-3.4,3.2-4.9,4.9
		c-1.5,1.8-3,3.6-4.4,5.4s-2.9,3.9-4.4,5.8c-0.8,0.9-1.5,1.9-2.2,2.9s-1.5,2.2-2.2,3.3l-1,1.5c-1.3,1.8-2.6,3.6-3.9,5.4
		s-2.8,3.8-4.2,5.7s-2.8,3.8-4.3,5.5s-3.3,3.5-5,5.1c-1.3,1.3-2.5,2.6-3.7,3.9s-2.4,2.5-3.7,3.7s-2.4,2.5-3.6,3.6s-2.5,2.3-3.8,3.4
		l-3.5,2.9c-0.4,0.3-0.8,0.6-1.1,1c-2.8,0.1-5.7,0.3-8.5,0.2c-0.6-0.1-1.2-0.1-1.8-0.2c-0.7-0.1-1.3-0.3-1.9-0.5
		c-1.8-0.7-3.5-1.5-5.1-2.4c-1.7-1-3.3-2.1-5-3.1c1.4,1.3,2.7,2.6,4,3.9l-0.7-0.5c-0.6-0.4-1.1-0.9-1.6-1.4
		c-0.3-0.3-0.6-0.6-0.9-0.9c-0.5-0.6-1.3-1.1-2.1-1.2h-0.1c-0.4,0-0.8,0.1-1.1,0.3c-0.4,0.3-0.7,0.6-1,0.9c-0.7,0.7-1.2,1.6-1.5,2.5
		c-0.4,1.2-0.8,2.5-1,3.8c-0.2,1.1-0.3,2.1-0.4,3.2c0,1.4,0.1,2.9,0.4,4.2c0.2,0.9,0.5,1.9,0.9,2.8c0.3,0.6,0.6,1.2,0.8,1.8
		c0.3,0.5,0.6,1,1,1.4c0.5,0.7,1,1.4,1.6,2.1c-1.1,0.5-2.2,1-3.3,1.6c-2.3,1.3-4.6,2.6-7,3.8c-2.6,1.1-5.2,2.1-7.7,3.5
		c-2.5,1.4-4.9,2.9-7.2,4.6c-1.2,0.9-2.4,1.8-3.6,2.6s-2.4,2-3.6,3s-2.1,1.8-3,2.7s-2,2-3,3c-0.7,0.7-1.3,1.4-1.9,2.1l-1.1,0.8
		C70,197,68.8,198,67.6,199.1z M70.9,203L70.9,203L70.9,203l0.5-0.6l-0.3,0.7L70.9,203z M128.6,227.5c0,1.6-0.1,3.2-0.1,4.7
		c0,0.8,0,1.6-0.1,2.4c0,0.6,0,1.3,0,1.9c-0.7,0.5-1.4,1-2,1.6c-0.7,0.6-1.3,1.3-1.9,1.9c-1.2,1.2-2.5,2.3-3.8,3.5
		c-0.8,0.7-1.6,1.3-2.4,1.9c-0.8,0.5-1.5,1.1-2.3,1.6c-0.6-0.5-1.2-1-1.8-1.6c-0.8-0.7-1.6-1.3-2.3-2c-1.6-1.5-3.1-3.1-4.6-4.6
		s-3-3.2-4.5-4.8s-3.1-3-4.6-4.4c-0.8-0.7-1.6-1.4-2.4-2.1s-1.8-1.4-2.6-2.2c-1.6-1.4-3-3-4.4-4.5s-3-3.2-4.5-4.8s-2.9-3.1-4.4-4.6
		c-0.8-0.9-1.6-1.8-2.4-2.6s-1.7-1.7-2.6-2.5s-1.7-1.6-2.6-2.4l-0.9-0.8l0.8-1.2l0.8-1.1l0,0l0.8-0.8c1.4-1.4,2.9-2.9,4.4-4.2
		c2-1.7,4.1-3.3,6.2-4.9c2.3-1.7,4.7-3.2,7-4.7c1.2-0.8,2.3-1.4,3.5-2.1s2.5-1.5,3.8-2.1c2.5-1.3,5-2.6,7.4-4.1s4.7-3.2,7.1-4.9
		c0.9-0.6,1.8-1.2,2.7-1.8c1.4,1.1,3,2,4.7,2.7c1.7,0.7,3.5,1.1,5.3,1.4c0,0.1,0.1,0.3,0.1,0.4c0.3,1.8,0.5,3.7,0.6,5.6
		c0.2,2.1,0.4,4.2,0.5,6.3s0.2,4.3,0.4,6.5s0.4,4.3,0.4,6.5s0,4.5,0.1,6.7s0.2,4.4,0.3,6.7c0.1,2.4,0.2,4.8,0.4,7.1
		c0.1,1.1,0.2,2.2,0.2,3.3S128.7,226.5,128.6,227.5z M222.8,299.3c-0.8,0.2-1.7,0.4-2.5,0.6c-1.7,0.3-3.4,0.5-5.1,0.7
		c-2.1,0.2-4.1,0.2-6.2,0.1c-2,0-4.1-0.1-6.1-0.1s-3.8-0.1-5.7-0.2c-2.3-0.2-4.6-0.6-7-1s-4.8-1.1-7.1-1.6s-4.5-0.9-6.8-1.3
		c-1.2-0.3-2.4-0.6-3.7-0.9c-1.1-0.3-2.2-0.5-3.3-0.7c-1.6-0.2-3.2-0.3-4.8-0.1c-0.9,0.1-1.8,0.3-2.7,0.4l-2.4,0.3
		c-0.8,0.1-1.6,0.2-2.3,0.3l-0.2-0.2c-1.2-1.9-2.3-3.9-3.2-6c-1-2-2-4.1-3-6.1c-1.1-2.1-2.2-4.2-3.3-6.4s-2.3-4.4-3.4-6.6
		c-2.2-4.2-4.6-8.3-6.8-12.4c-1.2-2.1-2.3-4.3-3.4-6.4c-0.5-1-1-1.9-1.5-2.9s-1.2-2-1.8-3.1c-0.5-0.8-1-1.7-1.6-2.5l0.3-0.3
		c0.8-0.6,1.5-1.3,2.2-1.9c0.6-0.4,1.1-0.8,1.6-1.3c0.4-0.4,0.6-0.9,0.8-1.5c0.1-0.3,0.2-0.7,0.2-1c0-0.5,0.1-1,0.1-1.6c0-1,0-2,0-3
		c0-2.2,0-4.4-0.1-6.6s-0.3-4.5-0.6-6.8s-0.4-4.4-0.5-6.7s-0.3-4.4-0.4-6.6s-0.2-4.6-0.2-6.8s-0.3-4.4-0.5-6.6s-0.4-4.3-0.7-6.5
		c-0.2-1.4-0.4-2.8-0.7-4.2s-0.5-3.1-0.8-4.6c-0.1-0.7-0.3-1.3-0.5-2c1.9-0.3,3.6-1,5.1-2.2c0.8-0.6,1.5-1.2,2.2-1.9l0.3-0.2
		c-1.2,0.3-2.4,0.6-3.7,0.9c-0.9,0.1-1.8,0.2-2.6,0.1c-0.9-0.1-1.7-0.3-2.5-0.6c-1.5-0.6-3-1.3-4.4-2.1l1.8,0.5
		c-1.2-1-2.5-1.9-3.8-2.8c-0.7-0.6-1.6-1-2.6-1l-0.8-0.7l-0.1,0c-0.9-0.8-1.7-1.6-2.4-2.5v-0.1c-0.2-0.2-0.4-0.5-0.6-0.7l-0.4-0.4
		c-0.4-0.5-0.8-1-1.2-1.5c-0.4-0.6-0.7-1.2-1.1-1.9c-0.3-0.7-0.5-1.5-0.7-2.2c-0.1-0.7-0.2-1.4-0.2-2.1c0-0.8,0-1.5,0.1-2.2
		c0-1,0.2-1.9,0.4-2.8c0.2-0.5,0.4-0.9,0.7-1.4c0.1-0.1,0.2-0.3,0.3-0.4l0.2-0.1h0.1h0.2l0.2,0.1c0.8,0.4,1.7,0.9,2.4,1.4
		c0.9,0.5,1.8,0.9,2.7,1.3c0.5,0.5,1,1,1.6,1.5c1,1,2.1,1.9,3.3,2.6c0.8,0.6,1.7,1,2.7,1.4c0.8,0.3,1.5,0.6,2.3,0.8
		c2.5,0.6,5.1,0.9,7.7,1.1c2.6,0.3,5.2,0.7,7.8,1c0.8,0.1,1.5,0.2,2.2,0.4c0.4,0.2,0.7,0.4,1.1,0.6c0.5,0.3,0.9,0.7,1.3,1.1
		c0.2,0.3,0.4,0.5,0.5,0.8c0.2,0.5,0.4,1.1,0.5,1.7c0.2,1.5,0.2,3,0.2,4.5c-0.4,3.1-1,6.1-2,9c-0.1,0.3-0.2,0.6-0.4,1
		c-0.4,0.8-0.8,1.7-1.3,2.5c-0.6,0.9-1.2,1.9-1.7,2.9c-0.5,1.3-0.7,2.7-0.6,4.1c0,1,0.2,2,0.4,2.9c0.2,1.1,0.4,2.2,0.7,3.3
		s0.6,2.1,1,3.1c0.6,2,1.4,3.9,2.2,5.8c0.3,0.6,0.6,1.3,0.9,1.9s0.6,1.1,0.9,1.6c0.5,0.8,1.1,1.7,1.6,2.5c1.2,1.8,2.5,3.6,3.8,5.4
		c1,1.5,2,3,2.9,4.5s1.8,3.1,2.7,4.6c1.7,3,3.4,6.1,4.9,9.2c0.6,1.3,1.2,2.7,1.9,4c0.6,1.3,1.3,2.5,2.1,3.6c1.7,2.5,3.6,4.9,5.6,7.1
		c0.9,1.1,1.9,2.2,2.9,3.3c1,1.2,2,2.4,3.1,3.6s2,2.2,3,3.2c1.1,1.1,2.2,2.1,3.4,3l0.1,0.1h0.1h0.1c0.7,0.5,1.4,0.9,2.1,1.3
		s1.2,0.7,1.9,1c1.2,0.6,2.5,1.1,3.9,1.4c0.9,0.2,1.9,0.4,2.8,0.6c-1.2-0.5-2.3-1.2-3.4-1.9c-1.3-1-2.5-2-3.6-3.1
		c-0.9-0.9-1.8-1.8-2.6-2.7l-0.5-0.5c-0.5-0.7-1.1-1.3-1.6-2l0.9,0.1c0.8,0.1,1.5,0.1,2.3,0.1c1.3-0.1,2.6-0.2,3.9-0.4
		s2.8-0.4,4.3-0.7c1.2-0.2,2.4-0.6,3.6-1c2.3-0.7,4.6-1.7,6.9-2.6s4.3-1.6,6.6-2.2c1.7-0.5,3.4-1.1,5-1.7c-0.1,2.2-0.2,4.4-0.1,6.6
		c0.1,4.6,0.5,9.1,0.8,13.7s0.6,9.2,1,13.9c0,0.5,0.1,1,0.1,1.6v0.2c0.1,2.4,0.3,4.8,0.7,7.1c0.2,1.1,0.3,2.1,0.5,3.2
		c0.1,0.7,0.2,1.4,0.3,2c0.2,1.7,0.5,3.4,0.8,5.1C224,299,223.4,299.1,222.8,299.3z M333.5,1058.7c-0.3,0.4-0.7,0.8-1.1,1.2
		l-0.2,0.1c-1.1,0.4-2.1,0.8-3.2,1c-0.9,0.1-1.8,0.2-2.7,0.2h-1.1l0,0c-0.9-0.1-1.8-0.3-2.7-0.5c-1.3-0.5-2.4-1.2-3.6-1.9
		c-0.6-0.4-1.2-0.9-1.8-1.2c0.2-0.2,0.4-0.4,0.6-0.6c0.5-0.4,1.1-0.8,1.7-1.1c1-0.4,2.1-0.8,3.2-1c1.1-0.2,2.3-0.2,3.4-0.2
		c1.8,0.2,3.5,0.6,5.2,1.2c1,0.4,2,0.8,3,1.2C334.1,1057.6,333.8,1058.2,333.5,1058.7z M366.4,879.8c-1.5,3.3-3.1,6.7-4.8,10
		c-0.6,1.3-1.3,2.5-1.9,3.7c-2.2,2.4-4.5,4.7-6.6,7.1c-1.1,1.3-2.2,2.6-3.3,3.9c-0.5,0.6-1,1.2-1.4,1.9c-0.6,0.8-1.1,1.7-1.7,2.5
		l-0.3,0.5l0.2-0.2c0.9-0.7,1.7-1.5,2.6-2.2c1.5-1.2,3-2.4,4.5-3.6l1.1-0.9c-1.1,2-2.2,4.1-3.3,6.2c-1.6,3.2-3.1,6.5-4.6,9.7
		s-2.9,6.4-4.3,9.6s-2.8,6.8-4.1,10.2s-2.6,6.5-3.7,9.8s-2.2,6.9-3.2,10.4s-2.2,7.1-3.2,10.6c-1,3.4-1.7,6.9-2.5,10.3
		c-0.8,3.3-1.4,6.7-1.9,10.1c-0.4,3.6-0.7,7.3-0.9,11c-0.1,1.9-0.1,3.7-0.1,5.6s0.2,3.7,0.3,5.5c0.3,3.6,0.8,7.2,1.5,10.8
		c1.1,6.1,2.7,12.1,4.7,18c1,2.8,2,5.6,3.1,8.3c0.3,0.8,0.7,1.7,1,2.5l-0.2-0.1c-1.2-0.3-2.4-0.5-3.7-0.6c-0.7,0-1.3,0-2,0
		c-1.1-0.2-2.2-0.3-3.3-0.3c-2.4,0-4.8,0.5-7,1.4c-2.6,1.1-4.8,3.1-6.1,5.7c-0.5,0.2-0.9,0.4-1.4,0.6c-0.7,0.4-1.4,1-2,1.6
		c-0.3,0.3-0.6,0.5-0.9,0.8c-0.6,0.6-1.1,1.1-1.7,1.6c-0.4,0.3-0.9,0.6-1.4,0.9l-0.6,0.2c-0.3,0-0.6,0-1,0.1s-0.6-0.1-0.9-0.2
		c-0.7-0.3-1.3-0.6-1.9-1l-0.9-0.5c-0.9-0.5-2-0.7-3-0.8c-2.3-0.2-4.5,1.1-6.6,2.1c-1.1,0.6-2.2,1.3-3.3,2c-1.1,0.9-2.4,1.7-3.6,2.5
		c-0.5,0.2-1,0.3-1.5,0.5c-1.5,0.1-2.9,0.2-4.4,0.1c-0.5,0-1,0-1.4,0c0.4-1,0.9-1.9,1.5-2.9c0.4-0.7,0.9-1.5,1.2-2.2
		s0.8-1.7,1.2-2.6c0.7-1.6,1.2-3.3,1.7-5c0.4-1.6,0.7-3.3,1-4.9s0.6-3.5,0.8-5.3s0.3-3.4,0.5-5.1c0.3-3.5,0.5-7,0.9-10.5
		c0.2-1.9,0.6-3.7,0.9-5.6c0.3-1.6,0.6-3.2,0.9-4.9c0.6-3.4,0.9-6.9,1.4-10.4s1-7.1,1.3-10.6c0.4-3.8,0.6-7.5,1.1-11.3
		c0.4-3.5,1-7,1.5-10.5s0.8-7,1.2-10.4c0.4-3.7,0.9-7.4,1.3-11.2c0.4-3.5,0.5-7.1,0.7-10.6c0.4-7,0.7-13.9,1.1-20.9l1.5-1.4
		l-1.5,0.9c0.1-1.2,0.1-2.4,0.2-3.6v0.1c0.4-4.5,0.8-9.1,1.2-13.6s0.6-9.4,0.9-14.1c0.6-6.9,1.5-13.8,2.5-20.8s2.8-13.6,4.4-20.4
		c0.8-3.6,1.7-7.2,2.6-10.7c0.9-3.3,1.8-6.7,2.7-10c1-3.4,2-6.8,3.1-10.1s2.3-6.9,3.4-10.4c1.3-4,2.5-8.1,3.9-12.1
		c1.2-3.2,2.6-6.4,4.2-9.4c0.8-1.5,1.7-2.9,2.5-4.3c0.9-1.5,1.8-3,2.4-4.6c0.6-1.7,1.1-3.4,1.4-5.2c0.3-1.6,0.7-3.3,1.1-4.9
		c0.8-3.3,1.5-6.6,2.1-9.9c0.6-3.5,1.1-7,1.7-10.5c0.3-1.8,0.8-3.6,1.2-5.4c0.4-2,1-4,1.5-6c-1.1,1.8-2.2,3.6-3.1,5.4
		c-0.9,1.6-1.7,3.3-2.4,5c-0.4,0.9-0.8,1.9-1.2,2.9c0-0.7,0-1.4-0.1-2.1l0.2,0c-0.1-1.4-0.3-2.9-0.5-4.3c-0.4-2.7-0.8-5.3-1.1-8
		s-0.7-5.4-1-8.1c-0.1-1-0.2-2-0.2-3s0-2,0-3c0.1-1.3,0.3-2.5,0.5-3.7c0.3-1.5,0.7-3,1.2-4.5c1-2.6,2.2-5.1,3.6-7.4
		c0.6-1,1.1-2,1.7-3c1.1-1.2,2.2-2.3,3.5-3.4c2.2-1.8,4.5-3.5,6.9-5c1.3-0.8,2.7-1.6,4-2.4s2.5-1.3,3.7-1.9c3.2-1.4,6.5-2.6,9.9-3.4
		c1.5-0.3,2.9-0.5,4.4-0.7c1.7-0.1,3.3-0.1,5,0c1.2,0.1,2.4,0.3,3.5,0.6c1.2,0.3,2.3,0.6,3.5,1c2.4,0.9,4.7,2.1,6.8,3.6
		c1.3,0.9,2.5,1.9,3.6,3c1.2,1.1,2.3,2.4,3.4,3.6c1.8,2.2,3.3,4.6,4.5,7.1c0.3,0.8,0.7,1.7,1,2.5s0.5,1.9,0.8,2.8
		c0.4,1.9,0.8,3.7,1.2,5.6c0.1,0.6,0.2,1.2,0.4,1.8c0.2,0.6,0.4,1.2,0.6,1.8c0.4,1.1,0.7,2.1,0.9,3.2c0.2,2.7,0.3,5.3,0.2,8
		c0,0.8,0,1.7,0.1,2.5c-0.5,3.2-0.9,6.4-1.2,9.6c-0.5,4.6-0.7,9.2-1,13.8c0,0.2,0,0.5-0.1,0.7c-0.3,3.6-0.6,7.2-0.8,10.8
		c-0.2,2.9-0.4,5.8-0.9,8.7c-0.5,3.2-1,6.5-1.8,9.7s-1.5,6.3-2.3,9.4s-1.7,6.2-2.7,9.3c-1.2,3.3-2.7,6.5-4.3,9.6
		c-0.8,1.6-1.6,3.1-2.4,4.6c-0.8,1.4-1.5,2.8-2.1,4.3c-0.6,1.7-1.1,3.5-1.5,5.2c-0.4,1.6-0.8,3.3-1.3,4.9c-0.9,3.4-1.9,6.8-2.7,10.3
		c-0.7,3-1.2,6-1.7,9c-0.5,2.8-1.2,5.6-2.1,8.4C372.3,867.5,369.2,873.6,366.4,879.8z M312,766.6c-1.5-1.8-2.9-3.8-4-5.9
		c-0.1-0.2-0.2-0.5-0.2-0.7c0-0.5,0-1,0-1.6c0.2-1.6,0.5-3.3,0.8-4.9c0.3-1.8,0.8-3.6,1.3-5.3c0.9-3.4,1.7-6.8,2.8-10.1
		c0.7-1.8,1.4-3.5,2.2-5.1c0.9-1.6,1.8-3.2,2.9-4.7c2.1-3,4.3-6,6.3-9.1c-0.8,2.6-1.1,5.3-1,8c0.2,2.9,0.6,5.9,1.2,8.8
		c0.5,2.7,1.2,5.3,2.1,7.8c0.5,1.4,1,2.7,1.4,4.1s0.8,2.5,1.2,3.8c0.3,1.1,0.7,2.2,1.1,3.2l-0.6,1.8c-1.2,3.3-2.4,6.6-3.3,10
		c-0.4,1.6-0.8,3.2-1.1,4.9c-0.2,1.1-0.4,2.2-0.6,3.3c-1.2-0.5-2.4-1-3.5-1.5c-1.4-0.7-2.8-1.4-4.2-2.3c-0.8-0.6-1.6-1.2-2.3-1.8
		c-0.7-0.7-1.4-1.5-2-2.2l0,0L312,766.6z M401.4,757c0,0.3-0.1,0.7-0.1,1C401.4,757.6,401.4,757.3,401.4,757z M440.2,779.7
		c-1.3,2-2.5,4.1-3.8,6.2c-1.4,2.3-2.8,4.5-4.2,6.8c-1.9,3.1-3.8,6.2-5.7,9.3s-4,6.3-6.1,9.4c-2.9,4.1-5.8,8.3-8.7,12.4
		c-2.8,4-5.7,8-8.5,12.1c-2.9,4.2-5.8,8.5-8.6,12.8s-5.7,8.7-8.5,13.1c-0.6,1-1.3,1.9-2,2.9c-1.2,1.8-2.5,3.6-3.8,5.4
		c-1.4,1.6-2.9,3.2-4.3,4.8s-2.7,3.1-4,4.7l0.9-1.9c1.5-3,3.1-6.1,4.4-9.2c1.5-3.3,2.7-6.8,3.6-10.3c0.4-1.8,0.8-3.7,1.1-5.6
		s0.6-3.6,1-5.4c0.7-3.3,1.6-6.6,2.4-9.9l1.4-5.2c0.4-1.6,0.8-3.2,1.2-4.7c0.1-0.4,0.2-0.9,0.4-1.3c0.3-0.9,0.7-1.7,1.2-2.6
		c0.6-1,1.2-2,1.8-3c1.2-2,2.5-4.1,3.6-6.2s2.1-4.1,3-6.2s1.8-4.6,2.7-6.9v0.1l0.1-0.3c2.3-6.8,4.2-13.7,5.7-20.7v-0.1
		c0.7-3.4,1.3-6.9,1.8-10.3l0.1-0.5c0.8,0.6,1.6,1.2,2.4,1.7c1.1,0.8,2.4,1.4,3.7,1.9c1.2,0.4,2.5,0.8,3.7,1.1
		c5.2,1.6,10.7,2.2,16.2,1.9c2.9-0.3,5.8-0.8,8.6-1.5l0.8-0.2C442.6,776.1,441.4,777.9,440.2,779.7z M497.6,605.4
		c-0.2,2.2-0.6,4.4-1.1,6.5c-0.5,2.2-0.9,4.3-1.4,6.5c-0.9,4.2-1.6,8.4-2.9,12.5c-0.9,2.4-1.8,4.8-2.6,7.2c-0.9,2.5-1.6,5-2.2,7.6
		c-0.5,2.7-1.2,5.3-1.7,8c-0.5,2.8-0.7,5.6-0.7,8.4c0,2,0.1,4,0.2,6c0.1,0.9,0.1,1.8,0.1,2.7s0,1.7-0.1,2.5
		c-0.1,1.1-0.2,2.1-0.4,3.2s-0.5,2.2-0.7,3.4s-0.4,2.2-0.6,3.4c-0.1,0.8-0.1,1.6-0.2,2.3c0,0.6,0,1.1,0,1.7c0,2.3,0.1,4.6,0.1,6.9
		c0,1.2,0,2.3,0,3.5c0,0.9-0.1,1.9-0.2,2.9c-0.3,2.7-0.7,5.3-1.2,7.9c-0.6,2.7-1.3,5.5-1.8,8.2s-0.9,5.4-1.5,8.1s-1.3,5.4-1.9,8
		s-1.1,5.5-1.6,8.3c-0.4,2.9-1,5.7-1.7,8.5c-0.7,1.8-1.6,3.5-2.6,5.1c-0.5,0.7-1.1,1.4-1.8,2c-1.2,0.9-2.5,1.7-3.8,2.3
		c-1.2,0.6-2.3,1.2-3.5,1.8c-2,0.9-4,1.7-6.1,2.5c-2.2,0.9-4.4,1.9-6.6,2.8c-1.1,0.5-2.2,0.9-3.3,1.4s-2.2,0.8-3.3,1.1
		c-1.9,0.5-3.9,0.9-5.9,1.3c-3,0.5-6.1,0.8-9.2,0.9c-1.5,0-3,0-4.5-0.1s-3-0.1-4.4-0.2c-1.1-0.1-2.1-0.2-3.2-0.3
		c-1.1-0.2-2.2-0.4-3.2-0.8h-0.1l-0.1,0c-1-0.4-2.1-0.7-3.1-1.2c0.5-3,0.8-6,0.8-9.1c0-4.8-0.5-9.6-1.4-14.4
		c-0.2-1.1-0.4-2.3-0.7-3.4c0.4-0.6,0.7-1.2,1.1-1.8c0.6-1.1,1.1-2.2,1.6-3.3c1.2-2.5,2.1-5.2,2.6-7.9c0.3-2.9,0.5-5.8,0.5-8.7
		c0-1.7,0.1-3.4,0-5.2s-0.1-3.4-0.2-5.1s-0.3-3.4-0.3-5.1s0.1-3.4,0.2-5.1c0,0,0-0.1,0-0.1c0.3-2.6,0.7-5.2,1.1-7.9s0.7-5.2,0.9-7.9
		c0.2-2.7,0.4-5.4,0.7-8.2s0.5-5.7,0.8-8.6s0.5-5.7,0.8-8.6s0.8-5.5,1.2-8.2s0.9-5.7,1.2-8.6s0.6-6,0.8-9c0.2-2.8,0.2-5.6,0-8.4
		c-0.2-3-0.8-5.9-1.7-8.8c-0.4-1.3-0.8-2.7-1.2-4c0-1.1,0-2.2-0.1-3.3c-0.1-2-0.2-3.9-0.5-5.9c-0.3-2.2-0.8-4.4-1.3-6.5
		c-0.4-1.9-0.8-3.9-1.3-5.8c-0.9-4-1.7-8-2.6-12c-0.2-1-0.5-2-0.7-2.9c-0.1-0.4-0.3-0.9-0.4-1.3s-0.2-0.9-0.4-1.3
		c-0.4-1-0.7-2-1.1-2.9s-0.9-2-1.4-3c-0.9-1.9-1.7-3.8-2.7-5.7s-2-3.8-3.1-5.6c-1.2-2.1-2.4-4.1-3.7-6.1c-1.5-2.3-2.9-4.7-4.4-7
		c0.3,0.7,0.6,1.4,1,2.1l0.5,1.1l0.1,0.1v0.1c1.1,2.3,2.1,4.5,3.3,6.8v-0.1l0.1,0.1l0.4,0.9v-0.1c0.4,0.8,0.8,1.6,1.2,2.5v0.1v0.1
		c0.8,1.7,1.6,3.4,2.2,5.1c0.4,1.1,0.8,2.1,1.2,3.2c0.3,0.9,0.6,1.7,0.9,2.6c0.7,1.9,1.4,3.9,2.1,5.8c0.1,0.4,0.3,0.8,0.4,1.2
		l0.5,1.9c0.2,0.8,0.4,1.7,0.5,2.5c0.7,4,1.2,8,1.8,11.9c0.2,1.6,0.5,3.1,0.8,4.7c-0.5-1.2-0.9-2.4-1.4-3.6s-0.9-2.7-1.4-4
		s-1.1-2.7-1.6-4c-1.3-3.1-2.8-6.2-4.1-9.3c-0.8-1.7-1.5-3.5-2.4-5.2c-0.6-1.3-1.2-2.5-1.9-3.7c-1.3-2.2-2.8-4.4-4.4-6.4
		c1.5,3.3,2.7,6.7,3.7,10.1c0.4,1.5,0.8,3,1.1,4.5c0.7,3,1.3,6,2.1,9c0.7,2.7,1.4,5.5,2.1,8.2s1.6,5.5,2.5,8.2
		c1.4,4.1,2.9,8.1,4.2,12.1c0.7,2,1.3,4,1.9,6s1.1,3.7,1.5,5.6c0.6,4.2,1,8.4,1,12.6c0,2.1,0,4.2-0.1,6.3c-0.1,2.3-0.1,4.6-0.3,7
		c-0.2,2.8-0.4,5.5-0.6,8.3s-0.2,5.6-0.2,8.4s-0.1,5.6-0.2,8.4s-0.3,5.7-0.3,8.5c0,1.7-0.1,3.3-0.2,5c-0.3,2.8-0.8,5.6-1.2,8.4
		c-0.5,2.9-0.7,5.9-0.8,8.8c0,1.3,0,2.7,0.1,4s0.1,2.8,0.1,4.2c0.1,2.8-0.1,5.7-0.3,8.5c-0.1,1.7-0.2,3.3-0.3,5
		c-0.1,1-0.2,2-0.3,2.9c-0.2,1-0.4,2-0.8,3c-0.6,1.6-1.1,3.2-1.7,4.8c-0.1-0.5-0.2-1.1-0.4-1.6c0.1-0.4,0.2-0.8,0.2-1.1
		c0.2-1.1,0.5-2.2,0.8-3.3s0.5-2.2,0.6-3.2c0.1-0.6,0.2-1.2,0.2-1.8c0.1-0.6,0.1-1.3,0.1-1.9c-0.1-1.3-0.2-2.7-0.5-4
		c-0.2-1-0.5-1.9-0.7-2.9c-0.3-2.6-0.7-5.2-1.3-7.8c-0.7-2.7-1.7-5.3-3-7.8c-0.6-1.2-1.3-2.3-2-3.4c-0.8-1.1-1.6-2.2-2.5-3.2
		c-1.8-2.2-3.7-4.2-5.9-5.9c-1.2-1-2.5-1.9-3.9-2.6c-1.1-0.7-2.3-1.3-3.5-1.8c-1.4-0.6-2.9-1.1-4.4-1.5c-1.3-0.4-2.6-0.6-3.9-0.9
		c-1.5-0.2-3-0.3-4.6-0.4h-0.4c-1.2,0-2.5,0-3.7,0.2c-2.9,0.4-5.8,1-8.6,1.9c-2.6,0.9-5.2,1.9-7.6,3.1c-2.4,1.2-4.7,2.6-6.9,4.1
		c-4.7,2.9-9,6.4-12.6,10.6c-1.2,1.4-2.3,2.8-3.4,4.2c-1.2,1.6-2.3,3.3-3.4,5c-1,1.4-1.8,2.9-2.8,4.3l-2.8,4.1
		c-3.2,4.5-6.8,8.8-9.4,13.6c-1.4,2.5-2.4,5.1-3.2,7.9c-0.7,2.5-1.3,5-2.1,7.4c-0.9,2.5-1.6,5.1-2.2,7.7c-0.3,1.4-0.4,2.9-0.5,4.3
		c0,0.8,0,1.5,0.2,2.3c0.2,0.8,0.5,1.5,0.9,2.2c0.4,0.7,1,1.4,1.5,2c1.7,1.9,3.6,3.6,5.7,5.1c0.9,0.7,2,1.4,3,1.9
		c0.6,0.3,1.2,0.5,1.8,0.8c1.2,0.4,2.5,0.8,3.8,1.1c1.7,0.4,3.4,0.7,5.1,0.9c-0.1,0.4-0.2,0.7-0.3,1.1l-0.1,0.2
		c-0.2,0.7-0.5,1.3-0.8,1.9c-0.2,0.4-0.4,0.8-0.7,1.2c-2.1-0.7-4.2-1.6-6.2-2.7c-0.9-0.5-1.8-1.1-2.7-1.8s-1.8-1.2-2.7-1.8
		c-3-2-5.7-4.2-8.2-6.7c-0.7-0.9-1.4-1.9-1.9-2.9c-0.1-0.3-0.2-0.5-0.3-0.8c0-0.2,0-0.5,0-0.7c0.1-0.7,0.2-1.4,0.3-2.1
		c0.1-0.9,0.1-1.7,0.1-2.6c0-1.4,0.1-2.8,0.2-4.2c0.2-2.6,0.4-5.1,0.7-7.7s0.9-5.3,1.3-7.9c0.4-2.9,0.5-5.8,0.2-8.7
		c-0.1-1.2-0.3-2.5-0.5-3.7c-0.2-1.4-0.3-2.9-0.4-4.3c-0.1-1.9-0.1-3.8,0.1-5.6c0.1-1.1,0.2-2.3,0.4-3.4c0.2-1.5,0.4-2.9,0.6-4.4
		c0.4-2.9,0.7-5.8,0.8-8.7c0-1.3,0-2.6,0-3.9s0-2.7-0.1-4c0-2.6,0-5.3,0.1-7.9c0-1,0.1-2.1,0.2-3.1c0.2-2.5,0.4-5,0.6-7.5
		c0.1-1.5,0.2-2.9,0.3-4.4s0-2.9,0-4.4c-0.3-5.2-1-10.3-2.1-15.3c-0.7-4-1.5-8-2.2-12c-0.5-2.6-0.9-5.2-1.3-7.9
		c-0.3-2.7-0.5-5.3-0.5-8c-0.1-5.5-0.2-11,0.2-16.4c0,0,0-0.1,0-0.1c0.3-2.5,0.8-5.1,1.4-7.6c0.7-2.5,1.1-5.1,1.4-7.8
		c0.2-2.7,0.2-5.3,0.1-8c-0.1-2.7-0.5-5.3-0.6-8c-0.1-1.5-0.2-3-0.2-4.5c-0.1-1.5-0.3-3-0.6-4.4c-0.1-0.2-0.1-0.5-0.2-0.7l1.5,0.7
		c-0.7-0.8-1.4-1.5-2.1-2.2c-0.2-0.4-0.4-0.9-0.6-1.3s-0.4-0.8-0.5-1.2l0.6,0.6c-0.5-1.1-1-2.2-1.5-3.3c-0.1-0.5-0.1-0.9-0.1-1.4
		c0.2-1.3,0.4-2.6,0.8-3.8c1.4-0.3,2.7-0.7,4-1.1c1.7-0.6,3.4-1.4,5-2.3c1.8-1.2,3.4-2.5,4.9-4c1.8-1.8,3.7-3.6,5.5-5.3
		s3.7-3.3,5.6-4.9c0.9-0.8,1.9-1.6,2.9-2.3c0.6-0.4,1.1-0.8,1.7-1.2c0.7-0.5,1.4-0.9,2.2-1.3c1.2-0.6,2.5-1,3.8-1.4
		c1.2-0.3,2.4-0.6,3.6-0.8c1.8-0.3,3.6-0.5,5.5-0.6s3.9-0.2,5.8-0.4c2.1-0.2,4.2-0.6,6.2-1.1c1.9-0.5,3.9-1.1,5.8-1.6
		c0.7-0.1,1.3-0.2,2-0.3c1-0.1,1.9-0.1,2.9-0.2c1.7-0.1,3.3,0,5,0c1.2,0.1,2.3,0.3,3.5,0.6c1.1,0.3,2.2,0.6,3.3,0.9
		c1.2,0.4,2.4,1,3.5,1.7c1.4,1,2.8,2.1,4.3,3c1.3,0.8,2.6,1.6,4,2.3s2.9,1.4,4.3,2.1s2.9,1.6,4.3,2.4l0.9,0.6
		c1.6,1.1,3.1,2.3,4.6,3.5c1.8,1.4,3.4,2.9,5,4.6c1.2,1.7,2.3,3.5,3.2,5.4c0.8,1.5,1.7,2.9,2.5,4.4c0.5,1,1,1.9,1.6,2.8
		c0.8,1,1.6,2,2.7,2.8c0.6,0.5,1.1,0.9,1.7,1.4s1.1,1.1,1.8,1.6c1.2,1,2.3,2.1,3.5,3.1c1.3,1.2,2.7,2.2,4.3,3.1
		c1.4,0.8,2.7,1.6,4.1,2.4s2.7,1.3,4.1,2c0.6,0.3,1.2,0.6,1.9,0.9c1.3,0.5,2.6,1,4,1.3c1.2,0.3,2.4,0.7,3.6,1
		c2.2,0.8,4.4,1.6,6.6,2.3h-0.1c1.8,0.6,3.5,1.2,5.2,2c1.7,0.8,3.3,1.8,4.8,2.8l-0.5-0.3l0.9,0.6l-0.2-0.1l0.3,0.2l0.1,0.1l0.1,0.1
		l0.1,0.1l0.1,0.1h-0.1l-0.1-0.1c3.2,2.2,6.3,4.5,9.4,6.8c1.7,1.3,3.5,2.5,5.4,3.5c1.9,0.9,3.9,1.6,5.9,2.1l0.6,0.2
		c1,0.4,2,0.9,3.1,1.4s1.9,0.8,2.9,1.3s2,0.9,3,1.4c0.7,0.4,1.4,0.8,2.1,1.1c0.2,0.5,0.4,1,0.5,1.5
		C497.7,604,497.7,604.7,497.6,605.4z M502.3,608.5c0-0.3,0-0.6,0-0.9l0,0c0-0.5,0-0.9-0.1-1.4c0.5,0.6,1,1.3,1.5,2
		C503.2,608.3,502.7,608.4,502.3,608.5z M534.9,369.3c-1.9,0.3-3.9,0.6-5.8,0.8c-1,0.1-2,0.2-3.1,0.3c-0.7,0.1-1.3,0.2-2,0.3
		c-0.1-0.8-0.2-1.6-0.3-2.5c-0.1-1.1-0.3-2.3-0.4-3.5c-0.3-2.4-0.6-4.8-0.8-7.2c-0.2-2.2-0.3-4.4-0.5-6.6c-0.1-1.1-0.2-2.2-0.4-3.3
		c-0.2-0.8-0.3-1.5-0.5-2.3c0-1.4,0-2.9,0-4.3c0-3.6-0.2-7.1-0.4-10.7c-0.2-5.1-0.2-10.1-0.3-15.2c-0.1-4.8-0.1-9.6,0.2-14.4
		c0.2-2.4,0.6-4.7,1-7s0.7-5,1.1-7.5c0.3-2.3,0.7-4.6,1.2-6.8s1.3-4.7,2-7c1.1-2.8,2.2-5.6,3.2-8.4c-1.2,1.7-2.5,3.5-3.7,5.3
		c-1,1.4-1.8,2.8-2.6,4.3c-0.9,1.6-1.6,3.3-2.2,5c-0.7,1.8-1.2,3.7-1.7,5.6c-0.4,1.8-0.8,3.5-1.1,5.3s-0.6,3.5-0.9,5.3
		c-0.5,3.7-0.7,7.5-0.7,11.2c-0.1,3.8-0.1,7.5-0.1,11.3c0,3.5-0.2,7.1-0.2,10.6s0.2,7.2,0.2,10.8s0.1,7.3,0,11c0,7.4,0,14.7,0,22.1
		c0,3.7,0,7.4,0.1,11.2s0.2,7.5,0.2,11.3c0.1,7.3,0.5,14.5,0.7,21.8c0.1,3.5,0.2,7,0.3,10.5c0.1,3.9,0.1,7.7,0.2,11.6
		c0.1,4.1,0.1,8.1,0,12.2c0-0.1,0-0.2,0-0.3l0,0.6c0,0,0,0,0,0.1c0,0,0,0,0-0.1l-0.2,2.2c-0.1,1-0.2,2-0.4,3
		c-0.2,1.8-0.6,3.7-0.9,5.5c-0.6,3.5-1.4,7-2.3,10.4c-1.9,7.2-3.8,14.4-5.1,21.7c-0.6,3.6-1,7.3-1.4,10.9c-0.4,3.8-0.6,7.7-0.7,11.5
		c-0.1,3.6-0.2,7.3-0.2,11c0,1.8-0.1,3.6,0,5.3s0.3,3.7,0.4,5.6c0.2,2.3,0.4,4.7,0.4,7c0,1.2,0.1,2.5,0,3.7s-0.1,2.3-0.2,3.5
		c-0.3,3.4-0.7,6.8-1.1,10.2c-0.5,3.8-1.1,7.5-1.6,11.3c-0.2,1.9-0.4,3.9-0.4,5.8c-0.1,1.9,0,3.7,0.2,5.6c0.4,3.6,1.1,7.1,1.7,10.6
		c0.2,1.6,0.4,3.2,0.5,4.8c0.1,1.5,0.4,3,0.8,4.5c0,0.2,0,0.4,0,0.6c0,0.3-0.1,0.6-0.2,0.9c-0.1,0.2-0.1,0.3-0.2,0.4
		c-0.1,0.1-0.3,0.3-0.4,0.4c-0.1,0.1-0.2,0.1-0.3,0.2c-0.7,0.3-1.5,0.6-2.3,0.8c-0.3-1-0.7-1.9-1.1-2.9c-0.3-0.7-0.7-1.4-1.1-2
		c-0.2-0.7-0.5-1.4-0.9-2c-0.7-1.1-1.6-2.1-2.6-2.9l-1.3-0.9l-5.3-3.7c-2-1.4-4.1-2.6-6.3-3.6c1,0.9,2.1,1.7,3.1,2.6l0.1,0.1
		c-0.5-0.3-1-0.6-1.5-0.8c-0.9-0.5-1.9-0.8-2.8-1.3c-0.8-0.4-1.6-0.8-2.3-1.3c-2.3-1.8-4.6-3.8-6.9-5.6c-2.7-2.1-5.5-4-8.4-5.7
		c-3-1.7-6.2-3-9.4-3.9c-1.5-0.5-3-0.9-4.5-1.4s-3-1.1-4.6-1.5s-3.1-0.8-4.7-1.3c-2.3-0.9-4.5-2.1-6.6-3.4c-1.7-1-3.3-2-4.9-3.1
		c-0.9-0.6-1.7-1.3-2.5-2.1c-0.9-0.9-1.7-1.9-2.6-2.7s-1.8-1.8-2.7-2.6c-0.4-0.4-0.9-0.8-1.3-1.1c-0.6-0.4-1.1-0.9-1.6-1.4
		c-0.6-0.8-1.1-1.7-1.6-2.6c-0.4-0.7-0.9-1.4-1.3-2.1c-0.9-1.4-1.7-2.8-2.4-4.2c-0.6-1.2-1.4-2.4-2.2-3.5c-1-1.3-2.1-2.4-3.4-3.5
		c-1.1-1-2.3-2.1-3.4-3c-2.7-2.2-5.5-4.1-8.5-5.8c-1.4-0.8-3-1.4-4.5-2.1c-1.4-0.6-2.8-1.3-4.1-2.1c-1.1-0.6-2.1-1.3-3.1-1.9
		c-0.6-0.4-1.2-0.9-1.8-1.3c-1.2-0.8-2.5-1.5-3.9-2c-1.5-0.6-3-1-4.5-1.3c-1.4-0.3-2.9-0.5-4.3-0.6c-0.9-0.1-1.8-0.1-2.7-0.1h-1.7
		c-1.4,0-2.7,0.1-4.1,0.2c-1.6,0.2-3.3,0.4-4.9,0.8c-1.2,0.3-2.4,0.6-3.7,0.9s-2.4,0.6-3.6,0.8c-1.5,0.2-3.1,0.4-4.6,0.4
		c-1.6,0-3.2,0.1-4.7,0.2c-3.3,0.2-6.6,0.6-9.8,1.4c-1.5,0.4-3,0.9-4.4,1.6c-0.7,0.3-1.4,0.7-2.1,1.1c-0.5,0.4-1,0.8-1.5,1.2
		c-0.6,0.5-1.2,1.1-1.8,1.7c-1.1,1.1-2.1,2.4-3.2,3.5s-2.2,2.4-3.4,3.6c-1.5,1.6-3.1,3.1-4.8,4.5l-0.3,0.2c-1.1,0.4-2.1,0.9-3.2,1.3
		c-1.3,0.6-2.7,1.2-4,1.9c-1.1,0.6-2.3,1.1-3.4,1.7c-0.5,0.3-1,0.6-1.5,0.9c-0.4,0.3-0.9,0.6-1.2,0.9c-0.6,0.6-1.1,1.2-1.4,2
		l-1.1,0.4l-1.3,0.4l-0.9,0.3c-0.5,0.2-0.9,0.4-1.2,0.8c-0.4,0.5-0.6,1.1-0.4,1.7c0.1,0.4,0.3,0.7,0.6,1c0.2,0.2,0.4,0.4,0.6,0.6
		s0.6,0.5,0.9,0.8l0.9,0.8c0,0.4-0.1,0.8-0.1,1.1c0,0.2,0,0.4,0,0.6l-0.5-0.4c-1.6-1.1-3.1-2.3-4.6-3.4c-0.8-0.5-1.5-1.1-2.3-1.6
		c-0.4-0.3-0.7-0.6-1.1-0.8l-0.8-0.6c0.5-1.4,1.2-2.7,1.7-4c0.7-1.5,1.3-3,1.9-4.6c1.3-3.3,2.5-6.7,3.4-10.2s1.9-6.9,2.7-10.4
		s1.6-7.1,2.4-10.7c1.6-7,2.9-14,4.3-21.1c0.7-3.3,1.4-6.7,2.1-10c0.7-3.5,1.4-7,2.1-10.5s1.5-7.2,2.2-10.9
		c0.7-3.4,1.2-6.8,1.7-10.1c0.5-3.7,1.1-7.4,1.7-11.1c0.5-3.6,0.9-7.1,1.3-10.7s0.7-7.1,0.9-10.6s0.3-7,0.3-10.5
		c0-7.2,0.1-14.4,0.3-21.6c0.2-7.1,0-14.2-0.6-21.4c-0.3-3.6-0.6-7.3-0.9-10.9c-0.3-3.5-0.7-6.9-1-10.4c-0.2-3-0.6-6.1-1.1-9.1
		c-0.6-2.9-1.3-5.7-1.9-8.6c-0.3-1.2-0.5-2.4-0.8-3.6c0.3,0.4,0.6,0.9,0.9,1.3c0.9,1.4,1.8,2.8,2.6,4.2c1,1.6,1.8,3.3,2.7,5
		s1.8,3.4,2.6,5.1c0.4,0.8,0.8,1.6,1.1,2.4c2.1,4.9,4.4,9.8,6.5,14.7c2.2,5.1,4.4,10.2,6.5,15.4c-0.4-3.1-0.7-6.2-1.1-9.2
		c-0.2-1.6-0.5-3.2-0.7-4.9c-0.3-1.7-0.7-3.4-1-5c-0.3-1.3-0.6-2.6-1-3.9c-0.5-1.6-0.9-3.1-1.4-4.6c-1.1-3.1-2.3-6-3.8-8.9
		c-2.7-5.5-5.2-11.1-8.7-16.1c-1.7-2.5-3.6-4.9-5.5-7.3s-3.9-5-5.8-7.5c-1-1.3-2-2.6-2.9-3.9c-0.5-0.8-1.1-1.5-1.6-2.3
		s-1.1-1.8-1.6-2.6c-0.9-1.4-1.7-2.9-2.5-4.3c-0.9-1.6-1.7-3.2-2.6-4.9c-0.6-1.3-1.2-2.6-1.7-3.8c-0.7-1.6-1.3-3.3-1.9-4.9
		c-1.1-3.1-2-6.3-2.6-9.5c-0.1,1.5,0,3.1,0,4.6c0,1.3,0.2,2.6,0.3,3.9s0.4,2.4,0.6,3.6s0.5,2.6,0.8,3.9c0.5,2.4,1.2,4.8,2,7.1
		c0.4,1.1,0.8,2.3,1.2,3.4c0.5,1.3,1.1,2.7,1.7,4l-0.3-0.6c0.7,1.6,1.4,3.1,2.3,4.6c0.3,0.6,0.7,1.2,1,1.8l1.6,2.6
		c1.6,2.6,3.4,5,5.2,7.5l1.3,1.8c0.4,1.1,0.7,2.2,1,3.3c-2.4,0-4.7-0.1-7.1-0.3h0.1l-1.6-0.1h-0.2c-4.6-0.4-9.2-0.7-13.8-0.6
		c-2.2,0-4.5,0.1-6.7,0.4c-2.5,0.3-4.9,0.7-7.3,1.2l0.4-0.1c-2.4,0.4-4.7,1.1-7,1.5s-4.7,0.9-7.1,1.5c-4.5,1-8.9,2.3-13.2,3.8
		c-0.7,0.2-1.4,0.5-2,0.9c-0.1-0.3-0.2-0.6-0.3-0.8c-0.3-0.8-0.6-1.5-1-2.3c-0.7-1.7-1.5-3.3-2.3-4.9s-1.5-3.4-2.2-5.2
		c-0.8-1.9-1.4-3.9-2-5.9l-0.1-0.4c0.5-0.3,0.8-0.7,1.1-1.2c0.2-0.5,0.4-1.1,0.3-1.7c-0.1-0.5-0.2-0.9-0.3-1.4
		c-0.3-1.1-0.7-2.1-1.1-3.2s-0.7-2-1-3c-0.7-2.1-1.4-4.1-2.1-6.2c-0.3-1-0.7-2-1-3c-0.2-0.6-0.3-1.2-0.4-1.8
		c-0.1-1.2-0.2-2.4-0.3-3.7c-0.3-4.6-0.6-9.1-0.6-13.7c0-2.4,0-4.7,0.2-7.1s0.3-4.7,0.4-7c0.1-1.3,0.2-2.6,0.4-3.8s0.4-2.6,0.5-3.9
		l0.2-0.3c0.3-0.6,0.6-1.2,0.7-1.9c0.3-1,0.6-2.1,0.8-3.1s0.4-1.9,0.7-2.9c0.1-0.4,0.2-0.9,0.3-1.3c0-0.2,0.1-0.4,0.1-0.5h0.5
		c1.1,0,2.2,0,3.3-0.1c2.3-0.1,4.7-0.4,7-0.7s4.8-0.9,7.1-1.4s4.6-1.2,6.9-1.9s4.3-1.3,6.5-2c2.3-0.8,4.6-1.5,7-2.2s4.4-1.3,6.7-1.8
		s4.5-1.2,6.8-1.7c3-0.7,6.1-1.4,9.2-2.1c1.5-0.3,3-0.7,4.6-1s3-0.6,4.5-0.9c2.4-0.4,4.8-0.7,7.2-0.8c2.5,0,5.1,0.2,7.6,0.3
		c2.1,0.2,4.1,0.3,6.2,0.5c2.3,0.2,4.5,0.6,6.8,0.9c1.2,0.1,2.4,0.2,3.5,0.3s2.6,0.2,3.8,0.3h0.3c1,0,2.1-0.1,3.1-0.2l0.2-0.2
		c1.3-0.2,2.5-0.4,3.8-0.7c0.8-0.2,1.6-0.4,2.3-0.8c0.4-0.1,0.7-0.3,1.1-0.5s0.9-0.4,1.3-0.7c0.6-0.4,1.2-0.8,1.8-1.3
		c0.8-0.6,1.4-1.2,2-2c0.2-0.2,0.4-0.5,0.5-0.8c0.1-0.3,0.2-0.5,0.3-0.8c0.1-0.2,0.1-0.4,0.2-0.5s0.1-0.5,0.2-0.8
		c0.5-0.3,1-0.6,1.5-0.9l2-1.2c1.4-0.8,2.8-1.6,4.2-2.5c1.4-0.9,2.9-1.8,4.2-2.7l1.9-1.4c0.8-0.6,1.6-1.2,2.5-1.7
		c0.2-0.1,0.4-0.1,0.6-0.2c0.1,0,0.2,0,0.3,0h0.1c0.1,0,0.3,0.1,0.4,0.2H368l0.2,0.1c0.1,0.2,0.3,0.4,0.4,0.6
		c0.1,0.3,0.2,0.6,0.4,0.9l-0.1,0.2c-0.6,1.6-1.4,3.2-2.4,4.6c0-0.1,0-0.2,0-0.3c-0.1-1.2-0.1-2.3-0.1-3.5c-0.5,1.7-0.8,3.5-1,5.3
		c-0.1,1.5-0.1,3.1,0,4.6c0.1,1.6,0.4,3.2,0.8,4.8c0.3,1.6,0.6,3.1,0.9,4.7c0.6,3.1,1.4,6.2,2.5,9.1c1.2,3.3,2.6,6.4,4.3,9.5
		c0.8,1.4,1.6,2.7,2.5,4c0.9,1.3,1.8,2.6,2.8,3.9c2.1,2.5,4.2,5,6.4,7.3c2.2,2.4,4.5,4.6,6.9,6.7c1.2,1.1,2.5,2.2,3.8,3.2
		s2.6,2,3.9,3c2.5,1.8,5.2,3.5,7.9,5c1.4,0.8,2.7,1.6,4.1,2.3s2.9,1.3,4.3,1.9c3,1.3,6.2,2.2,9.4,2.8c3.1,0.6,6.3,0.8,9.4,0.5
		c1.9-0.2,3.8-0.7,5.6-1.5c1.4-0.7,2.8-1.5,4.1-2.4c3-2.1,5.5-4.8,7.4-7.8c1.7-2.7,3-5.6,3.9-8.6c0.4-1.4,0.7-2.9,0.8-4.3
		c0.2-1.6,0.3-3.2,0.4-4.8c0.1-2.1,0.1-4.3,0-6.4c-0.1-2.2-0.3-4.5-0.7-6.7c-0.4-2.1-1.1-4.2-2-6.2c-0.9-2-2-3.9-3-5.9
		c0.7-0.2,1.4-0.4,2.1-0.6c1.2-0.4,2.4-0.8,3.6-1.3c1.2-0.5,2.4-1.1,3.5-1.8c2-1.4,4-2.9,5.9-4.4c2.5-2,4.8-4.2,7-6.6
		c0.3,0.1,0.5,0.1,0.8,0.2l1.4,0.2c1.9,0.3,3.9,0.6,5.8,0.8c1,0.1,2,0.3,3,0.4c1,0.2,2,0.4,2.9,0.7c1.1,0.4,2.2,0.8,3.2,1.2
		c1.3,0.5,2.7,0.9,4.1,1.2c1.2,0.3,2.5,0.5,3.8,0.8c1.1,0.2,2.2,0.3,3.3,0.6c1.8,0.6,3.7,1.2,5.5,1.7s4.1,0.9,6.1,1.3
		c3.8,0.8,7.5,1.9,11.1,3.1c1.2,0.5,2.4,1.1,3.5,1.8c1.8,1.4,3.4,3,4.9,4.8c2.6,3.4,4.9,7.1,6.8,11c1,1.9,1.9,3.8,2.8,5.6
		s2,3.9,3,5.9s1.9,4.2,2.7,6.4s1.6,4.5,2.3,6.8s1.4,4.7,2.2,7.1c0.8,2.4,1.8,4.7,3,7c1.1,2.1,2.4,4.2,3.7,6.3s2.6,4.3,3.9,6.4
		s2.7,4.2,4.1,6.2s2.7,3.8,4.1,5.6c2.2,2.7,4.5,5.3,6.8,7.8c1,1.1,2.1,2.2,3.2,3.2c0.6,0.5,1.1,1,1.7,1.5s1.1,0.9,1.6,1.5
		c0.1,0.1,0.2,0.2,0.2,0.4c0.1,0.2,0.1,0.4,0.2,0.6c0.1,0.7,0.1,1.4,0.1,2.1c-0.2,1.4-0.5,2.7-0.9,4c-0.3,0.9-0.8,1.9-1.2,2.7
		c-0.6,1.1-1.3,2.1-2,3.2c-1,1.6-2.1,3.1-3.1,4.7c-1,0.3-1.4,1.6-1.8,2.5v0.1c-1,1.4-2,2.7-3,4c-1.4,1.8-2.9,3.6-4.4,5.4
		s-3,3.6-4.6,5.3c-0.8,0.9-1.6,1.8-2.5,2.6s-1.5,1.4-2.2,2.1c-0.9,0.8-1.8,1.5-2.8,2.2c-1.1,0.8-2.3,1.5-3.4,2.3
		c-2.2,1.4-4.5,2.9-6.8,4.1C543,367.3,539,368.5,534.9,369.3z M773.5,435.7L773.5,435.7l0.1-0.1L773.5,435.7z M824.9,415.1
		c0,0.1,0,0.2,0,0.3s-0.1,0.5-0.2,0.8l-0.1,0.1c-0.2,0.2-0.4,0.5-0.7,0.7c-0.5,0.4-0.9,0.7-1.5,0.9c-0.9,0.3-1.8,0.6-2.7,0.7
		c-2.3,0.3-4.5,0.5-6.8,0.6c-2.5,0.2-4.9,0.4-7.4,0.5s-4.7,0-7-0.1s-4.4-0.1-6.7-0.2c-1.1-0.1-2.2-0.3-3.4-0.5
		c-1.4-0.2-2.8-0.4-4.2-0.5c-1.1-0.1-2.3-0.1-3.4-0.1c-1.5,0-2.9,0.1-4.4,0.3c-0.6,0.1-1.1,0.3-1.7,0.6c-0.7,0.4-1.3,1.1-1.5,1.9
		c-0.2,0.7-0.2,1.3,0,2c0.1,0.4,0.3,0.8,0.5,1.2c0.2,0.3,0.5,0.6,0.7,0.9c0.6,0.5,1.2,1,1.9,1.4c0.5,0.3,1.1,0.6,1.7,0.9
		c2.3,1,4.6,1.9,7,2.6c2,0.6,4,1.1,6,1.6s3.9,1,5.8,1.6s3.8,1.2,5.7,1.8s3.9,0.9,5.8,1.5c0.4,0.1,0.8,0.3,1.1,0.5
		c0.6,0.3,1.1,0.6,1.7,0.9c0.5,0.3,0.9,0.7,1.3,1.1l0.2,0.3c0.1,0.3,0.2,0.5,0.2,0.8c0,0.2,0,0.3,0,0.5l-0.1,0.2h-0.1
		c-0.4,0.2-0.9,0.3-1.4,0.4c-1,0.1-1.9,0.2-2.9,0.3c-1,0.1-1.9,0.1-2.9,0c-1.5-0.2-2.9-0.3-4.4-0.6c-1.4-0.3-2.8-0.6-4.2-1.1
		c-4.3-1.5-8.5-3.2-12.7-4.9c-1.1-0.5-2.3-0.9-3.4-1.4s-2.1-0.9-3.2-1.4c-0.7-0.3-1.4-0.5-2.1-0.7c-1.2-0.4-2.4-0.4-3.5,0
		c-0.9,0.3-1.7,1-2.2,1.8c-0.3,0.6-0.5,1.3-0.5,2.1c0.2,1.4,0.9,2.7,2,3.6c1,0.9,2,1.7,3.1,2.4c1,0.7,2,1.3,3.1,1.8
		c2,1.1,4,2.2,5.9,3.5c1.3,1,2.6,2,3.9,3.1c1.4,1,2.7,2.1,3.9,3.3c0.2,0.3,0.4,0.5,0.6,0.8c0.1,0.2,0.1,0.3,0.2,0.5
		c0,0.1,0,0.1,0,0.2l-0.1,0.1c-0.3,0.1-0.7,0.2-1,0.3c-2.7,0.6-5.5,0.3-7.9-0.8c-2.2-0.8-4.3-1.7-6.4-2.8c-1.1-0.6-2.2-1.2-3.3-1.8
		s-2.2-1.1-3.3-1.6s-2-0.9-3-1.4c-1.1-0.6-2.2-1.3-3.4-2c-2-1.2-4.1-2.3-6.3-3.1c-2.5-0.9-5.1-1.7-7.7-2.4s-4.9-1.3-7.3-2.1
		c-2.3-0.8-4.6-1.4-7-1.8c-1.3-0.2-2.6-0.4-3.8-0.6c-1.1-0.1-2.2-0.2-3.3-0.4c-0.7-0.1-1.4-0.2-2.1-0.4s-1.2-0.3-1.7-0.5
		c-0.9-0.3-1.8-0.7-2.7-1c-1-0.4-2-1-2.9-1.6c-1-0.6-2-1.2-3-1.8s-2.1-1.2-3.1-1.8l-0.3-0.2c-1.2-0.9-2.4-1.8-3.4-2.9
		c-0.6-0.6-1.1-1.2-1.7-1.9c-0.7-0.9-1.4-1.7-2.1-2.6c-0.5-0.6-0.9-1.2-1.4-1.7s-1.1-1.4-1.6-2.2c-0.4-0.6-0.8-1.3-1.2-2
		c-0.3-0.8-0.6-1.6-0.7-2.5c-0.3-2-0.6-3.9-0.7-5.9c-0.4,1.4-0.7,2.9-1,4.4c-0.3,1.5-0.4,3.1-0.4,4.6c0.1,0.7,0.2,1.4,0.5,2.1
		c0.2,0.9,0.5,1.7,0.9,2.6c0.4,0.9,0.9,1.9,1.3,2.8c-0.9,0.1-1.8,0.1-2.7,0.1c-2.5,0.1-4.9,0.2-7.4,0.3c-1.2,0.1-2.4,0.1-3.6,0.2
		s-2.4,0.3-3.6,0.4c-2.3,0.3-4.5,0.7-6.8,1.2c-4.7,0.9-9.4,1.4-14.1,1.8c-4.8,0.2-9.7,0.4-14.5,0.3s-9.9-0.4-14.9-0.5
		s-9.7-0.2-14.5-0.2c-3.7,0-7.5,0.1-11.2,0.3c-2,0.1-4.1,0.2-6.1,0.2c-1.8,0-3.7-0.1-5.5-0.2c-2.1-0.2-4.3-0.5-6.4-0.7
		c-2.3-0.2-4.5-0.7-6.8-1.3c-0.4-0.2-0.9-0.4-1.3-0.6c-0.1-0.6-0.2-1.2-0.3-1.8c-0.5-1.7-1.3-3.3-2.6-4.6c-0.9-1-1.8-1.9-2.8-2.7
		c-0.5-0.4-1-0.9-1.5-1.3s-1-1.1-1.5-1.7l0.1,0.1l-0.2-0.2c-1.5-1.9-2.8-3.9-4.1-6l0,0.3c-1.3-2.2-2.6-4.3-4-6.4
		c-1.4-2.2-3-4.3-4.7-6.3c-1.7-2.1-3.7-4-5.6-5.9s-3.7-3.6-5.5-5.4c-0.9-0.9-1.7-1.7-2.6-2.6s-1.7-1.6-2.4-2.5
		c-0.3-0.4-0.6-0.8-0.9-1.2c-0.5-0.6-0.9-1.3-1.4-2v-0.1v-0.1c2-0.6,4.1-1.3,6-2.1c2.4-1.1,4.8-2.3,7.1-3.6c2.1-1.2,4.2-2.3,6.1-3.6
		c2.2-1.5,4.2-3.1,6.2-4.8c3.7-3.3,7.2-6.8,10.4-10.5c1.4-1.5,2.7-3.1,3.9-4.7l0.7,1.1c0.7,1.1,1.4,2.2,2.1,3.3s1.3,2.3,2,3.5
		c0.7,1.2,1.5,2.3,2.4,3.4c0.9,1.2,1.9,2.3,2.9,3.4c1.8,2,3.5,4,5.3,5.9c1.4,1.4,2.9,2.7,4.4,4c1.1,1,2.2,2,3.3,3
		c-1.3,0.4-2.7,0.9-4,1.3c-1.9,0.6-3.7,1.2-5.5,1.9c2.7-0.3,5.3-0.6,8-0.9c2.5-0.2,5-0.3,7.4-0.2c2.3,0,4.7,0.1,7,0.1s4.9,0,7.4,0.1
		l1.2,0.1h-0.5c1.4,0.1,2.9,0.3,4.3,0.6c1.6,0.3,3.3,0.7,4.9,1.1c2.9,0.7,5.8,1.4,8.7,2.1s6,1.6,8.9,2.5s6,1.9,9,2.9
		c5.9,1.9,11.8,3.6,17.8,5.2c2.8,0.8,5.7,1.4,8.6,2.1s5.7,1.4,8.5,2.2s5.8,1.6,8.7,2.1c1.4,0.3,2.8,0.6,4.1,0.8
		c1.7,0.3,3.3,0.2,5-0.1c1.1-0.2,2.2-0.6,3.3-1c2.7-1,5.4-2.3,8-3.4c2.8-1.2,5.7-2.4,8.6-3.4c1.9-0.7,3.9-1.3,5.9-1.8
		c0.6-0.1,1.1-0.1,1.7-0.1c0.4,0.1,0.8,0.1,1.1,0.2c0.7,0.2,1.4,0.5,2,0.9c0.5,0.4,0.9,0.8,1.3,1.2c1.6,2.1,2.9,4.4,4,6.8
		c0.8,1.7,1.4,3.3,2,5.1c0.5,1.6,1,3.3,1.3,5c0.1,0.8,0.2,1.7,0.1,2.5v0.1c-0.2,0.1-0.4,0.1-0.6,0.2c-0.7,0.1-1.4,0.1-2.1,0.1
		c-0.5-0.1-1.1-0.2-1.6-0.3c-0.9-0.4-1.9-0.9-2.7-1.4c-1.7-1.4-3.3-2.9-5-4.3c-1.7-1.5-3.2-3.1-4.6-4.8l-0.5-0.6
		c0.4,1.5,1,2.9,1.6,4.3c0.7,1.4,1.4,2.8,2.2,4.1c0.7,1.2,1.4,2.4,2.2,3.6c1,1.3,2.2,2.5,3.5,3.5c1.5,1.1,3.1,1.8,4.9,2.1
		c0.7,0.1,1.3,0.2,2,0.2c1,0,2.1-0.1,3.1-0.3c0.8-0.2,1.5-0.5,2.2-1c0.9-0.6,1.7-1.5,2.2-2.4c0.6-1.2,1-2.4,1.1-3.7
		c0.1-0.9,0.2-1.9,0.1-2.8c-0.1-1-0.3-2.1-0.5-3.1c-0.3-1.3-0.7-2.6-1.2-3.8c-0.6-1.3-1.1-2.7-1.8-4l0.8-0.1l2.7-0.3
		c3.6-0.4,7.2-1,10.8-1.6l-0.3,0.1c2.4-0.4,4.9-0.9,7.3-1.5s4.8-1.3,7.2-2.1s4.6-1.5,6.9-2.3c1.2-0.4,2.3-0.8,3.5-1.2s2.5-0.7,3.7-1
		c1.7-0.4,3.5-0.8,5.2-1.2c1.6-0.3,3.3-0.5,4.9-0.8c1.7-0.3,3.4-0.4,5.1-0.4l-0.3,0.3c-0.4,0.3-0.8,0.6-1.2,0.9
		c-0.6,0.4-1.1,0.7-1.8,1c-1,0.6-2.1,1.1-3.2,1.6c-2.1,1.1-4.2,2.1-6.3,3.1s-4.4,2.2-6.6,3.2s-4.5,2.1-6.7,3.3
		c-1.4,0.7-2.7,1.5-4.1,2.2c-1.9,0.9-3.8,1.6-5.7,2.4c-2,0.8-4,1.7-5.8,2.8c-0.9,0.5-1.9,1-2.8,1.5s-1.9,1-2.8,1.5
		c-0.7,0.4-1.4,1-2,1.6c-0.4,0.4-0.6,0.9-0.7,1.5c-0.1,0.4,0,0.7,0.1,1.1l0.2,0.4l0.5,0.6c1.1,0.7,2.2,1.3,3.5,1.7l0.5,0.2l0.3,0.1
		h0.1l0.4,0.1h-0.1c1.1,0.4,2.2,0.7,3.3,0.9c1.2,0.2,2.4,0.4,3.6,0.5c2.7,0.3,5.5,0.5,8.2,0.5c2.3,0,4.7-0.1,7-0.1h2.8
		c1.5,0,3,0,4.6,0l5.2-0.1c1.7,0,3.4,0,5.1,0c2.9,0.1,5.9,0.1,8.9,0.3c0.9,0.1,1.9,0.3,2.8,0.5c0.4,0.2,0.8,0.3,1.1,0.6
		c0.3,0.2,0.5,0.4,0.7,0.6c0.1,0.1,0.1,0.2,0.2,0.3V415.1z"/>
	<path d="M594.3,374.1c-0.1,0-0.2,0.1-0.3,0.1C594.1,374.2,594.2,374.1,594.3,374.1z"/>
	<path d="M331.4,369.8c0.1,0.1,0.1,0.2,0.1,0.3C331.5,370,331.4,369.9,331.4,369.8z"/>
	<path d="M331.3,369.6c0,0,0,0.1,0,0.1C331.3,369.7,331.3,369.6,331.3,369.6z"/>
	<path d="M330.8,368.3c0.2,0.5,0.4,0.9,0.5,1.3C331.2,369.3,331,368.9,330.8,368.3z"/>
	<path d="M330.5,367.7c0.1,0.2,0.2,0.5,0.3,0.6C330.7,368.1,330.6,367.9,330.5,367.7z"/>
	<path d="M331.5,370.1C331.5,370.1,331.5,370.1,331.5,370.1C331.5,370.1,331.5,370.1,331.5,370.1z"/>
	<path d="M331.5,370.2C331.5,370.2,331.5,370.2,331.5,370.2L331.5,370.2z"/>
	<path d="M517.7,450.7c0-0.1,0-0.2,0-0.3C517.7,450.5,517.7,450.6,517.7,450.7L517.7,450.7z"/>
	<path d="M330.3,367.1c0,0.1,0.1,0.2,0.1,0.3C330.4,367.3,330.3,367.2,330.3,367.1z"/>
	<path d="M299.7,559.8L299.7,559.8C299.6,559.8,299.6,559.8,299.7,559.8L299.7,559.8z"/>
	<path d="M330.4,367.3c0,0.1,0.1,0.1,0.1,0.2C330.4,367.5,330.4,367.4,330.4,367.3z"/>
	<path d="M401.1,800.5l-0.2,0.6c0,0.1,0,0.1-0.1,0.2L401.1,800.5z"/>
	<path d="M330.5,367.5c0,0,0,0.1,0.1,0.1C330.5,367.6,330.5,367.6,330.5,367.5z"/>
</g>
</svg>
