<?xml version="1.0" encoding="UTF-8" standalone="no"?>
<svg width="1914px" height="693px" viewBox="0 0 1914 693" version="1.1" xmlns="http://www.w3.org/2000/svg" xmlns:xlink="http://www.w3.org/1999/xlink" xmlns:sketch="http://www.bohemiancoding.com/sketch/ns">
    <!-- Generator: Sketch 3.3.3 (12072) - http://www.bohemiancoding.com/sketch -->
    <title>page04__panel05--hand</title>
    <desc>Created with Sketch.</desc>
    <defs></defs>
    <g id="Page-1" stroke="none" stroke-width="1" fill="none" fill-rule="evenodd" sketch:type="MSPage">
        <g id="page04__panel05--hand" sketch:type="MSArtboardGroup">
            <g id="Imported-Layers" sketch:type="MSLayerGroup" transform="translate(-172.000000, 0.000000)">
                <path d="M2065.08686,121.015582 C2064.71842,112.414917 2062.87194,103.727458 2058.53484,96.2136342 C2056.53705,92.7525891 2053.93659,89.2496437 2050.4052,87.2285986 C2046.65497,85.0831354 2042.78206,85.3259857 2038.82922,86.2606176 C2038.754,86.2499287 2038.67834,86.2392399 2038.60611,86.2294062 C2034.19507,85.6141568 2029.85883,85.7099287 2025.46233,86.4111164 C2024.69681,86.5333967 2023.9377,86.6860333 2023.18159,86.8536342 C2018.43417,86.4688361 2013.57561,86.7364846 2008.80768,87.4915439 C1986.59435,91.0098812 1965.68552,98.9375772 1943.10675,101.219002 C1938.1469,101.720523 1933.18277,102.075819 1928.21736,102.307981 C1917.27013,100.776057 1906.31093,99.323658 1895.35087,97.8823753 C1870.74951,94.6462233 1846.17765,91.2279335 1821.60493,87.779715 C1814.86356,86.8335392 1808.12647,85.8510214 1801.37956,84.9446081 C1762.17391,73.8752494 1723.98596,59.4427553 1685.89247,45.0808076 C1645.80504,29.9676485 1604.98928,12.6722565 1561.73719,9.91624703 C1558.38318,9.70247031 1555.03259,9.58532067 1551.68584,9.55068884 C1543.65964,5.75657957 1534.60975,5.38418052 1525.95138,7.13800475 C1521.22618,8.09529691 1516.72539,9.78199525 1512.31264,11.6935867 C1511.56593,12.0172447 1510.79955,12.3451781 1510.02463,12.6812352 C1482.81854,16.5467458 1455.75307,22.9485036 1428.64315,25.8263658 C1383.12998,30.6585748 1337.26289,30.2344418 1291.57576,28.9428029 C1202.50745,26.4253682 1114.39486,23.1336342 1026.52377,41.0019477 C942.82479,58.0215677 862.555045,87.955867 782.939261,118.268124 C703.344849,148.572257 623.88935,178.35905 541.32219,199.67601 C385.653218,239.866888 221.996509,260.658385 76.7734009,333.475012 C70.9907547,336.374679 65.2628191,339.377815 59.5784809,342.45962 C38.1118655,345.137815 20.0620935,361.38057 11.6781328,381.772732 C-1.819125,414.600713 5.39454338,453.599145 8.99432504,487.696532 C17.125677,564.718147 30.2023477,641.164276 48.1704813,716.499192 C48.6047461,718.319287 50.531155,719.773824 52.399434,719.719952 C185.291302,715.869834 318.189155,712.177482 451.076749,708.168741 C478.035361,707.355534 503.908738,705.209644 527.34536,690.615534 C551.544082,675.547268 572.450769,654.692922 594.533733,636.780998 C642.473404,597.896722 692.153127,561.163468 743.348502,526.681283 C793.793744,492.70361 845.71788,460.929121 898.912327,431.444181 C932.757626,412.68399 968.04848,394.807126 1004.9238,382.133587 C1023.88741,378.849549 1042.98181,376.211544 1062.05484,373.721473 C1077.96449,371.64399 1093.85961,369.52247 1109.73848,367.267126 C1110.43476,367.227363 1111.13147,367.187601 1111.82732,367.149976 C1126.39912,366.361995 1141.00641,365.208456 1155.60429,365.119525 C1168.78909,365.039572 1182.097,366.040475 1194.62657,370.428884 C1206.60262,374.623183 1216.08421,382.373017 1224.97852,391.19601 C1234.82983,400.968171 1244.3952,411.49924 1256.94058,417.873634 C1257.68772,418.253302 1258.4605,418.414489 1259.20038,418.392684 C1299.61992,442.858575 1338.94567,468.265511 1383.65058,485.144038 C1440.22981,506.506746 1509.13601,523.673872 1569.11713,507.270784 C1617.75992,493.968741 1661.55569,448.756247 1652.71097,395.693872 C1678.56853,391.582945 1698.38827,372.068979 1708.51912,348.238432 C1722.94731,314.298812 1715.42675,276.045178 1707.96475,241.2 C1752.88722,235.905606 1797.79644,230.483373 1842.69925,225.024371 C1885.88851,219.774442 1929.47314,215.822993 1972.43373,208.92057 C2002.58692,204.075534 2039.28742,193.791591 2054.39095,164.292969 C2056.01688,161.11753 2057.39661,157.72019 2058.50321,154.184323 C2064.20208,144.480998 2065.53993,131.578717 2065.08686,121.015582" id="Fill-1" fill="#808080" sketch:type="MSShapeGroup"></path>
                <path d="M1182.37312,365.496627 C1181.67556,365.043848 1180.87328,364.561568 1179.96158,364.047221 C1179.04817,363.539715 1178.01423,363.051449 1176.86659,362.528551 C1175.71724,362.012922 1174.45634,361.446413 1173.06549,360.902565 C1171.67123,360.377102 1170.15515,359.830689 1168.51127,359.262043 C1168.10008,359.12095 1167.68121,358.977292 1167.25464,358.831496 C1166.82678,358.693397 1166.38953,358.565986 1165.94457,358.431306 C1165.05211,358.169216 1164.1293,357.898147 1163.17571,357.6181 C1162.21913,357.349169 1161.23178,357.046888 1160.20553,356.792494 C1159.17671,356.544086 1158.11627,356.287981 1157.02377,356.023753 C1148.2688,353.972352 1137.22112,352.170214 1123.71959,351.576342 C1115.76092,351.066698 1107.34319,350.979905 1098.75535,351.327933 C1090.16622,351.672542 1081.40869,352.448124 1072.75032,353.567031 C1070.58926,353.867173 1068.43033,354.166888 1066.27738,354.466176 C1064.13299,354.806081 1061.99415,355.145131 1059.86471,355.482898 C1057.74425,355.857862 1055.63277,356.231116 1053.5341,356.60266 C1051.43758,356.982328 1049.37397,357.427411 1047.31463,357.838717 C1039.10378,359.554062 1031.23016,361.468646 1023.89468,363.415724 C1016.55406,365.352969 1009.76868,367.356912 1003.70222,369.212922 C997.625503,371.051401 992.295501,372.796675 987.863094,374.258907 C983.441372,375.73696 979.921947,376.941378 977.518958,377.787506 C976.314899,378.209074 975.385675,378.534014 974.757358,378.754204 C974.126905,378.972257 973.806336,379.095819 973.806336,379.095819 C973.806336,379.095819 966.012223,382.406366 952.358527,388.205701 C948.94724,389.658527 945.170077,391.267838 941.056956,393.019952 C936.980167,394.853729 932.570413,396.83715 927.857615,398.95696 C923.143961,401.073777 918.126834,403.326983 912.83701,405.70247 C911.514982,406.297197 910.176284,406.89962 908.820488,407.509739 C907.480508,408.153634 906.124713,408.805653 904.752675,409.464941 C902.008601,410.784371 899.200839,412.134584 896.332811,413.513017 C890.598036,416.271591 884.622621,419.145178 878.436912,422.120523 C876.881936,422.847363 875.351324,423.655012 873.798058,424.449406 C872.246074,425.245938 870.681268,426.049311 869.104921,426.858242 C865.951372,428.477387 862.750378,430.12133 859.504078,431.787933 C856.258205,433.454964 852.96788,435.144656 849.636094,436.855724 C847.973407,437.717245 846.287639,438.559525 844.615976,439.450974 C842.950297,440.355249 841.2859,441.284751 839.593293,442.18304 C832.832697,445.800143 825.924638,449.496342 818.897327,453.256247 C817.140606,454.19772 815.376619,455.14304 813.605793,456.092209 C811.859758,457.084988 810.106457,458.082043 808.346744,459.082945 C804.827746,461.084751 801.282247,463.10152 797.71495,465.131116 C794.147225,467.16114 790.557702,469.20399 786.948944,471.257102 C786.047075,471.770594 785.143497,472.284941 784.239064,472.799715 L782.881559,473.572304 L781.540723,474.376532 C779.754938,475.454394 777.964877,476.534822 776.170971,477.617387 C768.994916,481.947648 761.794925,486.374109 754.544498,490.788599 C753.642202,491.346128 752.725373,491.883135 751.833335,492.45905 L749.155511,494.188076 C747.369725,495.342043 745.58223,496.496865 743.79388,497.652114 C740.217179,499.96304 736.636204,502.277387 733.054374,504.591734 C729.473827,506.907791 725.885158,509.214442 722.3247,511.557435 C718.819379,513.98209 715.316196,516.404181 711.818996,518.82285 C708.322224,521.241948 704.831436,523.65677 701.350052,526.064751 C699.61,527.269169 697.871659,528.471449 696.136309,529.672447 C695.268635,530.272732 694.401815,530.872589 693.535422,531.472019 C692.666038,532.067173 691.829565,532.706793 690.976423,533.321615 C677.415906,543.28019 663.901124,552.884323 651.29163,562.845036 C625.705055,582.287173 602.784764,601.805843 583.155226,618.754062 C573.426155,627.329501 564.700254,635.475249 556.855705,642.649169 C554.877577,644.424798 553.052468,646.246176 551.255142,647.971781 C549.464227,649.704228 547.734434,651.377245 546.069183,652.987411 C542.744236,656.214584 539.653519,659.168551 536.88679,661.895487 C534.155111,664.657482 531.697839,667.141568 529.538483,669.324656 C527.435547,671.563753 525.622833,673.494157 524.12214,675.091924 C521.12332,678.287458 519.373865,680.151164 519.053296,680.492779 C518.250162,681.584751 517.218783,684.292019 517.04995,684.911116 C514.656792,693.259097 514.309722,699.243563 515.330415,703.492589 C516.348117,707.735202 518.747259,710.264181 521.79908,711.583183 C527.945038,714.256247 536.790192,712.257007 543.172089,709.841758 C545.139958,709.268836 545.502416,708.931069 546.509431,707.99943 C546.843251,707.685178 548.632029,706.001473 551.692826,703.120618 C553.222584,701.681045 555.069919,699.942185 557.212605,697.925416 C559.408293,695.964656 561.906598,693.734537 564.683157,691.255154 C570.169597,686.229691 576.623729,680.054964 584.130612,673.190594 C587.938123,669.817197 591.97858,666.238147 596.227622,662.473967 C600.496753,658.733729 604.861627,654.681805 609.525272,650.593112 C614.2432,646.566841 619.149623,642.37981 624.221032,638.052542 C626.756096,635.888266 629.331765,633.688931 631.94633,631.457102 C632.599864,630.899145 633.255963,630.33905 633.914199,629.777245 L634.904117,628.934109 L635.918827,628.112779 C637.274194,627.016105 638.638538,625.911734 640.012285,624.800523 C645.505564,620.353539 651.142885,615.790689 656.899459,611.131211 C658.338175,609.966128 659.784584,608.795059 661.237832,607.618005 C662.700912,606.453777 664.207161,605.328884 665.700587,604.174062 C668.696416,601.875534 671.719172,599.556485 674.76672,597.218622 C677.813412,594.880333 680.884895,592.523658 683.976895,590.150736 C685.522895,588.963848 687.074024,587.773539 688.629854,586.578955 C690.195943,585.397625 691.803065,584.261615 693.394799,583.094822 C699.780116,578.453302 706.238523,573.759192 712.745228,569.029596 C714.375859,567.852969 715.991529,566.648551 717.642675,565.488599 C719.304935,564.345321 720.970187,563.199905 722.637575,562.052779 C725.972353,559.758955 729.316106,557.458717 732.665417,555.154632 C736.014299,552.850119 739.368738,550.541758 742.725742,548.231686 L745.244136,546.498812 C746.08531,545.923753 746.949138,545.382043 747.800998,544.821948 L752.914295,541.466508 C759.724901,536.98019 766.532087,532.49601 773.309781,528.030641 L774.581801,527.195629 L778.452998,524.788076 C780.171678,523.718765 781.888648,522.651164 783.602626,521.584846 C787.030155,519.452209 790.447426,517.325986 793.850164,515.208314 C797.244354,513.076105 800.624866,510.952447 803.987426,508.839905 C807.403415,506.814584 810.801451,504.799525 814.178117,502.797292 C820.936149,498.795392 827.609551,494.843088 834.17225,490.957055 C840.831119,487.238195 847.377575,483.582613 853.783409,480.005273 C856.985684,478.214252 860.151628,476.43905 863.303895,474.732684 C866.480098,473.071211 869.640913,471.475154 872.745308,469.875677 C878.960509,466.688694 885.00474,463.588931 890.84979,460.591354 C892.315007,459.848694 893.752013,459.081663 895.203979,458.37791 C896.658937,457.679715 898.100645,456.987506 899.529102,456.302138 C902.38559,454.930546 905.188222,453.585036 907.933152,452.266888 C913.423012,449.630166 918.682916,447.103753 923.684655,444.70133 C924.309979,444.40076 924.931029,444.102328 925.548232,443.806033 C926.167572,443.514869 926.792042,443.244656 927.407108,442.965891 C928.639804,442.413492 929.855831,441.868789 931.054333,441.331781 C933.451766,440.256912 935.780383,439.213254 938.036337,438.20209 C942.547818,436.179335 946.769505,434.286128 950.672331,432.536152 C952.624813,431.663088 954.497367,430.825938 956.286572,430.025558 C957.179037,429.620665 958.067228,429.262803 958.931911,428.909644 C959.796167,428.555629 960.639051,428.210594 961.459708,427.874537 C974.588953,422.495487 982.08344,419.424798 982.08344,419.424798 C982.08344,419.424798 984.324007,418.391401 988.23239,416.588409 C992.145047,414.820475 997.73236,412.353064 1004.43397,409.505131 C1017.82608,403.767363 1035.74207,396.706746 1053.69952,390.922375 C1058.19091,389.481093 1062.67632,388.105653 1067.08351,386.776817 C1069.29245,386.147458 1071.48044,385.524513 1073.63766,384.910119 C1075.80001,384.338907 1077.93201,383.746746 1080.02896,383.212304 C1088.41591,381.068551 1096.21558,379.385273 1102.79922,378.204371 C1104.44524,377.887981 1106.01518,377.652827 1107.49877,377.390309 C1108.24078,377.262898 1108.961,377.138907 1109.65856,377.019192 C1110.35612,376.914442 1111.03102,376.813539 1111.68156,376.716057 C1112.98436,376.516817 1114.19013,376.332542 1115.28989,376.164513 C1116.39052,375.993064 1117.38428,375.880618 1118.2635,375.751496 C1120.0215,375.509074 1121.31831,375.30171 1122.07571,375.162755 C1122.83183,375.035344 1123.04939,374.947268 1122.6506,374.90323 C1130.2186,373.926698 1137.48741,373.305463 1144.22962,372.920238 C1145.07251,372.871924 1145.91026,372.802233 1146.73562,372.766318 C1147.56141,372.733397 1148.37822,372.700475 1149.1852,372.668409 C1150.80002,372.610689 1152.38833,372.494394 1153.92322,372.483278 C1155.46153,372.448646 1156.96307,372.405463 1158.42316,372.353729 C1159.88282,372.334917 1161.29503,372.31696 1162.65767,372.29943 C1163.34283,372.284466 1164.0156,372.269501 1164.67512,372.254964 C1165.33678,372.236152 1165.9792,372.254537 1166.61392,372.247696 C1167.88124,372.244703 1169.10069,372.229311 1170.26842,372.201948 C1171.43956,372.15791 1172.54232,372.179715 1173.59593,372.1562 C1174.64868,372.138242 1175.64586,372.107031 1176.58321,372.058717 C1177.05594,372.021948 1177.51158,371.986033 1177.94969,371.951829 C1178.38866,371.921045 1178.81052,371.891544 1179.21401,371.863325 C1180.02527,371.797482 1180.77241,371.717102 1181.45116,371.62133 C1182.13034,371.525558 1182.74071,371.413967 1183.27884,371.285273 C1183.4139,371.250641 1183.54384,371.217292 1183.66822,371.185653 C1183.73233,371.164276 1183.79004,371.160855 1183.85543,371.123658 C1183.9157,371.106128 1183.97469,371.089026 1184.03239,371.071924 C1184.26363,371.001805 1184.47648,370.926983 1184.66968,370.846603 C1186.23192,370.233064 1186.53582,369.255249 1185.34544,367.870404 C1184.74619,367.191449 1183.76952,366.39962 1182.37312,365.496627" id="Fill-2" fill="#000000" sketch:type="MSShapeGroup"></path>
                <path d="M2078.41229,113.34228 C2078.09386,109.080428 2077.37236,104.715534 2076.12385,100.369026 C2075.98152,99.824323 2075.79986,99.2838955 2075.62462,98.7421853 C2075.4451,98.2013302 2075.28054,97.6574822 2075.08435,97.1187648 C2074.6753,96.0438955 2074.2966,94.9613302 2073.81532,93.9009976 C2072.92414,91.7623753 2071.81796,89.6784798 2070.61818,87.643753 C2069.98559,86.6411401 2069.37052,85.6274109 2068.66099,84.6666983 C2068.31008,84.1848456 2067.9831,83.6863183 2067.60739,83.2211401 L2066.4901,81.8183373 C2066.12593,81.343753 2065.71175,80.9093587 2065.31809,80.4587173 C2064.91418,80.0170546 2064.53078,79.5548694 2064.10549,79.1341568 C2063.24764,78.2816152 2062.46246,77.451734 2061.46228,76.5786698 C2060.48391,75.7145843 2059.38927,74.83981 2058.11383,74.0022328 C2057.48722,73.583658 2056.79137,73.1761995 2056.06304,72.7901188 C2055.31761,72.4027553 2054.5632,72.0483135 2053.64851,71.7084086 C2051.85546,71.0422803 2049.9688,70.6168646 2048.05949,70.5202375 C2047.10547,70.4685036 2046.14847,70.4971496 2045.19744,70.587791 L2044.48578,70.6694537 C2044.25625,70.6989549 2043.978,70.7464133 2043.7707,70.78019 C2043.34199,70.8511639 2042.94149,70.9353919 2042.5474,71.0234679 C2040.98388,71.3830404 2039.68963,71.8332542 2038.58645,72.2437055 L2037.08148,72.8277435 C2036.63183,73.0115914 2036.22406,73.1539667 2035.80134,73.3113064 C2034.12241,73.9316865 2032.44775,74.5503563 2030.77951,75.1668884 L2030.15376,75.3977672 L2029.51689,75.6004276 L2028.24487,76.0048931 C2027.39772,76.2751069 2026.55269,76.5444656 2025.70938,76.8133967 C2024.86308,77.0746318 2024.03259,77.3700713 2023.17945,77.6026603 C2022.32716,77.8373872 2021.47701,78.0716865 2020.62942,78.3051306 C2019.78184,78.5398575 2018.93682,78.7741568 2018.09436,79.007601 L2016.83132,79.3543468 C2016.4056,79.4539667 2015.98031,79.5535867 2015.55545,79.6527791 C2013.85772,80.0516865 2012.17109,80.4480285 2010.49772,80.8413777 C1997.01115,83.7089786 1983.96995,85.1139192 1972.60641,85.7924466 C1962.51915,86.5064608 1953.7629,86.7343468 1947.08437,86.8805701 C1946.83305,86.5209976 1946.43981,86.2725891 1945.92562,86.2935392 C1943.54571,86.3888836 1941.21453,86.0173397 1938.83462,86.0177672 C1936.33204,86.0181948 1933.82049,86.1875059 1931.31834,86.2593349 C1926.5769,86.3957245 1921.84359,86.7078385 1917.10343,86.9019477 C1908.27879,87.2632304 1899.44262,87.4479335 1890.60986,87.4466508 C1886.12402,87.0267933 1881.64032,86.5791449 1877.16005,86.0942993 C1846.97095,82.8303563 1816.94043,78.0964846 1787.20483,71.9418527 C1757.43204,65.7799525 1727.95418,58.191734 1698.90888,49.2024228 C1670.02257,40.2618527 1641.72612,29.7628504 1613.74681,18.3172447 C1599.93967,12.6688361 1585.97908,6.9952019 1571.41796,3.58418052 C1556.5149,0.0927790974 1541.43745,-0.802090261 1526.28905,1.57724466 C1524.45752,1.86456057 1522.65165,2.30536817 1520.86629,2.80432304 C1519.94904,3.06085511 1519.10273,3.48627078 1518.2825,3.97068884 C1514.40233,4.61159145 1509.63183,5.44874109 1503.85516,6.43339667 C1497.06807,7.45140143 1489.57572,8.51985748 1482.13722,9.45064133 C1474.70087,10.3908314 1467.31794,11.1942043 1460.77233,11.8209976 C1454.2293,12.4593349 1448.52658,12.9394774 1444.45877,13.2639905 C1440.38924,13.5816627 1437.96018,13.7710689 1437.96018,13.7710689 C1437.96018,13.7710689 1437.03352,13.8852257 1435.29518,14.0990024 C1433.55855,14.3209026 1431.00083,14.6082185 1427.74769,14.9861758 C1427.46773,15.0178147 1427.53099,14.9870309 1427.5156,14.987886 L1427.4844,14.9643705 L1426.14613,14.9643705 L1424.74374,14.9643705 C1424.47959,14.9643705 1424.21245,14.987886 1423.94275,14.9874584 C1423.69954,14.9925891 1423.45463,14.987886 1423.20971,15.0152494 C1422.96779,15.0340618 1422.72416,15.0592874 1422.47967,15.0785273 C1420.52206,15.2307363 1418.40416,15.3979097 1416.14137,15.5736342 C1413.87815,15.7497862 1411.47003,15.9383373 1408.93026,16.135867 C1406.38793,16.3077435 1403.70626,16.4248931 1400.91218,16.5822328 C1399.5145,16.6570546 1398.08775,16.7335867 1396.63322,16.8114014 C1395.17783,16.8806651 1393.69937,16.9901188 1392.18671,17.0217577 C1389.16523,17.1166746 1386.04032,17.2150119 1382.82736,17.316342 C1381.22024,17.36038 1379.59388,17.4330641 1377.94231,17.4557245 C1376.29031,17.4753919 1374.61822,17.4954869 1372.92732,17.5155819 C1369.5451,17.5450831 1366.09278,17.6203325 1362.57378,17.6156295 C1348.49992,17.6254632 1333.44256,17.2748694 1318.33861,16.7147743 C1288.12814,15.5171971 1257.69797,13.5029929 1234.54987,12.2481235 C1225.16487,11.7256532 1216.98308,11.3233254 1210.51527,11.0283135 C1210.17504,10.5306413 1209.59759,10.1633729 1208.75813,10.1137767 C1197.91048,9.47159145 1187.13892,10.1082185 1176.30196,10.7824703 C1166.46689,11.3938717 1156.64293,12.1835629 1146.83479,13.1318765 C1129.36931,12.5730641 1111.79013,13.1960095 1094.47938,15.3427553 C1091.60237,15.6993349 1088.71639,16.0559145 1085.84024,16.4744893 C1085.5295,16.1256057 1085.3517,15.6698337 1085.31536,15.195677 C1083.35391,15.2230404 1081.41382,15.4004751 1079.63957,15.9674109 C1079.23694,16.0961045 1078.89115,16.28038 1078.59623,16.5022803 C1072.41949,17.5476485 1066.24789,18.6208076 1060.08355,19.7388599 C1057.50874,20.2061758 1054.93478,20.6790499 1052.36168,21.1574822 C1048.2212,21.4405226 1044.08585,21.8159145 1039.97786,22.2853682 C1024.63583,24.0374822 1009.38741,26.6588124 994.386042,30.3302138 C990.151533,31.3666033 985.937967,32.4829454 981.744491,33.6685511 C965.910923,36.5130641 950.027346,39.4486461 934.530589,43.6540618 C925.078918,46.2193824 915.621263,49.4277435 907.049235,54.2385748 C905.71011,54.9902138 904.386371,55.7739192 903.080157,56.5866983 C901.13366,57.4862708 899.187162,58.3871259 897.240236,59.2837055 C886.767445,63.347601 876.465624,67.8347743 866.427524,72.8264608 C864.796467,73.6375297 863.172248,74.4622803 861.552303,75.2955819 C851.864693,79.4800475 842.109978,83.5255582 832.236865,87.3491686 C803.53179,98.4651306 774.44417,108.613112 745.15053,118.06247 C686.563677,136.960333 627.164715,152.937577 567.397312,167.623183 C507.694877,182.292969 447.744109,195.867363 388.213927,211.248171 C328.041751,226.794869 268.23246,243.914964 209.549009,264.429834 C148.601483,285.736105 88.8276686,310.407648 30.6233623,338.355962 C23.3494268,341.848646 16.1019918,345.396057 8.87635547,348.987078 C8.75411164,349.047791 8.64041632,349.112779 8.5314227,349.180333 C7.45644634,348.746793 6.38360711,348.307268 5.30734848,347.87715 C1.27458429,346.266128 -1.68234868,353.184798 2.32776192,354.946746 C13.1707044,359.711829 24.1016965,364.275962 35.0061883,368.897815 C40.3306338,371.154442 45.6550794,373.411496 50.9795249,375.668551 C53.7065027,376.8238 56.4334805,377.979905 59.1608857,379.13601 C59.7002973,379.364323 60.2486848,379.615724 60.8039112,379.875677 C61.3839282,380.694869 62.2952005,381.216485 63.3274342,381.053587 C64.8789905,381.752637 66.4583296,382.373444 68.0235635,382.647506 C72.3251787,383.400855 74.6482389,378.529311 71.6113773,375.731829 C117.516073,344.78209 166.482849,319.464941 217.900058,298.82095 C272.038261,277.084561 327.907112,259.99696 383.997797,244.115487 C443.401033,227.295962 503.03337,211.31829 562.366508,194.243515 C625.854654,175.972874 689.091902,156.839857 752.06158,136.855582 C774.931863,129.597862 797.794879,122.296532 820.587797,114.789121 C820.776292,114.745511 820.967351,114.68095 821.159693,114.601853 C828.858917,112.064323 836.549593,109.504133 844.229583,106.913159 C845.148976,106.602755 846.068797,106.291496 846.988618,105.97981 C847.581885,106.171354 848.280727,106.176485 849.069755,105.912257 C854.894289,103.958337 860.594869,101.713254 866.211674,99.2749169 C886.849083,91.8025653 907.230891,83.2985273 925.949585,71.9786223 C926.38214,71.7169596 926.809993,71.452304 927.237847,71.1876485 C938.127379,67.5145368 949.09171,64.0620428 960.132123,60.8515439 C1003.09143,48.3601425 1046.99278,39.2006651 1091.41388,33.9306413 C1089.69178,33.9729691 1087.96968,34.0071734 1086.24758,34.0405226 C1089.48319,33.6976247 1092.71881,33.3551544 1095.95699,33.0353444 C1108.80755,31.7663658 1121.67906,30.7030404 1134.56381,29.8445131 C1153.54495,28.5806651 1172.54788,27.7995249 1191.56278,27.4185748 C1191.85941,27.5810451 1192.15391,27.7353919 1192.44157,27.8764846 C1193.2447,28.3395249 1193.47081,28.3476485 1194.09571,28.3750119 C1194.51501,28.4006651 1198.57214,28.4977197 1205.37035,28.8171021 C1207.6387,28.9111639 1210.21907,29.0261758 1213.06402,29.16 C1213.24225,29.4567221 1213.35039,29.7966271 1213.38031,30.1463658 C1216.78177,30.2951544 1220.18322,30.4670309 1223.58511,30.667981 C1238.03125,31.5213777 1252.47098,32.6475534 1266.92653,33.323943 C1270.61821,33.4966746 1274.27184,33.6343468 1277.96694,33.5744893 C1278.80512,33.5608076 1279.42703,33.2756295 1279.84719,32.8459382 C1291.54926,33.4885511 1303.74757,34.1059382 1315.96127,34.5946318 C1319.72261,34.771639 1323.49978,34.8554394 1327.25172,34.9875534 C1329.12898,35.0478385 1331.00196,35.1081235 1332.86896,35.167981 C1334.73595,35.2304038 1336.60295,35.2492162 1338.45926,35.2915439 C1342.17316,35.3620903 1345.85629,35.432209 1349.49454,35.5010451 C1353.13792,35.5194299 1356.73599,35.5373872 1360.27423,35.5549169 C1363.81032,35.5980998 1367.29555,35.5292637 1370.70342,35.4912114 C1372.40757,35.4702613 1374.09291,35.4497387 1375.75816,35.4296437 C1377.42299,35.4052732 1379.06687,35.4031354 1380.69108,35.3377197 C1383.93867,35.2342518 1387.09692,35.1337767 1390.15088,35.0371496 C1391.67807,34.9837055 1393.17919,34.9499287 1394.65295,34.883658 C1396.12672,34.8045606 1397.5727,34.7271734 1398.98919,34.6510689 C1404.65515,34.3415202 1409.84709,34.108076 1414.44534,33.6971971 C1416.74447,33.5180523 1418.89613,33.3500238 1420.88537,33.1948219 C1421.87999,33.1170071 1422.834,33.0426128 1423.7457,32.9712114 L1424.12782,32.9447031 L1424.18339,32.9327316 L1424.18339,32.9216152 L1424.2599,32.9216152 L1425.51525,32.9216152 C1426.44191,32.9216152 1427.31899,32.9331591 1428.14434,32.9331591 C1428.50466,32.9515439 1428.87011,32.9006651 1429.20351,32.8630404 C1429.43603,32.8361045 1429.66513,32.811734 1429.89038,32.7856532 C1430.23104,32.7458907 1430.56058,32.7091211 1430.87773,32.6723515 C1432.14762,32.5248456 1433.22729,32.4008551 1434.10266,32.2990974 C1435.8534,32.0900238 1436.7869,31.9784323 1436.7869,31.9784323 C1436.7869,31.9784323 1437.91744,31.7915914 1439.88958,31.4653682 C1441.8613,31.1485511 1444.67462,30.6461758 1448.03846,30.0612827 C1454.76572,28.8568646 1463.69379,27.1428029 1472.48167,25.1811876 C1481.27211,23.2353919 1489.91125,21.0215202 1496.13243,19.2416152 C1499.24837,18.3788124 1501.75308,17.5831354 1503.39269,17.0692162 C1505.0323,16.5531591 1505.79568,16.2590024 1505.41142,16.3064608 C1512.41907,13.9916865 1518.67744,11.4943468 1523.40349,9.31382423 C1524.5802,8.75073634 1525.66287,8.21244656 1526.63868,7.7023753 C1526.75793,7.63995249 1526.87334,7.5792399 1526.98703,7.51895487 C1527.29734,7.48047506 1527.60808,7.44285036 1527.91797,7.40180523 C1529.58493,7.18204276 1531.263,7.0016152 1532.94535,6.86266033 C1532.80986,7.67372922 1533.28259,8.56047506 1534.408,8.61349169 C1548.39423,9.26850356 1562.21249,10.9996675 1575.74266,14.684323 C1589.26257,18.3655582 1602.35206,23.5085986 1615.17271,29.1257957 C1631.7765,36.40019 1648.06314,44.3308789 1664.68659,51.4787173 C1668.2167,53.1637055 1671.83443,54.6716865 1675.49705,56.0372922 C1676.00996,56.2288361 1676.52757,56.4058432 1677.04262,56.5909739 C1682.68892,58.8300713 1688.38779,60.9490261 1694.17086,62.8768646 C1699.19568,64.5524466 1704.25298,66.1211401 1709.33636,67.6000475 C1709.83901,67.7608076 1710.34594,67.9074584 1710.85885,68.0378622 C1733.39361,74.5050356 1756.44554,79.176057 1779.56587,82.9534917 C1808.81463,87.731829 1838.28864,91.0137292 1867.68187,94.7475534 C1897.07126,98.4805226 1926.50253,102.612399 1955.34053,109.516532 C1958.89373,110.366936 1962.4311,111.210071 1966.00994,111.945891 C1969.42465,112.647933 1970.84541,107.708409 1967.45891,106.689121 C1965.24485,106.022565 1963.01069,105.406033 1960.76457,104.821995 C1964.58875,104.755724 1968.73777,104.639857 1973.16591,104.447031 C1979.0537,104.172114 1985.43859,103.644513 1992.18252,102.927078 C1995.55619,102.500808 1999.01877,102.129264 2002.55358,101.539667 C2003.4375,101.403278 2004.32569,101.266033 2005.21858,101.128789 C2005.66481,101.059525 2006.11233,100.990261 2006.5607,100.920998 C2007.00864,100.83677 2007.45744,100.752969 2007.90709,100.668314 C2009.70655,100.329691 2011.52269,99.9876485 2013.35292,99.6430404 C2015.18188,99.2838955 2017.01682,98.832399 2018.86928,98.4249406 C2019.79466,98.2137292 2020.72303,98.0020903 2021.65482,97.7895962 C2022.58105,97.5420428 2023.51028,97.2936342 2024.44206,97.0452257 C2025.37428,96.7955344 2026.30906,96.5449881 2027.24598,96.2935867 C2028.18332,96.0447506 2029.12281,95.7959145 2030.05289,95.4859382 C2031.91817,94.8942043 2033.79158,94.299905 2035.67268,93.7034679 L2036.37794,93.4785748 L2037.07592,93.2228979 L2038.47361,92.7102613 C2039.40539,92.367791 2040.33932,92.0244656 2041.2741,91.6807126 C2042.19862,91.3361045 2043.16802,90.9927791 2044.05835,90.6447506 C2044.91577,90.3052732 2045.61333,90.0380523 2046.12539,89.8760095 C2046.38227,89.7934917 2046.59769,89.731924 2046.74985,89.6990024 C2046.83705,89.6750594 2046.88706,89.6724941 2046.94946,89.6558195 L2046.96613,89.6541093 L2046.96613,89.6545368 C2046.96528,89.6571021 2046.95459,89.652399 2046.95331,89.6566746 L2046.94305,89.6553919 C2046.94305,89.6558195 2046.94305,89.6545368 2046.94305,89.6545368 L2046.94305,89.6553919 C2046.94305,89.6553919 2046.96186,89.6571021 2046.97853,89.6669359 C2047.00887,89.6729216 2047.06615,89.7071259 2047.11317,89.7267933 C2047.31363,89.8212827 2047.64659,90.0324941 2048.03042,90.3228029 C2048.41767,90.6186698 2048.86177,90.9910689 2049.34903,91.4695012 C2049.83672,91.9855582 2050.37485,92.4545843 2050.82579,93.0031354 L2051.53361,93.7966746 L2052.1927,94.6316865 L2052.52481,95.0464133 L2052.82956,95.4838005 L2053.44719,96.351734 L2054.01439,97.2594299 L2054.30162,97.7104988 L2054.56106,98.1825178 L2055.08723,99.1205701 L2055.56295,100.093682 L2055.80402,100.5781 L2056.01859,101.080048 L2056.45285,102.080095 L2056.83796,103.110071 C2056.97132,103.449976 2057.09827,103.794157 2057.20427,104.149881 C2059.08964,109.744846 2059.63247,115.996532 2059.23924,122.093017 C2058.84986,128.204038 2057.59066,134.186366 2055.8006,139.650071 C2055.35608,141.017815 2054.87736,142.353919 2054.37599,143.656675 C2054.12894,144.309549 2053.87804,144.954727 2053.60833,145.585796 C2053.47711,145.902613 2053.34632,146.218575 2053.21638,146.532827 C2053.07063,146.852209 2052.92616,147.170309 2052.78169,147.487553 C2051.66012,150.037055 2050.45948,152.446746 2049.24773,154.726461 C2046.82081,159.287173 2044.21821,163.249311 2041.75111,166.620143 C2040.55047,168.334204 2039.29213,169.828076 2038.17868,171.249264 C2037.6132,171.953017 2037.02634,172.587506 2036.49078,173.216865 C2035.94367,173.834679 2035.44743,174.449074 2034.93238,174.988646 C2033.90143,176.066936 2032.99657,177.045178 2032.18831,177.873349 C2031.35653,178.676295 2030.64957,179.359097 2030.07639,179.913207 C2029.78959,180.189406 2029.53613,180.433967 2029.31771,180.645178 C2029.08989,180.845273 2028.89884,181.013302 2028.74453,181.149264 C2028.43636,181.42076 2028.27736,181.560998 2028.27736,181.560998 C2028.27736,181.560998 2027.5362,182.281853 2026.24281,183.539715 C2025.56961,184.138717 2024.7528,184.865131 2023.81717,185.698005 C2023.35683,186.127268 2022.83623,186.539857 2022.28955,186.978955 C2021.74415,187.421045 2021.17055,187.885796 2020.573,188.370641 C2019.98572,188.873444 2019.32193,189.31639 2018.65899,189.813634 C2017.98921,190.299762 2017.30448,190.81753 2016.58726,191.327173 C2015.85379,191.810736 2015.10067,192.307553 2014.33173,192.815059 C2013.94576,193.067316 2013.56065,193.332827 2013.16272,193.583373 C2012.75795,193.82152 2012.34976,194.061805 2011.93857,194.304228 C2008.67731,196.329121 2005.03564,198.08038 2001.2837,199.654632 C2000.3378,200.028314 1999.39276,200.40114 1998.45328,200.771829 C1997.49414,201.094204 1996.54012,201.414869 1995.59508,201.732542 C1995.12064,201.886461 1994.65304,202.06133 1994.1786,202.198147 C1993.70202,202.329834 1993.22843,202.460238 1992.75826,202.590214 C1991.81578,202.841615 1990.89169,203.130214 1989.97144,203.347411 C1989.04649,203.552637 1988.13949,203.754442 1987.25429,203.951116 C1986.80977,204.043895 1986.37422,204.164466 1985.93782,204.232447 C1985.50185,204.305558 1985.07143,204.377387 1984.64785,204.448361 C1983.79856,204.593302 1982.97491,204.733539 1982.18203,204.869074 C1981.38574,204.976817 1980.6168,205.052922 1979.88205,205.143135 C1979.14645,205.230784 1978.44504,205.314157 1977.78296,205.392827 C1977.11831,205.436865 1976.49299,205.47791 1975.91084,205.51639 C1975.32697,205.55829 1974.78671,205.597625 1974.29346,205.633112 C1974.0464,205.651924 1973.81132,205.670309 1973.58863,205.687411 C1973.36637,205.692114 1973.1565,205.697245 1972.95989,205.701948 C1971.38354,205.74342 1970.62828,205.801995 1970.97834,205.874252 C1964.17372,206.079905 1957.90081,205.465511 1953.0226,204.717292 C1951.23211,204.444513 1949.62243,204.179002 1948.22389,203.969501 C1949.0266,203.238812 1949.7981,202.500428 1950.52814,201.752637 C1953.25854,198.947458 1955.44568,196.050356 1957.01391,193.336247 C1958.58726,190.621283 1959.57461,188.131639 1960.1042,186.137957 C1960.31064,185.108836 1960.46238,184.234489 1960.49914,183.494394 C1960.5188,183.124988 1960.52307,182.794917 1960.51111,182.505036 C1960.50726,182.432779 1960.50341,182.36266 1960.49956,182.295534 C1960.4923,182.260048 1960.50384,182.232684 1960.48161,182.192067 C1960.47862,182.159572 1960.47648,182.128361 1960.47392,182.097577 C1960.46281,181.974014 1960.44699,181.860285 1960.42647,181.756817 C1960.23798,180.942755 1959.78363,180.726841 1959.0164,181.21639 C1958.62915,181.458385 1958.14829,181.862423 1957.58495,182.433634 C1956.99424,182.992019 1956.29968,183.707316 1955.47432,184.563705 C1955.27257,184.778765 1955.06185,185.004086 1954.84173,185.238812 C1954.61647,185.467126 1954.38139,185.705273 1954.1369,185.953254 C1953.66759,186.457767 1953.11621,186.966128 1952.55713,187.525368 C1951.40095,188.618195 1950.07593,189.826888 1948.50086,191.086461 C1945.3486,193.602185 1941.2312,196.354347 1935.78665,198.947458 C1929.31072,201.89886 1921.70083,204.273064 1913.92167,206.059382 C1911.97304,206.510024 1910.04107,206.933302 1908.06038,207.309549 C1906.08012,207.688361 1904.1178,208.063753 1902.18584,208.433159 C1901.22242,208.620855 1900.26712,208.806841 1899.3208,208.991116 C1898.36636,209.147601 1897.42089,209.301948 1896.48697,209.455012 C1894.62082,209.756437 1892.79871,210.051021 1891.03387,210.3362 C1889.27885,210.646603 1887.54735,210.836865 1885.90604,211.073729 C1884.26258,211.300333 1882.68966,211.51753 1881.20093,211.723183 C1879.71905,211.946366 1878.29956,212.085748 1876.98737,212.242233 C1875.67474,212.395724 1874.45957,212.537245 1873.35553,212.665938 C1872.2532,212.79677 1871.26199,212.914347 1870.39517,213.01696 C1869.52878,213.120855 1868.77779,213.179857 1868.17128,213.24399 C1866.95568,213.364988 1866.29402,213.430831 1866.29402,213.430831 C1866.29402,213.430831 1865.28743,213.583895 1863.39949,213.871211 C1862.45531,214.014014 1861.29015,214.190166 1859.92067,214.397102 C1858.54351,214.580095 1856.96032,214.790024 1855.1865,215.025606 C1848.1032,216.007268 1837.90353,217.153112 1825.55691,218.321188 C1813.20985,219.495249 1798.6966,220.626983 1783.01648,221.972922 C1767.3402,223.333397 1750.49535,224.917482 1733.54662,227.42209 C1725.0853,228.683373 1716.6244,230.161425 1708.31439,231.882755 C1700.00351,233.608789 1691.85763,235.639667 1684.01351,237.877055 C1668.32056,242.334299 1653.90904,247.916437 1641.90008,253.748266 C1641.1508,254.11639 1640.40922,254.480665 1639.6749,254.841093 C1638.94229,255.20323 1638.20883,255.547411 1637.51255,255.947173 C1636.10247,256.711639 1634.71334,257.435487 1633.37806,258.185843 C1632.04748,258.944751 1630.74939,259.684846 1629.48592,260.405273 C1628.23869,261.15734 1627.02566,261.888884 1625.84895,262.59905 C1621.17847,265.50171 1617.12604,268.151259 1613.97549,270.6781 C1613.17748,271.293349 1612.42008,271.877387 1611.70414,272.429359 C1611.00274,273.000998 1610.34194,273.53886 1609.72388,274.042518 C1608.48862,275.047268 1607.42347,275.913492 1606.54212,276.630499 C1604.78497,278.071354 1603.76001,278.911924 1603.57237,279.065843 C1603.09493,279.582755 1602.39609,280.886793 1602.27171,281.185653 C1601.8477,282.210071 1601.5002,283.158812 1601.22195,284.03829 C1600.95096,284.925891 1600.76076,285.758337 1600.62398,286.515962 C1600.58936,286.709216 1600.55901,286.897767 1600.53251,287.08247 C1599.50284,281.993302 1598.45907,276.703183 1597.23962,271.274537 C1596.53736,268.073872 1595.73038,264.818907 1594.87895,261.553254 C1594.41605,259.916152 1593.99802,258.279477 1593.48554,256.636817 L1592.73968,254.174537 L1591.93014,251.713112 C1591.66898,250.892209 1591.37747,250.073444 1591.07828,249.255962 L1590.18667,246.804798 C1589.52971,245.181378 1588.9326,243.548979 1588.20341,241.946508 C1587.84907,241.14399 1587.50756,240.33848 1587.14168,239.54152 C1586.7523,238.752684 1586.36334,237.964703 1585.97524,237.178005 C1585.58542,236.392162 1585.19604,235.607173 1584.80708,234.823895 C1584.61987,234.428409 1584.40915,234.046603 1584.19031,233.669929 L1583.5466,232.534347 C1583.11661,231.778432 1582.68748,231.024656 1582.2592,230.272162 L1581.61635,229.145986 L1580.92135,228.057435 C1579.98443,226.61658 1579.07701,225.164181 1578.12257,223.759667 C1577.12624,222.386366 1576.13589,221.021615 1575.15281,219.666698 C1574.9126,219.3238 1574.65272,218.997577 1574.38815,218.676057 L1573.60467,217.707221 C1573.08279,217.063325 1572.56261,216.421995 1572.045,215.78323 C1567.82246,210.746223 1563.36398,206.22399 1558.84736,202.288789 C1557.72195,201.30114 1556.56106,200.389596 1555.44377,199.459667 C1554.88042,199.000903 1554.32733,198.537007 1553.76655,198.093634 C1553.1938,197.666508 1552.62532,197.24323 1552.06155,196.823373 C1550.92887,195.991354 1549.83509,195.144371 1548.72293,194.370071 C1547.59837,193.614157 1546.49518,192.872352 1545.41465,192.145938 C1544.86925,191.790214 1544.34822,191.408836 1543.79941,191.085606 C1543.25486,190.755534 1542.71631,190.428884 1542.18416,190.105653 C1541.11859,189.461758 1540.07738,188.832399 1539.06267,188.218432 C1538.02146,187.652352 1537.00718,187.10038 1536.02111,186.5638 C1535.52786,186.29658 1535.04145,186.032779 1534.56273,185.772827 C1534.32294,185.643278 1534.0853,185.514584 1533.84936,185.386746 C1533.60829,185.269596 1533.36893,185.152874 1533.13128,185.037435 C1532.18111,184.57696 1531.26129,184.131021 1530.3731,183.700475 C1529.48063,183.281045 1528.63946,182.833824 1527.79145,182.490926 C1526.11124,181.772637 1524.56737,181.112494 1523.17354,180.516485 C1521.75961,179.970071 1520.48716,179.505321 1519.38483,179.091021 C1518.28079,178.680998 1517.34516,178.31886 1516.57152,178.086698 C1515.03193,177.590309 1514.21127,177.325653 1514.21127,177.325653 C1514.21127,177.325653 1513.95823,177.25639 1513.48379,177.126841 C1513.00806,177.004133 1512.31863,176.792922 1511.42787,176.583848 C1510.53669,176.382043 1509.45487,176.136627 1508.21534,175.855724 C1507.59642,175.716342 1506.93776,175.568409 1506.24448,175.411924 C1505.5482,175.269976 1504.81174,175.146413 1504.04708,175.004466 C1503.28241,174.866366 1502.48612,174.722708 1501.66247,174.573919 C1501.25086,174.499952 1500.83284,174.424703 1500.4084,174.348599 C1499.98269,174.280618 1499.54799,174.226746 1499.10945,174.163895 C1498.23195,174.043753 1497.33093,173.919762 1496.41111,173.793207 C1495.49087,173.673064 1494.55608,173.522138 1493.59737,173.446461 C1492.64164,173.354964 1491.67053,173.262185 1490.68831,173.168979 C1489.70694,173.080048 1488.71745,172.966318 1487.71513,172.927838 C1486.71538,172.873112 1485.70879,172.818385 1484.69964,172.763658 C1483.69134,172.706366 1482.68091,172.649074 1481.67047,172.650356 C1473.58785,172.45753 1465.65739,173.03943 1459.96792,173.751734 C1458.54972,173.959097 1457.2653,174.147221 1456.14716,174.310546 C1455.03158,174.481568 1454.08184,174.61753 1453.33726,174.780428 C1451.84554,175.079287 1451.14542,175.253729 1451.48736,175.260998 C1449.89135,175.585938 1448.3368,175.92114 1446.84637,176.329026 C1445.35422,176.725796 1443.90952,177.089644 1442.53877,177.503515 C1439.8041,178.370166 1437.32332,179.200475 1435.21226,180.090641 C1434.15267,180.517767 1433.18071,180.937625 1432.30234,181.327553 C1431.43253,181.751686 1430.65761,182.153587 1429.98869,182.528124 C1428.64999,183.277625 1427.73402,183.92152 1427.32283,184.440143 C1426.50559,185.490214 1427.69726,186.009264 1431.5582,185.954537 C1435.41529,185.933587 1441.96474,185.330309 1451.87333,185.132352 C1457.71752,185.098147 1464.13276,185.276865 1470.40737,185.886128 C1476.68327,186.471449 1482.80614,187.435582 1488.1323,188.527126 C1489.45903,188.815297 1490.74216,189.094062 1491.97272,189.360855 C1493.18832,189.674252 1494.35178,189.973967 1495.45282,190.257435 C1496.00164,190.400238 1496.5372,190.528504 1497.0514,190.669596 C1497.56217,190.82266 1498.0567,190.971021 1498.53286,191.114252 C1499.48388,191.396865 1500.36438,191.6581 1501.16409,191.895819 C1501.96765,192.11601 1502.6682,192.385796 1503.28883,192.590594 C1503.90774,192.801378 1504.43732,192.981805 1504.86902,193.128456 C1505.73156,193.419192 1506.20045,193.577815 1506.20045,193.577815 C1506.20045,193.577815 1506.38382,193.627838 1506.73858,193.724038 C1507.08779,193.836485 1507.60626,194.002803 1508.28287,194.220428 C1509.63268,194.660808 1511.63945,195.249121 1514.09672,196.211544 C1519.04246,198.04361 1526.01421,201.073682 1533.73267,205.854157 C1541.42719,210.634204 1549.80431,217.275819 1557.20819,225.775582 C1560.87849,230.04171 1564.29961,234.749929 1567.25868,239.821995 C1567.62285,240.458622 1567.98744,241.09696 1568.35289,241.737007 L1568.9,242.69772 L1569.38983,243.688361 C1569.71809,244.348931 1570.04678,245.010784 1570.3759,245.673064 C1570.69647,246.340903 1571.05893,246.983515 1571.34231,247.677862 L1572.24418,249.729691 C1572.55192,250.409929 1572.80923,251.125226 1573.09561,251.82171 C1573.67392,253.210404 1574.17059,254.656817 1574.69504,256.085701 C1577.95416,265.425606 1580.12591,275.463705 1582.16431,285.42399 C1583.10721,291.967696 1584.04327,298.809834 1585.08491,305.68019 C1586.39711,314.304798 1587.93028,323.005938 1589.85028,331.087126 C1591.75233,339.170024 1594.0476,346.633824 1596.41383,352.918005 C1596.55745,353.312209 1596.69936,353.70171 1596.83998,354.087363 C1596.9853,354.471306 1597.14516,354.847126 1597.29476,355.220808 C1597.5978,355.966461 1597.89444,356.695012 1598.18295,357.405178 C1598.47275,358.114917 1598.75527,358.806271 1599.02968,359.478812 C1599.33144,360.142375 1599.62423,360.786271 1599.90804,361.410499 C1600.48293,362.656817 1600.99413,363.832162 1601.51645,364.90019 C1602.05714,365.961805 1602.55424,366.9362 1603.00303,367.816105 C1603.87199,369.588741 1604.67812,370.926983 1605.20171,371.850499 C1605.72958,372.772304 1606.01083,373.263563 1606.01083,373.263563 C1606.01083,373.263563 1606.10315,373.409359 1606.27583,373.68171 C1606.4545,373.951069 1606.68574,374.36152 1607.04477,374.849786 C1607.74148,375.834014 1608.7361,377.238527 1609.92605,378.918812 C1612.46197,382.172494 1615.88095,386.469406 1619.86798,390.169454 C1620.35225,390.6419 1620.8361,391.113919 1621.31695,391.583373 C1621.82773,392.022898 1622.33594,392.459857 1622.83902,392.892542 C1623.84817,393.752779 1624.82997,394.603183 1625.78826,395.399715 C1627.7463,396.953444 1629.57183,398.258337 1631.09005,399.333207 C1634.13973,401.472257 1635.95758,402.724561 1635.66864,402.414157 C1637.37535,403.571544 1638.96666,404.678907 1640.42418,405.704181 C1641.86375,406.740998 1643.16654,407.707696 1644.27956,408.582043 C1644.84633,409.011734 1645.33616,409.43886 1645.82984,409.798005 C1646.27222,410.147316 1646.67058,410.464561 1647.04501,410.739905 C1647.53826,413.179952 1647.86182,415.559715 1648.01954,417.805226 C1648.22171,420.555249 1648.20547,423.109026 1648.0221,425.364798 C1647.99988,425.930451 1647.92764,426.474299 1647.87122,427.001045 C1647.80839,427.530784 1647.77719,428.028029 1647.68957,428.535534 C1647.54253,429.538575 1647.41388,430.4638 1647.24248,431.298812 C1647.16469,431.716105 1647.09074,432.112447 1647.02107,432.486556 C1646.93772,432.8581 1646.85908,433.207838 1646.78556,433.534062 C1646.71375,433.860285 1646.64707,434.162138 1646.58595,434.440048 C1646.51457,434.716247 1646.4496,434.967648 1646.39147,435.193397 C1646.15895,436.094679 1646.03201,436.585511 1646.03201,436.585511 C1646.03201,436.585511 1645.85805,437.343135 1645.53106,438.763895 C1645.1498,440.174822 1644.61637,442.254014 1643.67048,444.839857 C1641.82015,450.000855 1638.34005,457.26285 1632.30394,464.888266 C1626.30886,472.499145 1617.75137,480.435819 1606.93963,486.357007 C1601.5173,489.386651 1595.57779,492.006698 1589.29335,494.135487 C1583.01018,496.267696 1576.38722,497.911211 1569.62448,499.089549 C1556.08833,501.467601 1542.03969,501.898575 1528.81385,501.300428 C1522.20029,501.013967 1515.8107,500.422233 1509.76561,499.655202 C1509.00992,499.560713 1508.25893,499.466223 1507.51308,499.372589 C1506.76936,499.263135 1506.03119,499.154964 1505.29773,499.047221 C1503.83208,498.826603 1502.38354,498.637625 1500.96876,498.381093 C1499.55184,498.139097 1498.158,497.90095 1496.78853,497.667506 C1495.42461,497.403705 1494.08549,497.144181 1492.77244,496.890214 C1487.53433,495.805938 1482.72151,494.75715 1478.46863,493.669881 C1477.98051,493.545891 1477.50093,493.424466 1477.02692,493.304323 C1476.43194,493.020855 1475.44843,492.758765 1474.03793,492.513777 C1473.51775,492.369264 1473.00527,492.226888 1472.50561,492.087933 C1471.58365,491.831401 1470.69717,491.584703 1469.84787,491.348266 C1469.00285,491.09772 1468.19501,490.85829 1467.42522,490.629976 C1466.65543,490.40209 1465.92453,490.185321 1465.23381,489.980523 C1464.54351,489.773587 1463.90152,489.555962 1463.29629,489.364846 C1462.69191,489.170309 1462.12941,488.989881 1461.61009,488.822708 C1461.07923,488.687601 1460.59282,488.56361 1460.15214,488.451164 C1458.39371,487.987268 1457.37558,487.687126 1457.18666,487.639667 C1456.62716,487.555867 1455.40557,487.683278 1455.13715,487.733302 C1454.23058,487.891069 1453.40949,488.034727 1452.65893,488.194204 C1451.90667,488.356247 1451.22449,488.535392 1450.60729,488.730356 C1449.67422,489.025368 1448.89117,489.35715 1448.24106,489.721425 C1442.028,488.909074 1435.32211,487.963753 1428.71667,486.821758 C1421.5389,485.584418 1414.50005,484.069169 1408.31862,482.617625 C1406.77732,482.23924 1405.28603,481.873254 1403.85629,481.521805 C1402.4257,481.18361 1401.07118,480.788979 1399.78292,480.45677 C1398.49722,480.110879 1397.28162,479.802613 1396.15664,479.489216 C1395.03465,479.165131 1393.99643,478.865416 1393.0531,478.593064 C1391.16644,478.053492 1389.66147,477.628076 1388.63779,477.294584 C1387.61068,476.976912 1387.05161,476.804181 1387.05161,476.804181 C1387.05161,476.804181 1386.18265,476.585273 1384.55288,476.175249 C1382.92054,475.773777 1380.55388,475.078147 1377.52557,474.250404 C1371.50185,472.486318 1362.9294,469.797007 1352.89514,465.853682 C1351.63167,465.385083 1350.37077,464.833967 1349.07225,464.305938 C1347.77886,463.765083 1346.45084,463.237482 1345.1177,462.65943 C1342.46595,461.471686 1339.69324,460.309169 1336.91326,458.95981 C1331.30329,456.367126 1325.50996,453.369549 1319.61576,450.090214 C1313.71044,446.828409 1307.76879,443.168124 1301.86433,439.248314 C1298.89543,437.311069 1295.99278,435.227601 1293.06363,433.156105 C1291.62406,432.085938 1290.18192,431.013634 1288.73765,429.93962 C1288.00932,429.410736 1287.30406,428.851496 1286.59625,428.294822 L1284.4698,426.627791 C1273.17464,417.731686 1262.6044,407.636722 1252.61289,397.842755 C1247.6197,392.961378 1242.77824,388.14114 1238.07485,383.612494 C1235.71289,381.350736 1233.41975,379.145416 1231.13601,377.033302 C1229.99906,375.97639 1228.89459,374.928884 1227.78371,373.913444 C1226.66428,372.903135 1225.56537,371.910784 1224.48783,370.937672 C1222.35626,368.97734 1220.20203,367.165368 1218.18672,365.414537 C1217.68107,364.978432 1217.18184,364.547031 1216.68902,364.121615 C1216.18337,363.705606 1215.68414,363.295154 1215.19217,362.889834 C1214.20781,362.07791 1213.24225,361.298907 1212.30192,360.547268 C1210.45031,359.017482 1208.60083,357.67753 1206.92276,356.402565 C1206.07988,355.768504 1205.26948,355.158385 1204.49327,354.574347 C1203.70809,353.999287 1202.9306,353.47639 1202.2044,352.964181 C1200.74517,351.947458 1199.43682,351.027791 1198.26781,350.248361 C1197.09752,349.468076 1196.03878,348.853254 1195.18863,348.315392 C1193.47466,347.257625 1192.47448,346.63981 1192.29154,346.526936 C1191.73161,346.259287 1190.43865,346.036105 1190.1356,346.03696 C1186.11737,345.88304 1183.50238,346.346508 1181.80635,347.222565 C1180.11802,348.096485 1179.3354,349.392827 1179.13751,350.819572 C1178.92892,352.262565 1179.27514,353.870594 1179.86541,355.415344 C1180.45611,356.962233 1181.28361,358.461235 1182.0923,359.675059 C1182.5193,360.441235 1182.68343,360.579762 1183.16471,360.915819 C1183.32585,361.028266 1184.18797,361.630689 1185.66302,362.66152 C1186.39648,363.184418 1187.30049,363.779145 1188.31391,364.535059 C1189.3158,365.310641 1190.47583,366.164038 1191.76281,367.114062 C1192.40524,367.590784 1193.08014,368.091449 1193.78582,368.614774 C1194.47654,369.166746 1195.19718,369.74266 1195.94689,370.34209 C1196.69702,370.940238 1197.47536,371.5619 1198.28149,372.204941 C1198.68327,372.530309 1199.09873,372.846271 1199.50777,373.193444 C1199.91596,373.541473 1200.331,373.895487 1200.75201,374.254632 C1201.59703,374.969929 1202.4677,375.706603 1203.36273,376.464656 C1203.81238,376.840903 1204.26844,377.22228 1204.73006,377.608361 C1205.18484,378.008551 1205.64518,378.413872 1206.1115,378.824323 C1207.04244,379.647363 1207.99645,380.490926 1208.97184,381.353302 C1209.45953,381.785131 1209.95193,382.222518 1210.44988,382.663753 C1210.94142,383.118242 1211.43851,383.577435 1211.94031,384.04133 C1220.00114,391.415772 1229.03949,400.481615 1238.96859,410.264893 C1243.9075,415.157387 1249.13321,420.204228 1254.54314,425.2562 C1255.9139,426.509786 1257.28978,427.768504 1258.66951,429.030214 C1259.35297,429.665131 1260.05737,430.288076 1260.77074,430.906318 C1261.47984,431.527126 1262.19022,432.148789 1262.90103,432.770879 L1265.0356,434.638005 C1265.74299,435.264371 1266.49098,435.85867 1267.21718,436.470926 C1268.68581,437.680048 1270.13265,438.919097 1271.62223,440.10342 C1283.49741,449.633587 1296.11673,458.165843 1308.46763,465.205511 C1320.79417,472.298622 1332.82707,477.908124 1343.32465,482.205891 C1353.82522,486.511354 1362.81314,489.459762 1369.13947,491.367506 C1372.29088,492.364133 1374.80586,493.012304 1376.50616,493.503563 C1377.35802,493.74171 1378.01112,493.924703 1378.45137,494.048266 C1378.89077,494.174822 1379.12115,494.226128 1379.12115,494.226128 C1379.12115,494.226128 1380.24613,494.461283 1382.20887,494.871306 C1383.18982,495.075677 1384.37934,495.32323 1385.74283,495.607126 C1387.11273,495.857672 1388.65702,496.140285 1390.33894,496.447696 C1391.17969,496.599477 1392.05506,496.757245 1392.96035,496.92057 C1393.86905,497.0638 1394.80811,497.211306 1395.77281,497.363088 C1397.70307,497.6581 1399.7265,498.009976 1401.83499,498.26095 C1402.88689,498.39734 1403.95503,498.535867 1405.03556,498.675677 C1406.11524,498.818907 1407.20688,498.959145 1408.31135,499.064323 C1410.51901,499.284513 1412.74846,499.550024 1414.98133,499.732162 C1417.21592,499.903183 1419.43896,500.094727 1421.62311,500.238385 C1423.80854,500.351686 1425.95122,500.463278 1428.01526,500.570594 C1430.08016,500.624893 1432.06598,500.677055 1433.93682,500.725796 C1434.404,500.736912 1434.86391,500.748029 1435.31613,500.75829 C1435.76877,500.757862 1436.21372,500.757007 1436.65055,500.756152 C1437.52335,500.754014 1438.36282,500.751449 1439.16467,500.748884 C1442.36823,500.768124 1444.96698,500.63601 1446.66685,500.552637 C1448.36672,500.465843 1449.17071,500.389739 1448.79158,500.329881 C1448.82279,500.328171 1448.85313,500.324751 1448.88434,500.32304 C1449.31518,500.815154 1449.75757,501.280333 1450.19311,501.704466 C1450.7992,502.407363 1451.0048,502.506556 1451.56985,502.775059 C1451.76177,502.85886 1452.7722,503.348836 1454.52294,504.13981 C1454.96233,504.333064 1455.44789,504.546413 1455.97704,504.779002 C1456.51774,504.979097 1457.10417,505.195867 1457.73334,505.428884 C1458.36336,505.66019 1459.03699,505.907316 1459.75207,506.169834 C1460.47228,506.417815 1461.23438,506.680333 1462.03666,506.956532 C1463.64207,507.508931 1465.40478,508.132732 1467.34315,508.717625 C1468.30956,509.020333 1469.31316,509.334584 1470.35223,509.659952 C1471.39344,509.97848 1472.47868,510.27905 1473.59426,510.604846 C1478.05189,511.919145 1483.10876,513.215059 1488.65504,514.396817 C1499.74675,516.738527 1512.78409,518.766413 1526.82717,519.57791 C1540.83692,520.426176 1555.97848,520.20171 1571.0508,517.908314 C1578.58034,516.762043 1586.08594,515.110404 1593.3415,512.849501 C1600.5962,510.593729 1607.59829,507.745368 1614.10286,504.372399 C1615.71511,503.493349 1617.32009,502.65962 1618.89388,501.755344 C1620.47108,500.841663 1622.00468,499.892067 1623.50153,498.922375 C1626.4918,496.977435 1629.31538,494.92304 1631.95815,492.791686 C1634.60349,490.66247 1637.07401,488.462708 1639.36929,486.232589 C1641.66842,484.006746 1643.78417,481.740713 1645.71571,479.472542 C1647.64768,477.205653 1649.42919,474.96399 1650.99528,472.728741 C1651.80055,471.629929 1652.51691,470.505036 1653.2414,469.434014 C1653.92486,468.332209 1654.61942,467.284276 1655.22509,466.22095 C1657.71399,462.013824 1659.56602,458.137625 1660.91242,454.862138 C1662.2524,451.582375 1663.13247,448.924703 1663.67573,447.094347 C1663.96637,446.186223 1664.14034,445.471781 1664.27327,444.99677 C1664.40192,444.51962 1664.46817,444.273349 1664.46817,444.273349 C1664.46817,444.273349 1664.53485,443.970641 1664.66009,443.40285 C1664.76737,442.830784 1664.92509,441.992352 1665.12555,440.926461 C1665.47433,438.784846 1665.9351,435.718005 1666.13129,432.014964 C1666.16206,431.089311 1666.19455,430.125178 1666.22789,429.128551 C1666.22019,428.110974 1666.22233,427.060475 1666.1954,425.985178 C1666.13214,424.912447 1666.1018,423.809359 1665.99665,422.692589 C1665.87996,421.57753 1665.80217,420.435107 1665.61966,419.291829 C1664.9875,414.705036 1663.88174,409.929264 1662.2447,405.39848 C1662.20324,405.282185 1662.15836,405.167601 1662.11605,405.051306 C1662.83925,404.808456 1663.65606,404.564751 1664.53271,404.220143 C1665.4987,403.856722 1666.56171,403.456105 1667.71362,403.022565 C1668.28594,402.796817 1668.88989,402.584751 1669.49812,402.323943 C1670.10635,402.06399 1670.73552,401.794632 1671.38435,401.517577 C1672.03319,401.23924 1672.70211,400.953207 1673.38984,400.658622 C1673.73306,400.511544 1674.08184,400.3619 1674.43446,400.210546 C1674.78196,400.046793 1675.13373,399.88133 1675.49021,399.713302 C1676.9114,399.034774 1678.41166,398.340428 1679.95681,397.582375 C1686.11559,394.508266 1693.05015,390.50038 1699.99326,385.542898 C1706.94064,380.59696 1713.90384,374.727078 1720.25453,368.253492 L1721.45132,367.046936 L1722.60409,365.79848 C1723.37175,364.966033 1724.13855,364.134869 1724.90364,363.304988 C1725.67002,362.476817 1726.37698,361.598195 1727.11258,360.749929 C1727.8392,359.892257 1728.57181,359.049976 1729.28519,358.186746 C1732.10705,354.71886 1734.97508,350.838812 1736.94381,346.247316 C1737.43193,345.105748 1737.85978,343.906461 1738.20386,342.734109 C1738.54836,341.560475 1738.81679,340.405226 1739.03135,339.28076 C1739.45921,337.030546 1739.67848,334.907316 1739.83363,332.928171 C1739.99093,330.948171 1740.06102,329.125938 1740.15848,327.316105 C1740.24824,325.516532 1740.282,323.77639 1740.33714,322.107221 C1740.46366,315.426698 1740.2991,309.862945 1740.08239,305.97734 C1739.99264,304.033682 1739.86441,302.509881 1739.80414,301.470071 C1739.7708,300.950166 1739.74345,300.551686 1739.7178,300.284038 C1739.69515,300.015534 1739.68318,299.877435 1739.68318,299.877435 C1739.68318,299.877435 1739.59385,299.206603 1739.43784,298.03639 C1739.29379,296.865321 1739.03777,295.2 1738.72831,293.211021 C1738.09444,289.234347 1737.12375,283.976722 1735.92995,278.835392 C1734.75538,273.689786 1733.35001,268.667316 1732.21776,265.062613 C1732.11261,264.719715 1732.01003,264.391781 1731.90958,264.071971 C1731.74246,262.310879 1731.49199,260.566888 1731.10046,258.866081 C1731.539,258.757482 1731.97626,258.648884 1732.4101,258.543705 C1734.8866,257.945131 1733.81804,254.001378 1731.35564,254.71753 C1730.89316,254.851781 1730.42641,254.984323 1729.95838,255.118147 C1729.95026,255.09677 1729.94385,255.075392 1729.9353,255.054442 C1729.12661,252.9962 1727.96188,251.118385 1726.51803,249.576627 C1729.26766,249.106318 1732.02883,248.66038 1734.79684,248.243943 C1738.78943,247.627838 1742.80082,247.088694 1746.79854,246.566651 C1748.80402,246.324656 1750.79412,246.065986 1752.79789,245.841948 C1754.80252,245.61962 1756.80073,245.397292 1758.7904,245.176247 C1759.78545,245.065938 1760.77836,244.955202 1761.76913,244.844893 C1762.76375,244.746556 1763.75667,244.647791 1764.74658,244.549454 C1766.72685,244.352779 1768.69685,244.15696 1770.65447,243.96285 C1774.58508,243.604133 1778.4661,243.249691 1782.28302,242.901663 C1797.587,241.57924 1811.97673,240.468884 1824.34943,239.332019 C1827.4457,239.04 1830.41204,238.759952 1833.23305,238.493587 C1836.05962,238.201568 1838.74043,237.924513 1841.25925,237.664133 C1843.77765,237.407601 1846.1426,237.107031 1848.32418,236.86076 C1850.5079,236.597815 1852.50996,236.394727 1854.32438,236.139477 C1857.94938,235.659335 1860.7969,235.282233 1862.73784,235.024846 C1864.67963,234.734537 1865.71486,234.579762 1865.71486,234.579762 C1865.71486,234.579762 1866.96636,234.334347 1869.15051,233.905938 C1870.2413,233.691306 1871.56547,233.430499 1873.0824,233.132494 C1874.5972,232.800285 1876.30477,232.426176 1878.16535,232.01829 C1885.60898,230.46114 1895.44747,227.914632 1905.08421,225.091496 C1907.48549,224.348836 1909.87993,223.608314 1912.22907,222.881473 C1914.57734,222.152922 1916.92434,221.329454 1919.15037,220.516247 C1923.61484,218.868029 1927.70103,217.124466 1931.07898,215.461283 C1934.45949,213.809216 1937.13518,212.267886 1938.84916,211.182755 C1940.56442,210.097625 1941.33592,209.510166 1940.91448,209.690166 C1942.16555,208.839762 1943.37389,207.963278 1944.53649,207.064988 C1944.92117,207.383088 1945.35501,207.724276 1945.84868,208.091971 C1946.80056,208.749121 1947.97812,209.433634 1949.3711,210.228884 C1950.06268,210.643183 1950.83675,210.997197 1951.66723,211.38114 C1952.4973,211.765511 1953.38762,212.167838 1954.34164,212.588124 C1958.19275,214.103373 1963.12311,215.70285 1969.33061,216.698622 C1976.62934,217.97829 1984.97227,218.257055 1993.1891,217.29677 C2001.39739,216.304846 2009.44497,214.117055 2016.28763,211.325558 C2023.12559,208.562708 2028.68897,205.298765 2032.51657,202.801425 C2033.47016,202.170784 2034.34382,201.619667 2035.07899,201.1019 C2035.80647,200.573872 2036.42965,200.12152 2036.93744,199.752969 C2037.95129,199.011591 2038.50352,198.607981 2038.50352,198.607981 C2038.50352,198.607981 2038.55439,198.566936 2038.65441,198.485701 C2038.75571,198.405748 2038.90531,198.285178 2039.09337,198.115012 C2039.47293,197.780238 2040.03713,197.282565 2040.7723,196.633539 C2042.26188,195.355582 2044.35584,193.384988 2046.91698,190.782043 C2048.16079,189.448076 2049.5948,188.017482 2051.00488,186.334204 C2051.71911,185.500048 2052.48548,184.649644 2053.23519,183.732542 C2053.97164,182.805606 2054.73545,181.845321 2055.52406,180.852969 C2058.60922,176.833967 2061.85723,172.1219 2064.94281,166.714632 C2065.32023,166.034394 2065.70192,165.346888 2066.08703,164.652542 C2066.46915,163.956485 2066.87136,163.26171 2067.22356,162.533159 C2067.58773,161.810166 2067.95489,161.080333 2068.32504,160.343658 C2068.69006,159.604846 2069.08329,158.871164 2069.41754,158.10114 C2069.76418,157.337102 2070.11339,156.566223 2070.46559,155.789786 C2070.81607,155.009929 2071.17768,154.241188 2071.51107,153.407031 C2071.85344,152.586556 2072.19538,151.758812 2072.51082,150.914394 C2072.67196,150.493682 2072.83395,150.071686 2072.99637,149.647553 C2073.14683,149.219572 2073.29771,148.789881 2073.44945,148.359335 C2075.85799,141.46247 2077.63908,133.911449 2078.33493,125.825131 C2078.69097,121.786461 2078.73927,117.608409 2078.41229,113.34228 L2078.41229,113.34228 Z M1039.70559,34.8148219 C1037.60949,35.1893587 1035.51553,35.5750119 1033.42243,35.9657957 C1035.70446,35.5125891 1037.98819,35.068361 1040.27492,34.64038 C1040.28775,34.6630404 1040.301,34.6857007 1040.31425,34.7079335 C1040.11122,34.743848 1039.90819,34.7784798 1039.70559,34.8148219 L1039.70559,34.8148219 Z M1424.16458,32.9391449 L1424.10902,32.9429929 L1424.16971,32.9382898 L1424.20177,32.9357245 L1424.16458,32.9391449 L1424.16458,32.9391449 Z M1923.70289,97.1089311 C1923.72853,97.2209501 1923.75845,97.332114 1923.79222,97.4428504 C1922.82282,97.2731116 1921.85213,97.1110689 1920.88188,96.944323 C1921.82221,97.0016152 1922.76255,97.0542043 1923.70289,97.1089311 L1923.70289,97.1089311 Z M2046.96613,89.6541093 L2046.96699,89.6536817 L2046.96613,89.6541093 L2046.96613,89.6541093 Z M2046.97383,89.6532542 L2046.98152,89.652399 C2046.98921,89.6515439 2046.97725,89.6532542 2046.97383,89.6532542 L2046.97383,89.6532542 Z M1635.14504,392.963088 C1635.2177,393.024656 1635.29079,393.086651 1635.36303,393.148219 C1635.33653,393.131116 1635.31003,393.114442 1635.28353,393.09734 C1635.23736,393.052447 1635.1912,393.007981 1635.14504,392.963088 L1635.14504,392.963088 Z M1688.57243,258.055439 C1689.11227,257.901948 1689.65724,257.752732 1690.2005,257.601805 C1690.38686,259.436865 1690.59929,261.528456 1690.83394,263.8381 C1691.71017,272.033872 1692.86678,282.848409 1694.01912,293.624893 C1694.59145,299.017625 1695.18984,304.376152 1695.6489,309.38152 C1696.11223,314.387743 1696.47811,319.044228 1696.65848,323.02304 C1696.7773,325.014584 1696.81663,326.833397 1696.86535,328.446556 C1696.93075,330.060998 1696.9051,331.459952 1696.91878,332.615202 C1696.92605,333.769596 1696.93246,334.676437 1696.90724,335.291259 C1696.89228,335.907363 1696.88459,336.235724 1696.88459,336.235724 C1696.88459,336.235724 1696.89356,336.636342 1696.90981,337.334537 C1696.92263,338.033159 1696.96452,339.032779 1696.93973,340.220523 C1696.91878,341.409549 1696.94272,342.801663 1696.88416,344.278432 C1696.86749,344.668361 1696.85039,345.065558 1696.83287,345.466603 C1696.38022,346.038242 1695.91134,346.626556 1695.42023,347.222993 C1694.39611,348.390214 1693.31814,349.61943 1692.2047,350.888409 C1691.03142,352.102233 1689.82137,353.354537 1688.59295,354.625653 C1687.30426,355.835629 1685.99634,357.063135 1684.6897,358.289786 C1683.32364,359.449311 1681.9593,360.607981 1680.61675,361.747838 C1679.41398,362.678622 1678.23471,363.591021 1677.08023,364.484181 L1674.01388,366.066556 C1664.89261,370.774347 1655.74612,375.436817 1646.67699,380.245083 C1646.52697,380.090736 1646.37395,379.933397 1646.23033,379.785463 C1645.26307,378.849976 1644.42745,378.068409 1643.74485,377.473254 C1642.35614,376.30304 1641.67611,375.785701 1641.92915,376.105083 C1638.9081,373.671876 1635.76566,371.67734 1632.72154,370.157387 C1630.35103,368.97734 1628.04421,368.094442 1625.90965,367.450119 C1624.70473,365.807031 1623.59685,364.088266 1622.58812,362.28399 C1621.5063,360.349739 1620.62538,358.3381 1619.809,356.299952 C1619.95988,355.535487 1620.06588,354.784703 1620.13982,354.089074 C1620.27532,353.275867 1620.21035,353.096295 1620.0304,352.596485 C1619.9633,352.432304 1619.66324,351.528456 1619.04048,350.028171 C1618.4267,348.52361 1617.59023,346.380713 1616.56825,343.691401 C1616.29214,342.95601 1616.00149,342.176152 1615.70015,341.36038 C1616.13826,341.219715 1616.63664,341.15772 1617.20213,341.199192 C1620.78866,341.46342 1624.57693,342.925226 1627.94804,344.109976 C1631.70597,345.430689 1635.31558,347.06095 1638.85253,348.888741 C1641.51625,350.265463 1644.83308,347.989169 1644.00045,344.930451 C1640.1019,330.603135 1631.8607,317.750024 1620.67966,308.091591 C1634.44107,303.654442 1649.15435,302.324323 1663.48509,304.515534 C1666.60744,304.992684 1668.49624,301.843325 1666.49203,299.348551 C1661.25222,292.827078 1654.26167,288.016247 1646.41071,285.173444 C1642.73142,283.841188 1639.00213,283.072874 1635.23907,282.765463 C1635.12965,282.668409 1635.01468,282.575629 1634.892,282.487981 C1634.32225,282.08266 1633.74095,281.755154 1633.15324,281.484513 C1634.00296,280.97658 1634.8655,280.440428 1635.78361,279.933349 C1639.9959,277.471496 1644.89762,274.99639 1650.27891,272.395582 C1661.04406,267.193112 1674.11774,262.169786 1688.57243,258.055439 L1688.57243,258.055439 Z" id="Fill-3" fill="#000000" sketch:type="MSShapeGroup"></path>
                <path id="Fill-4" fill="#000000" sketch:type="MSShapeGroup" d="M2046.96656,89.6558195 C2046.96741,89.6558195 2046.96656,89.6553919 2046.96656,89.6553919 L2046.96613,89.6553919 C2046.96656,89.6536817 2046.96656,89.652399 2046.96656,89.652399"></path>
            </g>
        </g>
    </g>
</svg>