<?xml version="1.0" encoding="UTF-8" standalone="no"?>
<svg width="1653px" height="2658px" viewBox="0 0 1653 2658" version="1.1" xmlns="http://www.w3.org/2000/svg" xmlns:xlink="http://www.w3.org/1999/xlink" xmlns:sketch="http://www.bohemiancoding.com/sketch/ns">
    <!-- Generator: Sketch 3.3.3 (12072) - http://www.bohemiancoding.com/sketch -->
    <title>page01__panel03--joanie</title>
    <desc>Created with Sketch.</desc>
    <defs></defs>
    <g id="Page-1" stroke="none" stroke-width="1" fill="none" fill-rule="evenodd" sketch:type="MSPage">
        <g id="page01__panel03--joanie" sketch:type="MSArtboardGroup">
            <g id="Imported-Layers" sketch:type="MSLayerGroup">
                <path d="M655.890179,1165.56623 C656.061559,1165.56686 656.678089,1165.27974 657.872442,1164.44679 C657.856521,1164.45209 657.840601,1164.45677 657.824368,1164.46208 C657.205028,1164.85936 656.548852,1165.21202 655.890179,1165.56623" id="Fill-1" fill="#666666" sketch:type="MSShapeGroup"></path>
                <path d="M1693.17459,1383.53733 C1690.2705,1370.90165 1687.08857,1358.32932 1683.63132,1345.83345 C1676.71712,1320.84203 1668.70785,1296.15427 1659.63564,1271.86223 C1640.66242,1221.05705 1617.40657,1171.42968 1588.69123,1125.35882 C1575.57708,1104.31839 1560.79003,1084.38056 1544.15026,1065.98785 C1529.40097,1049.68456 1513.27503,1034.91203 1496.46045,1020.77772 C1461.69843,991.556934 1423.02588,967.340733 1381.19764,949.595917 C1359.78639,940.512696 1337.91969,932.757082 1315.36872,927.004428 C1309.96635,925.626262 1304.46628,924.568608 1298.98836,923.535608 C1292.34981,922.283524 1285.4609,920.773971 1278.72433,920.389171 C1275.38757,920.198488 1272.058,919.897014 1268.73092,919.549976 C1228.37236,905.815446 1191.12049,893.330816 1153.86831,880.846185 C1143.62048,877.008481 1137.88471,874.022768 1132.19141,870.956537 C1129.35505,869.429508 1126.3417,868.512603 1123.32055,868.187723 C1137.08525,844.189669 1145.89961,821.280166 1150.67328,797.875696 C1151.39376,794.342899 1152.02995,790.812598 1152.58436,787.283546 C1154.08558,785.192268 1155.22561,782.814183 1155.87773,780.181438 C1166.46801,737.434592 1166.65031,693.283053 1164.38211,649.569681 C1171.92407,599.772844 1176.0169,549.296288 1165.78623,499.579969 C1162.36831,482.971141 1156.90101,467.011137 1150.0018,451.562327 C1149.67153,447.928726 1149.33533,444.296062 1148.98258,440.664958 C1146.9282,419.514987 1144.38092,397.792966 1136.57798,377.866991 C1129.03477,358.604508 1118.14512,341.038516 1102.55861,327.20568 C1087.73315,314.048507 1071.10369,304.789583 1052.79164,297.458716 C1018.02056,283.538185 978.697462,280.683547 941.643195,283.376525 C918.772565,285.038999 895.893194,288.701312 873.752099,294.698953 C863.715293,297.417833 853.808662,300.619821 844.081527,304.295241 C832.785126,308.563621 821.191854,312.765216 811.564613,320.201254 C802.562018,327.154498 796.210348,335.987428 793.450789,346.538695 C773.240137,361.133953 754.03123,377.181653 736.353504,394.759816 C699.453135,431.452534 664.782891,474.941517 659.754811,528.502093 C655.660424,572.118407 672.569594,614.668952 695.277585,651.6775 C700.289744,675.65995 709.610749,699.367766 728.767524,715.345559 C727.673066,720.451262 728.354839,725.953313 730.760401,731.331778 C737.530687,746.471 744.991799,761.290335 753.191812,775.707082 C757.149157,782.665007 761.272264,789.528683 765.554264,796.292491 C767.695108,799.67424 769.875909,803.030709 772.096043,806.360651 C772.391041,814.126875 771.248509,819.959736 769.97549,825.764509 C766.953086,839.547723 763.189596,853.149617 758.74964,866.535235 C756.433046,867.06734 754.138928,867.904038 751.925349,869.056255 C748.888272,870.636651 745.907386,872.379331 743.007663,874.268691 C727.933101,878.949647 712.870713,883.677416 697.674718,887.960777 C673.700264,894.718656 649.47951,900.560879 625.218174,906.188387 C589.225276,914.537274 553.054443,922.402741 517.374337,932.053644 C495.780471,934.606495 473.766428,937.045124 452.864326,943.316463 C435.655163,948.479902 419.128398,956.267348 404.883264,967.185627 C398.450431,970.232508 392.199904,973.573686 386.240317,977.493155 C372.787152,986.340753 360.393795,997.008739 350.103822,1009.41285 C348.09721,1011.83182 346.07936,1014.27544 344.190435,1016.80707 C308.576509,1045.95671 277.740304,1080.88115 254.988297,1121.05174 C241.763639,1144.40128 231.125287,1169.55343 224.002564,1195.43522 C215.941466,1224.72686 213.264319,1255.11078 210.776033,1285.28624 C210.169804,1292.63708 209.562638,1299.98823 208.854643,1307.32971 C208.501269,1310.99608 208.123547,1314.66057 207.707427,1318.32039 C207.485789,1320.27092 207.253848,1322.2202 207.009109,1324.16792 C204.551103,1340.46217 201.622349,1354.86643 197.365635,1369.05473 C195.242584,1376.13093 192.871673,1383.1313 190.318144,1390.06333 C189.0804,1393.42229 187.799266,1396.76534 186.482856,1400.09435 C184.256478,1405.63541 183.894052,1406.51954 183.52944,1407.40337 C181.004943,1413.34827 180.240445,1415.10281 179.470328,1416.85454 C177.92947,1420.35893 176.364575,1423.85272 174.783759,1427.33933 C171.822227,1433.87251 168.804193,1440.37978 165.782101,1446.88519 C158.536384,1462.48286 151.288482,1478.07991 144.041204,1493.67696 C140.894557,1495.44648 138.078808,1498.03553 135.804668,1501.33801 C106.476856,1543.93006 85.5276161,1592.72542 74.7353658,1643.29092 C56.4005274,1672.94083 45.8920373,1703.80006 44.3764647,1735.4058 C42.4969049,1737.43903 41.1015168,1739.86299 40.7450217,1742.50697 C40.2639717,1746.07254 39.7498321,1749.62968 39.2122799,1753.1812 C12.7554709,1809.51746 3.42010571,1872.56977 11.9048148,1934.39279 C13.2749174,1944.37606 15.8624727,1953.36784 22.4501408,1961.28761 C29.9022002,1970.24693 41.0565647,1973.27884 52.1450618,1974.46195 C69.7172753,1976.33726 88.2890486,1973.45454 105.579375,1970.60489 C114.766148,1969.09066 123.885494,1967.22752 132.989231,1965.28822 C149.218812,1966.53968 165.53861,1966.55216 181.816578,1965.39246 C211.257707,1963.29463 240.492493,1958.30159 269.32552,1952.10796 C286.914903,1950.11686 301.944201,1947.17733 316.335429,1941.19124 C321.279536,1939.1346 325.332717,1936.97903 328.328587,1932.5596 C349.745142,1926.75202 370.925386,1920.06374 391.815314,1912.53501 C439.142072,1895.47865 485.090612,1874.36925 528.53276,1848.98336 C572.947309,1823.02916 613.992635,1792.28196 653.320105,1759.20662 C672.90611,1742.73417 692.184318,1725.90033 711.73817,1709.39074 C716.892366,1705.03904 722.071847,1700.71698 727.286915,1696.43861 C730.94177,1700.91328 731.911674,1701.88573 733.000826,1702.79015 C735.648006,1704.98817 738.444089,1707.30134 741.542038,1708.88454 C749.51448,1712.95849 757.411378,1714.65405 766.089319,1716.14144 C772.720378,1717.27837 779.343945,1718.46367 785.936608,1719.80657 C799.637322,1722.59723 813.236581,1726.08352 826.252087,1731.22824 C834.06907,1734.73888 841.548913,1738.92174 848.496198,1743.9435 C851.226101,1746.18333 853.888265,1748.50524 856.665306,1750.68827 C859.830683,1753.17621 863.041636,1755.81644 866.492022,1757.94517 C869.973001,1760.09231 873.902563,1761.67521 877.683847,1763.12796 C883.996807,1765.55379 890.937849,1766.24038 897.60512,1766.92509 C901.950177,1767.37106 906.32333,1767.651 910.684932,1767.88101 C921.096651,1768.4309 931.125964,1767.85323 941.451212,1766.35054 C945.504081,1765.76102 949.521363,1764.84723 953.376942,1763.45346 C958.724369,1761.52072 964.209462,1759.29806 968.940358,1756.07391 C974.459478,1752.31267 979.34396,1748.13448 983.547918,1742.97822 C986.260028,1739.65171 988.846335,1736.23563 991.955522,1733.29767 C1002.45371,1729.0374 1010.51356,1728.03155 1018.39142,1726.46801 C1028.74694,1724.41231 1038.90581,1720.69788 1047.99643,1715.29195 C1066.18518,1704.47572 1080.43437,1687.71054 1090.87824,1669.51539 C1096.15512,1660.32231 1100.17115,1650.58683 1104.20716,1640.82077 C1105.06156,1638.92299 1105.9912,1637.06796 1107.06568,1635.29251 C1111.04706,1634.07475 1115.18078,1633.40377 1119.23865,1632.44973 C1127.77174,1630.44427 1135.98486,1626.66118 1142.32748,1620.49814 C1146.95286,1616.00318 1149.94062,1610.54482 1152.07709,1604.54094 C1152.82973,1602.42657 1153.03076,1600.37586 1153.33325,1598.12667 C1153.64792,1595.7851 1153.99755,1593.64919 1153.80962,1591.31261 C1153.04544,1581.8137 1149.94749,1572.66525 1144.22359,1564.97143 C1139.29321,1558.34463 1134.19334,1552.58011 1127.72179,1547.47878 C1120.50324,1541.78854 1113.19821,1536.23375 1105.74584,1530.85559 C1093.64498,1522.12315 1081.25037,1513.79736 1068.59074,1505.89632 C1056.04536,1498.06643 1043.23963,1490.65317 1030.20164,1483.67434 C1015.80542,1475.96835 1000.87258,1468.49829 985.148088,1463.92563 C969.115172,1459.2634 951.99685,1457.67083 935.340848,1457.7398 C918.956743,1457.80752 902.650057,1459.54802 886.470734,1462.04438 C857.089541,1466.5771 828.4691,1475.10013 800.61503,1485.3546 C796.762885,1486.77302 792.901999,1488.1824 789.117281,1489.77341 C783.765484,1491.90401 778.422739,1494.06863 773.092482,1496.27101 C769.127644,1497.59737 765.177478,1498.96648 761.242296,1500.37991 C758.566709,1500.87488 755.897991,1501.3998 753.240198,1501.96561 C747.717957,1503.14061 742.286245,1504.6898 737.048076,1506.68308 C732.8257,1506.42593 728.597393,1506.41844 724.453059,1506.55887 C709.801796,1507.0554 695.261664,1508.68167 680.755246,1510.74049 C655.017983,1514.39313 629.685601,1520.5696 604.796497,1528.00158 C564.929914,1539.90573 526.132505,1554.98316 486.852797,1568.63873 C493.496655,1562.86111 498.629623,1559.7075 500.995227,1554.86301 C502.674063,1551.42509 504.312318,1547.9675 505.918731,1544.49431 C514.292621,1539.71193 517.764234,1535.51408 519.335997,1530.09567 C520.214124,1527.0672 520.989235,1524.01938 521.677876,1520.95471 C524.673434,1517.55486 527.288148,1513.70124 529.254491,1509.64477 C533.458136,1500.97287 536.632254,1491.72643 540.096375,1482.73871 C552.579324,1450.35338 564.839698,1417.85196 575.205215,1384.71544 C580.345988,1368.2817 585.017572,1351.6969 589.002077,1334.94357 C592.553293,1320.01407 595.46238,1304.94601 598.377087,1289.88262 C602.286047,1269.6817 606.178774,1249.38122 611.514339,1229.48677 C612.980589,1228.36763 614.367861,1227.29625 615.75482,1226.22486 C618.303042,1223.66015 620.065852,1220.63668 621.042623,1217.15444 C627.017507,1201.1679 632.99239,1185.18106 638.967274,1169.19453 C643.830529,1170.58674 649.132068,1170.23564 653.2661,1167.15069 C657.660792,1164.51201 657.743204,1164.48798 657.824368,1164.46208 C664.014023,1166.65135 667.870226,1169.08873 672.295199,1170.70002 C675.714368,1171.94462 679.133849,1173.18984 682.553331,1174.43443 C684.923305,1176.39338 687.717827,1178.00436 690.810782,1179.22867 C763.739011,1208.09212 839.398392,1229.93773 916.480008,1244.38569 C922.035026,1247.6504 927.934053,1250.3128 933.773143,1252.35601 C945.490658,1256.45618 957.967363,1257.67768 970.249276,1258.90792 C974.533461,1259.33735 978.825138,1259.69437 983.120561,1259.98929 C991.034941,1263.72744 999.356386,1266.59986 1007.80925,1268.55913 C1041.19462,1276.2982 1075.02451,1271.12665 1108.28532,1265.56156 C1124.74028,1266.12674 1141.21554,1266.37298 1157.66957,1266.14516 C1169.25941,1265.98443 1181.31344,1265.10748 1192.17062,1260.80383 C1198.49357,1258.29779 1204.01893,1255.39384 1209.43441,1251.32239 C1212.55609,1248.9752 1215.62656,1246.55998 1218.67113,1244.11386 C1232.91034,1233.28858 1243.59801,1226.18273 1254.68339,1219.75535 C1269.10208,1214.41683 1283.52109,1209.07831 1297.93979,1203.73979 C1300.24452,1204.84395 1302.74218,1205.47779 1305.17396,1205.17195 C1312.21021,1204.28688 1319.24615,1203.40181 1326.28241,1202.51673 C1330.98458,1215.42674 1335.70143,1226.02731 1340.22786,1236.68718 C1352.55129,1265.99723 1364.33373,1295.57161 1373.94755,1325.89437 C1378.88167,1341.45616 1383.07158,1357.20394 1386.87721,1373.07563 C1390.64788,1388.80188 1394.28401,1404.58712 1399.27151,1419.98443 C1404.85556,1437.22336 1412.88356,1453.39464 1420.04562,1469.98225 C1423.5138,1478.47563 1426.44474,1487.1803 1428.08861,1496.20609 C1428.22909,1499.94174 1429.24332,1503.43834 1431.13349,1506.6965 C1432.54293,1509.3099 1434.46869,1511.40742 1436.91109,1512.98875 C1439.07753,1514.9708 1441.62044,1516.30871 1444.53952,1517.00278 C1448.51497,1518.07074 1452.49074,1518.07074 1456.46619,1517.00278 C1484.93179,1505.84826 1513.84973,1495.85687 1543.13727,1487.08168 C1572.42325,1478.30648 1602.07135,1470.73999 1631.98104,1464.40748 C1648.7769,1460.85159 1665.65516,1457.69143 1682.59711,1454.9145 C1685.51619,1454.22073 1688.0591,1452.88283 1690.22554,1450.90047 C1692.66794,1449.31913 1694.5937,1447.22161 1696.00345,1444.60822 C1697.2362,1442.50196 1698.15772,1439.95816 1698.65718,1437.31168 C1700.12687,1434.4249 1700.89324,1431.1942 1700.65693,1427.8034 C1699.60773,1412.75531 1696.54506,1398.20218 1693.17459,1383.53733 Z M355.750305,1541.23615 C355.887971,1541.04328 356.025949,1540.85073 356.163927,1540.65817 C356.202012,1540.80048 356.241969,1540.94279 356.284112,1541.08416 C356.105552,1541.13223 355.927616,1541.1831 355.750305,1541.23615 L355.750305,1541.23615 Z M798.9184,1619.04913 C796.958301,1620.34085 794.999139,1621.63381 793.044035,1622.93271 C792.639466,1622.23645 792.202119,1621.56703 791.732307,1620.92757 C794.12788,1620.30121 796.52314,1619.67548 798.9184,1619.04913 L798.9184,1619.04913 Z M513.625207,1435.04095 C513.171628,1435.07684 512.719609,1435.12584 512.270088,1435.19013 C514.002929,1431.12897 515.721723,1427.0622 517.428654,1422.99074 C519.299785,1418.52825 521.140012,1414.05233 522.956202,1409.56705 C519.923496,1418.08696 516.801822,1426.5741 513.625207,1435.04095 L513.625207,1435.04095 Z M668.946579,1069.91356 C668.561677,1069.04971 668.108722,1068.19804 667.584593,1067.36227 L671.354326,1063.38257 C670.569225,1065.56591 669.767892,1067.74333 668.946579,1069.91356 L668.946579,1069.91356 Z M681.220688,1033.19931 C681.147329,1033.04577 681.074594,1032.89253 680.996864,1032.74086 C681.167932,1032.5714 681.338999,1032.40194 681.510379,1032.23248 C681.413295,1032.55455 681.318084,1032.87693 681.220688,1033.19931 L681.220688,1033.19931 Z M995.299459,332.880938 C995.513606,332.905281 995.727753,332.926814 995.941899,332.951781 C997.652264,333.153076 1000.94407,333.873367 995.299459,332.880938 L995.299459,332.880938 Z M999.130689,837.6593 C999.115705,837.600316 999.101033,837.541332 999.085737,837.482348 C1001.87027,837.109094 1004.6548,836.735217 1007.43778,836.351977 C1008.03682,836.736466 1008.65086,837.095051 1009.28019,837.424612 C1005.94124,836.84944 1002.45902,836.924653 999.130689,837.6593 L999.130689,837.6593 Z M1021.63827,892.670445 C1022.2267,892.243825 1022.80734,891.795984 1023.37923,891.327233 C1023.5197,891.380911 1023.66143,891.432093 1023.80315,891.483275 C1023.92365,892.102139 1024.04445,892.72069 1024.16495,893.339554 C1024.26828,893.870722 1024.39752,894.393776 1024.54954,894.908715 C1023.648,894.066711 1022.68403,893.325198 1021.63827,892.670445 L1021.63827,892.670445 Z M1030.19041,903.760058 C1031.8168,905.278349 1033.67607,906.581926 1035.67394,907.625225 C1034.16555,907.816845 1032.6506,908.079308 1031.13534,908.391704 C1030.9958,906.820671 1030.67988,905.266178 1030.19041,903.760058 Z M1066.1627,921.599747 C1064.88125,918.935481 1063.14154,916.541793 1061.02505,914.673655 C1058.50336,912.447555 1055.75879,910.756681 1052.82597,909.554219 C1053.75124,909.252434 1054.63748,908.90758 1055.49095,908.52871 C1056.66314,909.503974 1057.88433,910.423375 1059.1483,911.279423 C1062.37798,913.466824 1065.97759,915.030679 1069.7033,916.293998 C1069.60528,918.258882 1069.65055,920.225639 1069.82973,922.196141 C1068.63881,921.896228 1067.41387,921.698678 1066.1627,921.599747 L1066.1627,921.599747 Z M1070.79651,390.539497 C1070.81868,390.554165 1070.84084,390.568208 1070.863,390.583188 C1071.34843,391.177085 1071.98618,391.741334 1072.67358,392.289355 C1072.65703,392.540271 1071.90065,392.142363 1070.79651,390.539497 L1070.79651,390.539497 Z M1091.81786,630.865205 C1091.90995,630.838053 1092.00204,630.81059 1092.09413,630.783751 C1092.15469,630.784375 1092.21681,630.784999 1092.28018,630.785311 C1092.29798,630.829315 1092.31546,630.873007 1092.33356,630.917011 C1092.1728,630.904839 1092.00048,630.887675 1091.81786,630.865205 L1091.81786,630.865205 Z M1093.7071,630.878312 C1093.52729,630.855218 1093.36372,630.821201 1093.21544,630.780942 C1093.51075,630.776573 1093.8098,630.769395 1094.09887,630.75972 C1094.0099,630.804972 1093.88004,630.84648 1093.7071,630.878312 L1093.7071,630.878312 Z M1107.91446,776.12746 C1108.20353,772.1153 1108.08459,774.37292 1107.91446,776.12746 L1107.91446,776.12746 Z M1114.48996,701.116375 C1114.47404,700.38797 1114.45874,699.659252 1114.43782,698.930847 C1114.74562,699.406776 1115.06559,699.87303 1115.40336,700.323368 C1115.09775,700.575533 1114.79276,700.839868 1114.48996,701.116375 L1114.48996,701.116375 Z M1285.25643,1204.28719 C1285.31668,1204.26441 1285.37849,1204.24131 1285.44186,1204.21791 C1285.69253,1204.13177 1285.94258,1204.04345 1286.19231,1203.95107 C1287.83275,1203.38651 1289.36487,1202.95927 1285.25643,1204.28719 L1285.25643,1204.28719 Z M1465.99791,1465.59871 C1465.87679,1465.27508 1465.75192,1464.95207 1465.62892,1464.62906 C1466.51454,1464.71676 1467.40703,1464.76201 1468.30951,1464.75515 C1467.53908,1465.03696 1466.76771,1465.31503 1465.99791,1465.59871 L1465.99791,1465.59871 Z M1520.49577,1260.89527 C1518.65992,1256.79354 1516.82687,1252.69026 1514.99976,1248.58478 C1517.84454,1252.84942 1520.68339,1257.11811 1523.51537,1261.39149 C1522.50769,1261.14712 1521.49596,1260.97797 1520.49577,1260.89527 L1520.49577,1260.89527 Z" id="Fill-2" fill="#666666" sketch:type="MSShapeGroup"></path>
                <path d="M1519.71223,2656.55022 C1498.109,2558.62214 1476.50577,2460.69375 1454.90254,2362.76536 C1443.99729,2313.33148 1433.86028,2263.71877 1422.51268,2214.38475 C1419.98568,2203.39969 1416.8072,2191.96616 1416.12823,2181.91766 C1415.34344,2170.30375 1416.46725,2160.69622 1418.44077,2149.98954 C1422.90882,2125.74775 1428.20474,2101.66637 1432.57758,2077.40117 C1450.14511,1979.91126 1461.71247,1881.13056 1463.30265,1782.01688 C1464.81698,1687.6166 1456.78335,1593.14299 1438.09264,1500.56311 C1420.07153,1411.29881 1391.40801,1322.19118 1348.1566,1241.79788 C1342.83883,1231.91354 1337.27319,1222.23985 1331.30955,1212.73157 C1326.47002,1205.01528 1316.34237,1201.98837 1308.2588,1206.68899 C1301.10455,1210.84908 1293.75457,1214.76356 1286.26005,1218.46581 C1285.80179,1216.88667 1285.34009,1215.30846 1284.87372,1213.7318 C1276.81387,1186.48807 1267.56279,1159.59668 1257.16387,1133.15719 C1251.36349,1118.40932 1245.30369,1103.74416 1238.67919,1089.34613 C1232.77142,1076.50666 1226.45503,1063.87972 1220.18608,1051.21533 C1209.95885,1030.55533 1199.00396,1010.25486 1187.34607,990.366331 C1187.34576,990.360714 1187.34545,990.354784 1187.34545,990.349167 C1187.24868,988.031003 1187.2081,985.710654 1187.22745,983.390305 C1187.2365,982.314238 1187.28832,981.237858 1187.29269,980.161791 C1187.29862,978.724953 1187.10477,977.281562 1186.8747,975.84254 C1186.86908,973.84676 1186.41269,971.97394 1185.49492,970.226891 C1184.85061,968.246402 1183.74897,966.532746 1182.19094,965.085922 C1179.55157,962.663521 1176.58254,961.171445 1173.01603,960.692395 C1171.76268,960.52387 1170.45501,960.477681 1169.15483,960.580357 C1157.27218,941.900848 1144.72898,923.663874 1131.40537,905.963062 C1129.25797,903.110297 1127.0831,900.278754 1124.91853,897.438785 C1123.69546,895.171178 1122.02474,893.351725 1119.90606,891.979802 C1118.0265,890.260216 1115.8201,889.099261 1113.2878,888.49725 C1108.62901,887.214583 1102.42562,887.793811 1098.29128,890.458702 C1094.13571,893.137011 1090.47773,897.125452 1089.34737,902.08666 C1088.25572,906.878094 1088.26165,912.942834 1091.30934,917.07889 C1108.3337,940.183134 1124.3329,964.180877 1139.38749,988.60992 C1145.55716,998.621904 1151.54266,1008.74718 1157.34679,1018.97512 C1158.76965,1026.5335 1160.67824,1034.00106 1162.9324,1041.35315 C1169.55846,1062.96438 1178.92942,1083.66776 1188.27352,1104.2101 C1192.96353,1114.52044 1197.6888,1124.81642 1202.13438,1135.23536 C1205.60318,1143.55709 1208.88281,1151.95966 1211.65923,1160.53918 C1214.68663,1169.89578 1217.44182,1179.33977 1219.98255,1188.83963 C1224.60106,1206.10602 1228.74633,1223.51846 1232.57788,1240.98022 C1218.39362,1246.07188 1204.08948,1250.66327 1189.93706,1254.90075 C1157.69423,1264.55477 1124.73935,1271.81792 1091.50289,1277.17516 C1088.76487,1275.34385 1085.48649,1274.27402 1081.86784,1274.31928 C1050.62832,1274.71063 1019.47401,1273.47197 988.480475,1269.44327 C947.964272,1263.77363 908.048055,1253.88772 869.622124,1239.83393 C859.606234,1236.17068 849.708656,1232.19878 839.875071,1228.07334 C795.336904,1209.13168 751.350649,1186.91875 703.675199,1176.96606 C689.356082,1173.97691 674.758199,1172.09879 660.129724,1171.7168 C658.419983,1171.67217 656.770179,1171.94711 655.217146,1172.47391 C652.777246,1170.28495 649.686165,1168.79288 646.203001,1168.32475 C637.778852,1167.19313 630.107964,1172.32442 627.602508,1180.46515 C626.296088,1184.7095 626.229596,1189.12113 627.170781,1193.34332 C627.169532,1202.10229 626.592023,1210.82755 625.516918,1219.53814 C622.974627,1237.42058 619.045689,1255.06522 615.194792,1272.70205 C611.443789,1289.88106 607.239831,1306.94865 602.909133,1323.99065 C598.624948,1340.85165 594.062934,1357.63493 589.122261,1374.31616 C586.62461,1382.74931 584.070769,1391.15718 581.640546,1399.60968 C579.215629,1408.04283 576.673963,1416.44258 573.991821,1424.7974 C568.251375,1442.67922 561.86006,1460.35351 554.640565,1477.69261 C551.754578,1484.47452 548.805533,1491.23303 545.707896,1497.92006 C543.954452,1501.70565 542.155119,1505.47001 540.307713,1509.21097 C539.383385,1511.08348 538.446883,1512.95005 537.498519,1514.81008 C535.734149,1518.27078 534.480797,1521.73492 533.560215,1525.46714 C532.447338,1529.97895 532.784167,1534.46298 534.587558,1538.73573 C536.240172,1542.65052 539.063101,1546.43922 542.927734,1548.48026 C544.778262,1549.45771 546.717758,1550.17893 548.723433,1550.64612 C552.975465,1553.3313 558.166808,1554.41517 562.971376,1552.61288 C612.282582,1534.11625 661.560699,1515.38431 711.443796,1498.47276 C726.475592,1493.37642 741.623201,1488.29007 756.886937,1483.49239 C775.835184,1479.34885 794.620792,1474.42197 813.240639,1469.03632 C818.487861,1467.51866 823.710108,1465.92858 828.909256,1464.27298 C839.149594,1462.1611 849.439255,1460.35475 859.779799,1458.94351 C868.90133,1457.69892 882.97602,1456.53671 894.083247,1456.28018 C906.758491,1455.98776 919.522079,1456.43653 932.103672,1458.0678 C931.206191,1457.95139 929.615386,1457.67395 933.697911,1458.30779 C935.176023,1458.53749 936.652263,1458.77592 938.126005,1459.0312 C941.079733,1459.54302 944.022847,1460.11788 946.953162,1460.75017 C952.937098,1462.04126 958.862347,1463.59856 964.712676,1465.40054 C969.975505,1467.02182 975.175277,1468.84096 980.307933,1470.8358 C981.589068,1471.33389 982.865833,1471.84134 984.137602,1472.36221 C984.343633,1472.44647 984.512516,1472.51513 984.652054,1472.57162 C984.809075,1472.64121 985.01292,1472.73109 985.281696,1472.84875 C988.115239,1474.08772 990.928491,1475.37289 993.717707,1476.70861 C1036.98629,1497.42822 1071.49546,1526.48017 1107.38003,1556.21746 C1118.86498,1565.73479 1130.41517,1575.17503 1141.9201,1584.66833 C1147.02966,1588.88491 1152.27875,1592.95824 1157.22973,1597.36268 C1159.36058,1599.25829 1161.42994,1601.22317 1163.38192,1603.30353 C1163.61792,1603.55507 1163.8483,1603.8116 1164.07681,1604.06969 C1160.22685,1611.84934 1156.28761,1619.58529 1152.35711,1627.32468 C1152.05774,1627.73694 1151.76961,1628.15763 1151.4924,1628.58675 C1149.46925,1628.44724 1147.44141,1628.65384 1145.54124,1629.2571 C1139.12995,1631.29314 1132.73707,1633.36694 1126.37947,1635.56371 C1126.38416,1635.57525 1126.38915,1635.5868 1126.39383,1635.59804 C1124.92602,1636.04713 1123.47226,1636.64664 1122.02505,1637.40095 C1118.25501,1639.36552 1114.59016,1644.15664 1113.64773,1648.29208 C1113.61651,1648.52583 1113.58498,1648.75958 1113.55345,1648.99333 C1110.06935,1652.95025 1108.01279,1658.17267 1108.43453,1663.95903 C1107.74433,1665.13871 1107.03228,1666.30528 1106.29463,1667.45688 C1104.89893,1669.63523 1103.43018,1671.77831 1101.86809,1673.84306 C1101.6655,1674.07994 1101.40109,1674.38952 1101.05677,1674.79211 C1099.84369,1676.21054 1098.63903,1677.63271 1097.38474,1679.01555 C1094.01459,1682.73186 1090.43684,1686.2606 1086.7208,1689.62986 C1084.84404,1691.33135 1082.93171,1692.9932 1080.99065,1694.62072 C1079.77164,1695.64279 1078.53951,1696.64833 1077.29896,1697.64357 C1076.79325,1698.04928 1075.37757,1699.14719 1075.18559,1699.30355 C1066.50171,1705.8801 1057.50006,1712.05282 1048.38009,1718.0592 C1041.36381,1719.5207 1034.3029,1720.76404 1027.2089,1721.78955 C1025.42642,1721.97462 1023.51034,1722.11193 1021.9751,1722.50953 C1019.96536,1723.0304 1018.10485,1724.00941 1016.23965,1724.90759 C1015.08993,1725.79578 1013.93991,1726.68366 1012.7902,1727.57185 C1011.12822,1729.11511 1009.95353,1730.94299 1009.26645,1733.05518 C1008.23006,1735.51004 1007.84172,1737.86534 1007.93256,1740.33424 C1007.92819,1740.30178 1007.92382,1740.26933 1007.91945,1740.23718 C1007.93912,1741.40594 1007.92288,1742.60309 1007.84859,1743.78465 C1007.8208,1743.96035 1007.79302,1744.13574 1007.76524,1744.31144 C1004.82306,1746.20642 1001.86496,1748.07612 998.863786,1749.87872 C996.022126,1751.5852 993.149874,1753.24237 990.217686,1754.79 C986.974267,1756.50209 984.761001,1757.59688 982.95043,1758.27286 C970.403799,1762.95819 963.028845,1763.46782 949.747684,1763.02965 C943.38821,1762.81993 937.047467,1762.21386 930.734194,1761.4349 C932.095244,1761.59001 925.431719,1760.66842 924.875749,1760.58135 C921.308612,1760.02272 917.750529,1759.4076 914.20181,1758.7413 C902.129986,1756.47525 890.153997,1753.61718 878.363435,1750.17427 C864.480728,1746.1206 850.855246,1741.18186 837.443288,1735.78249 C837.200109,1735.68449 836.082862,1735.212 835.610553,1735.01382 C834.583522,1734.5691 833.558365,1734.1197 832.535704,1733.66499 C829.104048,1729.23932 824.807065,1725.39818 819.992507,1722.36659 C797.508028,1703.35908 765.338868,1692.71981 737.603422,1703.13064 C721.158445,1709.30367 709.312005,1720.88263 698.109567,1733.97302 C697.040394,1735.22198 695.973406,1736.47687 694.89955,1737.72708 C692.31855,1738.09441 689.819026,1739.0085 687.580162,1740.57423 C581.636487,1814.68246 489.914846,1907.12939 418.092314,2014.70712 C409.401887,2027.72417 400.998966,2040.93783 392.937868,2054.35403 C382.827703,2071.18101 376.323072,2087.85538 374.526548,2107.50141 C372.954786,2124.69353 374.226556,2142.20022 374.139773,2159.4457 C374.05143,2177.05632 373.662157,2194.66507 372.97414,2212.26227 C371.58281,2247.84116 368.968408,2283.3723 365.145607,2318.77267 C364.200052,2327.5282 363.18145,2336.27593 362.087927,2345.01399 C360.857364,2354.84496 360.350092,2358.63679 358.857932,2368.95712 C356.337804,2386.38423 353.526113,2403.76921 350.420984,2421.10176 C336.371267,2499.51863 316.21899,2576.71742 290.497023,2652.10863 C288.386772,2658.29383 290.115243,2665.3691 294.050425,2670.72416 C291.227495,2674.99004 289.914831,2680.40346 290.537293,2685.03386 C291.916761,2695.29676 299.967245,2701.09561 309.852649,2702.0821 C330.862762,2704.17744 352.293676,2703.16909 373.408053,2702.67881 C394.59454,2702.18728 415.779466,2701.61148 436.965329,2701.09498 C479.337679,2700.06229 521.710966,2699.08422 564.08675,2698.21631 C648.44249,2696.48892 732.808843,2695.19783 817.181752,2694.77745 C901.273398,2694.35864 985.376283,2694.77777 1069.45138,2696.57631 C1153.80712,2698.38078 1238.13976,2701.62459 1322.35066,2706.92597 C1364.06309,2709.55154 1405.73837,2712.70921 1447.37119,2716.38744 C1467.35615,2718.1529 1488.488,2717.36582 1504.2562,2703.22028 C1512.75746,2695.59387 1517.30043,2684.37848 1517.71686,2673.04108 C1520.23387,2668.24122 1521.0249,2662.50073 1519.71223,2656.55022 L1519.71223,2656.55022 Z" id="Fill-3" fill="#333333" sketch:type="MSShapeGroup"></path>
                <path d="M1519.71223,2656.55022 C1498.109,2558.62214 1476.50577,2460.69375 1454.90254,2362.76536 C1443.99729,2313.33148 1433.86028,2263.71877 1422.51268,2214.38475 C1419.98568,2203.39969 1416.8072,2191.96616 1416.12823,2181.91766 C1415.34344,2170.30375 1416.46725,2160.69622 1418.44077,2149.98954 C1422.90882,2125.74775 1428.20474,2101.66637 1432.57758,2077.40117 C1450.14511,1979.91126 1461.71247,1881.13056 1463.30265,1782.01688 C1464.81698,1687.6166 1456.78335,1593.14299 1438.09264,1500.56311 C1420.07153,1411.29881 1391.40801,1322.19118 1348.1566,1241.79788 C1342.83883,1231.91354 1337.27319,1222.23985 1331.30955,1212.73157 C1326.47002,1205.01528 1316.34237,1201.98837 1308.2588,1206.68899 C1301.10455,1210.84908 1293.75457,1214.76356 1286.26005,1218.46581 C1285.80179,1216.88667 1285.34009,1215.30846 1284.87372,1213.7318 C1276.81387,1186.48807 1267.56279,1159.59668 1257.16387,1133.15719 C1251.36349,1118.40932 1245.30369,1103.74416 1238.67919,1089.34613 C1232.77142,1076.50666 1226.45503,1063.87972 1220.18608,1051.21533 C1209.95885,1030.55533 1199.00396,1010.25486 1187.34607,990.366331 C1187.34576,990.360714 1187.34545,990.354784 1187.34545,990.349167 C1187.24868,988.031003 1187.2081,985.710654 1187.22745,983.390305 C1187.2365,982.314238 1187.28832,981.237858 1187.29269,980.161791 C1187.29862,978.724953 1187.10477,977.281562 1186.8747,975.84254 C1186.86908,973.84676 1186.41269,971.97394 1185.49492,970.226891 C1184.85061,968.246402 1183.74897,966.532746 1182.19094,965.085922 C1179.55157,962.663521 1176.58254,961.171445 1173.01603,960.692395 C1171.76268,960.52387 1170.45501,960.477681 1169.15483,960.580357 C1157.27218,941.900848 1144.72898,923.663874 1131.40537,905.963062 C1129.25797,903.110297 1127.0831,900.278754 1124.91853,897.438785 C1123.69546,895.171178 1122.02474,893.351725 1119.90606,891.979802 C1118.0265,890.260216 1115.8201,889.099261 1113.2878,888.49725 C1108.62901,887.214583 1102.42562,887.793811 1098.29128,890.458702 C1094.13571,893.137011 1090.47773,897.125452 1089.34737,902.08666 C1088.25572,906.878094 1088.26165,912.942834 1091.30934,917.07889 C1108.3337,940.183134 1124.3329,964.180877 1139.38749,988.60992 C1145.55716,998.621904 1151.54266,1008.74718 1157.34679,1018.97512 C1158.76965,1026.5335 1160.67824,1034.00106 1162.9324,1041.35315 C1169.55846,1062.96438 1178.92942,1083.66776 1188.27352,1104.2101 C1192.96353,1114.52044 1197.6888,1124.81642 1202.13438,1135.23536 C1205.60318,1143.55709 1208.88281,1151.95966 1211.65923,1160.53918 C1214.68663,1169.89578 1217.44182,1179.33977 1219.98255,1188.83963 C1224.60106,1206.10602 1228.74633,1223.51846 1232.57788,1240.98022 C1218.39362,1246.07188 1204.08948,1250.66327 1189.93706,1254.90075 C1157.69423,1264.55477 1124.73935,1271.81792 1091.50289,1277.17516 C1088.76487,1275.34385 1085.48649,1274.27402 1081.86784,1274.31928 C1050.62832,1274.71063 1019.47401,1273.47197 988.480475,1269.44327 C947.964272,1263.77363 908.048055,1253.88772 869.622124,1239.83393 C859.606234,1236.17068 849.708656,1232.19878 839.875071,1228.07334 C795.336904,1209.13168 751.350649,1186.91875 703.675199,1176.96606 C689.356082,1173.97691 674.758199,1172.09879 660.129724,1171.7168 C658.419983,1171.67217 656.770179,1171.94711 655.217146,1172.47391 C652.777246,1170.28495 649.686165,1168.79288 646.203001,1168.32475 C637.778852,1167.19313 630.107964,1172.32442 627.602508,1180.46515 C626.296088,1184.7095 626.229596,1189.12113 627.170781,1193.34332 C627.169532,1202.10229 626.592023,1210.82755 625.516918,1219.53814 C622.974627,1237.42058 619.045689,1255.06522 615.194792,1272.70205 C611.443789,1289.88106 607.239831,1306.94865 602.909133,1323.99065 C598.624948,1340.85165 594.062934,1357.63493 589.122261,1374.31616 C586.62461,1382.74931 584.070769,1391.15718 581.640546,1399.60968 C579.215629,1408.04283 576.673963,1416.44258 573.991821,1424.7974 C568.251375,1442.67922 561.86006,1460.35351 554.640565,1477.69261 C551.754578,1484.47452 548.805533,1491.23303 545.707896,1497.92006 C543.954452,1501.70565 542.155119,1505.47001 540.307713,1509.21097 C539.383385,1511.08348 538.446883,1512.95005 537.498519,1514.81008 C535.734149,1518.27078 534.480797,1521.73492 533.560215,1525.46714 C532.447338,1529.97895 532.784167,1534.46298 534.587558,1538.73573 C536.240172,1542.65052 539.063101,1546.43922 542.927734,1548.48026 C544.778262,1549.45771 546.717758,1550.17893 548.723433,1550.64612 C552.975465,1553.3313 558.166808,1554.41517 562.971376,1552.61288 C612.282582,1534.11625 661.560699,1515.38431 711.443796,1498.47276 C726.475592,1493.37642 741.623201,1488.29007 756.886937,1483.49239 C775.835184,1479.34885 794.620792,1474.42197 813.240639,1469.03632 C818.487861,1467.51866 823.710108,1465.92858 828.909256,1464.27298 C839.149594,1462.1611 849.439255,1460.35475 859.779799,1458.94351 C868.90133,1457.69892 882.97602,1456.53671 894.083247,1456.28018 C906.758491,1455.98776 919.522079,1456.43653 932.103672,1458.0678 C931.206191,1457.95139 929.615386,1457.67395 933.697911,1458.30779 C935.176023,1458.53749 936.652263,1458.77592 938.126005,1459.0312 C941.079733,1459.54302 944.022847,1460.11788 946.953162,1460.75017 C952.937098,1462.04126 958.862347,1463.59856 964.712676,1465.40054 C969.975505,1467.02182 975.175277,1468.84096 980.307933,1470.8358 C981.589068,1471.33389 982.865833,1471.84134 984.137602,1472.36221 C984.343633,1472.44647 984.512516,1472.51513 984.652054,1472.57162 C984.809075,1472.64121 985.01292,1472.73109 985.281696,1472.84875 C988.115239,1474.08772 990.928491,1475.37289 993.717707,1476.70861 C1036.98629,1497.42822 1071.49546,1526.48017 1107.38003,1556.21746 C1118.86498,1565.73479 1130.41517,1575.17503 1141.9201,1584.66833 C1147.02966,1588.88491 1152.27875,1592.95824 1157.22973,1597.36268 C1159.36058,1599.25829 1161.42994,1601.22317 1163.38192,1603.30353 C1163.61792,1603.55507 1163.8483,1603.8116 1164.07681,1604.06969 C1160.22685,1611.84934 1156.28761,1619.58529 1152.35711,1627.32468 C1152.05774,1627.73694 1151.76961,1628.15763 1151.4924,1628.58675 C1149.46925,1628.44724 1147.44141,1628.65384 1145.54124,1629.2571 C1139.12995,1631.29314 1132.73707,1633.36694 1126.37947,1635.56371 C1126.38416,1635.57525 1126.38915,1635.5868 1126.39383,1635.59804 C1124.92602,1636.04713 1123.47226,1636.64664 1122.02505,1637.40095 C1118.25501,1639.36552 1114.59016,1644.15664 1113.64773,1648.29208 C1113.61651,1648.52583 1113.58498,1648.75958 1113.55345,1648.99333 C1110.06935,1652.95025 1108.01279,1658.17267 1108.43453,1663.95903 C1107.74433,1665.13871 1107.03228,1666.30528 1106.29463,1667.45688 C1104.89893,1669.63523 1103.43018,1671.77831 1101.86809,1673.84306 C1101.6655,1674.07994 1101.40109,1674.38952 1101.05677,1674.79211 C1099.84369,1676.21054 1098.63903,1677.63271 1097.38474,1679.01555 C1094.01459,1682.73186 1090.43684,1686.2606 1086.7208,1689.62986 C1084.84404,1691.33135 1082.93171,1692.9932 1080.99065,1694.62072 C1079.77164,1695.64279 1078.53951,1696.64833 1077.29896,1697.64357 C1076.79325,1698.04928 1075.37757,1699.14719 1075.18559,1699.30355 C1066.50171,1705.8801 1057.50006,1712.05282 1048.38009,1718.0592 C1041.36381,1719.5207 1034.3029,1720.76404 1027.2089,1721.78955 C1025.42642,1721.97462 1023.51034,1722.11193 1021.9751,1722.50953 C1019.96536,1723.0304 1018.10485,1724.00941 1016.23965,1724.90759 C1015.08993,1725.79578 1013.93991,1726.68366 1012.7902,1727.57185 C1011.12822,1729.11511 1009.95353,1730.94299 1009.26645,1733.05518 C1008.23006,1735.51004 1007.84172,1737.86534 1007.93256,1740.33424 C1007.92819,1740.30178 1007.92382,1740.26933 1007.91945,1740.23718 C1007.93912,1741.40594 1007.92288,1742.60309 1007.84859,1743.78465 C1007.8208,1743.96035 1007.79302,1744.13574 1007.76524,1744.31144 C1004.82306,1746.20642 1001.86496,1748.07612 998.863786,1749.87872 C996.022126,1751.5852 993.149874,1753.24237 990.217686,1754.79 C986.974267,1756.50209 984.761001,1757.59688 982.95043,1758.27286 C970.403799,1762.95819 963.028845,1763.46782 949.747684,1763.02965 C943.38821,1762.81993 937.047467,1762.21386 930.734194,1761.4349 C932.095244,1761.59001 925.431719,1760.66842 924.875749,1760.58135 C921.308612,1760.02272 917.750529,1759.4076 914.20181,1758.7413 C902.129986,1756.47525 890.153997,1753.61718 878.363435,1750.17427 C864.480728,1746.1206 850.855246,1741.18186 837.443288,1735.78249 C837.200109,1735.68449 836.082862,1735.212 835.610553,1735.01382 C834.583522,1734.5691 833.558365,1734.1197 832.535704,1733.66499 C829.104048,1729.23932 824.807065,1725.39818 819.992507,1722.36659 C797.508028,1703.35908 765.338868,1692.71981 737.603422,1703.13064 C721.158445,1709.30367 709.312005,1720.88263 698.109567,1733.97302 C697.040394,1735.22198 695.973406,1736.47687 694.89955,1737.72708 C692.31855,1738.09441 689.819026,1739.0085 687.580162,1740.57423 C581.636487,1814.68246 489.914846,1907.12939 418.092314,2014.70712 C409.401887,2027.72417 400.998966,2040.93783 392.937868,2054.35403 C382.827703,2071.18101 376.323072,2087.85538 374.526548,2107.50141 C372.954786,2124.69353 374.226556,2142.20022 374.139773,2159.4457 C374.05143,2177.05632 373.662157,2194.66507 372.97414,2212.26227 C371.58281,2247.84116 368.968408,2283.3723 365.145607,2318.77267 C364.200052,2327.5282 363.18145,2336.27593 362.087927,2345.01399 C360.857364,2354.84496 360.350092,2358.63679 358.857932,2368.95712 C356.337804,2386.38423 353.526113,2403.76921 350.420984,2421.10176 C336.371267,2499.51863 316.21899,2576.71742 290.497023,2652.10863 C288.386772,2658.29383 290.115243,2665.3691 294.050425,2670.72416 C291.227495,2674.99004 289.914831,2680.40346 290.537293,2685.03386 C291.916761,2695.29676 299.967245,2701.09561 309.852649,2702.0821 C330.862762,2704.17744 352.293676,2703.16909 373.408053,2702.67881 C394.59454,2702.18728 415.779466,2701.61148 436.965329,2701.09498 C479.337679,2700.06229 521.710966,2699.08422 564.08675,2698.21631 C648.44249,2696.48892 732.808843,2695.19783 817.181752,2694.77745 C901.273398,2694.35864 985.376283,2694.77777 1069.45138,2696.57631 C1153.80712,2698.38078 1238.13976,2701.62459 1322.35066,2706.92597 C1364.06309,2709.55154 1405.73837,2712.70921 1447.37119,2716.38744 C1467.35615,2718.1529 1488.488,2717.36582 1504.2562,2703.22028 C1512.75746,2695.59387 1517.30043,2684.37848 1517.71686,2673.04108 C1520.23387,2668.24122 1521.0249,2662.50073 1519.71223,2656.55022 L1519.71223,2656.55022 Z" id="Stroke-4" stroke="#999999" stroke-width="5" sketch:type="MSShapeGroup"></path>
                <path d="M456.035946,256.785984 C456.678386,255.244286 457.330504,253.708206 457.991362,252.176495 C458.677194,250.53181 459.367084,248.887748 460.062905,247.245559 C458.720585,250.426013 457.378578,253.605842 456.035946,256.785984" id="Fill-5" fill="#CCCCCC" sketch:type="MSShapeGroup"></path>
                <path d="M1124.99501,218.909529 C1122.00726,203.806509 1117.06128,189.833859 1110.9865,175.699862 C1100.41527,151.103229 1082.16471,130.854247 1065.35762,110.365896 C1048.62202,89.9646159 1029.40281,71.3724904 1006.6124,57.774654 C994.185021,50.3595249 980.631651,44.7017439 967.030831,39.826671 C956.353146,35.9998902 945.377965,33.0510032 934.305077,30.6167436 C908.684876,24.9833052 882.523065,21.4302225 856.487058,18.0157054 C846.601342,16.2118566 836.336654,15.3561207 826.33169,14.2766202 C819.932259,13.5866013 813.523775,12.9792847 807.10655,12.4808857 C794.350455,11.4900172 781.555339,10.9288892 768.758662,11.0253233 C751.850741,11.1526538 735.340833,13.0619871 718.602418,15.4828271 C706.209062,17.2754408 693.908419,19.900384 681.930557,23.5667534 C668.628793,27.6378965 655.63545,33.0925104 643.137518,39.158498 C634.144288,43.5236247 625.488823,48.588445 617.296615,54.3180054 C613.43885,57.0162885 609.606684,59.7947774 605.840072,62.6687641 C604.435007,63.4261933 603.047423,64.2154552 601.676384,65.0337409 C595.335328,65.4335212 589.022055,67.4711213 583.560375,70.2514826 C580.305094,71.9080275 577.226187,73.4153959 574.27839,75.6146558 C570.654752,78.3185564 566.514476,81.2468458 563.195824,84.5511971 C560.768723,86.9679799 558.771788,89.75115 556.681828,92.4550507 C552.36986,98.0348105 549.667739,102.864319 546.927846,109.354742 C546.583213,110.170843 546.235147,110.980078 545.893011,111.789001 C543.267996,115.094601 540.667642,118.418926 538.083208,121.756358 C524.521409,137.867099 513.232188,155.960513 501.539647,173.422893 C491.430731,188.519671 482.005774,204.080832 473.458319,220.115112 C467.863656,230.610516 462.696037,241.272573 457.991362,252.176495 C444.91311,283.546923 433.827423,315.44415 428.534625,349.179242 C423.410086,381.844509 421.464034,414.605585 425.463835,447.5071 C427.67835,465.721915 430.4941,483.77195 435.367032,501.480252 C440.178468,518.965101 446.855104,535.869474 454.39738,552.348163 C460.383813,565.428563 467.467203,578.011188 475.659099,589.839817 C486.018685,604.798966 497.540159,619.329623 510.668982,631.981219 C541.176787,661.379897 577.70911,684.476651 618.367973,696.909475 C633.446594,701.520525 650.711947,696.443845 661.699614,685.459093 C667.219357,679.903364 671.037164,673.354581 673.153035,665.81181 C675.274212,657.920751 675.274212,650.029693 673.153035,642.138947 C669.446671,623.623595 666.294717,605.00463 663.686559,586.304211 C660.302353,560.205828 657.610845,533.648992 660.210575,507.4161 C661.636556,499.206716 663.72121,491.162736 666.587843,483.336904 C672.044216,471.945506 679.045506,461.408907 686.62649,451.305169 C700.177364,434.054695 714.27172,417.165927 728.557436,400.534005 C743.974134,382.585397 759.976145,365.098363 777.199668,348.858419 C785.635054,340.904632 794.364815,333.269171 803.423288,326.035051 C820.975522,312.938423 839.714617,301.561692 859.703631,292.593006 C879.736972,284.646709 900.617223,279.028563 921.912344,275.715161 C944.319406,273.173856 966.95154,273.165742 989.35985,275.702678 C1010.54759,278.996418 1031.32326,284.580235 1051.2539,292.490954 C1057.07863,295.095612 1062.81283,297.892826 1068.44808,300.891959 C1081.87377,308.036198 1097.52772,308.720912 1110.90971,300.891959 C1117.23079,297.153186 1122.26074,292.124255 1126.0005,285.805167 C1129.80551,279.246086 1131.72003,272.170817 1131.74345,264.579984 C1129.77898,249.332469 1127.98058,234.002563 1124.99501,218.909529" id="Fill-6" fill="#CCCCCC" sketch:type="MSShapeGroup"></path>
                <path d="M623.873045,349.742555 C614.61697,389.887864 614.446839,431.670681 618.466618,472.672038 C621.560197,504.222851 627.304389,536.130376 642.113921,564.16306 C646.747421,572.933572 652.24781,581.284643 655.931697,590.49457 C660.02983,600.741243 661.759862,611.745968 664.158244,622.517567 C666.074327,631.124235 668.433376,639.632284 671.221031,647.997711 C673.618476,655.192508 680.812685,666.294604 680.292927,673.604873 C671.717377,675.111617 663.839209,673.836128 655.123496,677.602364 C628.131632,689.265588 610.983966,717.297648 605.090871,746.098371 C602.46804,758.915684 601.750055,772.318155 604.869232,785.023742 C609.593885,804.270933 623.065156,820.772404 639.912204,831.21725 C656.759565,841.662096 676.744832,846.372076 696.561841,846.882335 C704.139392,847.077699 711.792799,846.673862 719.126235,844.756415 C740.166004,839.255612 756.146476,822.022615 767.7257,803.618988 C764.106119,814.502625 762.209391,825.153447 758.58981,836.037084 C756.403702,842.610521 753.943511,849.581554 748.457169,853.812484 C745.427585,856.148749 741.735269,857.425487 738.115064,858.663839 C681.040567,878.1866 623.597713,897.736826 564.010893,907.129947 C540.386691,910.85374 515.280943,911.957895 492.455264,919.399863 C473.353743,925.627511 454.030895,931.633578 435.514063,939.751833 C373.791394,966.812061 316.717522,1008.11583 277.530215,1062.9416 C237.703902,1118.66149 211.411293,1184.10749 202.385286,1252.0355 C199.282342,1275.38785 198.132006,1299.10004 192.333809,1321.93339 C187.878244,1339.48066 180.74678,1356.219 173.467037,1372.79569 C117.018436,1501.33021 49.3071483,1626.89525 21.2342489,1764.43903 C11.2623744,1813.29586 6.44969003,1863.03715 1.65261406,1912.66952 C-0.0867825289,1930.66619 -1.63076234,1949.78636 6.51961553,1965.92675 C21.654114,1995.89654 61.4251734,2001.58459 95.0034566,2002.04117 C265.725918,2004.36152 444.27348,1965.45831 573.532935,1853.93739 C609.541129,1822.87062 641.011346,1786.96404 677.043889,1755.92598 C695.139607,1740.33861 714.343831,1726.39217 735.195987,1714.71397 C755.0208,1703.61125 783.088705,1713.46438 805.894092,1711.68956 C808.526912,1711.48452 811.278979,1711.25108 813.71607,1712.26785 C816.393217,1713.3848 818.244994,1715.81937 820.036835,1718.1004 C844.392133,1749.1138 881.508834,1769.78909 920.704256,1774.17544 C958.645391,1778.42135 1001.43011,1764.75735 1019.7278,1731.25851 C1021.33828,1728.30962 1022.91004,1725.06644 1025.84628,1723.43174 C1029.68626,1721.29365 1034.41185,1722.62687 1038.78,1723.11341 C1059.90437,1725.46497 1076.98648,1707.10504 1090.20396,1690.46406 C1102.42906,1675.07236 1114.93573,1659.14575 1120.33435,1640.24747 C1131.09476,1643.26065 1143.00488,1638.69485 1150.82187,1630.71173 C1158.63885,1622.72829 1162.8528,1611.83467 1165.03641,1600.87832 C1166.62097,1592.92765 1167.19036,1584.42834 1164.10646,1576.93051 C1160.30582,1567.68875 1151.67533,1561.49169 1143.46158,1555.79833 C1102.8074,1527.61959 1062.15322,1499.44085 1021.49935,1471.2618 C1013.51536,1465.72791 1005.30723,1460.08948 995.891016,1457.69985 C989.361099,1456.04268 982.541803,1456.02864 975.804607,1456.03051 C933.895201,1456.04237 891.985795,1456.28923 850.078886,1456.77109 C836.840492,1456.92307 823.497835,1457.11001 810.555688,1459.89911 C796.359252,1462.95816 784.224994,1470.09367 770.670063,1474.68755 C759.467625,1478.48406 748.079447,1479.97301 736.744962,1484.14402 C706.92174,1495.11848 677.078539,1506.04081 647.132948,1516.67884 C587.271733,1537.94459 526.9816,1558.10494 465.810219,1575.29581 C412.217637,1590.35732 357.763473,1603.20616 306.394147,1624.65635 C255.025133,1646.10624 206.176559,1677.02071 172.946654,1721.67345 C232.729203,1669.09688 308.359553,1637.95459 384.702268,1615.34375 C461.044671,1592.73322 539.584421,1577.70916 615.050571,1552.32763 C648.678176,1541.01769 681.583427,1527.68731 714.746215,1515.07941 C809.808047,1478.93845 917.889755,1449.07571 1010.74019,1490.56641 C1053.08539,1509.48841 1087.98382,1541.71083 1128.20378,1564.80602 C1141.30544,1572.32945 1157.19289,1583.04518 1154.57287,1597.92163 C1150.84278,1619.10156 1118.09143,1616.00443 1101.95925,1630.23112 C1097.55331,1634.11688 1094.51593,1639.29593 1091.78696,1644.49775 C1080.897,1665.25918 1071.46143,1690.15354 1049.58568,1698.59543 C1038.30738,1702.94776 1025.15515,1702.0683 1014.83677,1708.36555 C1008.77729,1712.06344 1004.36449,1717.85728 999.511845,1723.03758 C968.180855,1756.48368 912.547635,1763.74339 873.679364,1739.45759 C880.098774,1742.19582 888.251337,1740.03339 892.468093,1734.47329 C883.875374,1732.84515 874.927097,1733.11947 866.44988,1735.27098 C864.173555,1729.79702 861.896919,1724.32305 859.620282,1718.84909 C855.383546,1723.24386 851.146811,1727.63833 846.910075,1732.03279 C837.032163,1715.29164 820.065867,1702.89033 801.112937,1698.55766 C789.443496,1695.88996 777.26054,1696.17178 765.569248,1693.60082 C753.878268,1691.02956 741.950353,1684.65742 737.534433,1673.53379 C733.118513,1662.41047 740.53998,1646.92421 752.509726,1647.07432 C729.329114,1646.51132 713.050834,1678.32241 727.071519,1696.78565 C624.881033,1754.95602 532.340889,1829.54111 427.300003,1882.39419 C302.397468,1945.24147 159.213787,1975.72495 20.8524682,1955.51561 C-0.887491833,1905.45069 12.8238356,1847.87671 26.8214204,1795.12224 C47.0114694,1719.02573 71.7529187,1646.39991 104.238616,1575.16942 C134.343101,1509.16135 183.993945,1452.41813 203.583696,1381.61582 C213.860871,1344.47152 215.053974,1305.50183 221.051958,1267.43219 C236.397482,1170.02998 284.413506,1078.06303 355.569873,1009.78423 C376.492266,989.708145 399.6298,971.45744 426.080677,959.571076 C453.286376,947.345787 483.044979,942.240396 512.312231,936.486805 C553.424361,928.404439 594.243679,918.833742 634.664359,907.802801 C654.874698,902.287331 674.985145,896.407033 694.983211,890.165342 C704.571744,887.172451 739.924386,881.708787 743.530232,871.353821 C728.842757,971.472732 702.870119,1069.93229 666.261003,1164.2714 C650.462837,1163.92748 634.664671,1163.58356 618.866817,1163.23933 C621.870803,1202.5442 607.094361,1240.74147 593.575329,1277.77187 C562.151,1363.84697 536.225188,1451.92785 516.00798,1541.30013 C497.158378,1466.55244 478.309088,1391.80507 459.459798,1317.0577 C453.231747,1320.56178 454.341814,1329.71553 456.305659,1336.58514 C463.965309,1363.37729 471.625272,1390.16975 479.285235,1416.96158 C464.186948,1404.5506 449.088973,1392.13931 433.990686,1379.72833 C467.595504,1434.3035 489.476876,1496.05442 497.731517,1559.60763 C498.095504,1555.72873 498.459179,1551.85015 498.823167,1547.97125 C497.700613,1552.68653 495.641869,1556.50052 494.519627,1561.2158 C504.647585,1551.32709 521.756855,1554.62208 534.348438,1548.15319 C546.273231,1542.02635 552.015862,1528.43194 556.541977,1515.81499 C588.476075,1426.79474 605.862548,1333.46991 620.475727,1240.28895 C622.278182,1228.79488 622.587852,1181.6208 631.79835,1175.34884 C642.774467,1167.87504 682.899524,1180.81968 694.97447,1183.87187 C739.269147,1195.0679 780.663477,1215.11621 822.471116,1233.06107 C920.363682,1275.07889 1028.7997,1306.64718 1132.68026,1283.02706 C1197.95976,1268.18401 1257.69143,1232.23998 1324.04011,1223.31561 C1323.0368,1218.49952 1322.03381,1213.68374 1321.0305,1208.86765 C1254.28568,1204.59147 1194.33706,1248.23494 1128.69857,1261.06661 C1105.94812,1265.51412 1082.6083,1266.21101 1059.44299,1265.35839 C944.792964,1261.13932 835.202862,1219.72445 728.019571,1178.8189 C724.765227,1177.57712 721.28737,1176.15745 719.429662,1173.21168 C717.039396,1169.42173 718.137601,1164.49953 719.313224,1160.17622 C727.646844,1129.53077 735.980776,1098.88531 744.314396,1068.23986 C750.961688,1043.79552 757.612726,1019.33683 762.944857,994.572295 C769.565302,963.825724 774.13356,932.639114 776.628089,901.287724 C778.961852,871.951775 782.044505,840.026149 776.659618,810.958905 C800.115874,837.016405 826.747809,860.213651 855.778438,879.874354 C807.027572,845.173359 774.101406,793.044627 742.433275,742.278456 C761.377152,763.984249 787.159055,779.635602 815.160156,786.429995 C773.508601,769.652953 740.696688,735.455351 717.835423,696.815226 C689.423822,648.793526 674.727919,591.854947 681.572188,536.48272 C693.086482,443.330784 764.048681,365.745315 847.494765,322.731012 C896.454783,297.493358 952.387996,281.882264 1006.75538,290.742032 C1052.78383,298.242985 1097.8711,325.77134 1118.72981,368.145245 C1135.82004,402.864028 1149.07154,439.824514 1155.31864,478.098253 C1161.76583,517.598795 1162.14761,557.771568 1162.44917,597.694361 C1162.71107,632.355409 1162.97298,667.025506 1162.00714,701.674382 C1160.89832,741.448935 1157.98111,782.030851 1142.70676,818.774127 C1124.8767,861.665468 1090.10844,897.248413 1047.63463,916.073042 C1005.16114,934.897982 955.440368,936.761751 911.675752,921.170007 C941.350382,941.484527 979.971417,941.403073 1015.92685,940.57324 C1017.66001,952.19995 1018.01026,964.0317 1016.967,975.740177 C1048.44595,1003.73572 1086.31279,1024.50932 1126.84148,1036.01744 C1106.34395,1023.10431 1085.84673,1010.19119 1065.34919,997.277756 C1062.34302,995.383715 1059.22384,993.376075 1057.42108,990.314838 C1055.31114,986.731483 1055.3564,982.325473 1055.46254,978.168819 C1055.86773,962.32647 1056.27293,946.484434 1056.67781,930.642397 C1096.8475,902.921798 1135.2444,869.284076 1154.80949,824.578587 C1170.28051,789.228457 1172.77379,749.773791 1175.05074,711.255066 C1176.70054,683.347217 1178.35097,655.393803 1177.48377,627.450376 C1176.63936,600.246901 1173.4128,573.180119 1170.18936,546.154845 C1156.95752,435.220331 1140.68236,314.639596 1069.48978,223.705957 C1068.13591,221.976697 1066.76175,220.263352 1065.36605,218.567797 C1027.24292,172.242277 968.847333,138.668532 909.147196,144.70612 C927.234798,143.195631 944.933127,150.27839 960.942318,158.829195 C1006.35424,183.084719 1044.6091,220.546413 1069.80476,265.435408 C1041.62447,246.584252 1009.60827,233.490744 976.2919,227.192254 C1006.8047,236.316358 1034.98717,253.119615 1057.51941,275.621536 C1033.446,266.000281 1008.22319,259.257694 982.559284,255.582274 C1002.22833,261.193866 1020.42487,271.882138 1034.90226,286.327596 C974.163543,266.304875 906.675455,267.416208 846.629437,289.428469 C786.583731,311.440729 734.374363,354.208485 700.98057,408.73902 C695.293193,374.012435 718.033337,341.181763 742.756681,316.135105 C731.894817,311.796193 719.924447,318.578103 710.806351,325.901791 C689.311754,343.166933 671.621541,365.140495 659.345872,389.823263 C655.546795,372.034755 659.803821,353.21668 668.160854,337.059126 C676.517574,320.901884 688.743922,307.081532 701.580244,294.190567 C681.041504,292.91851 663.997478,308.952791 649.770762,323.81769 C648.936339,300.731547 659.276883,278.357581 673.813893,260.400547 C688.351215,242.443514 706.914872,228.252405 725.288419,214.243553 C714.611983,222.383967 700.63344,226.688237 689.691662,235.210018 C678.757687,243.725245 667.452546,254.012177 659.879678,265.731576 C643.315141,291.366202 630.753526,319.900405 623.873045,349.742555" id="Fill-7" fill="#000000" sketch:type="MSShapeGroup"></path>
                <path d="M992.919807,532.0842 C986.130167,544.015505 983.462384,558.046515 984.647684,571.672438 C985.241114,578.494607 986.79321,585.245932 989.292734,591.624316 C991.137956,596.333048 997.767766,603.619911 997.690349,608.560833 C997.48026,621.973604 983.49485,603.412686 981.25661,598.873417 C977.023308,590.288907 974.970808,580.355879 972.960762,571.292319 C970.623565,560.755096 968.984062,549.657057 971.910631,539.268075 C973.958449,531.999001 978.125571,525.523246 982.531814,519.389849 C1010.1733,480.913879 1051.91164,450.409486 1099.05172,445.609626 C1111.22593,444.369714 1124.79991,445.325629 1133.64704,453.778127 C1100.98435,458.049004 1070.64074,472.785013 1042.13018,489.280867 C1023.08048,500.302757 1003.80383,512.95841 992.919807,532.0842" id="Fill-8" fill="#000000" sketch:type="MSShapeGroup"></path>
                <path d="M883.10557,532.212155 C875.083493,538.803693 863.744325,539.271507 853.389421,538.496914 C823.775039,536.282049 793.962743,526.509121 764.948035,532.838821 C756.241999,534.737543 747.642412,538.208547 741.208955,544.372218 C733.219968,552.025779 729.362828,562.993991 726.844573,573.765902 C723.604588,587.623392 722.130846,601.893147 722.470484,616.120458 C726.599834,600.916946 730.884956,585.373263 739.914709,572.462012 C749.376502,558.932523 763.891348,549.024462 779.940497,545.139633 C795.330036,541.414592 811.432566,543.117013 827.227923,544.225538 C850.212806,545.838391 877.504975,546.645754 894.304886,528.441861 C895.80766,526.813404 897.227709,525.052623 898.047149,522.994113 C899.246184,519.980937 899.057947,516.620098 898.850667,513.384093 C898.611235,509.641263 899.97447,502.62529 895.155854,502.541027 C892.853308,513.22493 892.317941,524.668759 883.10557,532.212155" id="Fill-9" fill="#000000" sketch:type="MSShapeGroup"></path>
                <path d="M819.510209,577.183228 C825.557827,574.997075 831.662572,572.805618 837.989268,571.568514 C840.37173,571.102572 852.964561,571.713634 853.993777,569.128637 C856.963738,561.66888 830.628674,567.004902 827.99523,567.532637 C819.753699,569.184812 811.638284,571.612206 804.05449,575.272022 C791.223162,581.464404 779.849344,591.500731 774.198178,604.577074 C784.78034,590.107585 802.649737,583.278863 819.510209,577.183228" id="Fill-10" fill="#000000" sketch:type="MSShapeGroup"></path>
                <path d="M1027.48516,528.85943 C1033.14382,525.198991 1038.28522,518.037898 1043.51059,513.566975 C1048.46312,509.328867 1053.96913,506.099728 1060.01394,503.643934 C1072.31552,498.646524 1085.76026,496.748426 1098.93653,495.927331 C1100.9266,495.803434 1103.00438,495.739769 1104.82244,496.558366 C1106.64019,497.376652 1108.09708,499.34653 1107.66754,501.292689 C1079.57934,505.922776 1051.38626,513.399385 1027.48516,528.85943" id="Fill-11" fill="#000000" sketch:type="MSShapeGroup"></path>
                <path d="M1113.96302,528.57044 C1117.13214,524.054889 1117.34473,520.281474 1119.26299,515.32245 C1120.57035,511.941951 1122.70745,508.377633 1126.78716,508.349857 C1130.39894,508.325203 1134.71934,510.103772 1137.94621,511.577124 C1138.94452,512.033079 1146.36412,517.175921 1146.63383,517.047966 C1133.30241,523.366742 1126.77561,538.308415 1116.65515,549.041315 C1103.78542,562.690021 1084.8197,569.399527 1066.09621,570.603549 C1047.37272,571.807571 1028.69419,567.997019 1010.53572,563.276116 C1040.5784,568.360285 1072.73226,561.973475 1097.57891,544.341321 C1103.79167,539.932503 1109.58705,534.805577 1113.96302,528.57044" id="Fill-12" fill="#000000" sketch:type="MSShapeGroup"></path>
                <path d="M799.679464,639.216588 C790.007895,640.85035 779.39077,639.504642 771.715199,633.399331 C770.274235,632.253357 768.820471,630.895165 766.988985,630.704793 C765.808992,630.582144 764.641799,630.972562 763.525176,631.37359 C751.085618,635.841705 739.377781,642.338681 729.005084,650.529341 C755.129435,650.466924 781.468244,659.308591 806.9898,653.730704 C814.550493,652.078216 821.794649,649.19081 828.748802,645.794706 C852.266243,634.309682 872.455043,617.130675 892.176529,599.927638 C893.940275,598.389061 895.842311,596.565239 895.897564,594.225853 C895.869469,595.412087 874.845309,604.343947 872.35234,605.711813 C864.201962,610.183361 856.223589,614.957319 848.165612,619.59115 C841.004805,623.708482 834.408709,627.421352 826.544276,629.663055 C817.315048,632.293928 809.359774,637.581264 799.679464,639.216588" id="Fill-13" fill="#000000" sketch:type="MSShapeGroup"></path>
                <path d="M856.333784,775.177786 C871.870978,769.460709 885.140589,753.28443 889.85494,737.862772 C892.561119,729.010805 896.027114,720.62915 897.854541,711.503798 C898.807901,706.742948 899.474378,701.92405 899.845545,697.082994 C900.109951,693.635708 901.538116,686.685273 900.107765,683.497954 C904.007985,692.190445 903.534115,702.107244 904.602976,711.573705 C905.671837,721.040166 909.165926,731.348631 917.661873,735.662888 C922.023788,737.877752 927.076841,738.163309 931.962885,738.406423 C940.7351,738.842717 949.507315,739.279011 958.279531,739.715306 C971.973064,740.396586 986.184172,740.99454 998.872215,735.800517 C1007.94442,732.086399 1015.60844,725.643413 1022.76738,718.947327 C1030.29904,711.902954 1037.59595,704.266869 1041.92197,694.906517 C1046.24798,685.546165 1047.19728,674.100775 1042.12425,665.123039 C1038.99353,659.582602 1033.91644,655.454347 1028.95828,651.464034 C1027.21982,650.065271 1025.48167,648.666196 1023.74321,647.267433 C1026.85396,645.714812 1030.46761,647.844165 1033.26744,649.904547 C1041.8586,656.226132 1050.80282,663.40158 1053.88079,673.612051 C1056.31101,681.674756 1054.60221,690.556682 1050.81125,698.076048 C1047.02029,705.595725 1041.29763,711.953824 1035.38518,717.951153 C1020.62029,732.927779 1002.80271,746.899804 981.85004,748.743288 C970.671326,749.726666 959.526639,747.150408 948.353545,746.105549 C939.151787,745.245132 929.889157,745.424268 920.649627,745.229216 C912.478334,745.056633 902.877002,743.737764 898.979905,736.555762 C892.89826,755.708079 875.997206,771.014578 856.333784,775.177786" id="Fill-14" fill="#000000" sketch:type="MSShapeGroup"></path>
                <path d="M874.314937,836.661253 C889.921432,835.080545 904.240549,829.663693 918.495984,823.124585 C928.392627,818.584691 938.449723,814.391835 948.971012,811.514104 C965.764992,806.920531 983.926265,805.717445 1000.44928,811.206076 C1008.88717,800.375806 1021.07356,792.92229 1033.95951,788.179541 C1046.84578,783.437104 1060.50623,781.219119 1074.10486,779.312282 C1087.41287,777.446329 1100.81983,775.849704 1114.25271,776.235753 C1109.25241,779.5529 1103.82725,782.229649 1098.15236,784.180489 C1096.82378,797.253088 1095.3772,810.720785 1089.09857,822.264792 C1085.44559,828.98054 1080.30576,834.749111 1075.21306,840.45152 C1061.70339,855.577947 1047.27252,871.323549 1027.99899,877.643261 C1043.80621,867.792624 1060.12195,857.057227 1069.08802,840.734581 C1077.71383,825.030798 1078.34285,806.217716 1077.08669,788.345882 C1072.4819,789.195064 1067.87744,790.043934 1063.27266,790.893116 C1061.98902,791.129676 1060.6542,791.388082 1059.61093,792.172351 C1058.32168,793.141373 1057.70109,794.735813 1057.09767,796.231011 C1049.59192,814.821264 1035.17853,830.530976 1017.29914,839.60858 C1011.91675,842.341504 1006.19067,844.503314 1000.21828,845.380896 C990.596033,846.794951 980.833623,844.835372 971.305963,842.884531 C953.570798,839.252803 935.832511,835.620451 918.20442,831.500623 C933.554938,862.357984 969.466673,881.608296 1003.67023,877.314636 C986.299986,883.622177 966.614399,882.145393 949.531664,875.096339 C932.449242,868.047285 917.864782,855.730868 906.37952,841.256698 C905.077158,839.615446 903.732653,837.881504 901.821564,837.022647 C900.145538,836.269275 898.239756,836.284567 896.402651,836.313591 C889.039871,836.429374 881.677404,836.54547 874.314937,836.661253" id="Fill-15" fill="#000000" sketch:type="MSShapeGroup"></path>
                <path d="M1167.86621,320.651905 C1172.13822,339.196281 1174.5238,358.432549 1171.87849,377.277463 C1169.23319,396.122689 1161.19488,414.640851 1147.1283,427.461597 C1132.47267,399.667034 1123.84592,369.166698 1115.32095,338.924768 C1112.83172,330.094647 1110.32283,321.129706 1110.30535,311.95598 C1110.28225,299.792797 1114.61919,288.116153 1117.79581,276.37522 C1122.66499,258.378552 1122.61879,240.714566 1123.88557,222.233542 C1129.20521,237.553773 1142.80884,251.968647 1149.76331,267.26079 C1157.55563,284.396105 1163.6404,302.30851 1167.86621,320.651905" id="Fill-16" fill="#000000" sketch:type="MSShapeGroup"></path>
                <path d="M401.899256,438.340552 C392.257655,328.413135 446.28134,231.93906 506.432871,144.741074 C534.286316,104.363573 559.134527,76.5821179 603.110481,50.9590393 C643.191835,27.6054397 688.724567,12.042719 733.406332,5.14721064 C801.436654,-5.35100185 871.315008,1.27392917 938.243068,17.3640728 C957.261865,21.9361116 976.319683,27.3567083 993.31345,37.0413163 C1010.37777,46.7664954 1024.80084,60.4720009 1038.46565,74.578535 C1060.09385,96.9066248 1080.30388,120.607263 1098.93372,145.490701 C1115.47578,167.585975 1131.1188,191.42393 1136.43345,218.506316 C1142.86597,251.28487 1132.57131,286.901208 1109.64168,311.196991 C1112.46212,278.614427 1115.26881,245.617726 1109.87987,213.360354 C1104.49092,181.10267 1089.92301,149.132103 1063.87795,129.343446 C1065.71349,146.113934 1066.06125,163.046393 1064.91622,179.87805 C1059.90343,184.350534 1051.3744,181.574542 1047.45576,176.118679 C1043.53681,170.662817 1042.89156,163.603152 1042.11301,156.931409 C1038.52215,126.15675 1028.4379,94.6206054 1005.78485,73.4768765 C992.610761,61.1798087 976.038732,53.1817056 959.323106,46.4419274 C853.972238,3.96565849 731.395037,6.24044285 627.693661,52.596547 C605.176092,62.6622103 583.290974,74.8778241 565.384742,91.8374353 C550.972599,105.488014 539.480469,121.875574 528.298322,138.27593 C507.808592,168.326864 487.931335,198.961397 472.406939,231.851988 C440.678872,299.072506 427.97366,375.142805 436.136213,449.021958 C444.784185,434.162676 453.432158,419.303706 462.080443,404.444112 C448.997508,438.231635 444.724874,475.385302 449.796969,511.259422 C464.402968,432.946483 503.739491,359.431844 560.793696,303.82056 C580.158687,284.945374 602.668764,267.536985 629.246694,262.531773 C586.294649,307.418271 542.77883,353.076554 513.777232,408.013111 C484.775635,462.949668 471.681462,529.364071 492.828617,587.774129 C486.75821,531.404792 499.760293,473.152649 529.225147,424.711195 C521.760288,455.798562 514.252351,487.231719 514.18742,519.202286 C514.122802,551.173164 522.20263,584.218862 542.771962,608.698775 C530.471319,560.624957 537.354297,507.923238 561.589411,464.618384 C541.057851,520.344515 544.823838,584.549672 571.729856,637.494817 C565.464032,607.357123 567.196561,575.594717 576.702994,546.316816 C578.607215,560.242029 583.280049,573.783691 590.36937,585.920659 C596.687325,567.237717 601.471602,548.037026 604.658831,528.574497 C602.949402,556.712353 614.495537,585.373887 635.233752,604.474086 C636.138725,586.669662 637.04401,568.86555 637.949296,551.061126 C645.570238,594.286086 657.403566,636.76766 673.22733,677.709097 C648.194317,639.073653 673.103712,586.835379 662.036442,542.152048 C676.417681,593.920635 690.798607,645.689221 705.179534,697.457808 C707.274801,704.999956 709.374439,713.010854 707.222045,720.536773 C703.959584,731.944712 692.078806,738.531569 680.751188,742.07248 C644.202945,753.497272 604.149062,745.762256 568.677796,731.338644 C540.653906,719.9435 513.79565,704.01408 494.384459,680.815587 C478.483902,661.812446 468.26042,638.821489 458.240472,616.162277 C432.972084,559.020843 407.358127,500.577703 401.899256,438.340552" id="Fill-17" fill="#000000" sketch:type="MSShapeGroup"></path>
                <path d="M1086.8697,904.236611 C1093.6069,914.360634 1099.87022,924.825453 1106.12325,935.253135 C1112.28075,945.521029 1118.2959,955.874434 1124.15466,966.315223 C1135.62618,986.758634 1146.49616,1007.54034 1156.67282,1028.65817 C1166.80328,1049.68081 1176.24696,1071.03395 1184.93552,1092.6923 C1193.63687,1114.38374 1201.58777,1136.37384 1208.79728,1158.60519 C1216.20907,1181.46101 1222.8267,1204.57243 1228.69608,1227.87142 C1229.42592,1230.76881 1230.14391,1233.66933 1230.85159,1236.57202 C1231.42223,1238.91235 1235.03557,1237.92148 1234.46368,1235.57648 C1228.74914,1212.13986 1222.30258,1188.88238 1215.05155,1165.87364 C1207.95536,1143.35705 1200.08781,1121.0842 1191.45638,1099.10939 C1182.94732,1077.44697 1173.70405,1056.0723 1163.76776,1035.02626 C1153.74063,1013.78797 1143.00801,992.885166 1131.65822,972.323787 C1119.99284,951.190357 1107.72747,930.366827 1094.80281,909.97803 C1093.20295,907.454202 1091.63337,904.91321 1090.07909,902.360982 C1088.83136,900.312771 1085.54673,902.24832 1086.8697,904.236611" id="Fill-18" fill="#000000" sketch:type="MSShapeGroup"></path>
                <path d="M1106.21096,885.61078 C1121.81278,904.778077 1136.76965,924.438468 1150.87119,944.738008 C1164.94682,964.999786 1178.2208,985.818635 1190.65723,1007.1259 C1203.10054,1028.44533 1214.58455,1050.27252 1225.40052,1072.45799 C1236.21993,1094.65095 1246.03697,1117.36977 1254.95778,1140.38944 C1263.83426,1163.29488 1271.90066,1186.54237 1278.84795,1210.10632 C1279.72358,1213.0758 1280.58298,1216.04966 1281.42957,1219.02757 C1282.12383,1221.46869 1285.95881,1220.42415 1285.23926,1217.9774 C1278.22611,1194.1254 1270.40538,1170.50029 1261.5982,1147.24905 C1252.83473,1124.1136 1243.18595,1101.32612 1232.64999,1078.94123 C1222.05909,1056.43931 1210.58412,1034.37119 1198.24633,1012.77619 C1185.95943,991.270753 1172.82374,970.250297 1158.87703,949.781919 C1144.94937,929.342253 1130.20821,909.455913 1114.70691,890.181883 C1112.76648,887.769157 1110.81169,885.369227 1108.8391,882.98334 C1107.31011,881.133927 1104.71631,883.774787 1106.21096,885.61078" id="Fill-19" fill="#000000" sketch:type="MSShapeGroup"></path>
                <path d="M1125.29438,869.222908 C1167.40482,889.674745 1212.3691,903.176147 1257.32619,915.771568 C1302.19651,928.342646 1347.47482,940.094814 1390.78555,957.499146 C1412.34695,966.16355 1433.34863,976.297247 1453.13973,988.501002 C1474.17014,1001.46874 1493.5626,1016.85108 1511.368,1033.96018 C1546.96725,1068.16714 1577.04208,1108.45913 1601.44483,1151.30116 C1625.63749,1193.77525 1644.12435,1239.07369 1656.1737,1286.46155 C1657.64838,1292.26102 1659.02254,1298.08483 1660.30961,1303.9283 C1660.94081,1306.7923 1665.36453,1305.58235 1664.7121,1302.71491 C1653.87334,1255.08301 1636.69259,1208.55245 1613.92965,1165.31875 C1590.99347,1121.75549 1562.27407,1080.89832 1528.28497,1045.23142 C1510.94595,1027.03689 1492.04297,1010.26984 1471.41183,995.881178 C1452.23445,982.50617 1431.61361,971.307952 1410.29414,961.745993 C1367.64864,942.61833 1322.50237,930.012611 1277.57399,917.536406 C1232.15021,904.92226 1186.41238,892.423586 1143.15629,873.408586 C1137.78076,871.045482 1132.45207,868.579077 1127.17019,866.014678 C1125.02748,864.974189 1123.14074,868.177112 1125.29438,869.222908" id="Fill-20" fill="#000000" sketch:type="MSShapeGroup"></path>
                <path d="M602.836086,917.223698 C583.339985,938.819637 570.626969,965.212004 562.715087,993.041208 C554.606539,1021.56293 551.163645,1051.21876 548.954125,1080.71044 C546.418077,1114.56101 544.753288,1148.53952 544.00596,1182.47622 C543.235218,1217.46028 543.841447,1252.52984 547.106718,1287.38563 C548.729052,1304.70352 551.006625,1321.96772 554.098643,1339.08587 C557.175677,1356.12132 560.787141,1373.30002 566.005643,1389.82302 C567.320492,1393.98592 568.698399,1398.12821 570.129062,1402.25241 C570.715312,1403.94173 573.358745,1403.25732 572.838362,1401.50591 C562.954831,1368.25174 555.818061,1334.41303 551.951868,1299.92737 C548.105654,1265.61992 547.005576,1231.05343 547.373309,1196.54999 C547.737921,1162.36737 549.448286,1128.20222 551.635642,1094.092 C553.527689,1064.58535 556.225127,1034.96041 563.076264,1006.13409 C569.736043,978.111395 580.574182,950.620178 598.608715,927.884818 C600.797945,925.124742 603.088629,922.45205 605.464223,919.851449 C607.075943,918.087235 604.44125,915.446064 602.836086,917.223698" id="Fill-21" fill="#000000" sketch:type="MSShapeGroup"></path>
                <path d="M612.483618,906.003633 C612.005378,906.768241 611.041717,907.432669 610.414885,908.075875 C609.839561,908.666027 609.272665,909.264605 608.702647,909.85975 C607.491438,911.124941 606.280228,912.390132 605.069019,913.655323 C602.575114,916.260605 600.078087,918.862141 597.588552,921.471168 C592.683154,926.611513 587.958813,931.959394 582.87985,936.917482 C581.198829,938.559046 583.892833,941.219255 585.445866,939.483129 C590.177699,934.19392 595.314413,929.241138 600.235419,924.117333 C602.661896,921.591009 605.081506,919.057194 607.503924,916.526813 C608.715134,915.261622 609.926343,913.996431 611.137865,912.73124 C611.70757,912.135783 612.281334,911.543759 612.847605,910.944868 C613.51221,910.242054 614.23956,909.087965 615.026534,908.545874 C617.57538,906.788838 614.066619,903.475436 612.483618,906.003633" id="Fill-22" fill="#000000" sketch:type="MSShapeGroup"></path>
                <path d="M587.736862,906.779788 C576.864073,920.584848 566.959314,934.804669 558.967517,950.496593 C551.054387,966.033723 544.950266,982.479955 539.977752,999.173982 C529.35376,1034.83838 523.555251,1071.99423 519.161183,1108.88138 C514.353181,1149.23828 512.07873,1189.89666 512.326591,1230.53787 C512.573203,1270.99682 515.304979,1311.43893 520.558756,1351.55677 C525.787248,1391.48144 533.433163,1431.08185 543.535836,1470.06152 C544.810415,1474.97935 546.127137,1479.88625 547.476636,1484.78411 C548.116267,1487.10477 551.731478,1486.11921 551.089037,1483.78856 C540.47722,1445.30541 532.220705,1406.18717 526.39254,1366.69568 C520.536592,1327.01569 517.126788,1286.96151 516.145334,1246.8652 C515.168562,1206.96394 516.622326,1167.0012 520.517862,1127.27845 C524.202686,1089.70753 529.48487,1051.91783 538.919192,1015.31749 C547.657069,981.421364 560.572682,947.768037 581.757296,919.59398 C584.44693,916.016867 587.281098,912.649162 590.364999,909.407228 C592.047894,907.638332 589.185631,904.940361 587.736862,906.779788" id="Fill-23" fill="#000000" sketch:type="MSShapeGroup"></path>
                <path d="M488.130498,1906.02024 C488.870334,1905.8177 489.059196,1904.58934 489.823069,1904.43704 C492.297932,1903.94395 490.241061,1911.48703 489.743779,1912.48695 C488.09772,1915.79598 485.891633,1918.89311 483.936217,1922.02644 C479.590847,1928.98998 475.195843,1935.92263 470.752452,1942.82406 C462.194696,1956.11606 453.456507,1969.29164 444.540695,1982.34614 C426.534569,2008.71198 407.763945,2034.53292 388.390213,2059.90945 C384.271165,2065.30477 380.06908,2070.86206 378.398672,2077.56595 C376.65553,2084.55976 377.581106,2091.90811 378.020326,2099.0046 C379.046732,2115.59439 379.842759,2132.19978 380.250761,2148.81673 C381.058026,2181.68641 380.350031,2214.63848 376.884036,2247.35243 C373.369656,2280.5214 366.314361,2313.06308 358.712149,2345.4971 C351.177366,2377.64461 343.872025,2409.82865 337.115162,2442.14968 C323.482813,2507.3585 310.84222,2572.77985 297.852623,2638.11913 C284.711938,2704.21583 271.776971,2770.35029 258.669687,2836.45261 C257.054533,2844.59739 255.439379,2852.74217 253.824537,2860.88696 C253.233605,2863.86705 257.806856,2865.14067 258.396228,2862.14715 C272.272068,2791.6382 286.327404,2721.16764 300.168281,2650.65119 C313.921126,2580.58353 327.255356,2510.41662 341.8189,2440.51124 C348.999998,2406.04181 356.94216,2371.76463 364.830942,2337.45312 C372.594545,2303.68557 379.134139,2269.76853 382.045099,2235.20423 C385.017245,2199.91183 384.967298,2164.42969 383.450165,2129.06614 C383.073691,2120.29282 382.606376,2111.52387 382.071322,2102.75866 C381.563737,2094.44192 379.86461,2085.08157 382.496806,2076.98485 C384.983843,2069.33441 390.726474,2063.03155 395.507629,2056.72993 C400.652148,2049.94927 405.747344,2043.13085 410.79228,2036.27591 C431.152148,2008.60962 450.695699,1980.34256 469.388281,1951.52373 C474.019908,1944.38293 478.600028,1937.2081 483.126455,1929.99988 C486.903992,1923.98414 492.337265,1917.52961 494.296428,1910.61382 C495.219507,1907.35441 494.893292,1901.61111 490.557599,1900.88676 C487.776812,1900.42207 485.453663,1903.29606 485.037856,1905.79835 C484.574287,1908.5862 486.397344,1910.29018 489.118507,1909.60329 C491.433853,1909.01906 490.445219,1905.38609 488.130498,1906.02024" id="Fill-24" fill="#000000" sketch:type="MSShapeGroup"></path>
                <path d="M714.361,119.624196 C705.290041,115.356128 694.134116,118.268501 685.679687,122.671078 C681.074906,125.069448 676.820377,128.286103 673.275092,132.080427 C669.552184,136.064499 666.103359,140.950182 665.139698,146.425706 C664.094874,152.362178 666.253199,157.922277 670.192439,161.860472 C670.042599,162.995212 670.167778,164.1493 670.693156,165.30058 C671.865656,167.870284 673.858845,168.569666 676.068366,168.334666 C678.388393,171.066342 681.775409,172.672017 685.527349,172.914195 C690.718692,173.25031 695.95811,171.081635 700.376839,168.549692 C709.025124,163.594102 715.86034,155.720833 719.691883,146.541489 C723.447256,137.543467 724.931924,124.597576 714.361,119.624196 L714.361,119.624196 Z M678.139596,159.573828 C678.343441,159.803835 678.554467,160.026351 678.772984,160.242626 C678.581001,160.191444 678.392764,160.131212 678.207649,160.062865 C678.181427,159.900581 678.159575,159.737361 678.139596,159.573828 L678.139596,159.573828 Z M674.098902,139.708398 C678.674963,133.149629 685.685618,128.048919 693.176698,125.337216 C693.51259,125.216127 693.85816,125.095351 694.20966,124.976446 C693.344957,125.443949 692.498359,125.960137 691.672052,126.517832 C689.178459,127.75868 686.744177,129.333459 684.520609,131.112653 C683.023455,131.989298 681.583739,132.963939 680.214573,134.029707 C677.499653,136.143144 674.694205,139.005896 672.510282,142.24034 C672.998512,141.359949 673.537625,140.51264 674.098902,139.708398 L674.098902,139.708398 Z M701.211262,161.484722 C702.446508,160.52475 703.624316,159.481451 704.738129,158.372927 C705.402109,157.830212 706.045798,157.261594 706.671694,156.675499 C705.003159,158.439089 703.176668,160.051942 701.211262,161.484722 L701.211262,161.484722 Z" id="Fill-25" fill="#CCCCCC" sketch:type="MSShapeGroup"></path>
                <path d="M714.361,119.624196 C705.290041,115.356128 694.134116,118.268501 685.679687,122.671078 C681.074906,125.069448 676.820377,128.286103 673.275092,132.080427 C669.552184,136.064499 666.103359,140.950182 665.139698,146.425706 C664.094874,152.362178 666.253199,157.922277 670.192439,161.860472 C670.042599,162.995212 670.167778,164.1493 670.693156,165.30058 C671.865656,167.870284 673.858845,168.569666 676.068366,168.334666 C678.388393,171.066342 681.775409,172.672017 685.527349,172.914195 C690.718692,173.25031 695.95811,171.081635 700.376839,168.549692 C709.025124,163.594102 715.86034,155.720833 719.691883,146.541489 C723.447256,137.543467 724.931924,124.597576 714.361,119.624196 L714.361,119.624196 Z M678.139596,159.573828 C678.343441,159.803835 678.554467,160.026351 678.772984,160.242626 C678.581001,160.191444 678.392764,160.131212 678.207649,160.062865 C678.181427,159.900581 678.159575,159.737361 678.139596,159.573828 L678.139596,159.573828 Z M674.098902,139.708398 C678.674963,133.149629 685.685618,128.048919 693.176698,125.337216 C693.51259,125.216127 693.85816,125.095351 694.20966,124.976446 C693.344957,125.443949 692.498359,125.960137 691.672052,126.517832 C689.178459,127.75868 686.744177,129.333459 684.520609,131.112653 C683.023455,131.989298 681.583739,132.963939 680.214573,134.029707 C677.499653,136.143144 674.694205,139.005896 672.510282,142.24034 C672.998512,141.359949 673.537625,140.51264 674.098902,139.708398 L674.098902,139.708398 Z M701.211262,161.484722 C702.446508,160.52475 703.624316,159.481451 704.738129,158.372927 C705.402109,157.830212 706.045798,157.261594 706.671694,156.675499 C705.003159,158.439089 703.176668,160.051942 701.211262,161.484722 L701.211262,161.484722 Z" id="Stroke-26" stroke="#999999" stroke-width="7" sketch:type="MSShapeGroup"></path>
            </g>
        </g>
    </g>
</svg>