<?xml version="1.0" encoding="UTF-8" standalone="no"?>
<svg width="4730px" height="1201px" viewBox="0 0 4730 1201" version="1.1" xmlns="http://www.w3.org/2000/svg" xmlns:xlink="http://www.w3.org/1999/xlink" xmlns:sketch="http://www.bohemiancoding.com/sketch/ns">
    <!-- Generator: Sketch 3.3.3 (12072) - http://www.bohemiancoding.com/sketch -->
    <title>page02__panel02--background</title>
    <desc>Created with Sketch.</desc>
    <defs></defs>
    <g id="Page-1" stroke="none" stroke-width="1" fill="none" fill-rule="evenodd" sketch:type="MSPage">
        <g id="page02__panel02--background" sketch:type="MSArtboardGroup">
            <g id="Imported-Layers" sketch:type="MSLayerGroup" transform="translate(-50.000000, -42.000000)">
                <path d="M4815.14233,21.87249 C4406.57741,28.9723142 3997.94873,32.3387909 3589.32223,31.8771451 C3180.70184,31.4154993 2772.08145,26.4033449 2363.55192,17.8408415 C2132.3857,12.9950892 1901.1876,7.53657523 1670.08166,0.328436751 C1647.79883,-0.366434088 1627.63312,12.2054434 1615.91361,30.2629134 C1304.57331,25.8001917 993.259651,20.4015126 681.922407,15.531739 C474.317509,12.2844953 266.711736,9.1180506 59.1037799,6.04463382 C31.2291629,5.63234088 7.13146766,30.1087403 7.30443643,57.8398083 C7.86614816,148.230668 8.63970296,238.618035 8.98957162,329.010205 C9.16428755,374.205198 9.33944028,419.400192 9.514593,464.595185 C9.6823203,507.958008 2.84830652,560.227931 34.6094795,595.014274 C64.4850307,627.735222 108.578965,627.9667 149.604887,628.634929 C194.954592,629.373912 240.309975,629.733358 285.665358,629.871808 C331.263159,630.011132 376.85965,629.832937 422.456141,629.552107 C425.43068,629.916357 428.458507,630.066162 431.527392,629.973134 C438.242599,629.768735 444.959117,629.564336 451.677381,629.359936 C487.052116,629.115356 522.427288,628.837145 557.802897,628.624011 C911.201692,626.495286 1264.05362,638.583244 1615.81751,673.766594 C1692.33348,681.419782 1768.76079,690.00587 1845.06928,699.539707 C1845.14179,699.668549 1845.20993,699.7987 1845.28506,699.926668 C1846.854,702.607446 1848.79554,704.587238 1850.96245,706.381411 C1854.78698,711.166019 1859.75547,714.31412 1866.25184,714.31412 C1872.53026,714.31412 1878.95107,711.000927 1882.25888,705.574296 C1882.38118,705.459867 1882.49868,705.345875 1882.60525,705.23363 C1882.86689,704.95804 1883.11673,704.68114 1883.3609,704.402493 C2140.40735,737.609545 2396.04821,781.686455 2649.13735,837.626397 C2990.35669,913.04587 3322.48207,1015.48494 3653.67622,1126.00304 C3979.39215,1234.69289 4322.80855,1340.84959 4670.419,1304.65166 C4715.46252,1299.9614 4760.38897,1293.40052 4804.76682,1284.34973 C4830.21245,1279.15982 4850.73022,1250.62819 4849.86188,1225.12542 C4848.26235,1178.16202 4851.3011,1131.10822 4850.70663,1084.15487 C4850.11216,1037.15696 4850.09862,990.144213 4850.30216,943.143691 C4850.71405,847.574274 4851.30416,751.967734 4853.30815,656.415787 C4857.28381,466.894242 4866.61102,277.441704 4881.75583,88.4809481 C4884.60108,52.9844474 4848.93283,21.2850599 4815.14233,21.87249" id="Fill-1" fill="#333333" sketch:type="MSShapeGroup"></path>
                <path d="M4115.01234,1255.50189 C4118.36819,1245.90953 4115.88854,1234.40201 4104.58922,1227.0432 C4073.32031,1206.67881 4039.31709,1194.48297 4004.26078,1182.22556 C3971.34124,1170.71498 3938.00587,1160.53999 3904.49186,1150.9092 C3836.71519,1131.43229 3768.23659,1114.49508 3699.53697,1098.61569 C3592.7008,1073.92092 3485.45753,1050.52242 3378.9542,1024.28984 C3297.95283,999.180591 3216.68983,974.929555 3134.69739,953.260591 C3122.27945,949.978844 3109.84841,946.780953 3097.40383,943.664298 C3092.1842,941.885411 3086.96805,940.095606 3081.75977,938.282216 C3013.44409,914.495446 2945.70629,888.749411 2876.07325,868.965901 C2805.4059,848.888458 2732.97479,837.259089 2660.33664,827.010727 C2587.3128,816.708208 2514.57856,805.766722 2442.1208,791.951414 C2348.55081,774.111009 2254.44138,754.110434 2159.55753,742.85143 C2104.14637,730.954333 2048.50065,720.366178 1993.06154,708.551627 C1986.1061,707.069294 1979.15109,705.638061 1972.19565,704.233907 C1968.2082,700.31625 1962.89858,697.405742 1956.15629,696.096799 C1819.23054,669.512639 1680.39427,651.188751 1540.92291,641.586344 C1484.8688,635.379238 1428.73912,629.852154 1372.54742,625.026056 C1094.86396,601.176394 815.729479,594.177459 537.202141,604.184735 C458.987059,606.995228 380.934899,612.351979 302.763496,615.935084 C225.884117,619.459228 148.823033,618.943862 73.4968786,601.46596 C54.5161763,597.061763 38.4195972,610.097907 37.2127469,629.104 C27.3788605,783.948826 17.4314088,938.776181 7.10089237,1093.58956 C4.68631815,1129.77656 -0.335891384,1166.84799 0.0519779905,1203.10924 C0.42630688,1238.08994 22.8130964,1262.43182 58.1415319,1264.12685 C95.2760934,1265.90836 133.889189,1260.5385 171.041222,1258.8723 C208.628734,1257.18731 246.226293,1255.72594 283.831277,1254.49431 C591.415622,1244.42108 899.286065,1249.05588 1206.86954,1256.68636 C1514.75439,1264.32426 1822.49773,1276.95903 2130.44548,1282.16598 C2437.49432,1287.35807 2743.93035,1280.39626 3050.82588,1271.36556 C3357.34227,1262.34622 3664.63528,1256.26664 3970.43927,1283.83305 C4007.80271,1287.20128 4044.91587,1291.61901 4082.04955,1296.9465 C4110.87506,1301.08123 4123.82151,1273.90308 4115.01234,1255.50189 L4115.01234,1255.50189 Z M342.467255,1131.39691 C350.795964,1131.4419 359.124672,1131.47989 367.453381,1131.51483 C359.125546,1131.55632 350.795964,1131.51047 342.467255,1131.39691 L342.467255,1131.39691 Z M1106.49086,1016.27022 C1106.13488,1016.42439 1105.74264,1016.59691 1105.3788,1016.75589 C1105.39889,1016.67291 1105.42248,1016.59342 1105.44213,1016.51 C1105.78457,1016.40299 1106.16808,1016.30385 1106.56905,1016.21301 C1106.54328,1016.23179 1106.51576,1016.25188 1106.49086,1016.27022 L1106.49086,1016.27022 Z M3131.98449,1026.0945 C3132.23739,1026.16219 3132.49029,1026.22945 3132.74319,1026.29715 C3132.6899,1026.34825 3132.63618,1026.39848 3132.58682,1026.45263 C3132.16925,1026.33471 3131.75168,1026.21635 3131.33411,1026.09799 C3131.55075,1026.09712 3131.7674,1026.09537 3131.98449,1026.0945 L3131.98449,1026.0945 Z" id="Fill-2" fill="#4D4D4D" sketch:type="MSShapeGroup"></path>
            </g>
        </g>
    </g>
</svg>