<?xml version="1.0" encoding="UTF-8" standalone="no"?>
<svg width="1338px" height="1059px" viewBox="0 0 1338 1059" version="1.1" xmlns="http://www.w3.org/2000/svg" xmlns:xlink="http://www.w3.org/1999/xlink" xmlns:sketch="http://www.bohemiancoding.com/sketch/ns">
    <!-- Generator: Sketch 3.3.3 (12072) - http://www.bohemiancoding.com/sketch -->
    <title>page01__panel02--clippers</title>
    <desc>Created with Sketch.</desc>
    <defs></defs>
    <g id="Page-1" stroke="none" stroke-width="1" fill="none" fill-rule="evenodd" sketch:type="MSPage">
        <g id="page01__panel02--clippers" sketch:type="MSArtboardGroup">
            <g id="Imported-Layers" sketch:type="MSLayerGroup" transform="translate(-60.000000, -72.000000)">
                <path d="M1301.73977,784.638696 C1301.98582,782.666499 1302.18368,780.631942 1302.33791,778.499536 C1302.4896,776.40262 1302.43531,774.294042 1302.23593,772.201689 C1301.66874,766.243018 1300.94479,760.209313 1299.70235,754.343423 C1297.64007,744.609694 1293.41049,735.47523 1289.637,726.322513 C1278.3977,699.060063 1267.28827,671.740323 1255.80241,644.580285 C1257.28431,648.088666 1258.76571,651.597046 1260.2471,655.105427 C1250.73271,631.675325 1241.4111,607.889315 1228.04661,586.310239 C1221.3636,575.51994 1213.83235,565.238154 1205.38994,555.804565 C1202.98572,546.12407 1200.66166,536.416705 1197.61567,526.956752 C1190.0763,503.540846 1180.15858,480.793662 1165.20819,461.128985 C1157.26499,450.681413 1148.49434,440.984695 1140.26145,430.80887 C1136.62697,425.813483 1133.29485,420.632031 1130.51268,415.124076 C1127.72999,407.114118 1125.99545,398.81771 1124.70887,390.431058 C1123.17979,378.023964 1121.91908,365.579352 1119.82636,353.248814 C1118.04717,342.764738 1115.08997,332.682706 1111.17747,322.797894 C1106.34366,310.585485 1101.03602,298.587026 1094.4768,287.198477 C1089.34926,278.295201 1083.48558,269.873059 1077.67975,261.406809 C1052.09631,224.100859 1019.99424,192.403755 987.264612,161.453449 C965.867123,141.219928 944.254527,121.221144 922.665269,101.191433 C918.861339,97.6617591 914.424266,94.8621525 909.602639,93.1033992 C901.004478,84.2447379 892.266295,75.5249923 883.193277,67.1976581 C871.742929,56.6877258 859.464117,46.7598196 846.419751,38.3052305 C833.882711,30.1791719 819.970817,24.0242959 805.888969,19.1282797 C780.435408,10.2777303 752.266132,7.90399639 725.449894,8.72430853 C673.134436,10.3264014 621.181209,24.1550997 568.747544,18.7820045 C546.086306,15.0743762 524.00139,8.50173929 501.363996,4.63947857 C471.18926,-0.508512404 438.80106,-2.9871935 409.841877,9.21051331 C406.992734,9.88785386 404.322678,10.8704032 401.828156,12.1541055 C388.693485,12.1353469 376.24472,16.7687415 365.635518,25.6684691 C362.653456,28.1699648 360.525223,30.2496437 358.40663,34.2569039 C355.384996,39.9722183 354.481449,45.4811872 353.659581,51.7942445 C353.232919,55.073465 352.825029,58.3562346 352.417139,61.6379901 C351.818495,66.4518737 292.406508,46.9768129 291.834244,51.7942455 C288.214981,77.5007389 61.6655429,35.7773728 59.9999916,61.6379917 C58.4009001,86.465869 173.010181,249.771577 172.116273,274.634944 C171.221857,299.494762 243.072883,365.311155 242.88365,390.186183 C242.702027,414.098941 298.661771,391.41716 301.471342,415.124079 C299.260416,420.45408 317.076028,437.371709 317.530592,442.12881 C318.649753,453.84234 340.677108,413.613241 341.796269,425.327278 C342.896152,436.841561 345.801101,446.926634 354.247571,455.367535 C358.437577,459.555284 364.154126,463.152895 370.251678,465.39329 C383.794745,500.320944 393.397919,536.677299 398.868923,573.749019 C400.089549,583.767677 401.026073,593.818782 401.633342,603.89473 C402.350194,615.793819 401.838302,627.85261 403.100529,639.702014 C404.462192,652.482253 406.467652,662.786854 412.504324,674.288462 C417.231588,683.296179 424.087592,690.215091 431.985643,696.313184 C442.962148,704.787545 455.363733,709.705362 468.037244,714.878703 C475.203223,718.052469 482.203308,721.56085 488.724984,725.895627 C489.771597,726.841166 490.787264,727.818138 491.771984,728.827051 C489.923288,730.622308 488.075606,732.420099 486.343088,734.335006 C477.530835,744.071776 470.042703,755.234714 467.612612,768.392662 C465.87502,777.798874 465.526487,787.345016 467.071802,796.674672 C463.911161,822.057705 469.25026,848.831922 480.300328,872.064298 C479.565212,873.77438 478.895542,875.507783 478.425251,877.166659 C477.45981,880.569079 477.151355,884.939852 476.825145,888.45381 C476.403557,892.993918 477.458288,897.82656 478.359299,902.145113 C479.564198,907.210972 481.888258,911.623318 485.33148,915.382659 C488.078143,919.621108 491.720744,922.962688 496.260297,925.409429 C500.731361,928.254158 505.559075,929.793891 510.742932,930.028628 C515.610218,931.117645 520.477504,930.977716 525.344282,929.609853 C532.331683,935.731774 539.780244,941.438977 547.765048,946.806495 C551.238709,948.2717 554.71237,949.736906 558.186031,951.201604 C563.984767,953.018661 569.782996,953.278241 575.581733,951.980343 C581.590502,951.173212 587.726103,949.268446 593.05607,946.079977 C593.540059,947.076722 594.018467,948.076509 594.506515,949.070719 C599.016136,958.255376 611.266537,967.282865 621.126418,969.527316 C631.086749,971.794582 640.672167,971.271874 650.129231,967.283879 C658.685791,963.675114 666.966874,957.510098 671.428806,949.070719 C672.925418,945.526342 674.422029,941.981965 675.919148,938.437588 C678.040786,930.548801 678.040786,922.660014 675.919148,914.770721 C675.492995,912.348316 675.075973,909.92439 674.659458,907.499957 C682.489527,912.842125 688.08026,914.625721 694.083956,914.897469 C703.700321,916.188776 714.447007,914.960843 722.848326,909.547695 C724.831971,909.990299 726.058685,910.911502 727.36302,911.755643 C731.754434,915.772029 736.908359,918.482912 742.825302,919.888799 C750.808077,921.705857 758.554438,921.75757 766.18665,919.729604 C774.605218,932.965629 783.287088,946.032319 792.204864,958.937279 C798.003093,967.32748 804.539482,973.622286 814.088372,977.649319 C823.181683,981.484202 834.228707,983.077169 843.885658,979.954609 C851.254568,977.571242 857.907641,973.738894 863.656659,968.570623 C870.17935,974.647423 878.528921,978.49346 887.280802,979.869941 C892.918209,984.610818 899.232896,988.532397 906.026498,991.397406 C916.723467,995.908615 927.958709,998.214919 939.680476,997.908189 C949.877729,997.641005 960.08665,995.768179 970.112934,993.966331 C991.976148,990.037654 1013.68311,985.205519 1035.16329,979.508963 C1073.99047,974.439556 1110.64325,966.288148 1146.03939,952.236373 C1181.17019,938.29056 1214.72981,921.340823 1245.38701,899.126993 C1256.08195,891.378136 1266.60034,883.303791 1276.69258,874.780251 C1280.01353,871.97456 1283.26093,869.059866 1286.14508,865.799912 C1291.30204,859.972045 1296.65839,853.58953 1300.00877,846.467821 C1305.12008,835.604009 1307.99155,826.703267 1308.46336,814.568935 C1308.7429,807.37574 1307.5796,799.561481 1305.05667,792.735349 C1304.02375,789.940812 1302.93554,787.244124 1301.73977,784.638696 Z" id="Fill-1" fill="#F9F9F9" sketch:type="MSShapeGroup"></path>
                <path d="M875.317971,467.116372 C876.133751,473.15464 877.106295,479.170093 878.006291,485.195686 C883.399674,519.630037 890.011147,553.877308 897.981745,587.809737 C898.650908,590.647369 899.294198,593.491083 899.985176,596.323138 L902.070286,604.817272 C902.070286,604.817272 902.35591,605.739996 902.854612,607.350708 C903.104216,608.155304 903.407597,609.131769 903.755115,610.250699 C904.115317,611.366587 904.521685,612.623926 904.963566,613.99331 C905.851386,616.730557 906.884302,619.918012 907.986722,623.320431 C909.090663,626.720823 910.33767,630.314885 911.545106,633.897286 C912.154405,635.686459 912.762181,637.470562 913.358289,639.220696 C913.97469,640.964747 914.578916,642.674322 915.161326,644.321537 C916.343903,647.607856 917.436683,650.64372 918.355451,653.197436 C920.241689,658.286616 921.518121,661.418302 921.443544,660.76986 C922.624599,663.63639 923.800073,666.359441 924.93902,668.852318 C926.102826,671.338604 927.236192,673.59218 928.294982,675.532944 C930.415604,679.412442 932.257198,682.03156 933.571172,682.7089 C934.89022,683.385227 935.670487,682.12586 935.690273,678.251432 C935.726293,674.372947 934.89783,667.911848 933.272864,658.113732 C931.556581,646.505656 929.184832,632.563899 927.249383,621.534807 C926.295103,616.020769 925.46461,611.222602 924.872053,607.803452 C924.273408,604.389371 923.915744,602.351773 923.915744,602.351773 C922.326291,595.856198 920.709443,589.368229 919.222471,582.848319 C911.397474,549.442654 904.911819,515.727724 899.624467,481.831798 C898.74172,475.899998 897.785918,469.979352 896.986372,464.035385 L895.738857,455.127038 C895.328938,452.157083 894.966707,449.180536 894.578095,446.207031 C894.424883,445.722347 893.678606,444.819903 893.481256,444.633837 C888.074683,439.575583 883.620868,438.96111 880.208086,440.298046 C876.797841,441.629912 874.436238,444.907105 873.211553,447.516083 C872.776267,448.278598 872.801126,448.471255 872.86302,449.003596 C873.259242,452.024758 873.628575,455.048455 874.046612,458.066068 L875.317971,467.116372" id="Fill-5" fill="#000000" sketch:type="MSShapeGroup"></path>
                <path d="M581.518885,858.886394 C582.862791,861.581561 584.165604,863.597866 585.105679,864.921113 C585.582566,865.573611 585.956465,866.086687 586.212158,866.436004 C586.466835,866.789884 586.609901,866.957698 586.609901,866.957698 C586.609901,866.957698 587.474892,867.64822 588.764007,868.676906 C589.415921,869.135226 590.174374,869.669595 590.984573,870.23996 C591.797817,870.776864 592.667374,871.307177 593.526784,871.837997 C596.987255,873.890299 600.385324,875.320521 600.297557,874.95346 C603.41609,875.89038 606.418445,875.866551 608.100231,874.506293 C608.943407,873.823376 609.45885,872.801281 609.51567,871.377142 C609.571984,869.956045 609.160542,868.130876 608.252936,865.842824 C607.362579,862.921539 606.118615,859.897842 605.344436,857.647814 C605.12172,857.089617 604.977639,856.569443 604.816817,856.117207 C604.669692,855.662436 604.508363,855.271545 604.42161,854.946057 C604.233899,854.297108 604.113156,853.931567 604.113156,853.931567 C604.113156,853.931567 603.730632,853.498596 603.21113,852.747235 C603.074152,852.560662 602.922462,852.35381 602.757073,852.128705 C602.604875,851.904108 602.46739,851.66278 602.301495,851.40675 C602.149804,851.151226 601.9418,850.878465 601.799749,850.59607 C601.655161,850.31469 601.499412,850.020635 601.331487,849.71644 C600.73893,848.502703 600.24378,847.17185 600.044908,845.863812 C600.031211,845.535789 599.959678,845.206244 599.940399,844.871123 C599.95917,844.536509 599.95359,844.196318 599.937355,843.858154 C599.984029,843.290324 600.093104,842.687004 600.26661,842.067968 C600.645582,840.831922 601.356853,839.567486 602.225903,838.586457 C602.649013,838.082001 603.130973,837.688576 603.569302,837.31543 C603.812819,837.176007 604.014734,836.968648 604.246582,836.859138 C604.358194,836.794243 604.46524,836.727827 604.569242,836.658369 C604.644326,836.616796 604.644326,836.632005 604.67781,836.605135 C604.690493,836.595502 604.701654,836.584348 604.7118,836.571166 L604.72702,836.549873 C604.738689,836.54024 604.838125,836.502216 604.888857,836.480415 C605.13694,836.377496 605.379441,836.276604 605.616363,836.178755 C605.73457,836.12907 605.851762,836.080906 605.966925,836.032742 L606.010048,836.014997 L606.031863,836.006378 L606.042516,836.001815 C606.392064,836.796271 604.839647,833.234149 603.611918,830.417811 C603.686495,830.271291 603.765637,830.123249 603.851883,829.978757 C604.113156,829.53666 604.421103,829.13563 604.672736,828.852729 C605.209487,828.276787 605.495112,828.149532 605.5428,828.114042 C605.585923,828.093763 605.620421,828.072976 605.655934,828.053203 C605.911626,828.299601 606.167826,828.547013 606.421996,828.778708 C607.146458,829.438304 607.864832,830.041117 608.565449,830.589682 C609.266066,831.137739 609.948419,831.631549 610.602363,832.073645 C611.518086,832.21104 612.612896,831.936251 613.53217,831.520518 C614.484421,831.077407 615.451892,830.120207 616.103806,828.832449 C616.422914,828.195161 616.673533,827.455968 616.822687,826.745673 C616.97387,826.028787 617.036778,825.270834 617.035764,824.617323 C617.054027,824.221362 617.040837,823.885227 617.014963,823.611959 C616.994163,823.35897 616.956114,823.146033 616.903859,822.949828 C616.803408,822.570598 616.621278,822.19441 616.401606,821.818223 C616.267165,821.564727 615.311363,819.983421 613.917231,818.749911 C612.504328,817.459618 610.846894,816.48011 608.99769,815.78756 C608.066747,815.443313 607.075432,815.164467 605.95069,814.974346 C604.823412,814.788787 603.5622,814.67877 602.024495,814.789801 C601.239661,814.855203 600.412212,814.96522 599.450322,815.213645 C599.21746,815.272456 598.980538,815.337351 598.721802,815.421005 L598.343337,815.545218 L598.154612,815.61062 L598.060249,815.644081 L597.6067,815.821528 C597.493059,815.869185 597.377896,815.91735 597.260703,815.966021 C596.750333,816.188083 596.489568,816.257541 595.364319,816.815738 C594.895042,817.046419 594.420185,817.289268 593.941777,817.544285 C593.535916,817.779022 593.154914,818.012238 592.753112,818.258129 C591.942405,818.732673 591.180908,819.304052 590.384407,819.878981 C588.845179,821.079536 587.302908,822.435231 585.932621,824.017552 C584.546606,825.586183 583.256476,827.322629 582.176379,829.235 C581.086643,831.13926 580.147582,833.18345 579.480449,835.355401 C578.809256,837.520254 578.325267,839.776366 578.177636,842.073544 C578.052326,844.31394 578.082766,846.431136 578.379551,848.495098 C578.924927,852.607812 580.214042,856.152696 581.518885,858.886394" id="Fill-6" fill="#000000" sketch:type="MSShapeGroup"></path>
                <path d="M570.691026,408.43617 C570.321692,410.92347 570.110645,412.343553 570.110645,412.343553 C570.110645,412.343553 570.087308,414.100278 570.053317,416.717875 C570.097962,418.026419 570.149709,419.549929 570.205007,421.176357 C570.235954,421.986023 570.267916,422.82053 570.300385,423.667206 C570.317634,424.08953 570.334883,424.514389 570.352639,424.940769 C570.375976,425.367148 570.422143,425.79657 570.456641,426.223457 C570.613405,427.925934 570.769154,429.6203 570.913742,431.194001 C570.992885,431.976289 571.068984,432.729171 571.140516,433.437945 C571.250099,434.145705 571.352579,434.809864 571.445927,435.416733 C571.836568,437.840659 572.144007,439.332734 572.265258,439.046791 C572.845132,441.78708 573.801441,444.248523 574.756736,446.110703 C575.724714,447.974403 576.771328,449.23884 577.845844,449.619083 C578.929493,449.99882 580.018214,449.49994 581.108458,447.865907 C581.650282,447.049144 582.188555,445.951 582.715159,444.542578 C583.243793,443.133649 583.726767,441.415962 584.361432,439.356563 C584.787586,438.142825 585.196491,436.87484 585.586117,435.586068 C585.787018,434.941682 585.956465,434.292226 586.16802,433.642263 C586.379068,432.994327 586.590623,432.34335 586.80167,431.694401 C587.643832,429.105196 588.294223,426.562127 589.067388,424.342519 C589.793372,422.120375 590.344835,420.198878 590.781643,418.839127 C591.238236,417.484446 591.51067,416.676301 591.51067,416.676301 C591.51067,416.676301 591.699396,415.407302 592.029665,413.183637 C592.16715,412.067242 592.455819,410.73132 592.754634,409.193615 C593.07019,407.658445 593.365454,405.91338 593.794652,404.031935 C595.446505,396.490945 598.37885,386.567094 602.354764,377.015376 C603.354703,374.632009 604.453064,372.288695 605.476341,369.953999 C606.593473,367.663919 607.744088,365.432143 608.827229,363.253093 C610.014372,361.130827 611.163973,359.076498 612.256245,357.124074 C613.38809,355.195986 614.551388,353.424051 615.577201,351.751993 C616.57917,350.063204 617.666877,348.621828 618.565352,347.289961 C619.487163,345.974825 620.263879,344.795056 620.964496,343.85408 C622.39059,341.990887 623.243405,340.877027 623.329143,340.764982 C623.379875,340.54951 623.129256,339.848848 623.04504,339.675457 C620.727068,334.937622 617.684634,331.784642 614.662493,329.881903 C611.653542,327.971053 608.686192,327.307401 606.790822,327.238957 C606.179495,327.167978 606.125211,327.23845 605.972505,327.427558 C605.873577,327.556841 604.914223,328.8157 603.311581,330.918701 C602.520659,331.976792 601.646537,333.301054 600.611084,334.781469 C600.098178,335.525225 599.554324,336.314104 598.98206,337.144556 C598.698973,337.561303 598.396606,337.981092 598.109967,338.423695 C597.83043,338.871369 597.544806,339.328675 597.253093,339.795614 C596.094868,341.667933 594.813363,343.67207 593.524247,345.822728 C592.298548,348.009889 591.008925,350.31163 589.677194,352.688406 C588.455046,355.122472 587.194341,357.6336 585.914864,360.182246 C584.754103,362.786154 583.577106,365.428594 582.400617,368.068498 C581.347916,370.759101 580.276443,373.440579 579.268386,376.094679 C578.356214,378.783255 577.458755,381.427722 576.591227,383.984987 C575.836326,386.578248 575.107299,389.0838 574.416321,391.458548 C573.797383,393.852054 573.269764,396.130474 572.755842,398.224855 C572.209452,400.312139 571.903027,402.268619 571.547899,403.983264 C571.216615,405.702979 570.927947,407.202152 570.691026,408.43617" id="Fill-7" fill="#000000" sketch:type="MSShapeGroup"></path>
                <path d="M523.440203,404.807125 C523.518839,406.186142 523.661905,407.462239 523.765399,408.530977 C523.975432,410.668453 524.216919,411.994742 524.354912,411.753922 C525.310714,416.635235 527.110707,420.580642 529.182119,421.406531 C530.230762,421.823278 531.359562,421.473961 532.559896,420.123336 C533.159048,419.449544 533.772912,418.525806 534.398952,417.327278 C535.017383,416.128244 535.723073,414.656954 536.406441,412.884005 C538.371822,408.724141 540.261612,403.780974 541.833815,399.92936 C542.594804,398.011412 543.25585,396.342396 543.727156,395.153501 C544.181212,393.971197 544.452125,393.265972 544.452125,393.265972 C544.452125,393.265972 544.670275,392.150084 545.051277,390.195125 C545.147668,389.706892 545.2537,389.165932 545.369877,388.576808 C545.499753,387.990726 545.640789,387.356987 545.791465,386.679646 C546.089773,385.323951 546.421057,383.793344 546.851269,382.138524 C547.057751,381.309086 547.27235,380.445173 547.495066,379.55084 C547.740612,378.662084 547.994275,377.743415 548.25504,376.79889 C548.753234,374.902742 549.38587,372.933588 550.002778,370.884328 C551.322333,366.814201 552.786984,362.481452 554.513921,358.243511 C554.919782,357.173759 555.368258,356.121245 555.814705,355.071773 C556.266225,354.025342 556.683247,352.966744 557.156075,351.943129 C558.09057,349.893869 558.997668,347.83447 559.920495,346.000682 C561.746868,342.283928 563.605711,339.199899 565.316921,336.883455 C567.029654,334.568025 568.576998,333.048572 569.691593,332.100498 C569.830093,331.979327 569.961998,331.864747 570.086293,331.756758 C570.214139,331.660429 570.334375,331.570185 570.447002,331.485517 C570.669718,331.315168 570.861487,331.167634 571.020788,331.045956 C571.343954,330.821866 571.535723,330.707793 571.569714,330.681429 C571.616388,330.542513 571.475859,329.883931 571.428678,329.708005 C570.762051,327.344411 570.139562,325.119733 569.389227,323.098865 C568.652082,321.078504 567.783033,319.316709 566.79324,317.828182 C565.804462,316.349288 564.684286,315.169519 563.547875,314.290396 C562.41806,313.412287 561.257806,312.816572 560.333458,312.51694 C559.748511,312.268514 559.661758,312.326311 559.428388,312.472832 C559.354826,312.526573 558.931716,312.792743 558.243782,313.278948 C557.910469,313.530923 557.508159,313.835625 557.041927,314.188491 C556.810586,314.367459 556.563011,314.558088 556.300216,314.760884 C556.052134,314.972806 555.788832,315.197404 555.512339,315.433662 C553.283656,317.312572 550.471548,320.174539 547.819247,323.749335 C546.501214,325.534959 545.211084,327.485862 543.974223,329.546782 C542.745987,331.607195 541.587762,333.773063 540.482299,335.987094 C539.927284,337.095378 539.393577,338.212787 538.873568,339.333745 C538.369286,340.448112 537.859423,341.575661 537.345502,342.711322 C536.819405,343.841406 536.348099,345.005458 535.855485,346.164947 C535.375555,347.329 534.856053,348.482912 534.410621,349.664709 C532.518295,354.351338 530.864919,359.117057 529.401791,363.606466 C528.001571,368.115141 526.784496,372.346492 525.892617,376.008998 C525.435009,377.837716 525.019509,379.513829 524.705474,381.011482 C524.382308,382.507614 524.074361,383.805512 523.867879,384.883883 C523.45035,387.03961 523.211907,388.270585 523.211907,388.270585 C523.211907,388.270585 523.196179,388.655392 523.168784,389.326649 C523.157623,389.998919 523.142403,390.958654 523.124139,392.10699 C523.068841,394.396056 523.124647,397.444088 523.207341,400.437873 C523.286991,401.935018 523.366641,403.423545 523.440203,404.807125" id="Fill-8" fill="#000000" sketch:type="MSShapeGroup"></path>
                <path d="M690.462579,492.755435 L697.19378,498.628931 L698.876581,500.097178 L700.521332,501.60852 L703.808297,504.63323 C708.174344,508.683585 712.628159,512.64116 716.854185,516.840063 C754.977705,553.448393 789.073564,594.253599 818.362002,638.248794 L820.752015,641.793171 C821.548516,642.974968 822.291242,644.191747 823.063392,645.388754 L827.656214,652.599693 C827.656214,652.599693 828.211736,653.364743 829.180729,654.699145 C830.144141,656.037602 831.561103,657.921582 833.134321,660.254757 C834.733919,662.574243 836.596821,665.274479 838.585538,668.157739 C839.582941,669.60013 840.612306,671.08815 841.655368,672.596956 C842.711621,674.099172 843.691267,675.675915 844.720125,677.219704 C852.99309,689.544159 860.55174,701.999417 860.203207,700.750697 C861.940291,703.275515 863.600769,705.688287 865.132386,707.914993 C866.677194,710.139165 868.149962,712.150907 869.506551,713.87265 C872.219223,717.314614 874.466678,719.593541 875.882117,720.061494 C877.287918,720.53401 877.887577,719.179836 877.259507,715.359655 C876.948516,713.447791 876.336174,710.915876 875.374284,707.679242 C874.396667,704.450721 873.154733,700.47388 871.285236,695.82629 C870.27515,693.039865 869.17476,690.118073 868.020593,687.137977 C867.437168,685.650465 866.847148,684.145714 866.254592,682.633866 C865.64783,681.129115 864.982725,679.646165 864.341465,678.153075 C863.045755,675.173994 861.735839,672.213164 860.451289,669.347141 C859.805971,667.915397 859.170799,666.505961 858.549832,665.128972 C857.932923,663.749449 857.258687,662.442932 856.640256,661.156188 C854.131529,656.031011 851.906397,651.582668 850.308828,648.416 C849.524502,646.824047 848.830987,645.593072 848.372364,644.736763 C847.908161,643.884004 847.655513,643.419599 847.655513,643.419599 L839.392187,630.436056 L836.527317,626.18037 C806.37541,580.848745 771.27809,538.809016 732.009027,501.070602 C727.654648,496.744444 723.069436,492.660121 718.570469,488.485046 L715.18356,485.367556 L713.489092,483.809571 L704.821427,476.237654 C704.375487,475.968442 703.204071,475.774771 702.930623,475.764124 C695.46735,475.497954 691.821198,478.095271 690.200799,481.384124 C688.581921,484.684639 688.981694,488.697476 689.75841,491.43016 C689.929379,492.281398 690.071938,492.405611 690.462579,492.755435" id="Fill-9" fill="#000000" sketch:type="MSShapeGroup"></path>
                <path d="M1383.92193,875.206955 C1383.40497,873.907029 1382.6176,872.637523 1381.70847,871.468908 C1380.7968,870.295222 1379.75831,869.220401 1378.6635,868.279424 C1378.1166,867.807415 1377.55296,867.372924 1376.97664,866.97747 L1376.76204,866.829936 L1376.60122,866.70116 C1376.49874,866.617507 1376.39727,866.535374 1376.29784,866.454255 C1376.09897,866.292525 1375.90669,866.135865 1375.72151,865.985795 C1374.24469,864.783719 1373.26048,863.982165 1373.26048,863.982165 L1372.29047,863.705348 C1371.48839,862.103762 1370.37481,859.860325 1369.28964,857.605734 C1367.25627,853.403789 1365.32742,849.192718 1365.32742,849.192718 C1365.32742,849.192718 1360.32823,845.055161 1354.57718,839.996401 C1353.75176,839.139078 1352.9162,838.272123 1352.08063,837.403646 C1350.24563,835.490768 1348.50905,833.618448 1346.99773,831.853611 C1345.48235,830.090802 1344.22114,828.434461 1343.23895,827.001703 C1342.25981,825.567931 1341.54905,824.361799 1341.10108,823.509039 C1340.86213,823.086208 1340.71501,822.746524 1340.59375,822.518885 C1340.47859,822.290232 1340.41771,822.168554 1340.41771,822.168554 L1336.53312,824.019073 C1336.38802,823.940996 1336.25155,823.870017 1336.11914,823.803094 C1335.85279,823.674318 1335.59659,823.554161 1335.3475,823.454791 C1334.35466,823.045142 1333.52569,822.870737 1332.97423,822.782014 C1332.6957,822.732328 1332.48618,822.717119 1332.34362,822.700895 C1332.20157,822.686192 1332.12801,822.67808 1332.12801,822.67808 L1331.79926,824.462183 C1330.87237,824.173198 1329.85011,823.838077 1328.71776,823.471522 C1327.08975,822.9478 1325.2578,822.375406 1323.29089,821.907453 C1321.32551,821.440514 1319.23837,821.086127 1317.2598,820.974082 C1315.7987,820.894991 1314.44668,820.925918 1313.32194,821.01819 C1313.46196,819.188965 1313.60807,817.214741 1313.61974,815.080814 C1313.88405,809.156112 1314.01697,802.587024 1314.06517,796.059509 C1313.89826,789.558358 1313.63749,783.100808 1313.37368,777.377889 C1313.27932,774.509839 1313.01602,771.852696 1312.8141,769.458176 C1312.60052,767.063655 1312.41078,764.939868 1312.253,763.171989 C1311.91715,759.63471 1311.71676,757.523598 1311.71676,757.523598 C1311.4078,755.741523 1311.14551,753.949815 1310.79748,752.175345 L1306.73786,731.995565 C1299.31162,698.327785 1289.35078,665.276507 1277.29063,633.057202 C1275.85591,629.000763 1274.22334,625.022401 1272.63287,621.027816 L1267.85132,609.048115 L1262.76031,597.201754 L1260.20693,591.281615 C1259.77621,590.297544 1259.36731,589.302827 1258.91883,588.326869 L1250.7935,570.78243 C1250.34655,569.805458 1249.89046,568.833048 1249.40495,567.874834 L1240.8281,550.552965 C1238.86119,546.735827 1236.83392,542.950122 1234.83911,539.147686 C1226.88779,523.918677 1218.2597,509.064843 1209.47687,494.328123 C1207.2492,490.663082 1204.9566,487.039107 1202.69899,483.392318 L1199.29991,477.931006 L1197.59935,475.201364 L1188.80942,461.741756 C1187.62837,459.95309 1186.48384,458.139581 1185.27336,456.371195 L1174.3902,440.453185 C1171.93576,436.941763 1169.42247,433.473434 1166.94164,429.982291 L1161.34127,422.138627 L1151.7594,409.254454 C1150.47536,407.542344 1149.21922,405.807419 1147.91184,404.113561 L1136.13173,388.87644 C1134.23332,386.462654 1132.30853,384.070161 1130.38525,381.676655 C1130.32184,379.649703 1130.22646,377.433644 1130.09303,375.00769 C1130.04332,373.516121 1130.00222,371.980444 1129.91445,370.422459 C1129.78813,368.869544 1129.65978,367.287731 1129.5299,365.687666 C1129.2458,362.48855 1128.96423,359.204767 1128.59084,355.948361 C1128.15302,352.706151 1127.6949,349.475094 1127.23527,346.340366 C1126.99429,344.775791 1126.79998,343.222876 1126.52146,341.727758 C1126.24192,340.231627 1125.96847,338.771491 1125.70365,337.356478 C1125.15777,334.524424 1124.64689,331.875901 1124.18776,329.49659 C1123.70834,327.119307 1123.17361,325.040642 1122.77638,323.294564 C1121.94284,319.811533 1121.44566,317.731854 1121.44566,317.731854 L1120.62329,315.121862 C1120.34984,314.251358 1120.02768,313.398091 1119.73191,312.535192 L1116.10555,302.20879 C1115.81434,301.34437 1115.47748,300.49668 1115.14721,299.646456 L1110.62338,287.998834 L1109.51335,285.385801 L1105.06208,274.938228 L1100.28459,264.63819 L1099.08831,262.063688 L1097.81695,259.526703 L1092.71072,249.386874 L1090.00667,244.397065 L1085.93893,236.917927 C1085.47625,236.093052 1084.9882,235.282373 1084.51436,234.464088 L1078.78157,224.668 L1072.75606,215.049866 C1064.56681,202.325902 1055.81594,189.963423 1046.45831,178.06839 C1037.03828,166.223549 1027.06983,154.81827 1016.58645,143.898688 L1008.60824,135.819273 C1005.90419,133.172271 1003.13368,130.591177 1000.39869,127.974594 C997.690077,125.328606 994.820641,122.856009 992.004474,120.325615 L987.765766,116.546501 C986.354385,115.284599 984.872993,114.103309 983.42965,112.877911 L979.072227,109.234163 C977.613158,108.027017 976.185542,106.782353 974.677262,105.635538 L965.729553,98.6309445 C962.715529,96.3373153 959.627436,94.1390005 956.578914,91.8899865 C953.551192,89.610553 950.390044,87.5171854 947.264408,85.3746396 C934.737007,76.8455228 921.803238,68.8776455 908.382436,61.7909193 C907.015192,61.0552747 905.662154,60.2927596 904.283242,59.5799296 L900.117588,57.4926459 L891.782222,53.3282183 L883.307848,49.4456779 L878.937234,47.4455968 L878.742929,47.3634641 L878.35178,47.2002129 C878.091015,47.0917167 877.831264,46.9832206 877.562888,46.8843572 C877.035269,46.6805467 876.493952,46.4878899 875.937416,46.3099359 C874.823835,45.951493 873.664595,45.6346234 872.357723,45.3973514 C871.51404,45.2964601 869.541049,45.7365286 869.115403,45.9104267 C868.939868,45.9773496 868.766363,46.0432585 868.594886,46.1081534 C868.412249,46.1842021 868.231641,46.2582228 868.054077,46.3317366 C867.699963,46.484341 867.363606,46.6410014 867.045005,46.8012106 C866.467668,47.1535697 865.952733,47.4841281 865.495632,47.8689346 C865.038531,48.2491782 864.631148,48.6182679 864.285152,49.029438 C864.110125,49.2286856 863.946766,49.4243843 863.79406,49.617041 C863.643385,49.8162887 863.510973,50.0307461 863.385156,50.2310077 C862.382679,51.8589571 862.129016,53.4504032 862.245701,54.822829 C862.301507,55.5082815 862.436963,56.1445557 862.602859,56.6986973 C862.75252,57.2249544 862.939723,57.7177501 863.159903,58.1796193 C863.276588,58.4234822 863.370443,58.6044781 863.480533,58.7925719 C863.589608,58.9791448 863.706293,59.1581128 863.830081,59.3304899 C864.077656,59.674737 864.354656,59.9916067 864.653471,60.2821128 C865.153694,60.8413243 865.614853,61.3011655 866.092247,61.8117059 C866.552899,62.3065295 866.993258,62.8231538 867.350923,63.3666486 C867.708588,63.9050735 867.981529,64.4546522 868.152498,64.9748254 C868.195621,65.1056292 868.23367,65.2298421 868.264617,65.3479711 C868.290998,65.4676211 868.269183,65.6014668 868.261573,65.713512 L868.244324,65.8798051 L868.251427,65.9193505 L868.275778,65.9386161 L868.33057,65.948249 L868.439645,65.9528119 C868.440152,65.9188435 868.490885,65.8463437 868.493421,65.6906973 L868.542125,65.9746125 L868.542125,66.3487722 C868.542125,66.6017609 868.415293,66.7594353 868.422396,66.8202742 C868.432035,66.8811132 868.346804,66.8988579 868.413264,66.9145747 C868.595901,66.9414452 868.886599,67.0220568 869.211795,67.1270041 C869.376168,67.1777032 869.541049,67.2390492 869.718106,67.308507 C869.805874,67.3374055 869.890597,67.3769508 869.978872,67.4139612 L870.109762,67.4682093 L870.176222,67.4950798 L870.301024,67.5523699 L874.311943,69.3891998 L882.335304,73.0582968 L890.230311,77.0016761 L894.177815,78.9743798 C895.485194,79.6491854 896.766192,80.3731691 898.06241,81.0702824 C947.949299,107.752734 992.062817,145.11851 1027.49193,189.335767 C1036.31027,200.426205 1044.65578,211.893337 1052.42244,223.745783 C1060.11198,235.646899 1067.26274,247.889221 1073.84377,260.431682 L1078.62177,269.917999 C1079.44262,271.487138 1080.15338,273.109003 1080.90676,274.710589 L1083.14356,279.525994 C1083.8802,281.135184 1084.65641,282.727138 1085.36108,284.350017 L1089.52369,294.117714 C1089.86512,294.933463 1090.2304,295.740087 1090.55204,296.563948 L1094.74408,307.352218 C1095.38635,308.932004 1095.91144,310.553869 1096.48624,312.157483 L1099.87061,321.804009 C1099.87061,321.804009 1101.21249,325.292617 1103.21186,330.489279 C1103.7065,331.792247 1104.27318,333.193571 1104.81704,334.690717 C1105.34161,336.194961 1105.89409,337.778802 1106.46432,339.414356 C1107.0376,341.052446 1107.62914,342.741741 1108.2288,344.455372 C1108.53016,345.313202 1108.83303,346.176101 1109.13692,347.042042 C1109.41189,347.916096 1109.68686,348.792684 1109.96183,349.667751 C1111.07135,353.175118 1112.17479,356.664233 1113.20009,359.905429 C1113.30511,360.274012 1113.4086,360.638032 1113.5121,361.000023 C1093.77255,337.359013 1073.24411,314.415116 1052.11043,292.082143 C1049.17961,288.977835 1046.20008,285.923212 1043.24694,282.841211 C1040.27756,279.77594 1037.35079,276.667069 1034.34641,273.637795 L1025.35964,264.524117 L1020.86219,259.971334 L1016.31807,255.468236 C1004.26807,243.448991 991.98824,231.427717 979.050919,219.936756 C966.11715,208.451372 952.567487,197.421267 937.957513,187.568902 C923.35109,177.747971 907.688414,169.02924 890.805112,162.672581 C884.80446,160.379966 878.629288,158.464045 872.366348,156.8437 C869.240205,156.008179 866.060793,155.355681 862.886962,154.690001 L858.088165,153.847888 C856.490595,153.557382 854.869689,153.386526 853.260958,153.152803 C852.710002,153.169027 851.572577,153.645599 851.330582,153.786035 C844.686134,157.845516 843.420863,162.124523 844.014434,165.729232 C844.646562,169.366896 847.17406,172.351047 849.200828,174.140727 C849.777658,174.753173 849.952178,174.777001 850.439718,174.850515 C851.823196,175.054326 853.214791,175.191213 854.592689,175.445216 L858.73044,176.168186 C861.474059,176.749198 864.223766,177.303847 866.942018,178.033914 C872.386641,179.442336 877.786619,181.105775 883.087161,183.131206 C897.737214,188.634598 911.719626,196.332249 925.038456,205.235525 C938.368447,214.15097 951.023187,224.341498 963.260905,235.154611 C975.504711,245.985469 987.325407,257.41559 999.083701,269.162075 C1010.88563,280.811724 1022.44302,292.690026 1033.90605,304.651475 C1056.7621,328.63724 1078.81404,353.346988 1099.90663,378.813167 C1105.23913,385.133829 1110.34232,391.631939 1115.5277,398.066167 C1118.13891,401.269846 1120.63952,404.556164 1123.16905,407.821189 L1130.7485,417.62184 L1138.14937,427.551774 L1143.69292,435.004041 L1152.68426,447.596695 C1153.87851,449.279399 1155.09406,450.946894 1156.27004,452.641259 L1159.76197,457.748184 C1178.45591,484.931544 1195.89372,512.970198 1211.61119,541.896087 C1227.25053,570.865577 1241.22736,600.713683 1253.24084,631.309602 C1253.99523,633.219946 1254.7821,635.119136 1255.5091,637.039619 L1261.87604,654.391401 C1262.61014,656.310871 1263.21588,658.27242 1263.87896,660.215719 L1267.78588,671.895787 C1268.42612,673.846183 1269.12167,675.779341 1269.68632,677.752045 L1275.02187,695.431343 C1275.58804,697.402526 1276.09486,699.389932 1276.63466,701.36872 L1279.82929,713.252092 L1280.62579,716.223569 L1282.73779,725.202894 C1283.6662,729.195959 1284.64026,733.17939 1285.53366,737.179553 L1288.81758,753.477806 C1289.14938,755.16406 1289.5248,756.843722 1289.78201,758.543157 C1289.78201,758.543664 1290.63077,762.215803 1291.89502,767.686241 C1292.53324,770.426023 1293.27546,773.616013 1294.06841,777.020967 C1294.75178,780.448736 1295.47827,784.093498 1296.20171,787.718486 C1296.91806,791.349052 1297.67448,794.959845 1298.32031,798.324747 C1298.89562,801.700296 1299.42729,804.818293 1299.87475,807.44096 C1300.79454,812.689842 1301.43072,815.959937 1301.48856,815.3191 C1302.15062,818.3068 1302.63816,821.176879 1303.19571,823.821346 C1303.74768,826.466827 1304.31589,828.890753 1304.89119,831.00288 C1305.1758,832.045761 1305.46143,833.012594 1305.74756,833.892731 L1305.51876,834.608603 C1305.45686,834.826102 1305.4041,835.05222 1305.3488,835.27631 C1302.64932,836.124507 1299.54246,837.174486 1295.98965,838.449063 C1290.38877,840.267641 1284.26433,842.419313 1278.22868,844.623711 C1272.18541,846.811379 1266.21723,849.021862 1260.9593,851.024985 C1255.70594,853.034699 1251.13493,854.78382 1247.87739,856.030512 C1244.63,857.296976 1242.69252,858.053407 1242.69252,858.053407 C1236.62744,860.955426 1230.53496,863.799648 1224.44552,866.650968 C1161.91861,895.958115 1098.55004,923.464428 1034.51231,949.303246 L1017.70967,956.011756 C1012.11234,958.256714 1006.48711,960.430187 1000.8771,962.643204 C1000.4753,962.890616 999.856359,963.705351 999.656473,964.018672 C999.594579,963.991295 999.538773,963.996871 999.463689,964.007011 C999.341423,964.03084 998.153773,964.241748 996.151864,964.499807 C995.652148,964.568758 995.1017,964.644806 994.506099,964.726939 C993.907962,964.791327 993.263658,964.860785 992.577245,964.933792 C991.890833,965.005784 991.161806,965.08234 990.395744,965.162445 C989.627652,965.220749 988.821004,965.281081 987.981379,965.344455 C981.266412,965.872233 972.329864,965.811394 963.5237,964.760401 C959.123154,964.225525 954.762687,963.458447 950.722342,962.559551 C946.678447,961.689046 942.961777,960.580256 939.833097,959.619 C936.746018,958.635944 934.481822,957.713727 933.001952,957.023204 C932.263793,956.677436 931.707764,956.399098 931.34604,956.201371 C930.974678,956.009221 930.787982,955.902246 930.787982,955.902246 C930.787982,955.902246 930.531782,955.821635 930.084828,955.681198 C929.647513,955.534171 929.02198,955.32529 928.315275,955.044924 C927.951015,954.910064 927.597408,954.741743 927.19307,954.576464 C926.824244,954.392426 926.398597,954.214979 926.013029,953.997479 C925.601081,953.794683 925.218049,953.556397 924.805593,953.320646 C924.453509,953.089458 924.075551,952.893252 923.73057,952.620491 C922.272515,951.617662 921.047322,950.184904 920.246762,949.10197 C920.06311,948.828195 919.891634,948.57622 919.728275,948.354158 C919.588253,948.132096 919.468524,947.940453 919.357927,947.788355 C919.128615,947.48264 919.026136,947.340682 918.97033,947.42535 C918.339216,946.451926 917.779128,945.464814 917.278397,944.500009 C916.23635,933.317806 913.512009,922.191879 910.37369,911.3595 C910.22961,910.119906 910.086037,908.872707 909.906443,907.625508 C909.648214,906.001615 909.388971,904.370623 909.129727,902.743181 C908.853742,901.117766 908.619864,899.480691 908.295683,897.88164 C907.970487,896.281068 907.647321,894.694692 907.329734,893.133158 C906.996421,891.573653 906.710289,890.022766 906.342985,888.534239 C905.977203,887.043684 905.620553,885.587605 905.275064,884.177662 C904.92298,882.766198 904.582564,881.40087 904.255846,880.091311 C903.886005,878.794934 903.532399,877.554326 903.197564,876.379627 C902.515211,874.03327 901.935337,871.936861 901.388947,870.216132 C900.259132,866.7838 899.584388,864.73454 899.584388,864.73454 C896.935639,858.276991 894.014963,851.936556 890.954773,845.6671 C885.253443,834.038237 878.774383,822.8028 871.688053,811.970421 C871.213703,810.998519 870.729714,810.019011 870.201588,809.059276 C868.670478,806.215562 867.12009,803.272476 865.422577,800.45766 C864.581938,799.039605 863.743328,797.624085 862.911821,796.220733 C862.043278,794.845265 861.182853,793.481458 860.335112,792.138945 C858.651804,789.435159 856.915734,786.910849 855.302438,784.515314 C852.045405,779.756693 849.101392,775.697719 846.959969,772.853498 C845.889511,771.427838 845.035174,770.289642 844.448198,769.507354 C843.850568,768.738248 843.525372,768.319473 843.525372,768.319473 C841.117603,765.612646 838.707297,762.909875 836.263507,760.258816 C835.045925,758.926443 833.831894,757.587479 832.602136,756.277413 L827.349789,750.653357 C823.62906,746.70288 819.894634,742.786878 816.163758,738.892677 L804.93917,727.22072 C797.394725,719.425727 789.626042,711.617552 781.335828,704.150075 C777.190467,700.417604 772.914723,696.770815 768.475621,693.269532 C764.031445,689.775854 759.48276,686.464693 754.869645,683.304108 C745.637833,676.992572 736.153881,671.284862 726.655216,665.880334 C707.680716,655.104738 688.457119,645.154524 669.388764,635.226111 C650.327511,625.294149 631.425559,615.383987 613.128339,604.67937 C594.796114,594.00568 576.936209,582.523845 559.552176,570.367711 C550.874872,564.268604 542.31476,558.003204 533.877421,551.575567 C525.459361,545.123087 517.173712,538.500258 509.013881,531.725332 C500.848469,524.960545 492.870767,517.956965 484.994024,510.874802 C483.916463,509.89935 482.844991,508.919843 481.77707,507.938815 C480.649284,505.872318 479.453009,503.816974 478.196363,501.805739 C474.617685,496.063554 470.618941,490.664603 466.864729,486.099652 C463.110009,481.533687 459.639392,477.752545 457.122548,475.115682 C455.870467,473.786351 454.836029,472.774396 454.138456,472.05751 C453.434795,471.348736 453.052271,470.962916 453.052271,470.962916 L448.829289,467.370374 C447.405225,466.204294 445.990293,465.018441 444.557604,463.869599 C443.12035,462.731403 441.695271,461.563802 440.246348,460.449941 L438.078544,458.767237 L436.992866,457.92918 L433.612553,455.371408 C423.440159,447.750313 413.086143,440.624041 402.844753,433.588521 C397.722282,430.071015 392.625178,426.584942 387.637148,423.029918 L380.114518,417.722732 C377.603762,415.957894 375.155914,414.105855 372.67306,412.301979 C333.047855,383.306125 295.673656,351.233341 260.983718,316.485669 C243.629617,299.120198 226.98831,281.046461 211.056244,262.37346 L202.156223,251.816884 C201.172518,250.63965 200.217731,249.439094 199.246709,248.251213 L193.443914,241.106183 C191.500855,238.731942 189.585192,236.334887 187.687286,233.920594 C180.081454,224.273561 172.624269,214.46277 165.218324,204.566804 L76.5747729,84.9077005 L54.9981978,55.7445395 C54.6253132,55.3926874 53.529489,54.9622517 53.2661868,54.8943148 C43.5727088,52.4556861 39.3837179,56.3235237 37.7937582,60.857041 C31.3081026,57.7618584 22.5196941,58.9588651 17.6747308,64.233097 C12.2651136,70.1218024 11.3438095,77.8721804 14.6429505,84.4676319 C13.9950952,84.7860226 13.3649963,85.1399026 12.7562051,85.5323139 C8.98728022,87.9602959 5.83526374,91.1107406 3.40517216,94.876673 C-0.58697619,101.065517 -0.25417033,108.07366 0.777730769,114.94745 C1.15721062,117.476323 1.51994872,120.007224 1.8745696,122.539139 C10.0820897,186.096092 10.3499579,250.382605 18.555956,313.942093 C20.4290037,328.452188 22.4968645,343.0216 25.1938095,357.463251 C25.9700183,365.406286 26.8603755,373.338167 27.9003938,381.250782 C28.7339304,387.588175 29.6379853,393.909851 30.6409689,400.227978 C31.6419231,406.555738 32.7494158,412.933184 34.0846978,419.335471 C36.7583059,432.12433 40.3374908,445.08151 45.9302527,457.586454 C48.7246044,463.826504 52.0237454,469.942342 55.91037,475.729142 C59.7848187,481.520505 64.1757253,486.925034 68.9532143,491.903183 C78.5188462,501.863029 89.5765238,510.125976 101.40483,516.731567 C106.844379,519.766418 112.445258,522.472231 118.168403,524.858133 C118.168403,524.858133 119.138918,525.193254 120.832879,525.777308 C121.676055,526.083024 122.714044,526.379107 123.895099,526.752253 C125.079705,527.108668 126.402304,527.554313 127.867462,527.941147 C133.692071,529.628922 141.503877,531.437867 149.25176,532.682024 C164.766804,535.269202 179.871421,535.503939 178.576725,535.174901 C179.531005,535.175408 180.469559,535.165268 181.393907,535.147524 C180.058117,538.057654 180.113923,541.48441 180.567473,543.950923 C180.655747,544.813315 180.786637,544.951217 181.143288,545.337544 C189.328993,554.041573 197.333582,562.915951 205.166696,571.937864 C218.133441,586.883464 230.618734,602.247332 242.57996,618.008682 C249.19752,631.51899 255.797832,645.041465 263.523899,657.961128 C285.543877,694.781887 317.730668,723.77622 355.884628,743.259394 C362.764476,746.772844 369.745282,749.970439 376.809797,752.894766 C377.524112,753.209101 378.236397,753.529012 378.952742,753.836756 C390.384319,758.681059 402.03709,762.794281 413.787267,766.256018 C416.726714,767.114355 419.664639,767.979789 422.613725,768.762584 C425.558245,769.584924 428.510883,770.333243 431.463013,771.086632 C432.936795,771.481072 434.419201,771.803011 435.899071,772.146751 L440.340203,773.167325 L449.222467,775.206952 C452.106615,775.914712 455.025769,776.424238 457.933762,776.999673 C456.887148,778.010614 456.02165,779.116363 455.371766,780.130346 C454.843132,780.826445 454.843132,781.019608 454.836537,781.551442 L454.847698,799.686019 C454.852771,805.710598 454.834507,811.838097 455.00294,818.113636 C455.057731,819.773526 455.103897,821.428853 455.191158,823.105474 C455.469172,829.168585 456.013026,835.366555 457.034273,841.621308 C457.034273,841.621308 457.272209,842.646445 457.686694,844.435111 C457.920064,845.328429 458.203659,846.41187 458.527841,847.653999 C458.90174,848.893593 459.261941,850.289848 459.778907,851.801696 C460.03054,852.556099 460.273549,853.349034 460.562218,854.151094 C460.860018,854.948085 461.167458,855.771439 461.483522,856.617608 C462.092313,858.328197 462.841126,860.031181 463.596027,861.801088 C463.786782,862.242171 463.978551,862.685788 464.171842,863.133461 C464.375788,863.567953 464.581255,864.005487 464.787736,864.445555 C465.201207,865.324678 465.619244,866.213434 466.039817,867.10726 C466.912418,868.850804 467.795165,870.627809 468.699727,872.342961 C472.330152,879.217765 476.019427,885.586591 478.503802,890.191087 C479.737619,892.480153 480.738573,894.336756 481.394546,895.554042 C482.026674,896.761189 482.365568,897.320908 482.309255,897.015699 C485.074181,902.198165 487.294747,906.951717 489.01509,910.732859 C489.182507,911.103977 489.342822,911.462926 489.500093,911.814779 C489.036905,912.312137 488.642712,912.846506 488.315487,913.410281 C487.429696,915.014908 487.190745,916.977979 487.509346,918.931924 C487.817293,920.88739 488.660976,922.777961 489.5975,924.263953 C490.096709,925.185157 490.322976,925.322551 490.911982,925.656659 C494.304471,927.55889 497.608685,928.915092 500.686632,930.078131 C502.23144,930.66472 503.68848,931.174246 505.165306,931.679717 L506.20989,932.041202 C498.882581,940.093747 492.809888,949.280938 488.343897,959.301624 C487.531161,961.009171 486.876711,962.793781 486.182181,964.558618 C483.885516,970.668879 482.199165,977.052408 481.245392,983.590569 C481.245392,983.590569 481.219011,983.862824 481.169293,984.37235 C481.126678,984.88289 481.027242,985.624112 481.006441,986.58334 C480.969914,987.537498 480.925269,988.695466 480.874537,990.022263 C480.836487,990.682872 480.853229,991.390632 480.872,992.135403 C480.888742,992.878652 480.906498,993.660433 480.925269,994.475168 C480.951143,995.368994 481.000861,996.309463 481.070872,997.280859 C480.567097,999.04671 480.330176,1000.90078 480.599059,1002.5338 C479.532659,1004.398 479.924822,1007.09368 482.557337,1007.54693 C496.595048,1009.96224 510.551586,1012.77502 524.625824,1015.00629 C531.312381,1016.06591 538.08772,1016.69255 544.752969,1017.84392 C548.92674,1019.25995 553.099496,1020.67801 557.277833,1022.07882 C586.740791,1031.95451 616.81457,1040.12518 646.602216,1048.9661 C676.290427,1057.7771 705.950227,1066.68748 735.491313,1075.98266 C776.440132,1088.86785 817.181962,1102.39387 858.011559,1115.6446 C859.857718,1115.49301 861.722648,1115.34345 863.622077,1115.19946 C874.142496,1114.3538 885.36404,1113.45186 896.585584,1112.54992 C907.85228,1111.66472 919.118976,1110.77951 929.682011,1109.95007 C934.965811,1109.53586 940.072555,1109.13534 944.915489,1108.7556 C949.762989,1108.35356 954.35226,1107.9287 958.586403,1107.53172 C962.822068,1107.11244 966.704126,1106.72865 970.145319,1106.38846 C973.396264,1106.03965 976.230694,1105.73545 978.564901,1105.485 C982.204458,1105.06926 984.284495,1104.8325 984.284495,1104.8325 C998.037088,1101.71298 1011.71866,1098.28318 1025.23889,1094.43005 C1029.46796,1094.59736 1033.69399,1094.79711 1037.92762,1094.63031 C1040.308,1094.53652 1042.71019,1094.05234 1044.99924,1093.22645 C1048.10205,1091.13714 1051.21551,1089.06355 1054.34368,1087.01226 C1056.36892,1084.73485 1057.87619,1082.01028 1058.58137,1078.91611 C1058.78075,1078.04054 1058.92483,1077.14468 1059.02224,1076.23818 C1061.0551,1076.18748 1062.6273,1076.11194 1062.6273,1076.11194 C1062.6273,1076.11194 1062.24275,1075.15981 1061.71665,1073.79398 C1062.21992,1074.22593 1062.63998,1074.56613 1062.94133,1074.80188 C1063.30306,1075.07971 1063.49584,1075.22775 1063.49584,1075.22775 C1063.49584,1075.22775 1063.34821,1075.04422 1063.0707,1074.69997 C1062.79675,1074.35471 1062.4061,1073.84113 1061.93581,1073.17697 C1061.61975,1072.73132 1061.27122,1072.20912 1060.89985,1071.62963 C1060.71975,1071.14241 1060.53813,1070.64252 1060.36006,1070.1411 C1059.28402,1067.15746 1058.35866,1064.17229 1058.35866,1064.17229 C1058.35866,1064.17229 1057.76509,1063.79256 1056.81131,1063.16135 C1056.79762,1063.13296 1056.78544,1063.10356 1056.77123,1063.07516 C1057.41909,1062.77148 1058.06593,1062.46627 1058.71328,1062.16258 C1059.69648,1062.76438 1060.62184,1063.31751 1061.44827,1063.80219 C1062.5512,1064.45063 1063.47656,1064.97993 1064.12848,1065.34243 C1064.77887,1065.70899 1065.15023,1065.91787 1065.15023,1065.91787 C1065.15023,1065.91787 1068.64418,1066.00304 1072.08081,1065.92496 C1072.44253,1065.91837 1072.80274,1065.91026 1073.15939,1065.90063 C1073.18627,1065.91787 1073.21671,1065.93713 1073.2431,1065.95386 C1073.97415,1066.40762 1074.56164,1066.73919 1074.97257,1066.94604 C1075.37945,1067.15695 1075.59658,1067.269 1075.59658,1067.269 C1075.59658,1067.269 1075.41749,1067.11386 1075.08114,1066.82285 C1074.81784,1066.60028 1074.46981,1066.27884 1074.05685,1065.87426 C1076.70864,1065.78757 1078.90181,1065.6451 1078.90181,1065.6451 C1078.90181,1065.6451 1077.78671,1063.72766 1076.53361,1061.40361 C1076.59551,1061.42643 1076.66755,1061.4533 1076.72538,1061.4751 C1077.47927,1061.75445 1077.90948,1061.91415 1077.90948,1061.91415 C1077.90948,1061.91415 1078.82317,1061.78994 1080.19295,1061.60438 C1080.74087,1061.53442 1081.36995,1061.41882 1082.03201,1061.29816 C1082.84881,1061.44417 1083.61385,1061.56636 1084.24903,1061.66269 C1085.35347,1061.81478 1086.09011,1061.91618 1086.09011,1061.91618 C1086.09011,1061.91618 1085.99271,1061.36153 1085.86182,1060.49762 C1086.46147,1060.35566 1087.05251,1060.20864 1087.61006,1060.04995 C1088.40961,1059.82788 1089.13863,1059.63726 1089.76569,1059.42736 C1090.99849,1059.02633 1091.82036,1058.75864 1091.82036,1058.75864 C1091.82036,1058.75864 1091.3526,1058.29931 1090.62053,1057.58039 C1092.44589,1057.19356 1093.86133,1056.82954 1093.86133,1056.82954 C1093.86133,1056.82954 1092.76906,1054.17189 1091.91016,1051.51069 C1091.80463,1051.19382 1091.70266,1050.87644 1091.60424,1050.56363 L1093.53664,1052.80859 L1090.57589,1046.92343 C1090.69054,1046.86563 1090.8052,1046.80834 1090.91986,1046.75004 C1092.98619,1047.9942 1094.79836,1048.89918 1096.1377,1049.49743 C1096.41673,1049.62975 1096.66989,1049.74028 1096.90884,1049.84167 C1096.96972,1049.8797 1097.03516,1049.92127 1097.09046,1049.95524 C1097.51103,1050.2204 1097.75151,1050.37148 1097.75151,1050.37148 C1097.75151,1050.37148 1097.88037,1050.35728 1098.09903,1050.32991 C1098.41255,1050.45716 1098.58758,1050.52814 1098.58758,1050.52814 C1098.58758,1050.52814 1098.48155,1050.45159 1098.28166,1050.30709 C1099.16898,1050.19505 1101.04304,1049.94003 1102.86231,1049.575 C1105.37205,1049.0969 1107.75801,1048.42413 1107.75801,1048.42413 C1107.75801,1048.42413 1107.58349,1047.85275 1107.34352,1046.98427 C1107.65806,1046.9067 1107.97616,1046.82558 1108.29273,1046.74193 C1110.76797,1046.10819 1113.13059,1045.31931 1113.13059,1045.31931 C1113.1311,1045.31931 1112.18747,1042.76053 1111.45946,1040.20326 C1111.04497,1038.7923 1110.69695,1037.38591 1110.46814,1036.40742 C1112.1068,1035.51258 1113.74293,1034.61267 1115.37804,1033.71124 C1116.39117,1035.14095 1117.51642,1036.43783 1118.42352,1037.36563 C1118.90447,1037.86299 1119.31997,1038.25996 1119.61827,1038.52867 C1119.91404,1038.80092 1120.08298,1038.95657 1120.08298,1038.95657 C1120.08298,1038.95657 1122.41973,1038.85923 1124.5718,1038.38823 C1125.64734,1038.17225 1126.69192,1037.8711 1127.44733,1037.62521 C1128.20781,1037.37222 1128.68825,1037.18666 1128.68825,1037.18666 C1128.68825,1037.18666 1128.58374,1035.25604 1128.78768,1033.22655 C1129.3569,1033.61998 1129.71406,1033.8537 1129.71406,1033.8537 C1129.71406,1033.8537 1131.79105,1033.28181 1133.75999,1032.55884 C1135.73906,1031.85159 1137.60247,1031.00137 1137.60247,1031.00137 C1137.60247,1031.00137 1137.52536,1029.66443 1137.51876,1028.02076 C1137.985,1028.31178 1138.38477,1028.5526 1138.68308,1028.72548 C1139.05545,1028.94552 1139.26802,1029.07074 1139.26802,1029.07074 C1139.26802,1029.07074 1141.63774,1028.56476 1143.87404,1027.86055 C1146.12301,1027.17764 1148.22639,1026.30967 1148.22639,1026.30967 C1148.22639,1026.30967 1147.58614,1023.8467 1147.21326,1021.40858 C1146.81247,1018.97046 1146.67803,1016.56985 1146.67803,1016.56985 C1146.67803,1016.56985 1146.6344,1016.54451 1146.55424,1016.49837 C1147.0915,1016.20685 1147.62876,1015.91634 1148.16601,1015.62584 L1150.97762,1017.82821 L1150.97457,1017.86015 C1150.97457,1017.86015 1150.99537,1017.86218 1151.0248,1017.86522 L1152.44024,1018.97401 L1151.62649,1017.92961 C1152.58127,1018.03506 1154.45077,1018.25966 1156.31164,1018.58008 C1158.97104,1019.0166 1161.59341,1019.64526 1161.59341,1019.64526 C1161.59341,1019.64526 1163.14989,1018.34331 1164.79921,1017.10727 C1166.43939,1015.86362 1168.1714,1014.68841 1168.1714,1014.68841 C1168.1714,1014.68841 1167.93194,1013.83058 1167.57022,1012.64219 L1173.05746,1011.12375 L1171.37161,1003.54677 C1172.36191,1003.8175 1173.41563,1004.09685 1174.47442,1004.36201 C1178.82575,1005.47942 1183.23188,1006.35854 1183.23188,1006.35854 C1183.23188,1006.35854 1185.2348,1005.33442 1187.32296,1004.18811 C1187.62685,1004.06947 1187.93936,1003.94577 1188.25035,1003.81953 C1190.02345,1003.10771 1191.73264,1002.31376 1191.73264,1002.31376 C1191.73264,1002.31376 1191.7788,1002.04455 1191.85845,1001.60854 C1192.10197,1001.46506 1192.24148,1001.38191 1192.24148,1001.38191 C1192.24148,1001.38242 1192.14306,1001.23945 1191.97311,1000.99001 C1192.12734,1000.17223 1192.34396,999.077129 1192.59052,997.992675 C1193.06386,995.852157 1193.64931,993.762338 1193.64931,993.762338 C1193.64931,993.762338 1192.88579,993.166116 1191.93607,992.364563 C1194.92118,990.785792 1197.90476,989.202964 1200.88683,987.617602 C1202.00345,988.428281 1203.08761,989.156828 1203.98405,989.723138 C1204.63597,990.137857 1205.18692,990.470443 1205.57705,990.695547 C1205.96567,990.9242 1206.18737,991.054497 1206.18737,991.054497 C1206.18737,991.054497 1208.62304,990.581474 1210.91463,989.888417 C1213.21992,989.219188 1215.3649,988.344121 1215.3649,988.344121 C1215.3649,988.344121 1215.20509,987.797077 1214.991,986.967639 C1215.19646,987.008198 1215.3862,987.045209 1215.55565,987.07867 C1216.22278,987.207446 1216.60328,987.28096 1216.60328,987.28096 C1216.60328,987.28096 1217.35514,986.987412 1218.48343,986.546329 C1219.03692,986.333393 1219.68072,986.033761 1220.35242,985.732101 C1221.02462,985.434497 1221.73082,985.086701 1222.4218,984.725216 C1223.11278,984.375392 1223.78803,984.009344 1224.4095,983.640761 C1225.03098,983.277249 1225.59665,982.954802 1226.07455,982.637425 C1227.01006,982.021431 1227.63407,981.611275 1227.63407,981.611275 C1227.63407,981.611275 1227.01006,981.113916 1226.13035,980.367118 C1225.70166,980.011717 1225.21362,979.559987 1224.70832,979.08595 C1224.69158,978.791895 1224.66976,978.493277 1224.64237,978.193645 C1224.54851,977.066097 1224.37196,975.94818 1224.20251,975.053341 C1227.09275,973.470006 1229.9769,971.876025 1232.85547,970.271904 L1230.8774,973.519691 C1230.8774,973.519691 1233.30141,975.015316 1235.90399,976.080505 C1238.48983,977.190309 1241.19388,977.876776 1241.19388,977.876776 C1241.19388,977.876776 1242.83609,976.631098 1244.2769,975.25563 C1245.73698,973.893344 1246.99261,972.421548 1246.99261,972.421548 C1246.99261,972.421548 1246.77497,971.810623 1246.49949,970.917304 C1247.53444,970.547201 1248.77586,970.083811 1249.9899,969.582396 C1251.43831,969.001891 1252.85375,968.361054 1253.8958,967.875863 C1254.92922,967.379518 1255.61868,967.04896 1255.61868,967.04896 C1255.61868,967.04896 1254.48836,965.942198 1253.11401,964.466853 L1254.05053,964.736572 L1255.156,964.292954 L1256.44156,964.914019 L1255.99664,963.955805 L1263.85562,960.804346 L1260.31246,954.424366 C1263.2169,952.663585 1266.09242,950.862751 1268.93649,949.019331 C1269.29923,949.317442 1269.67719,949.61606 1270.0658,949.90251 C1272.39696,951.692696 1274.98838,953.042815 1274.98838,953.042815 C1274.98838,953.042815 1276.92789,952.236698 1278.6807,951.232855 C1280.45229,950.249292 1282.025,949.090309 1282.025,949.090309 C1282.025,949.090309 1281.96818,948.683702 1281.90172,948.05047 C1284.67425,946.994914 1287.2261,945.90691 1287.2261,945.90691 C1287.2261,945.90691 1284.9751,943.541288 1282.87223,941.116348 C1282.56631,940.768045 1282.26496,940.418728 1281.97071,940.075495 C1283.02392,939.308924 1284.07104,938.535762 1285.11157,937.753981 C1286.15159,938.244242 1287.13986,938.675691 1287.96832,939.014869 C1288.64509,939.294221 1289.2133,939.515269 1289.61409,939.662297 C1290.01335,939.81338 1290.24165,939.899062 1290.24165,939.899062 C1290.24165,939.899062 1292.46729,938.984956 1294.53008,937.904051 C1296.6091,936.840382 1298.51614,935.624617 1298.51614,935.624617 C1298.51614,935.625124 1297.57403,933.507928 1296.81964,931.281728 C1297.68006,931.580853 1298.15898,931.747147 1298.15898,931.747147 C1298.15898,931.747147 1297.61259,931.390732 1296.6441,930.760541 C1296.44269,930.157728 1296.25955,929.561 1296.09873,929.007872 C1297.69072,927.662824 1299.26495,926.295468 1300.8199,924.905297 C1301.00457,924.944843 1301.19634,924.986416 1301.37695,925.025454 C1302.41189,925.247009 1303.37733,925.454876 1304.20529,925.63283 C1305.86069,925.988231 1306.96413,926.225503 1306.96413,926.225503 L1316.32277,921.598192 L1313.80948,917.642645 C1314.18135,917.31665 1314.52734,917.00485 1314.81804,916.73513 C1315.46387,916.11508 1315.89459,915.701882 1315.89459,915.701882 C1315.89459,915.702389 1315.8195,915.619242 1315.69318,915.47475 L1318.34903,917.011948 L1316.72508,915.440274 C1317.81076,915.922423 1318.84672,916.340691 1319.70765,916.662124 C1320.37529,916.914098 1320.93639,917.111318 1321.33109,917.241615 C1321.72579,917.374954 1321.95105,917.451002 1321.95105,917.451002 C1321.95105,917.451002 1324.10262,916.446652 1326.06749,915.268404 C1328.05063,914.108408 1329.83641,912.793272 1329.83641,912.793272 C1329.83641,912.793272 1329.50716,912.104271 1329.07948,911.104484 C1331.38122,911.243906 1333.57186,911.252525 1335.33431,911.184081 C1335.94918,911.156197 1336.51282,911.13034 1337.01305,911.107525 C1337.51175,911.066966 1337.94602,911.031477 1338.3047,911.002578 C1339.02003,910.941739 1339.42944,910.907264 1339.42944,910.907264 C1339.42944,910.907771 1340.11484,910.416496 1341.14268,909.679838 C1341.6495,909.321902 1342.22532,908.854963 1342.83106,908.378391 C1343.43782,907.905368 1344.06742,907.374041 1344.68027,906.833588 C1345.29514,906.304796 1345.89227,905.763836 1346.4346,905.235044 C1346.97744,904.711322 1347.47665,904.242355 1347.88657,903.802286 C1348.69372,902.944963 1349.23199,902.373584 1349.23199,902.373584 C1349.23199,902.373584 1348.45832,902.068375 1347.3488,901.595352 C1346.79683,901.367713 1346.15253,901.059969 1345.48133,900.737016 C1344.81116,900.418118 1344.10902,900.063224 1343.41905,899.678925 C1343.07153,899.493366 1342.72757,899.301723 1342.39324,899.109066 C1342.1411,898.573683 1341.90773,898.055031 1341.6977,897.575924 C1343.81984,898.088493 1345.82429,898.518421 1347.50455,898.841375 C1348.02862,898.939731 1348.50855,899.029469 1348.96311,899.11515 L1351.86958,908.353041 L1354.22966,907.538306 C1354.22966,907.538306 1353.94911,905.917961 1353.63711,904.30877 C1353.32865,902.698059 1352.98976,901.099515 1352.98976,901.099515 C1352.98976,901.099515 1352.67877,900.509377 1352.24247,899.666757 C1352.28102,899.673348 1352.30588,899.676897 1352.30588,899.676897 C1352.30588,899.676897 1353.01462,899.465481 1354.12211,899.133909 L1357.17469,906.416334 L1358.44859,905.858643 C1358.44909,905.858643 1357.92401,904.316882 1357.39893,902.775121 C1356.85913,901.240458 1356.31883,899.705795 1356.31883,899.705795 C1356.31883,899.705795 1356.08901,899.276373 1355.74251,898.630973 C1356.92255,898.254786 1358.2832,897.804577 1359.62457,897.31381 C1360.51949,896.997447 1361.4063,896.669424 1362.23172,896.342414 C1363.05714,896.019461 1363.81863,895.730475 1364.46902,895.452137 C1365.75865,894.909149 1366.61806,894.547157 1366.61806,894.547157 C1366.61806,894.547157 1365.83728,894.003663 1364.66536,893.189434 C1364.08549,892.788911 1363.41734,892.29206 1362.71012,891.768844 C1362.00291,891.248671 1361.25866,890.685911 1360.5271,890.103885 C1359.57891,889.369254 1358.65507,888.610795 1357.83827,887.926863 C1357.64752,887.120747 1357.45169,886.314124 1357.24267,885.504965 C1358.0407,885.686975 1358.78291,885.855803 1359.4465,886.007394 C1360.20546,886.195488 1360.86752,886.36026 1361.41238,886.495627 C1362.50263,886.76636 1363.12562,886.922006 1363.12562,886.922006 C1363.12562,886.922006 1364.35589,886.832269 1366.20154,886.698423 C1367.13096,886.622881 1368.207,886.582322 1369.37334,886.518948 C1370.54019,886.451518 1371.78314,886.407917 1373.03167,886.374963 C1374.28274,886.331868 1375.53685,886.303984 1376.71182,886.300942 C1377.8883,886.293337 1378.99732,886.27255 1379.94044,886.291816 C1381.83936,886.315645 1383.10514,886.331868 1383.10514,886.331868 C1383.10514,886.331868 1382.17267,885.47049 1380.77448,884.179183 C1380.07285,883.523643 1379.23779,882.792561 1378.33729,881.997599 C1377.43881,881.19858 1376.46931,880.353425 1375.48358,879.530071 C1374.70128,878.860843 1373.90985,878.202768 1373.14227,877.574605 C1373.2341,877.570042 1373.32136,877.565986 1373.4147,877.561424 C1373.7262,877.558889 1373.8713,877.510217 1374.08285,877.479291 C1374.2868,877.448364 1374.50038,877.423015 1374.7236,877.403749 C1375.61345,877.329728 1376.63115,877.352543 1377.62247,877.481826 C1379.62032,877.733294 1381.45582,878.42483 1382.22848,879.263901 C1382.64195,879.680648 1382.82915,880.213496 1382.85604,880.644945 C1382.86974,880.857375 1382.86822,881.039385 1382.85046,881.16157 C1382.8393,881.287811 1382.83321,881.35524 1382.83321,881.35524 C1382.83321,881.355747 1382.88902,881.316202 1382.99251,881.242181 C1383.10463,881.167654 1383.25328,881.051046 1383.43591,880.876134 C1383.7951,880.5329 1384.28518,879.905752 1384.46731,878.863885 C1384.65705,877.831143 1384.44346,876.496235 1383.92193,875.206955 L1383.92193,875.206955 Z M494.836656,1002.96373 C492.389315,1002.49374 489.950092,1001.99537 487.515941,1001.48027 C487.513405,1001.4392 487.510361,1001.39814 487.508332,1001.35656 C489.942482,1001.92338 492.392866,1002.44406 494.836656,1002.96373 L494.836656,1002.96373 Z M689.040544,819.17477 L689.021773,819.717757 L689.008582,819.993561 C689.003002,820.077721 688.989304,820.078228 688.981694,820.124364 L688.877185,820.573052 C688.805652,820.871163 688.728538,821.151022 688.650918,821.411616 C688.495168,821.933817 688.330795,822.380983 688.169973,822.756664 C688.185192,822.89051 687.939139,822.830178 687.805712,822.846908 L687.356222,822.847922 C687.083788,822.842853 686.811861,822.837276 686.541963,822.831699 C686.288808,822.822573 686.054423,822.809391 685.837288,822.79266 L685.524775,822.764776 L685.378665,822.749059 C685.355835,822.75058 685.37765,822.739426 685.319308,822.751594 L685.176242,822.778465 L684.89011,822.832713 C681.842603,823.423358 678.892502,823.994737 676.122502,824.531134 C665.053156,826.721337 656.902456,828.499356 656.902456,828.499356 L637.468826,834.121384 L625.709009,837.520761 L619.682484,839.296245 L618.677978,839.592328 L618.426344,839.666349 L618.301035,839.703359 L618.238634,839.721611 C618.233053,839.74037 618.234575,839.764198 618.232546,839.785492 L617.430463,852.860801 C617.380745,853.564505 617.359945,854.238297 617.334071,854.917665 L617.282832,856.272853 C617.233621,857.735017 617.159551,859.19718 617.131141,860.65985 C617.096643,863.585698 617.018515,866.512052 617.07635,869.4379 C617.149912,881.142811 618.04585,892.833019 619.616531,904.428927 C620.510947,910.660359 621.546399,916.874046 622.852764,923.035006 C623.793346,927.409835 624.80191,931.771989 625.930711,936.103217 C625.690238,936.073811 625.456868,936.045927 625.212337,936.015507 C623.77559,935.799529 622.302315,935.640334 620.805196,935.390894 C619.310106,935.164776 617.787621,934.935109 616.247379,934.7024 C613.170954,934.288188 610.040245,933.736581 606.928815,933.250883 C600.708491,932.249068 594.585066,931.135715 589.196756,930.069512 C586.496767,929.585335 583.994636,928.992155 581.741093,928.530286 C580.615844,928.294028 579.554518,928.070952 578.566247,927.863592 C577.580005,927.650149 576.672399,927.423017 575.845458,927.234923 C572.542258,926.47545 570.571297,926.022199 570.571297,926.022199 C567.347747,925.489858 564.136881,924.881469 560.919927,924.309075 C557.723773,923.633763 554.514429,923.017261 551.327914,922.29784 L546.823366,921.230623 C545.322189,920.874208 543.816952,920.534017 542.329473,920.12234 L537.854857,918.939529 L535.617549,918.348884 L533.395462,917.70247 C527.757548,916.113052 522.160727,914.378634 516.616161,912.495161 L512.465727,911.05784 C511.080727,910.58431 509.683551,910.094557 508.402046,909.60531 C505.823308,908.635435 503.530194,907.649844 501.647,906.586683 C501.278174,906.495931 500.37767,906.664253 500.147344,906.732696 C498.755242,907.176314 497.468663,907.599652 496.282535,908.029581 C496.247022,907.418149 496.206943,906.785931 496.155703,906.111632 C495.922841,902.602744 495.165403,898.341481 493.859546,893.327336 C492.449179,887.367145 490.331601,881.015556 488.215544,874.936222 C486.093399,868.851311 484.030104,863.012797 482.559874,857.949474 C482.373685,857.317763 482.190033,856.696191 482.009932,856.086281 C481.853676,855.48144 481.699956,854.887246 481.549788,854.305727 C481.248436,853.14573 480.940489,852.038461 480.74111,851.002171 C480.517886,849.967401 480.306839,848.991442 480.111011,848.082914 C479.950189,847.175906 479.801542,846.336328 479.666593,845.573813 C479.447429,844.026982 479.24602,842.810203 479.160282,841.949332 C479.056788,841.097586 479.000474,840.634196 479.000474,840.634196 C477.876747,834.685665 477.267449,828.478062 476.980302,822.077802 C476.922974,820.569503 476.902681,819.037375 476.873256,817.510317 C476.719537,811.700195 476.736278,805.736455 476.734249,799.671823 L476.733234,793.028207 C479.890324,792.460884 484.922491,791.556918 488.660976,790.884648 C488.688879,790.909997 488.716782,790.937375 488.744685,790.962217 C490.089099,792.162773 491.519758,793.084484 492.751038,793.737488 C493.385196,794.082243 493.951372,794.335231 494.495733,794.580108 C495.023352,794.803691 495.495672,794.981645 495.89646,795.128673 C496.689918,795.403969 497.174921,795.533252 497.174921,795.533252 C497.174921,795.533759 497.908515,795.532238 499.203718,795.438445 C499.530436,795.406504 499.891652,795.371522 500.285337,795.333498 C500.289903,795.332991 500.295991,795.332484 500.300557,795.331977 C501.221353,796.421501 502.756015,797.453736 505.069929,798.367841 C507.684179,799.681456 510.731179,800.69189 513.118148,801.396101 C515.505117,802.095749 517.239665,802.480556 517.239665,802.480556 C517.239665,802.480556 519.812822,802.20171 523.6893,801.864561 C527.566286,801.52944 532.748621,801.17049 537.955815,800.945386 C540.68878,800.823708 543.423267,800.741575 545.98222,800.690876 C546.732555,801.750995 547.967894,802.820747 549.85261,803.851968 C552.262916,805.446963 555.280491,806.656137 557.71109,807.400908 C558.924614,807.768476 559.99152,808.055433 560.751495,808.230346 C561.509947,808.396639 561.964511,808.478264 561.964511,808.478264 C561.964511,808.478264 562.633674,808.392583 563.805597,808.241499 C564.97752,808.089402 566.643579,807.812585 568.643965,807.479491 C572.639158,806.781871 577.929553,805.599567 583.134718,804.037019 C587.08628,802.866376 590.976963,801.469108 594.28067,800.139269 C594.513533,802.247847 596.203436,804.208889 600.271176,805.470284 C605.287615,807.544386 611.773271,808.081797 611.773271,808.081797 C611.773271,808.082304 613.140515,807.708651 615.341802,807.107359 C615.598002,809.213909 617.807407,810.924498 623.181511,811.538465 C626.511092,812.196032 630.343432,812.417588 633.342744,812.486032 C636.342055,812.55194 638.510874,812.460175 638.510874,812.460175 C638.510874,812.460682 641.584762,811.51058 646.206502,810.082385 C650.833315,808.670921 657.021678,806.828007 663.250119,805.042383 C669.477546,803.253211 675.745559,801.524877 680.503262,800.248779 C682.037923,799.842172 683.411762,799.478659 684.578104,799.169395 C684.922071,799.711876 685.266546,800.295423 685.60544,800.927134 C686.288808,802.20171 686.947317,803.670972 687.508419,805.34455 C688.083727,807.026241 688.503793,808.856987 688.808696,811.008152 C689.092291,813.545644 689.149112,816.274779 689.040544,819.17477 L689.040544,819.17477 Z M1151.04357,1017.18078 L1149.33895,1014.99311 C1150.01775,1014.62656 1150.69757,1014.26 1151.37637,1013.89446 L1151.04357,1017.18078 L1151.04357,1017.18078 Z" id="Fill-10" fill="#000000" sketch:type="MSShapeGroup"></path>
            </g>
        </g>
    </g>
</svg>