<?xml version="1.0" encoding="UTF-8" standalone="no"?>
<svg width="536px" height="75px" viewBox="0 0 536 75" version="1.1" xmlns="http://www.w3.org/2000/svg" xmlns:xlink="http://www.w3.org/1999/xlink" xmlns:sketch="http://www.bohemiancoding.com/sketch/ns">
    <!-- Generator: Sketch 3.3.3 (12072) - http://www.bohemiancoding.com/sketch -->
    <title>crash@2x</title>
    <desc>Created with Sketch.</desc>
    <defs></defs>
    <g id="Page-1" stroke="none" stroke-width="1" fill="none" fill-rule="evenodd" sketch:type="MSPage">
        <g id="crash" sketch:type="MSArtboardGroup" fill="#B40032">
            <path d="M92.19,52.732 L119.854,52.732 C119.004662,45.2092957 116.942016,38.5360291 113.666,32.712 C110.389984,26.8879709 106.234359,22.0043531 101.199,18.061 C96.1636415,14.1176469 90.4610318,11.114677 84.091,9.052 C77.7209681,6.98932302 70.9567025,5.958 63.798,5.958 C53.8486169,5.958 44.9003731,7.71731574 36.953,11.236 C29.0056269,14.7546843 22.3020273,19.6079691 16.842,25.796 C11.3819727,31.9840309 7.19601456,39.2336251 4.284,47.545 C1.37198544,55.8563749 -0.084,64.8652848 -0.084,74.572 C-0.084,84.0360473 1.37198544,92.862959 4.284,101.053 C7.19601456,109.243041 11.3819727,116.371303 16.842,122.438 C22.3020273,128.504697 29.0056269,133.266983 36.953,136.725 C44.9003731,140.183017 53.8486169,141.912 63.798,141.912 C71.80604,141.912 79.1466333,140.698679 85.82,138.272 C92.4933667,135.845321 98.3173085,132.32669 103.292,127.716 C108.266692,123.10531 112.270651,117.524033 115.304,110.972 C118.337348,104.419967 120.217996,97.079374 120.946,88.95 L93.282,88.95 C92.1899945,97.6860437 89.1870246,104.723307 84.273,110.062 C79.3589754,115.400693 72.5340437,118.07 63.798,118.07 C57.3673012,118.07 51.9073558,116.826346 47.418,114.339 C42.9286442,111.851654 39.2886806,108.545354 36.498,104.42 C33.7073194,100.294646 31.6750064,95.6536924 30.401,90.497 C29.1269936,85.3403076 28.49,80.0320273 28.49,74.572 C28.49,68.8693048 29.1269936,63.3486934 30.401,58.01 C31.6750064,52.6713066 33.7073194,47.9090209 36.498,43.723 C39.2886806,39.5369791 42.9286442,36.2003458 47.418,33.713 C51.9073558,31.2256542 57.3673012,29.982 63.798,29.982 C67.3166843,29.982 70.6836506,30.5583276 73.899,31.711 C77.1143494,32.8636724 79.9959873,34.471323 82.544,36.534 C85.0920127,38.596677 87.2153248,40.9929864 88.914,43.723 C90.6126752,46.4530137 91.7046642,49.4559836 92.19,52.732 L92.19,52.732 Z" id="Path" sketch:type="MSShapeGroup"></path>
            <path d="M118.219999,9.052 L118.219999,139 L146.793999,139 L146.793999,88.222 L175.367999,88.222 C182.526702,88.222 187.683317,89.7993176 190.837999,92.954 C193.992682,96.1086824 196.055328,101.083299 197.025999,107.878 C197.754003,113.095359 198.299997,118.555305 198.663999,124.258 C199.028001,129.960695 199.998658,134.874646 201.575999,139 L230.149999,139 C228.815326,137.179991 227.814336,134.96568 227.146999,132.357 C226.479663,129.74832 225.994334,126.988015 225.690999,124.076 C225.387664,121.163985 225.175333,118.312681 225.053999,115.522 C224.932665,112.731319 224.811333,110.304677 224.689999,108.242 C224.447331,104.965984 223.992336,101.690016 223.324999,98.414 C222.657663,95.1379836 221.596007,92.1350137 220.139999,89.405 C218.683992,86.6749863 216.803344,84.30901 214.497999,82.307 C212.192654,80.30499 209.280683,78.8186715 205.761999,77.848 L205.761999,77.484 C213.042036,74.5719854 218.28965,70.3253612 221.504999,64.744 C224.720349,59.1626388 226.327999,52.5500382 226.327999,44.906 C226.327999,39.9313085 225.448341,35.2903549 223.688999,30.983 C221.929657,26.6756451 219.381683,22.8840164 216.044999,19.608 C212.708316,16.3319836 208.704356,13.7536761 204.032999,11.873 C199.361643,9.99232393 194.114028,9.052 188.289999,9.052 L118.219999,9.052 Z M146.793999,67.838 L146.793999,31.256 L178.097999,31.256 C184.650032,31.256 189.563983,32.6816524 192.839999,35.533 C196.116016,38.3843476 197.753999,42.9646351 197.753999,49.274 C197.753999,55.8260328 196.116016,60.5579854 192.839999,63.47 C189.563983,66.3820146 184.650032,67.838 178.097999,67.838 L146.793999,67.838 Z" id="Path" sketch:type="MSShapeGroup"></path>
            <path d="M262.913998,9.052 L213.773998,139 L242.529998,139 L252.721998,110.062 L301.315998,110.062 L311.143998,139 L340.809998,139 L292.215998,9.052 L262.913998,9.052 Z M260.183998,88.768 L277.109998,41.084 L277.473998,41.084 L293.853998,88.768 L260.183998,88.768 Z" id="Path" sketch:type="MSShapeGroup"></path>
            <path d="M349.367998,95.866 L321.703998,95.866 C321.582664,103.87404 323.038649,110.789971 326.071998,116.614 C329.105346,122.438029 333.200305,127.230648 338.356998,130.992 C343.51369,134.753352 349.458964,137.513658 356.192998,139.273 C362.927031,141.032342 369.873295,141.912 377.031998,141.912 C385.889375,141.912 393.684964,140.880677 400.418998,138.818 C407.153031,136.755323 412.794975,133.873685 417.344998,130.173 C421.89502,126.472315 425.322653,122.074025 427.627998,116.978 C429.933343,111.881975 431.085998,106.361363 431.085998,100.416 C431.085998,93.1359636 429.539013,87.1603567 426.444998,82.489 C423.350982,77.8176433 419.680686,74.0866806 415.433998,71.296 C411.18731,68.5053194 406.910353,66.4730064 402.602998,65.199 C398.295643,63.9249936 394.928677,63.0453358 392.501998,62.56 C384.372624,60.497323 377.790356,58.7986733 372.754998,57.464 C367.719639,56.1293267 363.776345,54.7946733 360.924998,53.46 C358.07365,52.1253267 356.162669,50.6693412 355.191998,49.092 C354.221326,47.5146588 353.735998,45.4520127 353.735998,42.904 C353.735998,40.1133194 354.342658,37.8080091 355.555998,35.988 C356.769337,34.1679909 358.316322,32.6513394 360.196998,31.438 C362.077674,30.2246606 364.170653,29.3753358 366.475998,28.89 C368.781343,28.4046642 371.086653,28.162 373.391998,28.162 C376.910682,28.162 380.156316,28.4653303 383.128998,29.072 C386.101679,29.6786697 388.740653,30.7099927 391.045998,32.166 C393.351343,33.6220073 395.201657,35.6239873 396.596998,38.172 C397.992338,40.7200127 398.81133,43.9353139 399.053998,47.818 L426.717998,47.818 C426.717998,40.2952957 425.292345,33.8950264 422.440998,28.617 C419.58965,23.3389736 415.737355,19.0013503 410.883998,15.604 C406.03064,12.2066497 400.479696,9.74967425 394.230998,8.233 C387.9823,6.71632575 381.460698,5.958 374.665998,5.958 C368.841969,5.958 363.018027,6.74665878 357.193998,8.324 C351.369969,9.90134122 346.152687,12.3279836 341.541998,15.604 C336.931308,18.8800164 333.200345,22.9749754 330.348998,27.889 C327.49765,32.8030246 326.071998,38.5966333 326.071998,45.27 C326.071998,51.2153631 327.19432,56.2809791 329.438998,60.467 C331.683676,64.6530209 334.62598,68.1413194 338.265998,70.932 C341.906016,73.7226806 346.031308,75.9976579 350.641998,77.757 C355.252687,79.5163421 359.98464,81.0026606 364.837998,82.216 C369.570021,83.5506733 374.241308,84.7639945 378.851998,85.856 C383.462687,86.9480055 387.58798,88.2219927 391.227998,89.678 C394.868016,91.1340073 397.81032,92.9539891 400.054998,95.138 C402.299676,97.3220109 403.421998,100.173316 403.421998,103.692 C403.421998,106.968016 402.572673,109.667656 400.873998,111.791 C399.175323,113.914344 397.05201,115.582661 394.503998,116.796 C391.955985,118.009339 389.226012,118.828331 386.313998,119.253 C383.401983,119.677669 380.67201,119.89 378.123998,119.89 C374.362646,119.89 370.722682,119.435005 367.203998,118.525 C363.685313,117.614995 360.621677,116.219676 358.012998,114.339 C355.404318,112.458324 353.311339,110.001349 351.733998,106.968 C350.156656,103.934651 349.367998,100.234022 349.367998,95.866 L349.367998,95.866 Z" id="Path" sketch:type="MSShapeGroup"></path>
            <path d="M425.811997,9.052 L425.811997,139 L454.385997,139 L454.385997,82.944 L506.983997,82.944 L506.983997,139 L535.557997,139 L535.557997,9.052 L506.983997,9.052 L506.983997,58.92 L454.385997,58.92 L454.385997,9.052 L425.811997,9.052 Z" id="Path" sketch:type="MSShapeGroup"></path>
        </g>
    </g>
</svg>